<?xml version="1.0" encoding="utf-8"?>
<!-- Generator: Adobe Illustrator 22.0.1, SVG Export Plug-In . SVG Version: 6.00 Build 0)  -->
<svg version="1.1" id="Layer_1" xmlns="http://www.w3.org/2000/svg" xmlns:xlink="http://www.w3.org/1999/xlink" x="0px" y="0px"
	 viewBox="0 0 1443.1 828.9" style="enable-background:new 0 0 1443.1 828.9;" xml:space="preserve">
<style type="text/css">
	.st0{fill:none;stroke:#B64026;stroke-width:3;stroke-miterlimit:10;}
	.st1{fill:#FFFFFF;}
	.st2{fill:#BE965F;}
	.st3{stroke:#B64026;stroke-miterlimit:10;}
	.st4{fill:none;stroke:#B64026;stroke-miterlimit:10;}
	.st5{fill:#B64026;}
	.st6{fill:#D3A69F;}
	.st7{fill:none;stroke:#BE965F;stroke-miterlimit:10;}
	.st8{fill:none;stroke:#D3A69F;stroke-width:2;stroke-miterlimit:10;}
</style>
<line class="st0" x1="145.2" y1="549.8" x2="159.8" y2="577.6"/>
<ellipse class="st1" cx="679.8" cy="350.9" rx="177" ry="177.2"/>
<ellipse class="st2" cx="778.7" cy="207.1" rx="20" ry="20.5"/>
<rect x="159.1" y="490.4" class="st3" width="189.7" height="98.7"/>
<rect x="184.5" y="489.7" class="st0" width="146.5" height="98.7"/>
<rect x="349.5" y="469.6" class="st4" width="29.3" height="104.8"/>
<rect x="130.5" y="495.8" class="st4" width="29.3" height="54"/>
<path class="st3" d="M147.2,553.5c0,0-13.2,4.8-13,10.2l-33.7,47l7.7,3.1l32.4-44.7C140.5,569.1,147.6,561.1,147.2,553.5z"/>
<polygon class="st3" points="85.1,635.4 102.7,611.6 108.2,613.8 89.7,638.4 "/>
<path class="st3" d="M68.3,632.5h33.6C101.8,632.5,84.7,652.5,68.3,632.5z"/>
<polygon class="st3" points="253.9,567.1 263.1,566.7 263.1,628 253.9,628 "/>
<rect x="254.7" y="627.7" class="st3" width="7.7" height="33.9"/>
<polygon class="st3" points="116.9,601.8 159.1,589.1 159.8,583.7 120.1,597.4 "/>
<path class="st3" d="M365.8,550.5c0,0,13.2,4.8,13,10.2l33.7,47l-7.7,3.1L372.4,566C372.4,566,365.4,558.1,365.8,550.5z"/>
<polygon class="st3" points="427.9,632.3 410.3,608.5 404.8,610.7 423.3,635.4 "/>
<path class="st3" d="M444.8,628h-33.6C411.3,628,428.5,648.1,444.8,628z"/>
<polygon class="st3" points="396.1,598.7 353.9,586 353.1,580.6 392.9,594.3 "/>
<ellipse class="st4" cx="171.5" cy="477" rx="12.3" ry="13.1"/>
<ellipse class="st3" cx="258.5" cy="664.7" rx="21.6" ry="3.8"/>
<rect x="197" y="491" class="st4" width="123" height="59"/>
<rect x="228" y="550" class="st3" width="56" height="28"/>
<ellipse class="st5" cx="571.3" cy="492.7" rx="20" ry="20.5"/>
<g>
	<path class="st5" d="M78.1,327.8c1.5-1.5,3.4-2.3,5.8-2.3c3.1,0,5.4,1,6.8,3.1c0.8,1.2,1.2,2.3,1.3,3.5h-3.9c-0.2-0.9-0.6-1.6-1-2
		c-0.7-0.8-1.7-1.2-3.1-1.2s-2.5,0.6-3.3,1.7s-1.2,2.8-1.2,4.9s0.4,3.7,1.3,4.7c0.8,1,1.9,1.6,3.2,1.6c1.3,0,2.4-0.4,3.1-1.3
		c0.4-0.5,0.7-1.2,1-2.2H92c-0.3,2-1.2,3.7-2.6,5s-3.1,1.9-5.3,1.9c-2.7,0-4.8-0.9-6.3-2.6s-2.3-4.1-2.3-7.1
		C75.5,332.1,76.4,329.5,78.1,327.8z"/>
	<path class="st5" d="M104.7,330.8c0.7,0.3,1.3,0.8,1.7,1.4c0.4,0.5,0.6,1,0.7,1.6c0.1,0.5,0.1,1.4,0.1,2.7v8.1h-3.7v-8.4
		c0-0.7-0.1-1.3-0.4-1.8c-0.3-0.6-0.9-1-1.9-1c-0.9,0-1.7,0.3-2.2,1c-0.5,0.6-0.7,1.6-0.7,2.7v7.5h-3.6V326h3.6v6.6
		c0.5-0.8,1.1-1.4,1.8-1.7c0.7-0.3,1.4-0.5,2.2-0.5C103.3,330.3,104,330.5,104.7,330.8z"/>
	<path class="st5" d="M116.2,336.1c0.7-0.1,1.2-0.2,1.4-0.3c0.5-0.2,0.8-0.6,0.8-1c0-0.6-0.2-1-0.6-1.2s-1-0.3-1.8-0.3
		c-0.9,0-1.5,0.2-1.8,0.6c-0.3,0.3-0.4,0.7-0.5,1.3h-3.5c0.1-1.2,0.4-2.2,1-3c1-1.2,2.6-1.8,4.9-1.8c1.5,0,2.9,0.3,4.1,0.9
		s1.8,1.7,1.8,3.4v6.3c0,0.4,0,1,0,1.6c0,0.5,0.1,0.8,0.2,1s0.3,0.3,0.5,0.4v0.5h-3.9c-0.1-0.3-0.2-0.5-0.2-0.8s-0.1-0.5-0.1-0.8
		c-0.5,0.5-1.1,1-1.7,1.4c-0.8,0.4-1.7,0.7-2.7,0.7c-1.3,0-2.3-0.4-3.1-1.1c-0.8-0.7-1.2-1.7-1.2-3c0-1.7,0.7-2.9,2-3.7
		c0.7-0.4,1.8-0.7,3.2-0.9L116.2,336.1z M118.4,337.8c-0.2,0.1-0.5,0.3-0.7,0.3c-0.2,0.1-0.6,0.2-1,0.2l-0.8,0.2
		c-0.8,0.1-1.3,0.3-1.7,0.5c-0.6,0.3-0.9,0.8-0.9,1.5c0,0.6,0.2,1.1,0.5,1.3c0.3,0.3,0.8,0.4,1.3,0.4c0.8,0,1.5-0.2,2.2-0.7
		s1-1.3,1-2.5L118.4,337.8L118.4,337.8z"/>
	<path class="st5" d="M136.3,331.5c0.9,0.8,1.4,2,1.4,3.7v9.3H134v-8.4c0-0.7-0.1-1.3-0.3-1.7c-0.4-0.7-1-1.1-2-1.1
		c-1.2,0-2.1,0.5-2.5,1.6c-0.2,0.5-0.4,1.3-0.4,2.1v7.5h-3.6v-13.8h3.5v2c0.5-0.7,0.9-1.2,1.3-1.5c0.7-0.6,1.7-0.8,2.8-0.8
		C134.2,330.4,135.4,330.7,136.3,331.5z"/>
	<path class="st5" d="M147.9,330.7c0.9,0.4,1.6,1,2.1,2v-2h3.5v13.1c0,1.8-0.3,3.1-0.9,4c-1,1.6-3,2.3-5.9,2.3c-1.8,0-3.2-0.3-4.3-1
		s-1.7-1.7-1.9-3.1h3.9c0.1,0.4,0.3,0.7,0.5,0.9c0.4,0.3,1,0.5,2,0.5c1.3,0,2.2-0.4,2.6-1.3c0.3-0.6,0.4-1.5,0.4-2.8v-0.9
		c-0.3,0.6-0.7,1-1.1,1.3c-0.7,0.5-1.7,0.8-2.8,0.8c-1.8,0-3.2-0.6-4.3-1.9c-1.1-1.2-1.6-2.9-1.6-5.1c0-2.1,0.5-3.8,1.5-5.2
		c1-1.4,2.5-2.1,4.3-2.1C146.7,330.4,147.3,330.5,147.9,330.7z M149.1,340.6c0.6-0.6,0.9-1.7,0.9-3.1c0-1.3-0.3-2.3-0.8-3
		c-0.6-0.7-1.3-1-2.2-1c-1.3,0-2.1,0.6-2.6,1.8c-0.3,0.6-0.4,1.4-0.4,2.3c0,0.8,0.1,1.5,0.4,2.1c0.5,1.2,1.4,1.8,2.6,1.8
		C147.8,341.6,148.5,341.2,149.1,340.6z"/>
	<path class="st5" d="M156.9,331.7c0.9-0.3,1.5-0.7,1.8-1.3c0.2-0.4,0.3-0.7,0.2-1.1h-2.1V326h3.7v2.7c0,1.3-0.3,2.3-1,3
		c-0.6,0.7-1.5,1.2-2.7,1.4v-1.4H156.9z"/>
	<path class="st5" d="M173.1,331c1,0.4,1.8,1.1,2.4,2c0.6,0.8,0.9,1.8,1.1,2.9c0.1,0.6,0.1,1.6,0.1,2.7h-10.1
		c0.1,1.4,0.5,2.4,1.4,2.9c0.6,0.3,1.2,0.5,2,0.5s1.5-0.2,2-0.6c0.3-0.2,0.5-0.5,0.7-1h3.7c-0.1,0.8-0.5,1.7-1.3,2.5
		c-1.2,1.3-3,2-5.2,2c-1.8,0-3.5-0.6-4.9-1.7s-2.1-3-2.1-5.5c0-2.4,0.6-4.2,1.9-5.5c1.3-1.3,2.9-1.9,4.9-1.9
		C171.1,330.3,172.2,330.5,173.1,331z M167.7,334.1c-0.5,0.5-0.8,1.2-1,2.1h6.2c-0.1-1-0.4-1.7-1-2.2s-1.3-0.7-2.1-0.7
		C169,333.3,168.2,333.6,167.7,334.1z"/>
	<path class="st5" d="M197.7,340.6h-2.1v4h-3.5v-4h-7.3v-3.2l6.8-11.2h4.1v11.5h2.1v2.9H197.7z M192.1,337.7v-7.9l-4.6,7.9H192.1z"
		/>
</g>
<g>
	<path class="st5" d="M77,382.8h12v2.1h-9.6v5.2h8.4v2.1h-8.4v7.8H77V382.8z"/>
	<path class="st5" d="M93.3,387.4v8.3c0,0.6,0.1,1.2,0.3,1.6c0.4,0.8,1.1,1.1,2.1,1.1c1.5,0,2.5-0.7,3-2c0.3-0.7,0.4-1.7,0.4-2.9
		v-6.2h2.1V400h-2v-1.9c-0.3,0.5-0.6,0.9-1,1.2c-0.8,0.7-1.8,1-2.9,1c-1.8,0-3-0.6-3.7-1.8c-0.4-0.6-0.5-1.5-0.5-2.6v-8.5
		L93.3,387.4L93.3,387.4z"/>
	<path class="st5" d="M112.4,387.8c0.8,0.4,1.5,1,1.9,1.6s0.7,1.4,0.8,2.2c0.1,0.6,0.2,1.5,0.2,2.8h-9.2c0,1.3,0.3,2.3,0.9,3.1
		s1.4,1.2,2.6,1.2c1.1,0,2-0.4,2.6-1.1c0.4-0.4,0.6-0.9,0.8-1.5h2.1c-0.1,0.5-0.2,1-0.5,1.5s-0.7,1-1,1.4c-0.6,0.6-1.4,1-2.4,1.3
		c-0.5,0.1-1.1,0.2-1.7,0.2c-1.6,0-2.9-0.6-4-1.7s-1.6-2.7-1.6-4.8c0-2,0.5-3.7,1.6-4.9s2.5-1.9,4.3-1.9
		C110.7,387.1,111.5,387.3,112.4,387.8z M113.1,392.7c-0.1-0.9-0.3-1.6-0.6-2.2c-0.6-1-1.5-1.5-2.9-1.5c-1,0-1.8,0.3-2.4,1
		s-1,1.6-1,2.7H113.1z"/>
	<path class="st5" d="M132.4,387.8c0.8,0.4,1.5,1,1.9,1.6s0.7,1.4,0.8,2.2c0.1,0.6,0.2,1.5,0.2,2.8h-9.2c0,1.3,0.3,2.3,0.9,3.1
		s1.4,1.2,2.6,1.2c1.1,0,2-0.4,2.6-1.1c0.4-0.4,0.6-0.9,0.8-1.5h2.1c-0.1,0.5-0.2,1-0.5,1.5s-0.7,1-1,1.4c-0.6,0.6-1.4,1-2.4,1.3
		c-0.5,0.1-1.1,0.2-1.7,0.2c-1.6,0-2.9-0.6-4-1.7s-1.6-2.7-1.6-4.8c0-2,0.5-3.7,1.6-4.9s2.5-1.9,4.3-1.9
		C130.7,387.1,131.5,387.3,132.4,387.8z M133.2,392.7c-0.1-0.9-0.3-1.6-0.6-2.2c-0.6-1-1.5-1.5-2.9-1.5c-1,0-1.8,0.3-2.4,1
		s-1,1.6-1,2.7H133.2z"/>
	<path class="st5" d="M138,382.8h2.1V400H138V382.8z"/>
	<path class="st5" d="M149.7,387.5h2.1v1.7c0.4-0.6,0.9-1,1.4-1.3c0.7-0.5,1.5-0.7,2.5-0.7c1.4,0,2.6,0.5,3.6,1.6s1.5,2.6,1.5,4.7
		c0,2.7-0.7,4.7-2.1,5.9c-0.9,0.7-2,1.1-3.2,1.1c-0.9,0-1.7-0.2-2.4-0.6c-0.4-0.2-0.8-0.6-1.3-1.2v6.4h-2.1V387.5z M157.7,397.3
		c0.7-0.8,1-2.1,1-3.7c0-1-0.1-1.9-0.4-2.6c-0.5-1.4-1.5-2.1-3-2.1s-2.5,0.7-3,2.2c-0.3,0.8-0.4,1.8-0.4,3c0,1,0.1,1.8,0.4,2.5
		c0.5,1.3,1.5,1.9,3,1.9C156.2,398.5,157,398.1,157.7,397.3z"/>
	<path class="st5" d="M163.3,387.4h2v2.2c0.2-0.4,0.6-0.9,1.2-1.5s1.4-0.9,2.2-0.9c0,0,0.1,0,0.2,0s0.3,0,0.5,0v2.2
		c-0.1,0-0.2,0-0.3,0s-0.2,0-0.3,0c-1.1,0-1.9,0.3-2.4,1s-0.9,1.5-0.9,2.4v7.2h-2.1L163.3,387.4L163.3,387.4z"/>
	<path class="st5" d="M171.3,382.8h2.1v2.4h-2.1V382.8z M171.3,387.5h2.1V400h-2.1V387.5z"/>
	<path class="st5" d="M176.6,387.4h2.1v1.8c0.5-0.6,1-1.1,1.4-1.3c0.7-0.5,1.5-0.7,2.4-0.7c1,0,1.8,0.2,2.4,0.7
		c0.3,0.3,0.7,0.7,0.9,1.2c0.5-0.7,1-1.2,1.7-1.5s1.3-0.5,2.1-0.5c1.7,0,2.8,0.6,3.4,1.8c0.3,0.7,0.5,1.5,0.5,2.6v8.4h-2.2v-8.7
		c0-0.8-0.2-1.4-0.6-1.7s-0.9-0.5-1.5-0.5c-0.8,0-1.5,0.3-2.1,0.8s-0.9,1.5-0.9,2.8v7.3h-2.1v-8.2c0-0.9-0.1-1.5-0.3-1.9
		c-0.3-0.6-0.9-0.9-1.8-0.9c-0.8,0-1.5,0.3-2.2,0.9s-1,1.7-1,3.4v6.7h-2.1L176.6,387.4L176.6,387.4z"/>
	<path class="st5" d="M204.4,387.8c0.8,0.4,1.5,1,1.9,1.6s0.7,1.4,0.8,2.2c0.1,0.6,0.2,1.5,0.2,2.8h-9.2c0,1.3,0.3,2.3,0.9,3.1
		s1.4,1.2,2.6,1.2c1.1,0,2-0.4,2.6-1.1c0.4-0.4,0.6-0.9,0.8-1.5h2.1c-0.1,0.5-0.2,1-0.5,1.5s-0.7,1-1,1.4c-0.6,0.6-1.4,1-2.4,1.3
		c-0.5,0.1-1.1,0.2-1.7,0.2c-1.6,0-2.9-0.6-4-1.7s-1.6-2.7-1.6-4.8c0-2,0.5-3.7,1.6-4.9s2.5-1.9,4.3-1.9
		C202.7,387.1,203.6,387.3,204.4,387.8z M205.2,392.7c-0.1-0.9-0.3-1.6-0.6-2.2c-0.6-1-1.5-1.5-2.9-1.5c-1,0-1.8,0.3-2.4,1
		s-1,1.6-1,2.7H205.2z"/>
	<path class="st5" d="M210,387.4h2v2.2c0.2-0.4,0.6-0.9,1.2-1.5s1.4-0.9,2.2-0.9c0,0,0.1,0,0.2,0s0.3,0,0.5,0v2.2
		c-0.1,0-0.2,0-0.3,0s-0.2,0-0.3,0c-1.1,0-1.9,0.3-2.4,1s-0.9,1.5-0.9,2.4v7.2H210V387.4z"/>
	<path class="st5" d="M224.6,382.8h2.1v2.4h-2.1V382.8z M224.6,387.5h2.1V400h-2.1V387.5z"/>
	<path class="st5" d="M229.9,387.4h2v1.8c0.6-0.7,1.2-1.3,1.9-1.6s1.4-0.5,2.2-0.5c1.8,0,3,0.6,3.6,1.9c0.3,0.7,0.5,1.7,0.5,2.9v8.1
		H238v-7.9c0-0.8-0.1-1.4-0.3-1.9c-0.4-0.8-1.1-1.2-2-1.2c-0.5,0-0.9,0.1-1.2,0.2c-0.6,0.2-1.1,0.5-1.5,1c-0.4,0.4-0.6,0.8-0.7,1.3
		s-0.2,1.1-0.2,1.9v6.6H230v-12.6H229.9z"/>
	<path class="st5" d="M244.5,396c0.1,0.7,0.2,1.2,0.5,1.6c0.5,0.7,1.5,1,2.8,1c0.8,0,1.5-0.2,2.1-0.5s0.9-0.9,0.9-1.6
		c0-0.5-0.2-0.9-0.7-1.2c-0.3-0.2-0.9-0.4-1.8-0.6l-1.7-0.4c-1.1-0.3-1.9-0.6-2.4-0.9c-0.9-0.6-1.4-1.4-1.4-2.4
		c0-1.2,0.4-2.1,1.3-2.9s2-1.1,3.5-1.1c1.9,0,3.3,0.6,4.1,1.7c0.5,0.7,0.8,1.5,0.8,2.3h-2c0-0.5-0.2-0.9-0.5-1.3
		c-0.5-0.6-1.3-0.8-2.5-0.8c-0.8,0-1.4,0.2-1.8,0.5s-0.6,0.7-0.6,1.2s0.3,1,0.8,1.3c0.3,0.2,0.8,0.4,1.4,0.5l1.4,0.3
		c1.5,0.4,2.5,0.7,3,1.1c0.8,0.5,1.2,1.4,1.2,2.5s-0.4,2.1-1.3,2.9s-2.1,1.2-3.9,1.2c-1.9,0-3.2-0.4-4-1.3s-1.2-1.9-1.2-3.1
		L244.5,396L244.5,396z"/>
	<path class="st5" d="M255.7,383.9h2.1v3.5h2v1.7h-2v8.2c0,0.4,0.1,0.7,0.4,0.9c0.2,0.1,0.4,0.1,0.8,0.1c0.1,0,0.2,0,0.3,0
		s0.3,0,0.4,0v1.7c-0.2,0.1-0.5,0.1-0.8,0.2s-0.5,0-0.8,0c-1,0-1.7-0.3-2-0.8c-0.4-0.5-0.5-1.2-0.5-2v-8.3H254v-1.7h1.7V383.9z"/>
	<path class="st5" d="M262,387.4h2v2.2c0.2-0.4,0.6-0.9,1.2-1.5s1.4-0.9,2.2-0.9c0,0,0.1,0,0.2,0s0.3,0,0.5,0v2.2
		c-0.1,0-0.2,0-0.3,0s-0.2,0-0.3,0c-1.1,0-1.9,0.3-2.4,1s-0.9,1.5-0.9,2.4v7.2H262V387.4z"/>
	<path class="st5" d="M272,387.4v8.3c0,0.6,0.1,1.2,0.3,1.6c0.4,0.8,1.1,1.1,2.1,1.1c1.5,0,2.5-0.7,3-2c0.3-0.7,0.4-1.7,0.4-2.9
		v-6.2h2.1V400h-2v-1.9c-0.3,0.5-0.6,0.9-1,1.2c-0.8,0.7-1.8,1-2.9,1c-1.8,0-3-0.6-3.7-1.8c-0.4-0.6-0.5-1.5-0.5-2.6v-8.5L272,387.4
		L272,387.4z"/>
	<path class="st5" d="M283.3,387.4h2.1v1.8c0.5-0.6,1-1.1,1.4-1.3c0.7-0.5,1.5-0.7,2.4-0.7c1,0,1.8,0.2,2.4,0.7
		c0.3,0.3,0.7,0.7,0.9,1.2c0.5-0.7,1-1.2,1.7-1.5s1.3-0.5,2.1-0.5c1.7,0,2.8,0.6,3.4,1.8c0.3,0.7,0.5,1.5,0.5,2.6v8.4H298v-8.7
		c0-0.8-0.2-1.4-0.6-1.7s-0.9-0.5-1.5-0.5c-0.8,0-1.5,0.3-2.1,0.8s-0.9,1.5-0.9,2.8v7.3h-2.1v-8.2c0-0.9-0.1-1.5-0.3-1.9
		c-0.3-0.6-0.9-0.9-1.8-0.9c-0.8,0-1.5,0.3-2.2,0.9s-1,1.7-1,3.4v6.7h-2.1v-12.5H283.3z"/>
	<path class="st5" d="M311.1,387.8c0.8,0.4,1.5,1,1.9,1.6s0.7,1.4,0.8,2.2c0.1,0.6,0.2,1.5,0.2,2.8h-9.2c0,1.3,0.3,2.3,0.9,3.1
		s1.4,1.2,2.6,1.2c1.1,0,2-0.4,2.6-1.1c0.4-0.4,0.6-0.9,0.8-1.5h2.1c-0.1,0.5-0.2,1-0.5,1.5s-0.7,1-1,1.4c-0.6,0.6-1.4,1-2.4,1.3
		c-0.5,0.1-1.1,0.2-1.7,0.2c-1.6,0-2.9-0.6-4-1.7s-1.6-2.7-1.6-4.8c0-2,0.5-3.7,1.6-4.9s2.5-1.9,4.3-1.9
		C309.4,387.1,310.2,387.3,311.1,387.8z M311.9,392.7c-0.1-0.9-0.3-1.6-0.6-2.2c-0.6-1-1.5-1.5-2.9-1.5c-1,0-1.8,0.3-2.4,1
		s-1,1.6-1,2.7H311.9z"/>
	<path class="st5" d="M316.6,387.4h2v1.8c0.6-0.7,1.2-1.3,1.9-1.6s1.4-0.5,2.2-0.5c1.8,0,3,0.6,3.6,1.9c0.3,0.7,0.5,1.7,0.5,2.9v8.1
		h-2.1v-7.9c0-0.8-0.1-1.4-0.3-1.9c-0.4-0.8-1.1-1.2-2-1.2c-0.5,0-0.9,0.1-1.2,0.2c-0.6,0.2-1.1,0.5-1.5,1c-0.4,0.4-0.6,0.8-0.7,1.3
		s-0.2,1.1-0.2,1.9v6.6h-2.1L316.6,387.4L316.6,387.4z"/>
	<path class="st5" d="M330.4,383.9h2.1v3.5h2v1.7h-2v8.2c0,0.4,0.1,0.7,0.4,0.9c0.2,0.1,0.4,0.1,0.8,0.1c0.1,0,0.2,0,0.3,0
		s0.3,0,0.4,0v1.7c-0.2,0.1-0.5,0.1-0.8,0.2s-0.5,0-0.8,0c-1,0-1.7-0.3-2-0.8s-0.5-1.2-0.5-2v-8.3h-1.7v-1.7h1.7v-3.5H330.4z"/>
	<path class="st5" d="M345.8,388.7c1.1,1.1,1.7,2.7,1.7,4.8c0,2-0.5,3.7-1.5,5s-2.5,2-4.6,2c-1.7,0-3.1-0.6-4.1-1.8
		s-1.5-2.7-1.5-4.7c0-2.1,0.5-3.8,1.6-5s2.5-1.9,4.3-1.9C343.3,387.1,344.7,387.6,345.8,388.7z M344.5,397c0.5-1.1,0.8-2.2,0.8-3.5
		c0-1.2-0.2-2.1-0.6-2.9c-0.6-1.2-1.6-1.7-3.1-1.7c-1.3,0-2.2,0.5-2.8,1.5s-0.9,2.2-0.9,3.6c0,1.3,0.3,2.4,0.9,3.3s1.5,1.3,2.8,1.3
		C343,398.6,344,398.1,344.5,397z"/>
	<path class="st5" d="M356.6,382.7h2.1v6.4c0.5-0.6,0.9-1.1,1.3-1.3c0.7-0.4,1.5-0.7,2.5-0.7c1.8,0,3.1,0.6,3.7,1.9
		c0.4,0.7,0.5,1.7,0.5,2.9v8.1h-2.2v-7.9c0-0.9-0.1-1.6-0.4-2c-0.4-0.7-1.1-1-2.2-1c-0.9,0-1.7,0.3-2.4,0.9s-1.1,1.7-1.1,3.4v6.7
		h-2.1v-17.4H356.6z"/>
	<path class="st5" d="M372.1,387.4v8.3c0,0.6,0.1,1.2,0.3,1.6c0.4,0.8,1.1,1.1,2.1,1.1c1.5,0,2.5-0.7,3-2c0.3-0.7,0.4-1.7,0.4-2.9
		v-6.2h2.1V400h-2v-1.9c-0.3,0.5-0.6,0.9-1,1.2c-0.8,0.7-1.8,1-2.9,1c-1.8,0-3-0.6-3.7-1.8c-0.4-0.6-0.5-1.5-0.5-2.6v-8.5
		L372.1,387.4L372.1,387.4z"/>
	<path class="st5" d="M383.3,387.4h2.1v1.8c0.5-0.6,1-1.1,1.4-1.3c0.7-0.5,1.5-0.7,2.4-0.7c1,0,1.8,0.2,2.4,0.7
		c0.3,0.3,0.7,0.7,0.9,1.2c0.5-0.7,1-1.2,1.7-1.5s1.3-0.5,2.1-0.5c1.7,0,2.8,0.6,3.4,1.8c0.3,0.7,0.5,1.5,0.5,2.6v8.4H398v-8.7
		c0-0.8-0.2-1.4-0.6-1.7s-0.9-0.5-1.5-0.5c-0.8,0-1.5,0.3-2.1,0.8s-0.9,1.5-0.9,2.8v7.3h-2.1v-8.2c0-0.9-0.1-1.5-0.3-1.9
		c-0.3-0.6-0.9-0.9-1.8-0.9c-0.8,0-1.5,0.3-2.2,0.9s-1,1.7-1,3.4v6.7h-2.1v-12.5H383.3z"/>
	<path class="st5" d="M410.1,392.4c0.5-0.1,0.8-0.3,1-0.6c0.1-0.2,0.1-0.5,0.1-0.8c0-0.7-0.3-1.2-0.8-1.6s-1.2-0.5-2.2-0.5
		c-1.1,0-1.9,0.3-2.3,0.9c-0.3,0.3-0.4,0.8-0.5,1.5h-2c0-1.5,0.5-2.6,1.5-3.2s2.1-0.9,3.4-0.9c1.5,0,2.7,0.3,3.6,0.8
		c0.9,0.6,1.4,1.4,1.4,2.6v7.2c0,0.2,0,0.4,0.1,0.5s0.3,0.2,0.6,0.2c0.1,0,0.2,0,0.3,0s0.2,0,0.4-0.1v1.6c-0.3,0.1-0.6,0.2-0.8,0.2
		s-0.4,0-0.7,0c-0.7,0-1.3-0.3-1.6-0.8c-0.2-0.3-0.3-0.7-0.4-1.2c-0.4,0.6-1,1.1-1.9,1.5s-1.7,0.6-2.7,0.6c-1.2,0-2.1-0.4-2.9-1.1
		s-1.1-1.6-1.1-2.7c0-1.2,0.4-2.1,1.1-2.7s1.7-1,2.9-1.2L410.1,392.4z M405.6,398.1c0.4,0.4,1,0.5,1.6,0.5c0.7,0,1.5-0.2,2.2-0.5
		c1.2-0.6,1.8-1.5,1.8-2.8v-1.7c-0.3,0.2-0.6,0.3-1,0.4s-0.8,0.2-1.2,0.2l-1.3,0.2c-0.8,0.1-1.3,0.3-1.7,0.5c-0.6,0.4-1,1-1,1.8
		C404.9,397.2,405.2,397.7,405.6,398.1z"/>
	<path class="st5" d="M416.7,387.4h2v1.8c0.6-0.7,1.2-1.3,1.9-1.6s1.4-0.5,2.2-0.5c1.8,0,3,0.6,3.6,1.9c0.3,0.7,0.5,1.7,0.5,2.9v8.1
		h-2.1v-7.9c0-0.8-0.1-1.4-0.3-1.9c-0.4-0.8-1.1-1.2-2-1.2c-0.5,0-0.9,0.1-1.2,0.2c-0.6,0.2-1.1,0.5-1.5,1c-0.4,0.4-0.6,0.8-0.7,1.3
		s-0.2,1.1-0.2,1.9v6.6h-2.1L416.7,387.4L416.7,387.4z"/>
	<path class="st5" d="M439.2,388.7c1.1,1.1,1.7,2.7,1.7,4.8c0,2-0.5,3.7-1.5,5s-2.5,2-4.6,2c-1.7,0-3.1-0.6-4.1-1.8
		s-1.5-2.7-1.5-4.7c0-2.1,0.5-3.8,1.6-5s2.5-1.9,4.3-1.9C436.7,387.1,438.1,387.6,439.2,388.7z M437.9,397c0.5-1.1,0.8-2.2,0.8-3.5
		c0-1.2-0.2-2.1-0.6-2.9c-0.6-1.2-1.6-1.7-3.1-1.7c-1.3,0-2.2,0.5-2.8,1.5s-0.9,2.2-0.9,3.6c0,1.3,0.3,2.4,0.9,3.3s1.5,1.3,2.8,1.3
		C436.4,398.6,437.4,398.1,437.9,397z"/>
	<path class="st5" d="M457.9,387.8c0.8,0.4,1.5,1,1.9,1.6s0.7,1.4,0.8,2.2c0.1,0.6,0.2,1.5,0.2,2.8h-9.2c0,1.3,0.3,2.3,0.9,3.1
		s1.4,1.2,2.6,1.2c1.1,0,2-0.4,2.6-1.1c0.4-0.4,0.6-0.9,0.8-1.5h2.1c-0.1,0.5-0.2,1-0.5,1.5s-0.7,1-1,1.4c-0.6,0.6-1.4,1-2.4,1.3
		c-0.5,0.1-1.1,0.2-1.7,0.2c-1.6,0-2.9-0.6-4-1.7s-1.6-2.7-1.6-4.8c0-2,0.5-3.7,1.6-4.9s2.5-1.9,4.3-1.9
		C456.2,387.1,457,387.3,457.9,387.8z M458.6,392.7c-0.1-0.9-0.3-1.6-0.6-2.2c-0.6-1-1.5-1.5-2.9-1.5c-1,0-1.8,0.3-2.4,1
		s-1,1.6-1,2.7H458.6z"/>
	<path class="st5" d="M463.4,387.4h2v1.8c0.6-0.7,1.2-1.3,1.9-1.6s1.4-0.5,2.2-0.5c1.8,0,3,0.6,3.6,1.9c0.3,0.7,0.5,1.7,0.5,2.9v8.1
		h-2.1v-7.9c0-0.8-0.1-1.4-0.3-1.9c-0.4-0.8-1.1-1.2-2-1.2c-0.5,0-0.9,0.1-1.2,0.2c-0.6,0.2-1.1,0.5-1.5,1c-0.4,0.4-0.6,0.8-0.7,1.3
		s-0.2,1.1-0.2,1.9v6.6h-2.1L463.4,387.4L463.4,387.4z"/>
	<path class="st5" d="M84.4,416.6c0.8,0.4,1.5,1,1.9,1.6s0.7,1.4,0.8,2.2c0.1,0.6,0.2,1.5,0.2,2.8h-9.2c0,1.3,0.3,2.3,0.9,3.1
		s1.4,1.2,2.6,1.2c1.1,0,2-0.4,2.6-1.1c0.4-0.4,0.6-0.9,0.8-1.5h2.1c-0.1,0.5-0.2,1-0.5,1.5s-0.7,1-1,1.4c-0.6,0.6-1.4,1-2.4,1.3
		c-0.5,0.1-1.1,0.2-1.7,0.2c-1.6,0-2.9-0.6-4-1.7s-1.6-2.7-1.6-4.8c0-2,0.5-3.7,1.6-4.9s2.5-1.9,4.3-1.9
		C82.7,415.9,83.5,416.1,84.4,416.6z M85.1,421.5c-0.1-0.9-0.3-1.6-0.6-2.2c-0.6-1-1.5-1.5-2.9-1.5c-1,0-1.8,0.3-2.4,1s-1,1.6-1,2.7
		H85.1z"/>
	<path class="st5" d="M88.7,416.2h2.7l2.9,4.4l2.9-4.4l2.6,0.1l-4.2,6.1l4.4,6.4h-2.7l-3.1-4.7l-3,4.7h-2.7l4.4-6.4L88.7,416.2z"/>
	<path class="st5" d="M101.7,416.3h2.1v1.7c0.4-0.6,0.9-1,1.4-1.3c0.7-0.5,1.5-0.7,2.5-0.7c1.4,0,2.6,0.5,3.6,1.6s1.5,2.6,1.5,4.7
		c0,2.7-0.7,4.7-2.1,5.9c-0.9,0.7-2,1.1-3.2,1.1c-0.9,0-1.7-0.2-2.4-0.6c-0.4-0.2-0.8-0.6-1.3-1.2v6.4h-2.1V416.3z M109.6,426.1
		c0.7-0.8,1-2.1,1-3.7c0-1-0.1-1.9-0.4-2.6c-0.5-1.4-1.5-2.1-3-2.1s-2.5,0.7-3,2.2c-0.3,0.8-0.4,1.8-0.4,3c0,1,0.1,1.8,0.4,2.5
		c0.5,1.3,1.5,1.9,3,1.9C108.2,427.3,109,426.9,109.6,426.1z"/>
	<path class="st5" d="M115.3,411.5h2.1v17.2h-2.1V411.5z"/>
	<path class="st5" d="M129.7,417.5c1.1,1.1,1.7,2.7,1.7,4.8c0,2-0.5,3.7-1.5,5s-2.5,2-4.6,2c-1.7,0-3.1-0.6-4.1-1.8
		s-1.5-2.7-1.5-4.7c0-2.1,0.5-3.8,1.6-5s2.5-1.9,4.3-1.9C127.2,415.9,128.6,416.4,129.7,417.5z M128.4,425.8
		c0.5-1.1,0.8-2.2,0.8-3.5c0-1.2-0.2-2.1-0.6-2.9c-0.6-1.2-1.6-1.7-3.1-1.7c-1.3,0-2.2,0.5-2.8,1.5s-0.9,2.2-0.9,3.6
		c0,1.3,0.3,2.4,0.9,3.3s1.5,1.3,2.8,1.3C126.9,427.4,127.9,426.9,128.4,425.8z"/>
	<path class="st5" d="M134,416.2h2v2.2c0.2-0.4,0.6-0.9,1.2-1.5s1.4-0.9,2.2-0.9c0,0,0.1,0,0.2,0s0.3,0,0.5,0v2.2
		c-0.1,0-0.2,0-0.3,0s-0.2,0-0.3,0c-1.1,0-1.9,0.3-2.4,1s-0.9,1.5-0.9,2.4v7.2H134V416.2z"/>
	<path class="st5" d="M148.6,421.2c0.5-0.1,0.8-0.3,1-0.6c0.1-0.2,0.1-0.5,0.1-0.8c0-0.7-0.3-1.2-0.8-1.6s-1.2-0.5-2.2-0.5
		c-1.1,0-1.9,0.3-2.3,0.9c-0.3,0.3-0.4,0.8-0.5,1.5h-2c0-1.5,0.5-2.6,1.5-3.2s2.1-0.9,3.4-0.9c1.5,0,2.7,0.3,3.6,0.8
		c0.9,0.6,1.4,1.4,1.4,2.6v7.2c0,0.2,0,0.4,0.1,0.5s0.3,0.2,0.6,0.2c0.1,0,0.2,0,0.3,0s0.2,0,0.4-0.1v1.6c-0.3,0.1-0.6,0.2-0.8,0.2
		s-0.4,0-0.7,0c-0.7,0-1.3-0.3-1.6-0.8c-0.2-0.3-0.3-0.7-0.4-1.2c-0.4,0.6-1,1.1-1.9,1.5s-1.7,0.6-2.7,0.6c-1.2,0-2.1-0.4-2.9-1.1
		s-1.1-1.6-1.1-2.7c0-1.2,0.4-2.1,1.1-2.7s1.7-1,2.9-1.2L148.6,421.2z M144.2,426.9c0.4,0.4,1,0.5,1.6,0.5c0.7,0,1.5-0.2,2.2-0.5
		c1.2-0.6,1.8-1.5,1.8-2.8v-1.7c-0.3,0.2-0.6,0.3-1,0.4s-0.8,0.2-1.2,0.2l-1.3,0.2c-0.8,0.1-1.3,0.3-1.7,0.5c-0.6,0.4-1,1-1,1.8
		C143.5,426,143.7,426.5,144.2,426.9z"/>
	<path class="st5" d="M155.3,416.2h2v2.2c0.2-0.4,0.6-0.9,1.2-1.5s1.4-0.9,2.2-0.9c0,0,0.1,0,0.2,0s0.3,0,0.5,0v2.2
		c-0.1,0-0.2,0-0.3,0s-0.2,0-0.3,0c-1.1,0-1.9,0.3-2.4,1s-0.9,1.5-0.9,2.4v7.2h-2.1L155.3,416.2L155.3,416.2z"/>
	<path class="st5" d="M170,411.5h2.1v17.2H170V411.5z"/>
	<path class="st5" d="M182,421.2c0.5-0.1,0.8-0.3,1-0.6c0.1-0.2,0.1-0.5,0.1-0.8c0-0.7-0.3-1.2-0.8-1.6s-1.2-0.5-2.2-0.5
		c-1.1,0-1.9,0.3-2.3,0.9c-0.3,0.3-0.4,0.8-0.5,1.5h-2c0-1.5,0.5-2.6,1.5-3.2s2.1-0.9,3.4-0.9c1.5,0,2.7,0.3,3.6,0.8
		c0.9,0.6,1.4,1.4,1.4,2.6v7.2c0,0.2,0,0.4,0.1,0.5s0.3,0.2,0.6,0.2c0.1,0,0.2,0,0.3,0s0.2,0,0.4-0.1v1.6c-0.3,0.1-0.6,0.2-0.8,0.2
		s-0.4,0-0.7,0c-0.7,0-1.3-0.3-1.6-0.8c-0.2-0.3-0.3-0.7-0.4-1.2c-0.4,0.6-1,1.1-1.9,1.5s-1.7,0.6-2.7,0.6c-1.2,0-2.1-0.4-2.9-1.1
		s-1.1-1.6-1.1-2.7c0-1.2,0.4-2.1,1.1-2.7s1.7-1,2.9-1.2L182,421.2z M177.5,426.9c0.4,0.4,1,0.5,1.6,0.5c0.7,0,1.5-0.2,2.2-0.5
		c1.2-0.6,1.8-1.5,1.8-2.8v-1.7c-0.3,0.2-0.6,0.3-1,0.4s-0.8,0.2-1.2,0.2l-1.3,0.2c-0.8,0.1-1.3,0.3-1.7,0.5c-0.6,0.4-1,1-1,1.8
		C176.9,426,177.1,426.5,177.5,426.9z"/>
	<path class="st5" d="M203.6,416.9c0.9,0.7,1.4,1.9,1.6,3.6h-2.1c-0.1-0.8-0.4-1.4-0.9-1.9s-1.2-0.8-2.1-0.8c-1.3,0-2.3,0.7-2.9,2
		c-0.4,0.9-0.6,1.9-0.6,3.2c0,1.3,0.3,2.3,0.8,3.2s1.4,1.3,2.5,1.3c0.9,0,1.6-0.3,2.1-0.8s0.9-1.3,1.1-2.2h2.1
		c-0.2,1.7-0.8,2.9-1.8,3.7s-2.1,1.2-3.6,1.2c-1.6,0-2.9-0.6-3.9-1.8s-1.5-2.7-1.5-4.5c0-2.2,0.5-3.9,1.6-5.1s2.4-1.8,4.1-1.8
		C201.5,415.9,202.7,416.2,203.6,416.9z"/>
	<path class="st5" d="M214,421.2c0.5-0.1,0.8-0.3,1-0.6c0.1-0.2,0.1-0.5,0.1-0.8c0-0.7-0.3-1.2-0.8-1.6s-1.2-0.5-2.2-0.5
		c-1.1,0-1.9,0.3-2.3,0.9c-0.3,0.3-0.4,0.8-0.5,1.5h-2c0-1.5,0.5-2.6,1.5-3.2s2.1-0.9,3.4-0.9c1.5,0,2.7,0.3,3.6,0.8
		c0.9,0.6,1.4,1.4,1.4,2.6v7.2c0,0.2,0,0.4,0.1,0.5s0.3,0.2,0.6,0.2c0.1,0,0.2,0,0.3,0s0.2,0,0.4-0.1v1.6c-0.3,0.1-0.6,0.2-0.8,0.2
		s-0.4,0-0.7,0c-0.7,0-1.3-0.3-1.6-0.8c-0.2-0.3-0.3-0.7-0.4-1.2c-0.4,0.6-1,1.1-1.9,1.5s-1.7,0.6-2.7,0.6c-1.2,0-2.1-0.4-2.9-1.1
		s-1.1-1.6-1.1-2.7c0-1.2,0.4-2.1,1.1-2.7s1.7-1,2.9-1.2L214,421.2z M209.5,426.9c0.4,0.4,1,0.5,1.6,0.5c0.7,0,1.5-0.2,2.2-0.5
		c1.2-0.6,1.8-1.5,1.8-2.8v-1.7c-0.3,0.2-0.6,0.3-1,0.4s-0.8,0.2-1.2,0.2l-1.3,0.2c-0.8,0.1-1.3,0.3-1.7,0.5c-0.6,0.4-1,1-1,1.8
		C208.9,426,209.1,426.5,209.5,426.9z"/>
	<path class="st5" d="M220.7,416.2h2v2.2c0.2-0.4,0.6-0.9,1.2-1.5s1.4-0.9,2.2-0.9c0,0,0.1,0,0.2,0s0.3,0,0.5,0v2.2
		c-0.1,0-0.2,0-0.3,0s-0.2,0-0.3,0c-1.1,0-1.9,0.3-2.4,1s-0.9,1.5-0.9,2.4v7.2h-2.1L220.7,416.2L220.7,416.2z"/>
	<path class="st5" d="M235.3,421.2c0.5-0.1,0.8-0.3,1-0.6c0.1-0.2,0.1-0.5,0.1-0.8c0-0.7-0.3-1.2-0.8-1.6s-1.2-0.5-2.2-0.5
		c-1.1,0-1.9,0.3-2.3,0.9c-0.3,0.3-0.4,0.8-0.5,1.5h-2c0-1.5,0.5-2.6,1.5-3.2s2.1-0.9,3.4-0.9c1.5,0,2.7,0.3,3.6,0.8
		c0.9,0.6,1.4,1.4,1.4,2.6v7.2c0,0.2,0,0.4,0.1,0.5s0.3,0.2,0.6,0.2c0.1,0,0.2,0,0.3,0s0.2,0,0.4-0.1v1.6c-0.3,0.1-0.6,0.2-0.8,0.2
		s-0.4,0-0.7,0c-0.7,0-1.3-0.3-1.6-0.8c-0.2-0.3-0.3-0.7-0.4-1.2c-0.4,0.6-1,1.1-1.9,1.5s-1.7,0.6-2.7,0.6c-1.2,0-2.1-0.4-2.9-1.1
		s-1.1-1.6-1.1-2.7c0-1.2,0.4-2.1,1.1-2.7s1.7-1,2.9-1.2L235.3,421.2z M230.9,426.9c0.4,0.4,1,0.5,1.6,0.5c0.7,0,1.5-0.2,2.2-0.5
		c1.2-0.6,1.8-1.5,1.8-2.8v-1.7c-0.3,0.2-0.6,0.3-1,0.4s-0.8,0.2-1.2,0.2l-1.3,0.2c-0.8,0.1-1.3,0.3-1.7,0.5c-0.6,0.4-1,1-1,1.8
		C230.2,426,230.4,426.5,230.9,426.9z"/>
	<path class="st5" d="M257.8,417.5c1.1,1.1,1.7,2.7,1.7,4.8c0,2-0.5,3.7-1.5,5s-2.5,2-4.6,2c-1.7,0-3.1-0.6-4.1-1.8
		s-1.5-2.7-1.5-4.7c0-2.1,0.5-3.8,1.6-5s2.5-1.9,4.3-1.9C255.3,415.9,256.7,416.4,257.8,417.5z M256.5,425.8
		c0.5-1.1,0.8-2.2,0.8-3.5c0-1.2-0.2-2.1-0.6-2.9c-0.6-1.2-1.6-1.7-3.1-1.7c-1.3,0-2.2,0.5-2.8,1.5s-0.9,2.2-0.9,3.6
		c0,1.3,0.3,2.4,0.9,3.3s1.5,1.3,2.8,1.3C255,427.4,256,426.9,256.5,425.8z"/>
	<path class="st5" d="M270.3,416.9c0.9,0.7,1.4,1.9,1.6,3.6h-2.1c-0.1-0.8-0.4-1.4-0.9-1.9s-1.2-0.8-2.1-0.8c-1.3,0-2.3,0.7-2.9,2
		c-0.4,0.9-0.6,1.9-0.6,3.2c0,1.3,0.3,2.3,0.8,3.2s1.4,1.3,2.5,1.3c0.9,0,1.6-0.3,2.1-0.8s0.9-1.3,1.1-2.2h2.1
		c-0.2,1.7-0.8,2.9-1.8,3.7s-2.1,1.2-3.6,1.2c-1.6,0-2.9-0.6-3.9-1.8s-1.5-2.7-1.5-4.5c0-2.2,0.5-3.9,1.6-5.1s2.4-1.8,4.1-1.8
		C268.2,415.9,269.4,416.2,270.3,416.9z"/>
	<path class="st5" d="M276.1,416.2v8.3c0,0.6,0.1,1.2,0.3,1.6c0.4,0.8,1.1,1.1,2.1,1.1c1.5,0,2.5-0.7,3-2c0.3-0.7,0.4-1.7,0.4-2.9
		v-6.2h2.1v12.6h-2v-1.9c-0.3,0.5-0.6,0.9-1,1.2c-0.8,0.7-1.8,1-2.9,1c-1.8,0-3-0.6-3.7-1.8c-0.4-0.6-0.5-1.5-0.5-2.6v-8.5
		L276.1,416.2L276.1,416.2z"/>
	<path class="st5" d="M287.4,411.5h2.1v17.2h-2.1V411.5z"/>
	<path class="st5" d="M293.1,412.7h2.1v3.5h2v1.7h-2v8.2c0,0.4,0.1,0.7,0.4,0.9c0.2,0.1,0.4,0.1,0.8,0.1c0.1,0,0.2,0,0.3,0
		s0.3,0,0.4,0v1.7c-0.2,0.1-0.5,0.1-0.8,0.2s-0.5,0-0.8,0c-1,0-1.7-0.3-2-0.8s-0.5-1.2-0.5-2v-8.3h-1.7v-1.7h1.7v-3.5H293.1z"/>
	<path class="st5" d="M306,421.2c0.5-0.1,0.8-0.3,1-0.6c0.1-0.2,0.1-0.5,0.1-0.8c0-0.7-0.3-1.2-0.8-1.6s-1.2-0.5-2.2-0.5
		c-1.1,0-1.9,0.3-2.3,0.9c-0.3,0.3-0.4,0.8-0.5,1.5h-2c0-1.5,0.5-2.6,1.5-3.2s2.1-0.9,3.4-0.9c1.5,0,2.7,0.3,3.6,0.8
		c0.9,0.6,1.4,1.4,1.4,2.6v7.2c0,0.2,0,0.4,0.1,0.5s0.3,0.2,0.6,0.2c0.1,0,0.2,0,0.3,0s0.2,0,0.4-0.1v1.6c-0.3,0.1-0.6,0.2-0.8,0.2
		s-0.4,0-0.7,0c-0.7,0-1.3-0.3-1.6-0.8c-0.2-0.3-0.3-0.7-0.4-1.2c-0.4,0.6-1,1.1-1.9,1.5s-1.7,0.6-2.7,0.6c-1.2,0-2.1-0.4-2.9-1.1
		s-1.1-1.6-1.1-2.7c0-1.2,0.4-2.1,1.1-2.7s1.7-1,2.9-1.2L306,421.2z M301.6,426.9c0.4,0.4,1,0.5,1.6,0.5c0.7,0,1.5-0.2,2.2-0.5
		c1.2-0.6,1.8-1.5,1.8-2.8v-1.7c-0.3,0.2-0.6,0.3-1,0.4s-0.8,0.2-1.2,0.2l-1.3,0.2c-0.8,0.1-1.3,0.3-1.7,0.5c-0.6,0.4-1,1-1,1.8
		C300.9,426,301.2,426.5,301.6,426.9z"/>
	<path class="st5" d="M326.3,416.6c0.4,0.2,0.8,0.6,1.3,1.2v-6.3h2v17.3h-1.9V427c-0.5,0.8-1.1,1.3-1.7,1.7s-1.4,0.5-2.3,0.5
		c-1.4,0-2.6-0.6-3.6-1.8s-1.5-2.7-1.5-4.7c0-1.8,0.5-3.4,1.4-4.8s2.3-2,4-2C324.8,416,325.6,416.2,326.3,416.6z M321.5,426
		c0.6,0.9,1.5,1.4,2.7,1.4c1,0,1.8-0.4,2.4-1.3s0.9-2,0.9-3.6s-0.3-2.8-1-3.5s-1.4-1.1-2.4-1.1c-1.1,0-1.9,0.4-2.6,1.2s-1,2-1,3.6
		C320.7,424,321,425.1,321.5,426z"/>
	<path class="st5" d="M340.5,416.6c0.8,0.4,1.5,1,1.9,1.6s0.7,1.4,0.8,2.2c0.1,0.6,0.2,1.5,0.2,2.8h-9.2c0,1.3,0.3,2.3,0.9,3.1
		s1.4,1.2,2.6,1.2c1.1,0,2-0.4,2.6-1.1c0.4-0.4,0.6-0.9,0.8-1.5h2.1c-0.1,0.5-0.2,1-0.5,1.5s-0.7,1-1,1.4c-0.6,0.6-1.4,1-2.4,1.3
		c-0.5,0.1-1.1,0.2-1.7,0.2c-1.6,0-2.9-0.6-4-1.7s-1.6-2.7-1.6-4.8c0-2,0.5-3.7,1.6-4.9s2.5-1.9,4.3-1.9
		C338.8,415.9,339.7,416.1,340.5,416.6z M341.3,421.5c-0.1-0.9-0.3-1.6-0.6-2.2c-0.6-1-1.5-1.5-2.9-1.5c-1,0-1.8,0.3-2.4,1
		s-1,1.6-1,2.7H341.3z"/>
	<path class="st5" d="M352.8,411.5h2.1v17.2h-2.1V411.5z"/>
	<path class="st5" d="M364.8,421.2c0.5-0.1,0.8-0.3,1-0.6c0.1-0.2,0.1-0.5,0.1-0.8c0-0.7-0.3-1.2-0.8-1.6s-1.2-0.5-2.2-0.5
		c-1.1,0-1.9,0.3-2.3,0.9c-0.3,0.3-0.4,0.8-0.5,1.5h-2c0-1.5,0.5-2.6,1.5-3.2s2.1-0.9,3.4-0.9c1.5,0,2.7,0.3,3.6,0.8
		c0.9,0.6,1.4,1.4,1.4,2.6v7.2c0,0.2,0,0.4,0.1,0.5s0.3,0.2,0.6,0.2c0.1,0,0.2,0,0.3,0s0.2,0,0.4-0.1v1.6c-0.3,0.1-0.6,0.2-0.8,0.2
		s-0.4,0-0.7,0c-0.7,0-1.3-0.3-1.6-0.8c-0.2-0.3-0.3-0.7-0.4-1.2c-0.4,0.6-1,1.1-1.9,1.5s-1.7,0.6-2.7,0.6c-1.2,0-2.1-0.4-2.9-1.1
		s-1.1-1.6-1.1-2.7c0-1.2,0.4-2.1,1.1-2.7s1.7-1,2.9-1.2L364.8,421.2z M360.3,426.9c0.4,0.4,1,0.5,1.6,0.5c0.7,0,1.5-0.2,2.2-0.5
		c1.2-0.6,1.8-1.5,1.8-2.8v-1.7c-0.3,0.2-0.6,0.3-1,0.4s-0.8,0.2-1.2,0.2l-1.3,0.2c-0.8,0.1-1.3,0.3-1.7,0.5c-0.6,0.4-1,1-1,1.8
		C359.6,426,359.9,426.5,360.3,426.9z"/>
	<path class="st5" d="M378.1,411.5h2.1v17.2h-2.1V411.5z"/>
	<path class="st5" d="M385.5,416.2v8.3c0,0.6,0.1,1.2,0.3,1.6c0.4,0.8,1.1,1.1,2.1,1.1c1.5,0,2.5-0.7,3-2c0.3-0.7,0.4-1.7,0.4-2.9
		v-6.2h2.1v12.6h-2v-1.9c-0.3,0.5-0.6,0.9-1,1.2c-0.8,0.7-1.8,1-2.9,1c-1.8,0-3-0.6-3.7-1.8c-0.4-0.6-0.5-1.5-0.5-2.6v-8.5
		L385.5,416.2L385.5,416.2z"/>
	<path class="st5" d="M396.7,416.2h2v1.8c0.6-0.7,1.2-1.3,1.9-1.6s1.4-0.5,2.2-0.5c1.8,0,3,0.6,3.6,1.9c0.3,0.7,0.5,1.7,0.5,2.9v8.1
		h-2.1v-7.9c0-0.8-0.1-1.4-0.3-1.9c-0.4-0.8-1.1-1.2-2-1.2c-0.5,0-0.9,0.1-1.2,0.2c-0.6,0.2-1.1,0.5-1.5,1c-0.4,0.4-0.6,0.8-0.7,1.3
		s-0.2,1.1-0.2,1.9v6.6h-2.1L396.7,416.2L396.7,416.2z"/>
	<path class="st5" d="M416.8,421.2c0.5-0.1,0.8-0.3,1-0.6c0.1-0.2,0.1-0.5,0.1-0.8c0-0.7-0.3-1.2-0.8-1.6s-1.2-0.5-2.2-0.5
		c-1.1,0-1.9,0.3-2.3,0.9c-0.3,0.3-0.4,0.8-0.5,1.5h-2c0-1.5,0.5-2.6,1.5-3.2s2.1-0.9,3.4-0.9c1.5,0,2.7,0.3,3.6,0.8
		c0.9,0.6,1.4,1.4,1.4,2.6v7.2c0,0.2,0,0.4,0.1,0.5s0.3,0.2,0.6,0.2c0.1,0,0.2,0,0.3,0s0.2,0,0.4-0.1v1.6c-0.3,0.1-0.6,0.2-0.8,0.2
		s-0.4,0-0.7,0c-0.7,0-1.3-0.3-1.6-0.8c-0.2-0.3-0.3-0.7-0.4-1.2c-0.4,0.6-1,1.1-1.9,1.5s-1.7,0.6-2.7,0.6c-1.2,0-2.1-0.4-2.9-1.1
		s-1.1-1.6-1.1-2.7c0-1.2,0.4-2.1,1.1-2.7s1.7-1,2.9-1.2L416.8,421.2z M412.4,426.9c0.4,0.4,1,0.5,1.6,0.5c0.7,0,1.5-0.2,2.2-0.5
		c1.2-0.6,1.8-1.5,1.8-2.8v-1.7c-0.3,0.2-0.6,0.3-1,0.4s-0.8,0.2-1.2,0.2l-1.3,0.2c-0.8,0.1-1.3,0.3-1.7,0.5c-0.6,0.4-1,1-1,1.8
		C411.7,426,411.9,426.5,412.4,426.9z"/>
</g>
<g>
	<g>
		<path class="st6" d="M746.5,589.5h2.3v15.2h8.7v2.1h-11.1L746.5,589.5L746.5,589.5z"/>
		<path class="st6" d="M766.3,599.1c0.5-0.1,0.8-0.3,1-0.6c0.1-0.2,0.1-0.5,0.1-0.8c0-0.7-0.3-1.2-0.8-1.6s-1.2-0.5-2.2-0.5
			c-1.1,0-1.9,0.3-2.3,0.9c-0.3,0.3-0.4,0.8-0.5,1.5h-2c0-1.5,0.5-2.6,1.5-3.2s2.1-0.9,3.4-0.9c1.5,0,2.7,0.3,3.6,0.8
			c0.9,0.6,1.4,1.4,1.4,2.6v7.2c0,0.2,0,0.4,0.1,0.5s0.3,0.2,0.6,0.2c0.1,0,0.2,0,0.3,0s0.2,0,0.4-0.1v1.6c-0.3,0.1-0.6,0.2-0.8,0.2
			s-0.4,0-0.7,0c-0.7,0-1.3-0.3-1.6-0.8c-0.2-0.3-0.3-0.7-0.4-1.2c-0.4,0.6-1,1.1-1.9,1.5s-1.7,0.6-2.7,0.6c-1.2,0-2.1-0.4-2.9-1.1
			s-1.1-1.6-1.1-2.7c0-1.2,0.4-2.1,1.1-2.7s1.7-1,2.9-1.2L766.3,599.1z M761.9,604.8c0.4,0.4,1,0.5,1.6,0.5c0.7,0,1.5-0.2,2.2-0.5
			c1.2-0.6,1.8-1.5,1.8-2.8v-1.7c-0.3,0.2-0.6,0.3-1,0.4s-0.8,0.2-1.2,0.2l-1.3,0.2c-0.8,0.1-1.3,0.3-1.7,0.5c-0.6,0.4-1,1-1,1.8
			C761.2,604,761.4,604.5,761.9,604.8z"/>
		<path class="st6" d="M774.2,602.8c0.1,0.7,0.2,1.2,0.5,1.6c0.5,0.7,1.5,1,2.8,1c0.8,0,1.5-0.2,2.1-0.5s0.9-0.9,0.9-1.6
			c0-0.5-0.2-0.9-0.7-1.2c-0.3-0.2-0.9-0.4-1.8-0.6l-1.7-0.4c-1.1-0.3-1.9-0.6-2.4-0.9c-0.9-0.6-1.4-1.4-1.4-2.4
			c0-1.2,0.4-2.1,1.3-2.9s2-1.1,3.5-1.1c1.9,0,3.3,0.6,4.1,1.7c0.5,0.7,0.8,1.5,0.8,2.3h-2c0-0.5-0.2-0.9-0.5-1.3
			c-0.5-0.6-1.3-0.8-2.5-0.8c-0.8,0-1.4,0.2-1.8,0.5s-0.6,0.7-0.6,1.2s0.3,1,0.8,1.3c0.3,0.2,0.8,0.4,1.4,0.5l1.4,0.3
			c1.5,0.4,2.5,0.7,3,1.1c0.8,0.5,1.2,1.4,1.2,2.5s-0.4,2.1-1.3,2.9s-2.1,1.2-3.9,1.2c-1.9,0-3.2-0.4-4-1.3s-1.2-1.9-1.2-3.1H774.2z
			"/>
		<path class="st6" d="M791.4,594.2h2.1v1.7c0.4-0.6,0.9-1,1.4-1.3c0.7-0.5,1.5-0.7,2.5-0.7c1.4,0,2.6,0.5,3.6,1.6s1.5,2.6,1.5,4.7
			c0,2.7-0.7,4.7-2.1,5.9c-0.9,0.7-2,1.1-3.2,1.1c-0.9,0-1.7-0.2-2.4-0.6c-0.4-0.2-0.8-0.6-1.3-1.2v6.4h-2.1V594.2z M799.4,604.1
			c0.7-0.8,1-2.1,1-3.7c0-1-0.1-1.9-0.4-2.6c-0.5-1.4-1.5-2.1-3-2.1s-2.5,0.7-3,2.2c-0.3,0.8-0.4,1.8-0.4,3c0,1,0.1,1.8,0.4,2.5
			c0.5,1.3,1.5,1.9,3,1.9C797.9,605.3,798.7,604.9,799.4,604.1z"/>
		<path class="st6" d="M805,594.2h2v2.2c0.2-0.4,0.6-0.9,1.2-1.5s1.4-0.9,2.2-0.9c0,0,0.1,0,0.2,0s0.3,0,0.5,0v2.2
			c-0.1,0-0.2,0-0.3,0s-0.2,0-0.3,0c-1.1,0-1.9,0.3-2.4,1s-0.9,1.5-0.9,2.4v7.2H805V594.2z"/>
		<path class="st6" d="M822.1,595.4c1.1,1.1,1.7,2.7,1.7,4.8c0,2-0.5,3.7-1.5,5s-2.5,2-4.6,2c-1.7,0-3.1-0.6-4.1-1.8
			s-1.5-2.7-1.5-4.7c0-2.1,0.5-3.8,1.6-5s2.5-1.9,4.3-1.9C819.6,593.8,821,594.4,822.1,595.4z M820.8,603.8c0.5-1.1,0.8-2.2,0.8-3.5
			c0-1.2-0.2-2.1-0.6-2.9c-0.6-1.2-1.6-1.7-3.1-1.7c-1.3,0-2.2,0.5-2.8,1.5s-0.9,2.2-0.9,3.6c0,1.3,0.3,2.4,0.9,3.3s1.5,1.3,2.8,1.3
			C819.3,605.4,820.3,604.9,820.8,603.8z M820.5,589.1l-3.1,3.4h-1.6l2.1-3.4H820.5z"/>
		<path class="st6" d="M825.1,594.2h2.7l2.9,4.4l2.9-4.4l2.6,0.1l-4.2,6.1l4.4,6.4h-2.7l-3.1-4.7l-3,4.7h-2.7l4.4-6.4L825.1,594.2z"
			/>
		<path class="st6" d="M838.3,589.5h2.1v2.4h-2.1V589.5z M838.3,594.2h2.1v12.5h-2.1V594.2z"/>
		<path class="st6" d="M843.6,594.2h2.1v1.8c0.5-0.6,1-1.1,1.4-1.3c0.7-0.5,1.5-0.7,2.4-0.7c1,0,1.8,0.2,2.4,0.7
			c0.3,0.3,0.7,0.7,0.9,1.2c0.5-0.7,1-1.2,1.7-1.5s1.3-0.5,2.1-0.5c1.7,0,2.8,0.6,3.4,1.8c0.3,0.7,0.5,1.5,0.5,2.6v8.4h-2.2V598
			c0-0.8-0.2-1.4-0.6-1.7s-0.9-0.5-1.5-0.5c-0.8,0-1.5,0.3-2.1,0.8s-0.9,1.5-0.9,2.8v7.3H851v-8.2c0-0.9-0.1-1.5-0.3-1.9
			c-0.3-0.6-0.9-0.9-1.8-0.9c-0.8,0-1.5,0.3-2.2,0.9s-1,1.7-1,3.4v6.7h-2.1L843.6,594.2L843.6,594.2z"/>
		<path class="st6" d="M870.3,599.1c0.5-0.1,0.8-0.3,1-0.6c0.1-0.2,0.1-0.5,0.1-0.8c0-0.7-0.3-1.2-0.8-1.6s-1.2-0.5-2.2-0.5
			c-1.1,0-1.9,0.3-2.3,0.9c-0.3,0.3-0.4,0.8-0.5,1.5h-2c0-1.5,0.5-2.6,1.5-3.2s2.1-0.9,3.4-0.9c1.5,0,2.7,0.3,3.6,0.8
			c0.9,0.6,1.4,1.4,1.4,2.6v7.2c0,0.2,0,0.4,0.1,0.5s0.3,0.2,0.6,0.2c0.1,0,0.2,0,0.3,0s0.2,0,0.4-0.1v1.6c-0.3,0.1-0.6,0.2-0.8,0.2
			s-0.4,0-0.7,0c-0.7,0-1.3-0.3-1.6-0.8c-0.2-0.3-0.3-0.7-0.4-1.2c-0.4,0.6-1,1.1-1.9,1.5s-1.7,0.6-2.7,0.6c-1.2,0-2.1-0.4-2.9-1.1
			s-1.1-1.6-1.1-2.7c0-1.2,0.4-2.1,1.1-2.7s1.7-1,2.9-1.2L870.3,599.1z M865.9,604.8c0.4,0.4,1,0.5,1.6,0.5c0.7,0,1.5-0.2,2.2-0.5
			c1.2-0.6,1.8-1.5,1.8-2.8v-1.7c-0.3,0.2-0.6,0.3-1,0.4s-0.8,0.2-1.2,0.2l-1.3,0.2c-0.8,0.1-1.3,0.3-1.7,0.5c-0.6,0.4-1,1-1,1.8
			C865.2,604,865.5,604.5,865.9,604.8z"/>
		<path class="st6" d="M878.2,602.8c0.1,0.7,0.2,1.2,0.5,1.6c0.5,0.7,1.5,1,2.8,1c0.8,0,1.5-0.2,2.1-0.5s0.9-0.9,0.9-1.6
			c0-0.5-0.2-0.9-0.7-1.2c-0.3-0.2-0.9-0.4-1.8-0.6l-1.7-0.4c-1.1-0.3-1.9-0.6-2.4-0.9c-0.9-0.6-1.4-1.4-1.4-2.4
			c0-1.2,0.4-2.1,1.3-2.9s2-1.1,3.5-1.1c1.9,0,3.3,0.6,4.1,1.7c0.5,0.7,0.8,1.5,0.8,2.3h-2c0-0.5-0.2-0.9-0.5-1.3
			c-0.5-0.6-1.3-0.8-2.5-0.8c-0.8,0-1.4,0.2-1.8,0.5s-0.6,0.7-0.6,1.2s0.3,1,0.8,1.3c0.3,0.2,0.8,0.4,1.4,0.5l1.4,0.3
			c1.5,0.4,2.5,0.7,3,1.1c0.8,0.5,1.2,1.4,1.2,2.5s-0.4,2.1-1.3,2.9s-2.1,1.2-3.9,1.2c-1.9,0-3.2-0.4-4-1.3s-1.2-1.9-1.2-3.1H878.2z
			"/>
		<path class="st6" d="M895.6,594.2h2.1v1.8c0.5-0.6,1-1.1,1.4-1.3c0.7-0.5,1.5-0.7,2.4-0.7c1,0,1.8,0.2,2.4,0.7
			c0.3,0.3,0.7,0.7,0.9,1.2c0.5-0.7,1-1.2,1.7-1.5s1.3-0.5,2.1-0.5c1.7,0,2.8,0.6,3.4,1.8c0.3,0.7,0.5,1.5,0.5,2.6v8.4h-2.2V598
			c0-0.8-0.2-1.4-0.6-1.7s-0.9-0.5-1.5-0.5c-0.8,0-1.5,0.3-2.1,0.8s-0.9,1.5-0.9,2.8v7.3H903v-8.2c0-0.9-0.1-1.5-0.3-1.9
			c-0.3-0.6-0.9-0.9-1.8-0.9c-0.8,0-1.5,0.3-2.2,0.9s-1,1.7-1,3.4v6.7h-2.1L895.6,594.2L895.6,594.2z"/>
		<path class="st6" d="M915.6,589.5h2.1v2.4h-2.1V589.5z M915.6,594.2h2.1v12.5h-2.1V594.2z"/>
		<path class="st6" d="M922.2,602.8c0.1,0.7,0.2,1.2,0.5,1.6c0.5,0.7,1.5,1,2.8,1c0.8,0,1.5-0.2,2.1-0.5s0.9-0.9,0.9-1.6
			c0-0.5-0.2-0.9-0.7-1.2c-0.3-0.2-0.9-0.4-1.8-0.6l-1.7-0.4c-1.1-0.3-1.9-0.6-2.4-0.9c-0.9-0.6-1.4-1.4-1.4-2.4
			c0-1.2,0.4-2.1,1.3-2.9s2-1.1,3.5-1.1c1.9,0,3.3,0.6,4.1,1.7c0.5,0.7,0.8,1.5,0.8,2.3h-2c0-0.5-0.2-0.9-0.5-1.3
			c-0.5-0.6-1.3-0.8-2.5-0.8c-0.8,0-1.4,0.2-1.8,0.5s-0.6,0.7-0.6,1.2s0.3,1,0.8,1.3c0.3,0.2,0.8,0.4,1.4,0.5l1.4,0.3
			c1.5,0.4,2.5,0.7,3,1.1c0.8,0.5,1.2,1.4,1.2,2.5s-0.4,2.1-1.3,2.9s-2.1,1.2-3.9,1.2c-1.9,0-3.2-0.4-4-1.3s-1.2-1.9-1.2-3.1H922.2z
			"/>
		<path class="st6" d="M933,589.5h2.1v2.4H933V589.5z M933,594.2h2.1v12.5H933V594.2z"/>
		<path class="st6" d="M947.5,595.4c1.1,1.1,1.7,2.7,1.7,4.8c0,2-0.5,3.7-1.5,5s-2.5,2-4.6,2c-1.7,0-3.1-0.6-4.1-1.8
			s-1.5-2.7-1.5-4.7c0-2.1,0.5-3.8,1.6-5s2.5-1.9,4.3-1.9C945,593.8,946.3,594.4,947.5,595.4z M946.1,603.8c0.5-1.1,0.8-2.2,0.8-3.5
			c0-1.2-0.2-2.1-0.6-2.9c-0.6-1.2-1.6-1.7-3.1-1.7c-1.3,0-2.2,0.5-2.8,1.5s-0.9,2.2-0.9,3.6c0,1.3,0.3,2.4,0.9,3.3s1.5,1.3,2.8,1.3
			C944.7,605.4,945.6,604.9,946.1,603.8z"/>
		<path class="st6" d="M951.6,594.2h2v1.8c0.6-0.7,1.2-1.3,1.9-1.6s1.4-0.5,2.2-0.5c1.8,0,3,0.6,3.6,1.9c0.3,0.7,0.5,1.7,0.5,2.9
			v8.1h-2.1v-7.9c0-0.8-0.1-1.4-0.3-1.9c-0.4-0.8-1.1-1.2-2-1.2c-0.5,0-0.9,0.1-1.2,0.2c-0.6,0.2-1.1,0.5-1.5,1
			c-0.4,0.4-0.6,0.8-0.7,1.3s-0.2,1.1-0.2,1.9v6.6h-2.1v-12.6H951.6z"/>
		<path class="st6" d="M972.8,594.5c0.8,0.4,1.5,1,1.9,1.6s0.7,1.4,0.8,2.2c0.1,0.6,0.2,1.5,0.2,2.8h-9.2c0,1.3,0.3,2.3,0.9,3.1
			s1.4,1.2,2.6,1.2c1.1,0,2-0.4,2.6-1.1c0.4-0.4,0.6-0.9,0.8-1.5h2.1c-0.1,0.5-0.2,1-0.5,1.5s-0.7,1-1,1.4c-0.6,0.6-1.4,1-2.4,1.3
			c-0.5,0.1-1.1,0.2-1.7,0.2c-1.6,0-2.9-0.6-4-1.7s-1.6-2.7-1.6-4.8c0-2,0.5-3.7,1.6-4.9s2.5-1.9,4.3-1.9
			C971.1,593.9,972,594.1,972.8,594.5z M973.6,599.5c-0.1-0.9-0.3-1.6-0.6-2.2c-0.6-1-1.5-1.5-2.9-1.5c-1,0-1.8,0.3-2.4,1
			s-1,1.6-1,2.7H973.6z"/>
		<path class="st6" d="M979.6,602.8c0.1,0.7,0.2,1.2,0.5,1.6c0.5,0.7,1.5,1,2.8,1c0.8,0,1.5-0.2,2.1-0.5s0.9-0.9,0.9-1.6
			c0-0.5-0.2-0.9-0.7-1.2c-0.3-0.2-0.9-0.4-1.8-0.6l-1.7-0.4c-1.1-0.3-1.9-0.6-2.4-0.9c-0.9-0.6-1.4-1.4-1.4-2.4
			c0-1.2,0.4-2.1,1.3-2.9s2-1.1,3.5-1.1c1.9,0,3.3,0.6,4.1,1.7c0.5,0.7,0.8,1.5,0.8,2.3h-2c0-0.5-0.2-0.9-0.5-1.3
			c-0.5-0.6-1.3-0.8-2.5-0.8c-0.8,0-1.4,0.2-1.8,0.5s-0.6,0.7-0.6,1.2s0.3,1,0.8,1.3c0.3,0.2,0.8,0.4,1.4,0.5l1.4,0.3
			c1.5,0.4,2.5,0.7,3,1.1c0.8,0.5,1.2,1.4,1.2,2.5s-0.4,2.1-1.3,2.9s-2.1,1.2-3.9,1.2c-1.9,0-3.2-0.4-4-1.3s-1.2-1.9-1.2-3.1H979.6z
			"/>
		<path class="st6" d="M997.4,590.7h2.1v3.5h2v1.7h-2v8.2c0,0.4,0.1,0.7,0.4,0.9c0.2,0.1,0.4,0.1,0.8,0.1c0.1,0,0.2,0,0.3,0
			s0.3,0,0.4,0v1.7c-0.2,0.1-0.5,0.1-0.8,0.2s-0.5,0-0.8,0c-1,0-1.7-0.3-2-0.8s-0.5-1.2-0.5-2v-8.3h-1.7v-1.7h1.7L997.4,590.7
			L997.4,590.7z"/>
		<path class="st6" d="M1003.7,589.5h2.1v2.4h-2.1V589.5z M1003.7,594.2h2.1v12.5h-2.1V594.2z"/>
		<path class="st6" d="M1016.8,594.5c0.8,0.4,1.5,1,1.9,1.6s0.7,1.4,0.8,2.2c0.1,0.6,0.2,1.5,0.2,2.8h-9.2c0,1.3,0.3,2.3,0.9,3.1
			s1.4,1.2,2.6,1.2c1.1,0,2-0.4,2.6-1.1c0.4-0.4,0.6-0.9,0.8-1.5h2.1c-0.1,0.5-0.2,1-0.5,1.5s-0.7,1-1,1.4c-0.6,0.6-1.4,1-2.4,1.3
			c-0.5,0.1-1.1,0.2-1.7,0.2c-1.6,0-2.9-0.6-4-1.7s-1.6-2.7-1.6-4.8c0-2,0.5-3.7,1.6-4.9s2.5-1.9,4.3-1.9
			C1015.1,593.9,1016,594.1,1016.8,594.5z M1017.6,599.5c-0.1-0.9-0.3-1.6-0.6-2.2c-0.6-1-1.5-1.5-2.9-1.5c-1,0-1.8,0.3-2.4,1
			s-1,1.6-1,2.7H1017.6z"/>
		<path class="st6" d="M1022.3,594.2h2v1.8c0.6-0.7,1.2-1.3,1.9-1.6s1.4-0.5,2.2-0.5c1.8,0,3,0.6,3.6,1.9c0.3,0.7,0.5,1.7,0.5,2.9
			v8.1h-2.1v-7.9c0-0.8-0.1-1.4-0.3-1.9c-0.4-0.8-1.1-1.2-2-1.2c-0.5,0-0.9,0.1-1.2,0.2c-0.6,0.2-1.1,0.5-1.5,1
			c-0.4,0.4-0.6,0.8-0.7,1.3s-0.2,1.1-0.2,1.9v6.6h-2.1v-12.6H1022.3z"/>
		<path class="st6" d="M1043.5,594.5c0.8,0.4,1.5,1,1.9,1.6s0.7,1.4,0.8,2.2c0.1,0.6,0.2,1.5,0.2,2.8h-9.2c0,1.3,0.3,2.3,0.9,3.1
			s1.4,1.2,2.6,1.2c1.1,0,2-0.4,2.6-1.1c0.4-0.4,0.6-0.9,0.8-1.5h2.1c-0.1,0.5-0.2,1-0.5,1.5s-0.7,1-1,1.4c-0.6,0.6-1.4,1-2.4,1.3
			c-0.5,0.1-1.1,0.2-1.7,0.2c-1.6,0-2.9-0.6-4-1.7s-1.6-2.7-1.6-4.8c0-2,0.5-3.7,1.6-4.9s2.5-1.9,4.3-1.9
			C1041.8,593.9,1042.7,594.1,1043.5,594.5z M1044.3,599.5c-0.1-0.9-0.3-1.6-0.6-2.2c-0.6-1-1.5-1.5-2.9-1.5c-1,0-1.8,0.3-2.4,1
			s-1,1.6-1,2.7H1044.3z"/>
		<path class="st6" d="M1049,594.2h2v1.8c0.6-0.7,1.2-1.3,1.9-1.6s1.4-0.5,2.2-0.5c1.8,0,3,0.6,3.6,1.9c0.3,0.7,0.5,1.7,0.5,2.9v8.1
			h-2.1v-7.9c0-0.8-0.1-1.4-0.3-1.9c-0.4-0.8-1.1-1.2-2-1.2c-0.5,0-0.9,0.1-1.2,0.2c-0.6,0.2-1.1,0.5-1.5,1
			c-0.4,0.4-0.6,0.8-0.7,1.3s-0.2,1.1-0.2,1.9v6.6h-2.1v-12.6H1049z"/>
		<path class="st6" d="M1077.3,594.9c0.9,0.7,1.4,1.9,1.6,3.6h-2.1c-0.1-0.8-0.4-1.4-0.9-1.9s-1.2-0.8-2.1-0.8c-1.3,0-2.3,0.7-2.9,2
			c-0.4,0.9-0.6,1.9-0.6,3.2s0.3,2.3,0.8,3.2s1.4,1.3,2.5,1.3c0.9,0,1.6-0.3,2.1-0.8s0.9-1.3,1.1-2.2h2.1c-0.2,1.7-0.8,2.9-1.8,3.7
			s-2.1,1.2-3.6,1.2c-1.6,0-2.9-0.6-3.9-1.8s-1.5-2.7-1.5-4.5c0-2.2,0.5-3.9,1.6-5.1s2.4-1.8,4.1-1.8
			C1075.3,593.8,1076.5,594.2,1077.3,594.9z"/>
		<path class="st6" d="M1090.2,595.4c1.1,1.1,1.7,2.7,1.7,4.8c0,2-0.5,3.7-1.5,5s-2.5,2-4.6,2c-1.7,0-3.1-0.6-4.1-1.8
			s-1.5-2.7-1.5-4.7c0-2.1,0.5-3.8,1.6-5s2.5-1.9,4.3-1.9C1087.7,593.8,1089.1,594.4,1090.2,595.4z M1088.9,603.8
			c0.5-1.1,0.8-2.2,0.8-3.5c0-1.2-0.2-2.1-0.6-2.9c-0.6-1.2-1.6-1.7-3.1-1.7c-1.3,0-2.2,0.5-2.8,1.5s-0.9,2.2-0.9,3.6
			c0,1.3,0.3,2.4,0.9,3.3s1.5,1.3,2.8,1.3C1087.4,605.4,1088.4,604.9,1088.9,603.8z"/>
		<path class="st6" d="M1094.4,594.2h2.1v1.8c0.5-0.6,1-1.1,1.4-1.3c0.7-0.5,1.5-0.7,2.4-0.7c1,0,1.8,0.2,2.4,0.7
			c0.3,0.3,0.7,0.7,0.9,1.2c0.5-0.7,1-1.2,1.7-1.5s1.3-0.5,2.1-0.5c1.7,0,2.8,0.6,3.4,1.8c0.3,0.7,0.5,1.5,0.5,2.6v8.4h-2.2V598
			c0-0.8-0.2-1.4-0.6-1.7s-0.9-0.5-1.5-0.5c-0.8,0-1.5,0.3-2.1,0.8s-0.9,1.5-0.9,2.8v7.3h-2.1v-8.2c0-0.9-0.1-1.5-0.3-1.9
			c-0.3-0.6-0.9-0.9-1.8-0.9c-0.8,0-1.5,0.3-2.2,0.9s-1,1.7-1,3.4v6.7h-2.1v-12.5H1094.4z"/>
		<path class="st6" d="M1123.6,595.4c1.1,1.1,1.7,2.7,1.7,4.8c0,2-0.5,3.7-1.5,5s-2.5,2-4.6,2c-1.7,0-3.1-0.6-4.1-1.8
			s-1.5-2.7-1.5-4.7c0-2.1,0.5-3.8,1.6-5s2.5-1.9,4.3-1.9C1121.1,593.8,1122.4,594.4,1123.6,595.4z M1122.3,603.8
			c0.5-1.1,0.8-2.2,0.8-3.5c0-1.2-0.2-2.1-0.6-2.9c-0.6-1.2-1.6-1.7-3.1-1.7c-1.3,0-2.2,0.5-2.8,1.5s-0.9,2.2-0.9,3.6
			c0,1.3,0.3,2.4,0.9,3.3s1.5,1.3,2.8,1.3C1120.8,605.4,1121.7,604.9,1122.3,603.8z"/>
		<path class="st6" d="M1135.4,590.4c0.5-0.7,1.4-1.1,2.8-1.1c0.1,0,0.3,0,0.4,0s0.3,0,0.5,0v1.9c-0.2,0-0.4,0-0.5,0s-0.2,0-0.3,0
			c-0.6,0-1,0.2-1.1,0.5s-0.2,1.2-0.2,2.5h2.1v1.7h-2.1v10.8h-2.1v-10.8h-1.7v-1.7h1.7v-2C1135,591.4,1135.1,590.8,1135.4,590.4z"/>
		<path class="st6" d="M1150.2,595.4c1.1,1.1,1.7,2.7,1.7,4.8c0,2-0.5,3.7-1.5,5s-2.5,2-4.6,2c-1.7,0-3.1-0.6-4.1-1.8
			s-1.5-2.7-1.5-4.7c0-2.1,0.5-3.8,1.6-5s2.5-1.9,4.3-1.9C1147.8,593.8,1149.1,594.4,1150.2,595.4z M1148.9,603.8
			c0.5-1.1,0.8-2.2,0.8-3.5c0-1.2-0.2-2.1-0.6-2.9c-0.6-1.2-1.6-1.7-3.1-1.7c-1.3,0-2.2,0.5-2.8,1.5s-0.9,2.2-0.9,3.6
			c0,1.3,0.3,2.4,0.9,3.3s1.5,1.3,2.8,1.3C1147.5,605.4,1148.4,604.9,1148.9,603.8z"/>
		<path class="st6" d="M1162.7,594.9c0.9,0.7,1.4,1.9,1.6,3.6h-2.1c-0.1-0.8-0.4-1.4-0.9-1.9s-1.2-0.8-2.1-0.8c-1.3,0-2.3,0.7-2.9,2
			c-0.4,0.9-0.6,1.9-0.6,3.2s0.3,2.3,0.8,3.2s1.4,1.3,2.5,1.3c0.9,0,1.6-0.3,2.1-0.8s0.9-1.3,1.1-2.2h2.1c-0.2,1.7-0.8,2.9-1.8,3.7
			s-2.1,1.2-3.6,1.2c-1.6,0-2.9-0.6-3.9-1.8s-1.5-2.7-1.5-4.5c0-2.2,0.5-3.9,1.6-5.1s2.4-1.8,4.1-1.8
			C1160.7,593.8,1161.8,594.2,1162.7,594.9z"/>
		<path class="st6" d="M1175.6,595.4c1.1,1.1,1.7,2.7,1.7,4.8c0,2-0.5,3.7-1.5,5s-2.5,2-4.6,2c-1.7,0-3.1-0.6-4.1-1.8
			s-1.5-2.7-1.5-4.7c0-2.1,0.5-3.8,1.6-5s2.5-1.9,4.3-1.9C1173.1,593.8,1174.5,594.4,1175.6,595.4z M1174.3,603.8
			c0.5-1.1,0.8-2.2,0.8-3.5c0-1.2-0.2-2.1-0.6-2.9c-0.6-1.2-1.6-1.7-3.1-1.7c-1.3,0-2.2,0.5-2.8,1.5s-0.9,2.2-0.9,3.6
			c0,1.3,0.3,2.4,0.9,3.3s1.5,1.3,2.8,1.3C1172.8,605.4,1173.8,604.9,1174.3,603.8z"/>
		<path class="st6" d="M754.1,623.3c0.8,0.4,1.5,1,1.9,1.6s0.7,1.4,0.8,2.2c0.1,0.6,0.2,1.5,0.2,2.8h-9.2c0,1.3,0.3,2.3,0.9,3.1
			s1.4,1.2,2.6,1.2c1.1,0,2-0.4,2.6-1.1c0.4-0.4,0.6-0.9,0.8-1.5h2.1c-0.1,0.5-0.2,1-0.5,1.5s-0.7,1-1,1.4c-0.6,0.6-1.4,1-2.4,1.3
			c-0.5,0.1-1.1,0.2-1.7,0.2c-1.6,0-2.9-0.6-4-1.7s-1.6-2.7-1.6-4.8c0-2,0.5-3.7,1.6-4.9s2.5-1.9,4.3-1.9
			C752.4,622.7,753.2,622.9,754.1,623.3z M754.8,628.3c-0.1-0.9-0.3-1.6-0.6-2.2c-0.6-1-1.5-1.5-2.9-1.5c-1,0-1.8,0.3-2.4,1
			s-1,1.6-1,2.7H754.8z"/>
		<path class="st6" d="M758.4,623h2.7l2.9,4.4l2.9-4.4l2.6,0.1l-4.2,6.1l4.4,6.4H767l-3.1-4.7l-3,4.7h-2.7l4.4-6.4L758.4,623z"/>
		<path class="st6" d="M771.4,623h2.1v1.7c0.4-0.6,0.9-1,1.4-1.3c0.7-0.5,1.5-0.7,2.5-0.7c1.4,0,2.6,0.5,3.6,1.6s1.5,2.6,1.5,4.7
			c0,2.7-0.7,4.7-2.1,5.9c-0.9,0.7-2,1.1-3.2,1.1c-0.9,0-1.7-0.2-2.4-0.6c-0.4-0.2-0.8-0.6-1.3-1.2v6.4h-2.1V623z M779.3,632.9
			c0.7-0.8,1-2.1,1-3.7c0-1-0.1-1.9-0.4-2.6c-0.5-1.4-1.5-2.1-3-2.1s-2.5,0.7-3,2.2c-0.3,0.8-0.4,1.8-0.4,3c0,1,0.1,1.8,0.4,2.5
			c0.5,1.3,1.5,1.9,3,1.9C777.9,634.1,778.7,633.7,779.3,632.9z"/>
		<path class="st6" d="M785,618.3h2.1v17.2H785V618.3z"/>
		<path class="st6" d="M799.4,624.2c1.1,1.1,1.7,2.7,1.7,4.8c0,2-0.5,3.7-1.5,5s-2.5,2-4.6,2c-1.7,0-3.1-0.6-4.1-1.8
			s-1.5-2.7-1.5-4.7c0-2.1,0.5-3.8,1.6-5s2.5-1.9,4.3-1.9C796.9,622.6,798.3,623.2,799.4,624.2z M798.1,632.6
			c0.5-1.1,0.8-2.2,0.8-3.5c0-1.2-0.2-2.1-0.6-2.9c-0.6-1.2-1.6-1.7-3.1-1.7c-1.3,0-2.2,0.5-2.8,1.5s-0.9,2.2-0.9,3.6
			c0,1.3,0.3,2.4,0.9,3.3s1.5,1.3,2.8,1.3C796.6,634.2,797.6,633.7,798.1,632.6z"/>
		<path class="st6" d="M803.7,623h2v2.2c0.2-0.4,0.6-0.9,1.2-1.5s1.4-0.9,2.2-0.9c0,0,0.1,0,0.2,0s0.3,0,0.5,0v2.2
			c-0.1,0-0.2,0-0.3,0s-0.2,0-0.3,0c-1.1,0-1.9,0.3-2.4,1s-0.9,1.5-0.9,2.4v7.2h-2.1V623H803.7z"/>
		<path class="st6" d="M818.3,627.9c0.5-0.1,0.8-0.3,1-0.6c0.1-0.2,0.1-0.5,0.1-0.8c0-0.7-0.3-1.2-0.8-1.6s-1.2-0.5-2.2-0.5
			c-1.1,0-1.9,0.3-2.3,0.9c-0.3,0.3-0.4,0.8-0.5,1.5h-2c0-1.5,0.5-2.6,1.5-3.2s2.1-0.9,3.4-0.9c1.5,0,2.7,0.3,3.6,0.8
			c0.9,0.6,1.4,1.4,1.4,2.6v7.2c0,0.2,0,0.4,0.1,0.5s0.3,0.2,0.6,0.2c0.1,0,0.2,0,0.3,0s0.2,0,0.4-0.1v1.6c-0.3,0.1-0.6,0.2-0.8,0.2
			s-0.4,0-0.7,0c-0.7,0-1.3-0.3-1.6-0.8c-0.2-0.3-0.3-0.7-0.4-1.2c-0.4,0.6-1,1.1-1.9,1.5S816,636,815,636c-1.2,0-2.1-0.4-2.9-1.1
			s-1.1-1.6-1.1-2.7c0-1.2,0.4-2.1,1.1-2.7s1.7-1,2.9-1.2L818.3,627.9z M813.9,633.6c0.4,0.4,1,0.5,1.6,0.5c0.7,0,1.5-0.2,2.2-0.5
			c1.2-0.6,1.8-1.5,1.8-2.8v-1.7c-0.3,0.2-0.6,0.3-1,0.4s-0.8,0.2-1.2,0.2l-1.3,0.2c-0.8,0.1-1.3,0.3-1.7,0.5c-0.6,0.4-1,1-1,1.8
			C813.2,632.8,813.4,633.3,813.9,633.6z"/>
		<path class="st6" d="M825,623h2v2.2c0.2-0.4,0.6-0.9,1.2-1.5s1.4-0.9,2.2-0.9c0,0,0.1,0,0.2,0s0.3,0,0.5,0v2.2c-0.1,0-0.2,0-0.3,0
			s-0.2,0-0.3,0c-1.1,0-1.9,0.3-2.4,1s-0.9,1.5-0.9,2.4v7.2H825V623z"/>
		<path class="st6" d="M847.4,623.3c0.8,0.4,1.5,1,1.9,1.6s0.7,1.4,0.8,2.2c0.1,0.6,0.2,1.5,0.2,2.8h-9.2c0,1.3,0.3,2.3,0.9,3.1
			s1.4,1.2,2.6,1.2c1.1,0,2-0.4,2.6-1.1c0.4-0.4,0.6-0.9,0.8-1.5h2.1c-0.1,0.5-0.2,1-0.5,1.5s-0.7,1-1,1.4c-0.6,0.6-1.4,1-2.4,1.3
			c-0.5,0.1-1.1,0.2-1.7,0.2c-1.6,0-2.9-0.6-4-1.7s-1.6-2.7-1.6-4.8c0-2,0.5-3.7,1.6-4.9s2.5-1.9,4.3-1.9
			C845.7,622.7,846.6,622.9,847.4,623.3z M848.2,628.3c-0.1-0.9-0.3-1.6-0.6-2.2c-0.6-1-1.5-1.5-2.9-1.5c-1,0-1.8,0.3-2.4,1
			s-1,1.6-1,2.7H848.2z"/>
		<path class="st6" d="M853,618.3h2.1v17.2H853V618.3z"/>
		<path class="st6" d="M864.8,623h2.1v1.7c0.4-0.6,0.9-1,1.4-1.3c0.7-0.5,1.5-0.7,2.5-0.7c1.4,0,2.6,0.5,3.6,1.6s1.5,2.6,1.5,4.7
			c0,2.7-0.7,4.7-2.1,5.9c-0.9,0.7-2,1.1-3.2,1.1c-0.9,0-1.7-0.2-2.4-0.6c-0.4-0.2-0.8-0.6-1.3-1.2v6.4h-2.1V623z M872.7,632.9
			c0.7-0.8,1-2.1,1-3.7c0-1-0.1-1.9-0.4-2.6c-0.5-1.4-1.5-2.1-3-2.1s-2.5,0.7-3,2.2c-0.3,0.8-0.4,1.8-0.4,3c0,1,0.1,1.8,0.4,2.5
			c0.5,1.3,1.5,1.9,3,1.9C871.2,634.1,872.1,633.7,872.7,632.9z"/>
		<path class="st6" d="M887.5,624.2c1.1,1.1,1.7,2.7,1.7,4.8c0,2-0.5,3.7-1.5,5s-2.5,2-4.6,2c-1.7,0-3.1-0.6-4.1-1.8
			s-1.5-2.7-1.5-4.7c0-2.1,0.5-3.8,1.6-5s2.5-1.9,4.3-1.9C885,622.6,886.4,623.2,887.5,624.2z M886.2,632.6c0.5-1.1,0.8-2.2,0.8-3.5
			c0-1.2-0.2-2.1-0.6-2.9c-0.6-1.2-1.6-1.7-3.1-1.7c-1.3,0-2.2,0.5-2.8,1.5s-0.9,2.2-0.9,3.6c0,1.3,0.3,2.4,0.9,3.3s1.5,1.3,2.8,1.3
			C884.7,634.2,885.6,633.7,886.2,632.6z"/>
		<path class="st6" d="M891.7,618.3h2.1v17.2h-2.1V618.3z"/>
		<path class="st6" d="M906.2,624.2c1.1,1.1,1.7,2.7,1.7,4.8c0,2-0.5,3.7-1.5,5s-2.5,2-4.6,2c-1.7,0-3.1-0.6-4.1-1.8
			s-1.5-2.7-1.5-4.7c0-2.1,0.5-3.8,1.6-5s2.5-1.9,4.3-1.9C903.7,622.6,905,623.2,906.2,624.2z M904.8,632.6c0.5-1.1,0.8-2.2,0.8-3.5
			c0-1.2-0.2-2.1-0.6-2.9c-0.6-1.2-1.6-1.7-3.1-1.7c-1.3,0-2.2,0.5-2.8,1.5s-0.9,2.2-0.9,3.6c0,1.3,0.3,2.4,0.9,3.3s1.5,1.3,2.8,1.3
			C903.4,634.2,904.3,633.7,904.8,632.6z"/>
		<path class="st6" d="M918.3,631.6c0.1,0.7,0.2,1.2,0.5,1.6c0.5,0.7,1.5,1,2.8,1c0.8,0,1.5-0.2,2.1-0.5s0.9-0.9,0.9-1.6
			c0-0.5-0.2-0.9-0.7-1.2c-0.3-0.2-0.9-0.4-1.8-0.6l-1.7-0.4c-1.1-0.3-1.9-0.6-2.4-0.9c-0.9-0.6-1.4-1.4-1.4-2.4
			c0-1.2,0.4-2.1,1.3-2.9s2-1.1,3.5-1.1c1.9,0,3.3,0.6,4.1,1.7c0.5,0.7,0.8,1.5,0.8,2.3h-2c0-0.5-0.2-0.9-0.5-1.3
			c-0.5-0.6-1.3-0.8-2.5-0.8c-0.8,0-1.4,0.2-1.8,0.5s-0.6,0.7-0.6,1.2s0.3,1,0.8,1.3c0.3,0.2,0.8,0.4,1.4,0.5l1.4,0.3
			c1.5,0.4,2.5,0.7,3,1.1c0.8,0.5,1.2,1.4,1.2,2.5s-0.4,2.1-1.3,2.9s-2.1,1.2-3.9,1.2c-1.9,0-3.2-0.4-4-1.3s-1.2-1.9-1.2-3.1H918.3z
			"/>
		<path class="st6" d="M931.1,623v8.3c0,0.6,0.1,1.2,0.3,1.6c0.4,0.8,1.1,1.1,2.1,1.1c1.5,0,2.5-0.7,3-2c0.3-0.7,0.4-1.7,0.4-2.9
			V623h2.1v12.6h-2v-1.9c-0.3,0.5-0.6,0.9-1,1.2c-0.8,0.7-1.8,1-2.9,1c-1.8,0-3-0.6-3.7-1.8c-0.4-0.6-0.5-1.5-0.5-2.6V623H931.1z"/>
		<path class="st6" d="M942.4,623h2v2.2c0.2-0.4,0.6-0.9,1.2-1.5s1.4-0.9,2.2-0.9c0,0,0.1,0,0.2,0s0.3,0,0.5,0v2.2
			c-0.1,0-0.2,0-0.3,0s-0.2,0-0.3,0c-1.1,0-1.9,0.3-2.4,1s-0.9,1.5-0.9,2.4v7.2h-2.1V623H942.4z"/>
		<path class="st6" d="M963.9,623.4c0.4,0.2,0.8,0.6,1.3,1.2v-6.3h2v17.3h-1.9v-1.7c-0.5,0.8-1.1,1.3-1.7,1.7s-1.4,0.5-2.3,0.5
			c-1.4,0-2.6-0.6-3.6-1.8s-1.5-2.7-1.5-4.7c0-1.8,0.5-3.4,1.4-4.8s2.3-2,4-2C962.5,622.8,963.3,623,963.9,623.4z M959.2,632.8
			c0.6,0.9,1.5,1.4,2.7,1.4c1,0,1.8-0.4,2.4-1.3s0.9-2,0.9-3.6s-0.3-2.8-1-3.5s-1.4-1.1-2.4-1.1c-1.1,0-1.9,0.4-2.6,1.2s-1,2-1,3.6
			C958.4,630.8,958.6,631.9,959.2,632.8z"/>
		<path class="st6" d="M978.2,623.3c0.8,0.4,1.5,1,1.9,1.6s0.7,1.4,0.8,2.2c0.1,0.6,0.2,1.5,0.2,2.8h-9.2c0,1.3,0.3,2.3,0.9,3.1
			s1.4,1.2,2.6,1.2c1.1,0,2-0.4,2.6-1.1c0.4-0.4,0.6-0.9,0.8-1.5h2.1c-0.1,0.5-0.2,1-0.5,1.5s-0.7,1-1,1.4c-0.6,0.6-1.4,1-2.4,1.3
			c-0.5,0.1-1.1,0.2-1.7,0.2c-1.6,0-2.9-0.6-4-1.7s-1.6-2.7-1.6-4.8c0-2,0.5-3.7,1.6-4.9s2.5-1.9,4.3-1.9
			C976.5,622.7,977.3,622.9,978.2,623.3z M979,628.3c-0.1-0.9-0.3-1.6-0.6-2.2c-0.6-1-1.5-1.5-2.9-1.5c-1,0-1.8,0.3-2.4,1
			s-1,1.6-1,2.7H979z"/>
		<path class="st6" d="M990.4,618.3h2.1v17.2h-2.1V618.3z"/>
		<path class="st6" d="M1002.4,627.9c0.5-0.1,0.8-0.3,1-0.6c0.1-0.2,0.1-0.5,0.1-0.8c0-0.7-0.3-1.2-0.8-1.6s-1.2-0.5-2.2-0.5
			c-1.1,0-1.9,0.3-2.3,0.9c-0.3,0.3-0.4,0.8-0.5,1.5h-2c0-1.5,0.5-2.6,1.5-3.2s2.1-0.9,3.4-0.9c1.5,0,2.7,0.3,3.6,0.8
			c0.9,0.6,1.4,1.4,1.4,2.6v7.2c0,0.2,0,0.4,0.1,0.5s0.3,0.2,0.6,0.2c0.1,0,0.2,0,0.3,0s0.2,0,0.4-0.1v1.6c-0.3,0.1-0.6,0.2-0.8,0.2
			s-0.4,0-0.7,0c-0.7,0-1.3-0.3-1.6-0.8c-0.2-0.3-0.3-0.7-0.4-1.2c-0.4,0.6-1,1.1-1.9,1.5s-1.7,0.6-2.7,0.6c-1.2,0-2.1-0.4-2.9-1.1
			s-1.1-1.6-1.1-2.7c0-1.2,0.4-2.1,1.1-2.7s1.7-1,2.9-1.2L1002.4,627.9z M998,633.6c0.4,0.4,1,0.5,1.6,0.5c0.7,0,1.5-0.2,2.2-0.5
			c1.2-0.6,1.8-1.5,1.8-2.8v-1.7c-0.3,0.2-0.6,0.3-1,0.4s-0.8,0.2-1.2,0.2l-1.3,0.2c-0.8,0.1-1.3,0.3-1.7,0.5c-0.6,0.4-1,1-1,1.8
			C997.3,632.8,997.5,633.3,998,633.6z"/>
		<path class="st6" d="M1015.8,618.3h2.1v17.2h-2.1V618.3z"/>
		<path class="st6" d="M1023.2,623v8.3c0,0.6,0.1,1.2,0.3,1.6c0.4,0.8,1.1,1.1,2.1,1.1c1.5,0,2.5-0.7,3-2c0.3-0.7,0.4-1.7,0.4-2.9
			V623h2.1v12.6h-2v-1.9c-0.3,0.5-0.6,0.9-1,1.2c-0.8,0.7-1.8,1-2.9,1c-1.8,0-3-0.6-3.7-1.8c-0.4-0.6-0.5-1.5-0.5-2.6V623H1023.2z"
			/>
		<path class="st6" d="M1034.4,623h2v1.8c0.6-0.7,1.2-1.3,1.9-1.6s1.4-0.5,2.2-0.5c1.8,0,3,0.6,3.6,1.9c0.3,0.7,0.5,1.7,0.5,2.9v8.1
			h-2.1v-7.9c0-0.8-0.1-1.4-0.3-1.9c-0.4-0.8-1.1-1.2-2-1.2c-0.5,0-0.9,0.1-1.2,0.2c-0.6,0.2-1.1,0.5-1.5,1
			c-0.4,0.4-0.6,0.8-0.7,1.3s-0.2,1.1-0.2,1.9v6.6h-2.1V623H1034.4z"/>
		<path class="st6" d="M1054.5,627.9c0.5-0.1,0.8-0.3,1-0.6c0.1-0.2,0.1-0.5,0.1-0.8c0-0.7-0.3-1.2-0.8-1.6s-1.2-0.5-2.2-0.5
			c-1.1,0-1.9,0.3-2.3,0.9c-0.3,0.3-0.4,0.8-0.5,1.5h-2c0-1.5,0.5-2.6,1.5-3.2s2.1-0.9,3.4-0.9c1.5,0,2.7,0.3,3.6,0.8
			c0.9,0.6,1.4,1.4,1.4,2.6v7.2c0,0.2,0,0.4,0.1,0.5s0.3,0.2,0.6,0.2c0.1,0,0.2,0,0.3,0s0.2,0,0.4-0.1v1.6c-0.3,0.1-0.6,0.2-0.8,0.2
			s-0.4,0-0.7,0c-0.7,0-1.3-0.3-1.6-0.8c-0.2-0.3-0.3-0.7-0.4-1.2c-0.4,0.6-1,1.1-1.9,1.5s-1.7,0.6-2.7,0.6c-1.2,0-2.1-0.4-2.9-1.1
			s-1.1-1.6-1.1-2.7c0-1.2,0.4-2.1,1.1-2.7s1.7-1,2.9-1.2L1054.5,627.9z M1050,633.6c0.4,0.4,1,0.5,1.6,0.5c0.7,0,1.5-0.2,2.2-0.5
			c1.2-0.6,1.8-1.5,1.8-2.8v-1.7c-0.3,0.2-0.6,0.3-1,0.4s-0.8,0.2-1.2,0.2l-1.3,0.2c-0.8,0.1-1.3,0.3-1.7,0.5c-0.6,0.4-1,1-1,1.8
			C1049.4,632.8,1049.6,633.3,1050,633.6z"/>
	</g>
</g>
<g>
	<g>
		<path class="st6" d="M747.5,536.8c1.5-1.5,3.4-2.3,5.8-2.3c3.1,0,5.4,1,6.8,3.1c0.8,1.2,1.2,2.3,1.3,3.5h-3.9
			c-0.2-0.9-0.6-1.6-1-2c-0.7-0.8-1.7-1.2-3.1-1.2c-1.4,0-2.5,0.6-3.3,1.7c-0.8,1.1-1.2,2.8-1.2,4.9s0.4,3.7,1.3,4.7
			c0.8,1,1.9,1.6,3.2,1.6s2.4-0.4,3.1-1.3c0.4-0.5,0.7-1.2,1-2.2h3.9c-0.3,2-1.2,3.7-2.6,5c-1.4,1.3-3.1,1.9-5.3,1.9
			c-2.7,0-4.8-0.9-6.3-2.6c-1.5-1.7-2.3-4.1-2.3-7.1C744.9,541,745.7,538.5,747.5,536.8z"/>
		<path class="st6" d="M774.1,539.8c0.7,0.3,1.3,0.8,1.7,1.4c0.4,0.5,0.6,1,0.7,1.6c0.1,0.5,0.1,1.4,0.1,2.7v8.1h-3.7v-8.4
			c0-0.7-0.1-1.3-0.4-1.8c-0.3-0.6-0.9-1-1.9-1c-0.9,0-1.7,0.3-2.2,1c-0.5,0.6-0.7,1.6-0.7,2.7v7.5h-3.6V535h3.6v6.6
			c0.5-0.8,1.1-1.4,1.8-1.7s1.4-0.5,2.2-0.5C772.6,539.3,773.4,539.5,774.1,539.8z"/>
		<path class="st6" d="M785.5,545.1c0.7-0.1,1.2-0.2,1.4-0.3c0.5-0.2,0.8-0.6,0.8-1c0-0.6-0.2-1-0.6-1.2c-0.4-0.2-1-0.3-1.8-0.3
			c-0.9,0-1.5,0.2-1.8,0.6c-0.3,0.3-0.4,0.7-0.5,1.3h-3.5c0.1-1.2,0.4-2.2,1-3c1-1.2,2.6-1.8,4.9-1.8c1.5,0,2.9,0.3,4.1,0.9
			c1.2,0.6,1.8,1.7,1.8,3.4v6.3c0,0.4,0,1,0,1.6c0,0.5,0.1,0.8,0.2,1s0.3,0.3,0.5,0.4v0.5h-3.9c-0.1-0.3-0.2-0.5-0.2-0.8
			s-0.1-0.5-0.1-0.8c-0.5,0.5-1.1,1-1.7,1.4c-0.8,0.4-1.7,0.7-2.7,0.7c-1.3,0-2.3-0.4-3.1-1.1c-0.8-0.7-1.2-1.7-1.2-3
			c0-1.7,0.7-2.9,2-3.7c0.7-0.4,1.8-0.7,3.2-0.9L785.5,545.1z M787.7,546.8c-0.2,0.1-0.5,0.3-0.7,0.3c-0.2,0.1-0.6,0.2-1,0.2
			l-0.8,0.2c-0.8,0.1-1.3,0.3-1.7,0.5c-0.6,0.3-0.9,0.8-0.9,1.5c0,0.6,0.2,1.1,0.5,1.3c0.3,0.3,0.8,0.4,1.3,0.4
			c0.8,0,1.5-0.2,2.2-0.7s1-1.3,1-2.5v-1.2H787.7z"/>
		<path class="st6" d="M805.7,540.5c0.9,0.8,1.4,2,1.4,3.7v9.3h-3.7v-8.4c0-0.7-0.1-1.3-0.3-1.7c-0.4-0.7-1-1.1-2-1.1
			c-1.2,0-2.1,0.5-2.5,1.6c-0.2,0.5-0.4,1.3-0.4,2.1v7.5h-3.6v-13.8h3.5v2c0.5-0.7,0.9-1.2,1.3-1.5c0.7-0.6,1.7-0.8,2.8-0.8
			C803.6,539.3,804.8,539.7,805.7,540.5z"/>
		<path class="st6" d="M817.2,539.7c0.9,0.4,1.6,1,2.1,2v-2h3.5v13.1c0,1.8-0.3,3.1-0.9,4c-1,1.6-3,2.3-5.9,2.3
			c-1.8,0-3.2-0.3-4.3-1s-1.7-1.7-1.9-3.1h3.9c0.1,0.4,0.3,0.7,0.5,0.9c0.4,0.3,1,0.5,2,0.5c1.3,0,2.2-0.4,2.6-1.3
			c0.3-0.6,0.4-1.5,0.4-2.8v-0.9c-0.3,0.6-0.7,1-1.1,1.3c-0.7,0.5-1.7,0.8-2.8,0.8c-1.8,0-3.2-0.6-4.3-1.9c-1.1-1.2-1.6-2.9-1.6-5.1
			c0-2.1,0.5-3.8,1.5-5.2s2.5-2.1,4.3-2.1C816.1,539.3,816.7,539.5,817.2,539.7z M818.5,549.6c0.6-0.6,0.9-1.7,0.9-3.1
			c0-1.3-0.3-2.3-0.8-3s-1.3-1-2.2-1c-1.3,0-2.1,0.6-2.6,1.8c-0.3,0.6-0.4,1.4-0.4,2.3c0,0.8,0.1,1.5,0.4,2.1
			c0.5,1.2,1.4,1.8,2.6,1.8C817.2,550.5,817.9,550.2,818.5,549.6z"/>
		<path class="st6" d="M826.3,540.7c0.9-0.3,1.5-0.7,1.8-1.3c0.2-0.4,0.3-0.7,0.2-1.1h-2.1V535h3.7v2.7c0,1.3-0.3,2.3-1,3
			s-1.5,1.2-2.7,1.4L826.3,540.7L826.3,540.7z"/>
		<path class="st6" d="M842.5,540c1,0.4,1.8,1.1,2.4,2c0.6,0.8,0.9,1.8,1.1,2.9c0.1,0.6,0.1,1.6,0.1,2.7H836
			c0.1,1.4,0.5,2.4,1.4,2.9c0.6,0.3,1.2,0.5,2,0.5s1.5-0.2,2-0.6c0.3-0.2,0.5-0.5,0.7-1h3.7c-0.1,0.8-0.5,1.7-1.3,2.5
			c-1.2,1.3-3,2-5.2,2c-1.8,0-3.5-0.6-4.9-1.7c-1.4-1.1-2.1-3-2.1-5.5c0-2.4,0.6-4.2,1.9-5.5s2.9-1.9,4.9-1.9
			C840.5,539.3,841.5,539.5,842.5,540z M837.1,543.1c-0.5,0.5-0.8,1.2-1,2.1h6.2c-0.1-1-0.4-1.7-1-2.2s-1.3-0.7-2.1-0.7
			C838.3,542.3,837.6,542.6,837.1,543.1z"/>
		<path class="st6" d="M863,539.7c0-0.3-0.1-0.6-0.3-1c-0.4-0.6-1-0.9-1.8-0.9c-1.2,0-2,0.7-2.5,2c-0.3,0.7-0.5,1.8-0.6,3.2
			c0.4-0.5,1-0.9,1.6-1.2c0.6-0.2,1.3-0.4,2-0.4c1.6,0,3,0.6,4,1.7c1,1.1,1.6,2.5,1.6,4.3c0,1.7-0.5,3.2-1.5,4.5s-2.6,2-4.8,2
			c-2.3,0-4-1-5.1-2.9c-0.9-1.5-1.3-3.5-1.3-5.9c0-1.4,0.1-2.5,0.2-3.4c0.2-1.6,0.6-2.9,1.2-3.9c0.5-0.9,1.2-1.6,2.1-2.1
			s1.9-0.8,3.1-0.8c1.7,0,3.1,0.4,4.1,1.3c1,0.9,1.6,2,1.7,3.5L863,539.7L863,539.7z M858.7,550.1c0.5,0.6,1.2,0.9,2,0.9
			s1.4-0.3,1.9-0.9c0.5-0.6,0.7-1.4,0.7-2.4c0-1.1-0.3-1.9-0.8-2.5s-1.2-0.9-1.9-0.9c-0.6,0-1.2,0.2-1.6,0.6
			c-0.7,0.5-1.1,1.4-1.1,2.7C857.9,548.7,858.2,549.5,858.7,550.1z"/>
	</g>
</g>
<g>
	<g>
		<path class="st2" d="M827,78.2h2.3v15.2h8.7v2.1h-11V78.2z"/>
		<path class="st2" d="M846.8,87.8c0.5-0.1,0.8-0.3,1-0.6c0.1-0.2,0.1-0.5,0.1-0.8c0-0.7-0.3-1.2-0.8-1.6s-1.2-0.5-2.2-0.5
			c-1.1,0-1.9,0.3-2.3,0.9c-0.3,0.3-0.4,0.8-0.5,1.5h-2c0-1.5,0.5-2.6,1.5-3.2s2.1-0.9,3.4-0.9c1.5,0,2.7,0.3,3.6,0.8
			c0.9,0.6,1.4,1.4,1.4,2.6v7.2c0,0.2,0,0.4,0.1,0.5s0.3,0.2,0.6,0.2c0.1,0,0.2,0,0.3,0s0.2,0,0.4-0.1v1.6c-0.3,0.1-0.6,0.2-0.8,0.2
			s-0.4,0-0.7,0c-0.7,0-1.3-0.3-1.6-0.8c-0.2-0.3-0.3-0.7-0.4-1.2c-0.4,0.6-1,1.1-1.9,1.5s-1.7,0.6-2.7,0.6c-1.2,0-2.1-0.4-2.9-1.1
			s-1.1-1.6-1.1-2.7c0-1.2,0.4-2.1,1.1-2.7s1.7-1,2.9-1.2L846.8,87.8z M842.4,93.5c0.4,0.4,1,0.5,1.6,0.5c0.7,0,1.5-0.2,2.2-0.5
			c1.2-0.6,1.8-1.5,1.8-2.8V89c-0.3,0.2-0.6,0.3-1,0.4s-0.8,0.2-1.2,0.2l-1.3,0.2c-0.8,0.1-1.3,0.3-1.7,0.5c-0.6,0.4-1,1-1,1.8
			C841.7,92.6,841.9,93.1,842.4,93.5z"/>
		<path class="st2" d="M859.9,82.9h2.1v1.7c0.4-0.6,0.9-1,1.4-1.3c0.7-0.5,1.5-0.7,2.5-0.7c1.4,0,2.6,0.5,3.6,1.6s1.5,2.6,1.5,4.7
			c0,2.7-0.7,4.7-2.1,5.9c-0.9,0.7-2,1.1-3.2,1.1c-0.9,0-1.7-0.2-2.4-0.6c-0.4-0.2-0.8-0.6-1.3-1.2v6.4h-2.1V82.9z M867.9,92.7
			c0.7-0.8,1-2.1,1-3.7c0-1-0.1-1.9-0.4-2.6c-0.5-1.4-1.5-2.1-3-2.1s-2.5,0.7-3,2.2c-0.3,0.8-0.4,1.8-0.4,3c0,1,0.1,1.8,0.4,2.5
			c0.5,1.3,1.5,1.9,3,1.9C866.4,94,867.2,93.5,867.9,92.7z"/>
		<path class="st2" d="M873.5,82.8h2V85c0.2-0.4,0.6-0.9,1.2-1.5s1.4-0.9,2.2-0.9c0,0,0.1,0,0.2,0s0.3,0,0.5,0v2.2
			c-0.1,0-0.2,0-0.3,0s-0.2,0-0.3,0c-1.1,0-1.9,0.3-2.4,1s-0.9,1.5-0.9,2.4v7.2h-2.1V82.8H873.5z"/>
		<path class="st2" d="M881.4,78.2h2.1v2.4h-2.1V78.2z M881.4,82.9h2.1v12.5h-2.1V82.9z"/>
		<path class="st2" d="M886.8,82.8h2.1v1.8c0.5-0.6,1-1.1,1.4-1.3c0.7-0.5,1.5-0.7,2.4-0.7c1,0,1.8,0.2,2.4,0.7
			c0.3,0.3,0.7,0.7,0.9,1.2c0.5-0.7,1-1.2,1.7-1.5s1.3-0.5,2.1-0.5c1.7,0,2.8,0.6,3.4,1.8c0.3,0.7,0.5,1.5,0.5,2.6v8.4h-2.2v-8.7
			c0-0.8-0.2-1.4-0.6-1.7s-0.9-0.5-1.5-0.5c-0.8,0-1.5,0.3-2.1,0.8s-0.9,1.5-0.9,2.8v7.3h-2.1v-8.2c0-0.9-0.1-1.5-0.3-1.9
			c-0.3-0.6-0.9-0.9-1.8-0.9c-0.8,0-1.5,0.3-2.2,0.9s-1,1.7-1,3.4v6.7h-2.1V82.8H886.8z"/>
		<path class="st2" d="M914.6,83.2c0.8,0.4,1.5,1,1.9,1.6s0.7,1.4,0.8,2.2c0.1,0.6,0.2,1.5,0.2,2.8h-9.2c0,1.3,0.3,2.3,0.9,3.1
			s1.4,1.2,2.6,1.2c1.1,0,2-0.4,2.6-1.1c0.4-0.4,0.6-0.9,0.8-1.5h2.1c-0.1,0.5-0.2,1-0.5,1.5s-0.7,1-1,1.4c-0.6,0.6-1.4,1-2.4,1.3
			c-0.5,0.1-1.1,0.2-1.7,0.2c-1.6,0-2.9-0.6-4-1.7s-1.6-2.7-1.6-4.8c0-2,0.5-3.7,1.6-4.9s2.5-1.9,4.3-1.9
			C912.9,82.5,913.7,82.8,914.6,83.2z M915.4,88.1c-0.1-0.9-0.3-1.6-0.6-2.2c-0.6-1-1.5-1.5-2.9-1.5c-1,0-1.8,0.3-2.4,1
			s-1,1.6-1,2.7H915.4z"/>
		<path class="st2" d="M920.2,82.8h2V85c0.2-0.4,0.6-0.9,1.2-1.5s1.4-0.9,2.2-0.9c0,0,0.1,0,0.2,0s0.3,0,0.5,0v2.2
			c-0.1,0-0.2,0-0.3,0s-0.2,0-0.3,0c-1.1,0-1.9,0.3-2.4,1s-0.9,1.5-0.9,2.4v7.2h-2.1V82.8H920.2z"/>
		<path class="st2" d="M934.8,87.8c0.5-0.1,0.8-0.3,1-0.6c0.1-0.2,0.1-0.5,0.1-0.8c0-0.7-0.3-1.2-0.8-1.6s-1.2-0.5-2.2-0.5
			c-1.1,0-1.9,0.3-2.3,0.9c-0.3,0.3-0.4,0.8-0.5,1.5h-2c0-1.5,0.5-2.6,1.5-3.2s2.1-0.9,3.4-0.9c1.5,0,2.7,0.3,3.6,0.8
			c0.9,0.6,1.4,1.4,1.4,2.6v7.2c0,0.2,0,0.4,0.1,0.5s0.3,0.2,0.6,0.2c0.1,0,0.2,0,0.3,0s0.2,0,0.4-0.1v1.6c-0.3,0.1-0.6,0.2-0.8,0.2
			s-0.4,0-0.7,0c-0.7,0-1.3-0.3-1.6-0.8c-0.2-0.3-0.3-0.7-0.4-1.2c-0.4,0.6-1,1.1-1.9,1.5s-1.7,0.6-2.7,0.6c-1.2,0-2.1-0.4-2.9-1.1
			s-1.1-1.6-1.1-2.7c0-1.2,0.4-2.1,1.1-2.7s1.7-1,2.9-1.2L934.8,87.8z M930.4,93.5c0.4,0.4,1,0.5,1.6,0.5c0.7,0,1.5-0.2,2.2-0.5
			c1.2-0.6,1.8-1.5,1.8-2.8V89c-0.3,0.2-0.6,0.3-1,0.4s-0.8,0.2-1.2,0.2l-1.3,0.2c-0.8,0.1-1.3,0.3-1.7,0.5c-0.6,0.4-1,1-1,1.8
			C929.7,92.6,929.9,93.1,930.4,93.5z"/>
		<path class="st2" d="M948.1,82.8h2.1v1.8c0.5-0.6,1-1.1,1.4-1.3c0.7-0.5,1.5-0.7,2.4-0.7c1,0,1.8,0.2,2.4,0.7
			c0.3,0.3,0.7,0.7,0.9,1.2c0.5-0.7,1-1.2,1.7-1.5s1.3-0.5,2.1-0.5c1.7,0,2.8,0.6,3.4,1.8c0.3,0.7,0.5,1.5,0.5,2.6v8.4h-2.2v-8.7
			c0-0.8-0.2-1.4-0.6-1.7s-0.9-0.5-1.5-0.5c-0.8,0-1.5,0.3-2.1,0.8s-0.9,1.5-0.9,2.8v7.3h-2.1v-8.2c0-0.9-0.1-1.5-0.3-1.9
			c-0.3-0.6-0.9-0.9-1.8-0.9c-0.8,0-1.5,0.3-2.2,0.9s-1,1.7-1,3.4v6.7h-2.1V82.8H948.1z"/>
		<path class="st2" d="M968.1,78.2h2.1v2.4h-2.1V78.2z M968.1,82.9h2.1v12.5h-2.1V82.9z"/>
		<path class="st2" d="M974.7,91.4c0.1,0.7,0.2,1.2,0.5,1.6c0.5,0.7,1.5,1,2.8,1c0.8,0,1.5-0.2,2.1-0.5s0.9-0.9,0.9-1.6
			c0-0.5-0.2-0.9-0.7-1.2c-0.3-0.2-0.9-0.4-1.8-0.6l-1.7-0.4c-1.1-0.3-1.9-0.6-2.4-0.9c-0.9-0.6-1.4-1.4-1.4-2.4
			c0-1.2,0.4-2.1,1.3-2.9s2-1.1,3.5-1.1c1.9,0,3.3,0.6,4.1,1.7c0.5,0.7,0.8,1.5,0.8,2.3h-2c0-0.5-0.2-0.9-0.5-1.3
			c-0.5-0.6-1.3-0.8-2.5-0.8c-0.8,0-1.4,0.2-1.8,0.5s-0.6,0.7-0.6,1.2s0.3,1,0.8,1.3c0.3,0.2,0.8,0.4,1.4,0.5l1.4,0.3
			c1.5,0.4,2.5,0.7,3,1.1c0.8,0.5,1.2,1.4,1.2,2.5s-0.4,2.1-1.3,2.9s-2.1,1.2-3.9,1.2c-1.9,0-3.2-0.4-4-1.3s-1.2-1.9-1.2-3.1
			C972.7,91.4,974.7,91.4,974.7,91.4z"/>
		<path class="st2" d="M985.4,78.2h2.1v2.4h-2.1V78.2z M985.4,82.9h2.1v12.5h-2.1V82.9z"/>
		<path class="st2" d="M999.9,84.1c1.1,1.1,1.7,2.7,1.7,4.8c0,2-0.5,3.7-1.5,5s-2.5,2-4.6,2c-1.7,0-3.1-0.6-4.1-1.8
			s-1.5-2.7-1.5-4.7c0-2.1,0.5-3.8,1.6-5s2.5-1.9,4.3-1.9C997.5,82.5,998.8,83,999.9,84.1z M998.6,92.4c0.5-1.1,0.8-2.2,0.8-3.5
			c0-1.2-0.2-2.1-0.6-2.9c-0.6-1.2-1.6-1.7-3.1-1.7c-1.3,0-2.2,0.5-2.8,1.5S992,88,992,89.4c0,1.3,0.3,2.4,0.9,3.3s1.5,1.3,2.8,1.3
			C997.2,94,998.1,93.5,998.6,92.4z M998.3,77.8l-3.1,3.4h-1.6l2.1-3.4H998.3z"/>
		<path class="st2" d="M1004.1,82.8h2v1.8c0.6-0.7,1.2-1.3,1.9-1.6s1.4-0.5,2.2-0.5c1.8,0,3,0.6,3.6,1.9c0.3,0.7,0.5,1.7,0.5,2.9
			v8.1h-2.1v-7.9c0-0.8-0.1-1.4-0.3-1.9c-0.4-0.8-1.1-1.2-2-1.2c-0.5,0-0.9,0.1-1.2,0.2c-0.6,0.2-1.1,0.5-1.5,1
			c-0.4,0.4-0.6,0.8-0.7,1.3s-0.2,1.1-0.2,1.9v6.6h-2.1V82.8H1004.1z"/>
		<path class="st2" d="M1031.1,83.2c0.4,0.2,0.8,0.6,1.3,1.2v-6.3h2v17.3h-1.9v-1.7c-0.5,0.8-1.1,1.3-1.7,1.7s-1.4,0.5-2.3,0.5
			c-1.4,0-2.6-0.6-3.6-1.8s-1.5-2.7-1.5-4.7c0-1.8,0.5-3.4,1.4-4.8s2.3-2,4-2C1029.6,82.6,1030.4,82.8,1031.1,83.2z M1026.3,92.6
			c0.6,0.9,1.5,1.4,2.7,1.4c1,0,1.8-0.4,2.4-1.3s0.9-2,0.9-3.6s-0.3-2.8-1-3.5s-1.4-1.1-2.4-1.1c-1.1,0-1.9,0.4-2.6,1.2s-1,2-1,3.6
			C1025.5,90.6,1025.8,91.7,1026.3,92.6z"/>
		<path class="st2" d="M1045.3,83.2c0.8,0.4,1.5,1,1.9,1.6s0.7,1.4,0.8,2.2c0.1,0.6,0.2,1.5,0.2,2.8h-9.2c0,1.3,0.3,2.3,0.9,3.1
			s1.4,1.2,2.6,1.2c1.1,0,2-0.4,2.6-1.1c0.4-0.4,0.6-0.9,0.8-1.5h2.1c-0.1,0.5-0.2,1-0.5,1.5s-0.7,1-1,1.4c-0.6,0.6-1.4,1-2.4,1.3
			c-0.5,0.1-1.1,0.2-1.7,0.2c-1.6,0-2.9-0.6-4-1.7s-1.6-2.7-1.6-4.8c0-2,0.5-3.7,1.6-4.9s2.5-1.9,4.3-1.9
			C1043.6,82.5,1044.5,82.8,1045.3,83.2z M1046.1,88.1c-0.1-0.9-0.3-1.6-0.6-2.2c-0.6-1-1.5-1.5-2.9-1.5c-1,0-1.8,0.3-2.4,1
			s-1,1.6-1,2.7H1046.1z"/>
		<path class="st2" d="M1057.6,82.8h2V85c0.2-0.4,0.6-0.9,1.2-1.5s1.4-0.9,2.2-0.9c0,0,0.1,0,0.2,0s0.3,0,0.5,0v2.2
			c-0.1,0-0.2,0-0.3,0s-0.2,0-0.3,0c-1.1,0-1.9,0.3-2.4,1s-0.9,1.5-0.9,2.4v7.2h-2.1L1057.6,82.8L1057.6,82.8z"/>
		<path class="st2" d="M1073.3,83.2c0.8,0.4,1.5,1,1.9,1.6s0.7,1.4,0.8,2.2c0.1,0.6,0.2,1.5,0.2,2.8h-9.2c0,1.3,0.3,2.3,0.9,3.1
			s1.4,1.2,2.6,1.2c1.1,0,2-0.4,2.6-1.1c0.4-0.4,0.6-0.9,0.8-1.5h2.1c-0.1,0.5-0.2,1-0.5,1.5s-0.7,1-1,1.4c-0.6,0.6-1.4,1-2.4,1.3
			c-0.5,0.1-1.1,0.2-1.7,0.2c-1.6,0-2.9-0.6-4-1.7s-1.6-2.7-1.6-4.8c0-2,0.5-3.7,1.6-4.9s2.5-1.9,4.3-1.9
			C1071.6,82.5,1072.5,82.8,1073.3,83.2z M1074.1,88.1c-0.1-0.9-0.3-1.6-0.6-2.2c-0.6-1-1.5-1.5-2.9-1.5c-1,0-1.8,0.3-2.4,1
			s-1,1.6-1,2.7H1074.1z"/>
		<path class="st2" d="M1079.3,79.3h2.1v3.5h2v1.7h-2v8.2c0,0.4,0.1,0.7,0.4,0.9c0.2,0.1,0.4,0.1,0.8,0.1c0.1,0,0.2,0,0.3,0
			s0.3,0,0.4,0v1.7c-0.2,0.1-0.5,0.1-0.8,0.2s-0.5,0-0.8,0c-1,0-1.7-0.3-2-0.8s-0.5-1.2-0.5-2v-8.3h-1.7v-1.7h1.7L1079.3,79.3
			L1079.3,79.3z"/>
		<path class="st2" d="M1094.7,84.1c1.1,1.1,1.7,2.7,1.7,4.8c0,2-0.5,3.7-1.5,5s-2.5,2-4.6,2c-1.7,0-3.1-0.6-4.1-1.8
			s-1.5-2.7-1.5-4.7c0-2.1,0.5-3.8,1.6-5s2.5-1.9,4.3-1.9C1092.2,82.5,1093.6,83,1094.7,84.1z M1093.4,92.4c0.5-1.1,0.8-2.2,0.8-3.5
			c0-1.2-0.2-2.1-0.6-2.9c-0.6-1.2-1.6-1.7-3.1-1.7c-1.3,0-2.2,0.5-2.8,1.5s-0.9,2.2-0.9,3.6c0,1.3,0.3,2.4,0.9,3.3s1.5,1.3,2.8,1.3
			C1091.9,94,1092.8,93.5,1093.4,92.4z"/>
		<path class="st2" d="M1098.9,82.8h2V85c0.2-0.4,0.6-0.9,1.2-1.5s1.4-0.9,2.2-0.9c0,0,0.1,0,0.2,0s0.3,0,0.5,0v2.2
			c-0.1,0-0.2,0-0.3,0s-0.2,0-0.3,0c-1.1,0-1.9,0.3-2.4,1s-0.9,1.5-0.9,2.4v7.2h-2.1L1098.9,82.8L1098.9,82.8z"/>
		<path class="st2" d="M1106.9,82.8h2v1.8c0.6-0.7,1.2-1.3,1.9-1.6s1.4-0.5,2.2-0.5c1.8,0,3,0.6,3.6,1.9c0.3,0.7,0.5,1.7,0.5,2.9
			v8.1h-2.1v-7.9c0-0.8-0.1-1.4-0.3-1.9c-0.4-0.8-1.1-1.2-2-1.2c-0.5,0-0.9,0.1-1.2,0.2c-0.6,0.2-1.1,0.5-1.5,1
			c-0.4,0.4-0.6,0.8-0.7,1.3s-0.2,1.1-0.2,1.9v6.6h-2.1V82.8H1106.9z"/>
		<path class="st2" d="M1129.4,84.1c1.1,1.1,1.7,2.7,1.7,4.8c0,2-0.5,3.7-1.5,5s-2.5,2-4.6,2c-1.7,0-3.1-0.6-4.1-1.8
			s-1.5-2.7-1.5-4.7c0-2.1,0.5-3.8,1.6-5s2.5-1.9,4.3-1.9C1126.9,82.5,1128.2,83,1129.4,84.1z M1128.1,92.4c0.5-1.1,0.8-2.2,0.8-3.5
			c0-1.2-0.2-2.1-0.6-2.9c-0.6-1.2-1.6-1.7-3.1-1.7c-1.3,0-2.2,0.5-2.8,1.5s-0.9,2.2-0.9,3.6c0,1.3,0.3,2.4,0.9,3.3s1.5,1.3,2.8,1.3
			C1126.6,94,1127.5,93.5,1128.1,92.4z"/>
		<path class="st2" d="M1147.1,83.2c0.4,0.2,0.8,0.6,1.3,1.2v-6.3h2v17.3h-1.9v-1.7c-0.5,0.8-1.1,1.3-1.7,1.7s-1.4,0.5-2.3,0.5
			c-1.4,0-2.6-0.6-3.6-1.8s-1.5-2.7-1.5-4.7c0-1.8,0.5-3.4,1.4-4.8s2.3-2,4-2C1145.7,82.6,1146.5,82.8,1147.1,83.2z M1142.4,92.6
			c0.6,0.9,1.5,1.4,2.7,1.4c1,0,1.8-0.4,2.4-1.3s0.9-2,0.9-3.6s-0.3-2.8-1-3.5s-1.4-1.1-2.4-1.1c-1.1,0-1.9,0.4-2.6,1.2s-1,2-1,3.6
			C1141.6,90.6,1141.8,91.7,1142.4,92.6z"/>
		<path class="st2" d="M1161.4,83.2c0.8,0.4,1.5,1,1.9,1.6s0.7,1.4,0.8,2.2c0.1,0.6,0.2,1.5,0.2,2.8h-9.2c0,1.3,0.3,2.3,0.9,3.1
			s1.4,1.2,2.6,1.2c1.1,0,2-0.4,2.6-1.1c0.4-0.4,0.6-0.9,0.8-1.5h2.1c-0.1,0.5-0.2,1-0.5,1.5s-0.7,1-1,1.4c-0.6,0.6-1.4,1-2.4,1.3
			c-0.5,0.1-1.1,0.2-1.7,0.2c-1.6,0-2.9-0.6-4-1.7s-1.6-2.7-1.6-4.8c0-2,0.5-3.7,1.6-4.9s2.5-1.9,4.3-1.9
			C1159.7,82.5,1160.5,82.8,1161.4,83.2z M1162.2,88.1c-0.1-0.9-0.3-1.6-0.6-2.2c-0.6-1-1.5-1.5-2.9-1.5c-1,0-1.8,0.3-2.4,1
			s-1,1.6-1,2.7H1162.2z"/>
		<path class="st2" d="M1168.2,91.4c0.1,0.7,0.2,1.2,0.5,1.6c0.5,0.7,1.5,1,2.8,1c0.8,0,1.5-0.2,2.1-0.5s0.9-0.9,0.9-1.6
			c0-0.5-0.2-0.9-0.7-1.2c-0.3-0.2-0.9-0.4-1.8-0.6l-1.7-0.4c-1.1-0.3-1.9-0.6-2.4-0.9c-0.9-0.6-1.4-1.4-1.4-2.4
			c0-1.2,0.4-2.1,1.3-2.9s2-1.1,3.5-1.1c1.9,0,3.3,0.6,4.1,1.7c0.5,0.7,0.8,1.5,0.8,2.3h-2c0-0.5-0.2-0.9-0.5-1.3
			c-0.5-0.6-1.3-0.8-2.5-0.8c-0.8,0-1.4,0.2-1.8,0.5s-0.6,0.7-0.6,1.2s0.3,1,0.8,1.3c0.3,0.2,0.8,0.4,1.4,0.5l1.4,0.3
			c1.5,0.4,2.5,0.7,3,1.1c0.8,0.5,1.2,1.4,1.2,2.5s-0.4,2.1-1.3,2.9s-2.1,1.2-3.9,1.2c-1.9,0-3.2-0.4-4-1.3s-1.2-1.9-1.2-3.1
			C1166.2,91.4,1168.2,91.4,1168.2,91.4z"/>
		<path class="st2" d="M1185.8,83.2c0.4,0.2,0.8,0.6,1.3,1.2v-6.3h2v17.3h-1.9v-1.7c-0.5,0.8-1.1,1.3-1.7,1.7s-1.4,0.5-2.3,0.5
			c-1.4,0-2.6-0.6-3.6-1.8s-1.5-2.7-1.5-4.7c0-1.8,0.5-3.4,1.4-4.8s2.3-2,4-2C1184.4,82.6,1185.2,82.8,1185.8,83.2z M1181.1,92.6
			c0.6,0.9,1.5,1.4,2.7,1.4c1,0,1.8-0.4,2.4-1.3s0.9-2,0.9-3.6s-0.3-2.8-1-3.5s-1.4-1.1-2.4-1.1c-1.1,0-1.9,0.4-2.6,1.2s-1,2-1,3.6
			C1180.2,90.6,1180.5,91.7,1181.1,92.6z"/>
		<path class="st2" d="M1200.1,83.2c0.8,0.4,1.5,1,1.9,1.6s0.7,1.4,0.8,2.2c0.1,0.6,0.2,1.5,0.2,2.8h-9.2c0,1.3,0.3,2.3,0.9,3.1
			s1.4,1.2,2.6,1.2c1.1,0,2-0.4,2.6-1.1c0.4-0.4,0.6-0.9,0.8-1.5h2.1c-0.1,0.5-0.2,1-0.5,1.5s-0.7,1-1,1.4c-0.6,0.6-1.4,1-2.4,1.3
			c-0.5,0.1-1.1,0.2-1.7,0.2c-1.6,0-2.9-0.6-4-1.7s-1.6-2.7-1.6-4.8c0-2,0.5-3.7,1.6-4.9s2.5-1.9,4.3-1.9
			C1198.4,82.5,1199.2,82.8,1200.1,83.2z M1200.8,88.1c-0.1-0.9-0.3-1.6-0.6-2.2c-0.6-1-1.5-1.5-2.9-1.5c-1,0-1.8,0.3-2.4,1
			s-1,1.6-1,2.7H1200.8z"/>
		<path class="st2" d="M826.8,107h2.1v17.2h-2.1V107z"/>
		<path class="st2" d="M838.8,116.6c0.5-0.1,0.8-0.3,1-0.6c0.1-0.2,0.1-0.5,0.1-0.8c0-0.7-0.3-1.2-0.8-1.6s-1.2-0.5-2.2-0.5
			c-1.1,0-1.9,0.3-2.3,0.9c-0.3,0.3-0.4,0.8-0.5,1.5h-2c0-1.5,0.5-2.6,1.5-3.2s2.1-0.9,3.4-0.9c1.5,0,2.7,0.3,3.6,0.8
			c0.9,0.6,1.4,1.4,1.4,2.6v7.2c0,0.2,0,0.4,0.1,0.5s0.3,0.2,0.6,0.2c0.1,0,0.2,0,0.3,0s0.2,0,0.4-0.1v1.6c-0.3,0.1-0.6,0.2-0.8,0.2
			s-0.4,0-0.7,0c-0.7,0-1.3-0.3-1.6-0.8c-0.2-0.3-0.3-0.7-0.4-1.2c-0.4,0.6-1,1.1-1.9,1.5s-1.7,0.6-2.7,0.6c-1.2,0-2.1-0.4-2.9-1.1
			s-1.1-1.6-1.1-2.7c0-1.2,0.4-2.1,1.1-2.7s1.7-1,2.9-1.2L838.8,116.6z M834.4,122.3c0.4,0.4,1,0.5,1.6,0.5c0.7,0,1.5-0.2,2.2-0.5
			c1.2-0.6,1.8-1.5,1.8-2.8v-1.7c-0.3,0.2-0.6,0.3-1,0.4s-0.8,0.2-1.2,0.2l-1.3,0.2c-0.8,0.1-1.3,0.3-1.7,0.5c-0.6,0.4-1,1-1,1.8
			C833.7,121.4,833.9,121.9,834.4,122.3z"/>
		<path class="st2" d="M852.1,107h2.1v17.2h-2.1V107z"/>
		<path class="st2" d="M859.5,111.6v8.3c0,0.6,0.1,1.2,0.3,1.6c0.4,0.8,1.1,1.1,2.1,1.1c1.5,0,2.5-0.7,3-2c0.3-0.7,0.4-1.7,0.4-2.9
			v-6.2h2.1v12.6h-2v-1.9c-0.3,0.5-0.6,0.9-1,1.2c-0.8,0.7-1.8,1-2.9,1c-1.8,0-3-0.6-3.7-1.8c-0.4-0.6-0.5-1.5-0.5-2.6v-8.5h2.2
			V111.6z"/>
		<path class="st2" d="M870.8,111.6h2v1.8c0.6-0.7,1.2-1.3,1.9-1.6s1.4-0.5,2.2-0.5c1.8,0,3,0.6,3.6,1.9c0.3,0.7,0.5,1.7,0.5,2.9
			v8.1h-2.1v-7.9c0-0.8-0.1-1.4-0.3-1.9c-0.4-0.8-1.1-1.2-2-1.2c-0.5,0-0.9,0.1-1.2,0.2c-0.6,0.2-1.1,0.5-1.5,1
			c-0.4,0.4-0.6,0.8-0.7,1.3s-0.2,1.1-0.2,1.9v6.6h-2.1v-12.6H870.8z"/>
		<path class="st2" d="M890.8,116.6c0.5-0.1,0.8-0.3,1-0.6c0.1-0.2,0.1-0.5,0.1-0.8c0-0.7-0.3-1.2-0.8-1.6s-1.2-0.5-2.2-0.5
			c-1.1,0-1.9,0.3-2.3,0.9c-0.3,0.3-0.4,0.8-0.5,1.5h-2c0-1.5,0.5-2.6,1.5-3.2s2.1-0.9,3.4-0.9c1.5,0,2.7,0.3,3.6,0.8
			c0.9,0.6,1.4,1.4,1.4,2.6v7.2c0,0.2,0,0.4,0.1,0.5s0.3,0.2,0.6,0.2c0.1,0,0.2,0,0.3,0s0.2,0,0.4-0.1v1.6c-0.3,0.1-0.6,0.2-0.8,0.2
			s-0.4,0-0.7,0c-0.7,0-1.3-0.3-1.6-0.8c-0.2-0.3-0.3-0.7-0.4-1.2c-0.4,0.6-1,1.1-1.9,1.5s-1.7,0.6-2.7,0.6c-1.2,0-2.1-0.4-2.9-1.1
			s-1.1-1.6-1.1-2.7c0-1.2,0.4-2.1,1.1-2.7s1.7-1,2.9-1.2L890.8,116.6z M886.4,122.3c0.4,0.4,1,0.5,1.6,0.5c0.7,0,1.5-0.2,2.2-0.5
			c1.2-0.6,1.8-1.5,1.8-2.8v-1.7c-0.3,0.2-0.6,0.3-1,0.4s-0.8,0.2-1.2,0.2l-1.3,0.2c-0.8,0.1-1.3,0.3-1.7,0.5c-0.6,0.4-1,1-1,1.8
			C885.7,121.4,886,121.9,886.4,122.3z"/>
		<path class="st2" d="M898,121.6h2.4v2.6H898V121.6z"/>
		<path class="st2" d="M911.1,107h2.8l8.7,13.9V107h2.2v17.2h-2.6l-8.8-13.9v13.9h-2.2V107H911.1z"/>
		<path class="st2" d="M937.3,112.9c1.1,1.1,1.7,2.7,1.7,4.8c0,2-0.5,3.7-1.5,5s-2.5,2-4.6,2c-1.7,0-3.1-0.6-4.1-1.8
			s-1.5-2.7-1.5-4.7c0-2.1,0.5-3.8,1.6-5s2.5-1.9,4.3-1.9C934.8,111.3,936.2,111.8,937.3,112.9z M936,121.2c0.5-1.1,0.8-2.2,0.8-3.5
			c0-1.2-0.2-2.1-0.6-2.9c-0.6-1.2-1.6-1.7-3.1-1.7c-1.3,0-2.2,0.5-2.8,1.5s-0.9,2.2-0.9,3.6c0,1.3,0.3,2.4,0.9,3.3s1.5,1.3,2.8,1.3
			C934.5,122.8,935.5,122.3,936,121.2z"/>
		<path class="st2" d="M957.3,112.9c1.1,1.1,1.7,2.7,1.7,4.8c0,2-0.5,3.7-1.5,5s-2.5,2-4.6,2c-1.7,0-3.1-0.6-4.1-1.8
			s-1.5-2.7-1.5-4.7c0-2.1,0.5-3.8,1.6-5s2.5-1.9,4.3-1.9C954.8,111.3,956.2,111.8,957.3,112.9z M956,121.2c0.5-1.1,0.8-2.2,0.8-3.5
			c0-1.2-0.2-2.1-0.6-2.9c-0.6-1.2-1.6-1.7-3.1-1.7c-1.3,0-2.2,0.5-2.8,1.5s-0.9,2.2-0.9,3.6c0,1.3,0.3,2.4,0.9,3.3s1.5,1.3,2.8,1.3
			C954.5,122.8,955.5,122.3,956,121.2z"/>
		<path class="st2" d="M969.8,112.3c0.9,0.7,1.4,1.9,1.6,3.6h-2.1c-0.1-0.8-0.4-1.4-0.9-1.9s-1.2-0.8-2.1-0.8c-1.3,0-2.3,0.7-2.9,2
			c-0.4,0.9-0.6,1.9-0.6,3.2c0,1.3,0.3,2.3,0.8,3.2s1.4,1.3,2.5,1.3c0.9,0,1.6-0.3,2.1-0.8s0.9-1.3,1.1-2.2h2.1
			c-0.2,1.7-0.8,2.9-1.8,3.7s-2.1,1.2-3.6,1.2c-1.6,0-2.9-0.6-3.9-1.8s-1.5-2.7-1.5-4.5c0-2.2,0.5-3.9,1.6-5.1s2.4-1.8,4.1-1.8
			C967.7,111.3,968.9,111.6,969.8,112.3z"/>
		<path class="st2" d="M975.6,111.6v8.3c0,0.6,0.1,1.2,0.3,1.6c0.4,0.8,1.1,1.1,2.1,1.1c1.5,0,2.5-0.7,3-2c0.3-0.7,0.4-1.7,0.4-2.9
			v-6.2h2.1v12.6h-2v-1.9c-0.3,0.5-0.6,0.9-1,1.2c-0.8,0.7-1.8,1-2.9,1c-1.8,0-3-0.6-3.7-1.8c-0.4-0.6-0.5-1.5-0.5-2.6v-8.5h2.2
			V111.6z"/>
		<path class="st2" d="M986.9,111.6h2v2.2c0.2-0.4,0.6-0.9,1.2-1.5s1.4-0.9,2.2-0.9c0,0,0.1,0,0.2,0s0.3,0,0.5,0v2.2
			c-0.1,0-0.2,0-0.3,0s-0.2,0-0.3,0c-1.1,0-1.9,0.3-2.4,1s-0.9,1.5-0.9,2.4v7.2H987v-12.6H986.9z"/>
		<path class="st2" d="M994.9,111.6h2v2.2c0.2-0.4,0.6-0.9,1.2-1.5s1.4-0.9,2.2-0.9c0,0,0.1,0,0.2,0s0.3,0,0.5,0v2.2
			c-0.1,0-0.2,0-0.3,0s-0.2,0-0.3,0c-1.1,0-1.9,0.3-2.4,1s-0.9,1.5-0.9,2.4v7.2H995v-12.6H994.9z"/>
		<path class="st2" d="M1002.8,107h2.1v2.4h-2.1V107z M1002.8,111.7h2.1v12.5h-2.1V111.7z"/>
		<path class="st2" d="M1014.9,116.6c0.5-0.1,0.8-0.3,1-0.6c0.1-0.2,0.1-0.5,0.1-0.8c0-0.7-0.3-1.2-0.8-1.6s-1.2-0.5-2.2-0.5
			c-1.1,0-1.9,0.3-2.3,0.9c-0.3,0.3-0.4,0.8-0.5,1.5h-2c0-1.5,0.5-2.6,1.5-3.2s2.1-0.9,3.4-0.9c1.5,0,2.7,0.3,3.6,0.8
			c0.9,0.6,1.4,1.4,1.4,2.6v7.2c0,0.2,0,0.4,0.1,0.5s0.3,0.2,0.6,0.2c0.1,0,0.2,0,0.3,0s0.2,0,0.4-0.1v1.6c-0.3,0.1-0.6,0.2-0.8,0.2
			s-0.4,0-0.7,0c-0.7,0-1.3-0.3-1.6-0.8c-0.2-0.3-0.3-0.7-0.4-1.2c-0.4,0.6-1,1.1-1.9,1.5s-1.7,0.6-2.7,0.6c-1.2,0-2.1-0.4-2.9-1.1
			s-1.1-1.6-1.1-2.7c0-1.2,0.4-2.1,1.1-2.7s1.7-1,2.9-1.2L1014.9,116.6z M1010.4,122.3c0.4,0.4,1,0.5,1.6,0.5c0.7,0,1.5-0.2,2.2-0.5
			c1.2-0.6,1.8-1.5,1.8-2.8v-1.7c-0.3,0.2-0.6,0.3-1,0.4s-0.8,0.2-1.2,0.2l-1.3,0.2c-0.8,0.1-1.3,0.3-1.7,0.5c-0.6,0.4-1,1-1,1.8
			C1009.8,121.4,1010,121.9,1010.4,122.3z"/>
		<path class="st2" d="M1035.1,112c0.4,0.2,0.8,0.6,1.3,1.2v-6.3h2v17.3h-1.9v-1.7c-0.5,0.8-1.1,1.3-1.7,1.7s-1.4,0.5-2.3,0.5
			c-1.4,0-2.6-0.6-3.6-1.8s-1.5-2.7-1.5-4.7c0-1.8,0.5-3.4,1.4-4.8s2.3-2,4-2C1033.6,111.4,1034.4,111.6,1035.1,112z M1030.4,121.4
			c0.6,0.9,1.5,1.4,2.7,1.4c1,0,1.8-0.4,2.4-1.3s0.9-2,0.9-3.6s-0.3-2.8-1-3.5s-1.4-1.1-2.4-1.1c-1.1,0-1.9,0.4-2.6,1.2s-1,2-1,3.6
			C1029.5,119.4,1029.8,120.5,1030.4,121.4z"/>
		<path class="st2" d="M1049.3,112c0.8,0.4,1.5,1,1.9,1.6s0.7,1.4,0.8,2.2c0.1,0.6,0.2,1.5,0.2,2.8h-9.2c0,1.3,0.3,2.3,0.9,3.1
			s1.4,1.2,2.6,1.2c1.1,0,2-0.4,2.6-1.1c0.4-0.4,0.6-0.9,0.8-1.5h2.1c-0.1,0.5-0.2,1-0.5,1.5s-0.7,1-1,1.4c-0.6,0.6-1.4,1-2.4,1.3
			c-0.5,0.1-1.1,0.2-1.7,0.2c-1.6,0-2.9-0.6-4-1.7s-1.6-2.7-1.6-4.8c0-2,0.5-3.7,1.6-4.9s2.5-1.9,4.3-1.9
			C1047.6,111.3,1048.5,111.6,1049.3,112z M1050.1,116.9c-0.1-0.9-0.3-1.6-0.6-2.2c-0.6-1-1.5-1.5-2.9-1.5c-1,0-1.8,0.3-2.4,1
			s-1,1.6-1,2.7H1050.1z"/>
		<path class="st2" d="M1056.1,120.2c0.1,0.7,0.2,1.2,0.5,1.6c0.5,0.7,1.5,1,2.8,1c0.8,0,1.5-0.2,2.1-0.5s0.9-0.9,0.9-1.6
			c0-0.5-0.2-0.9-0.7-1.2c-0.3-0.2-0.9-0.4-1.8-0.6l-1.7-0.4c-1.1-0.3-1.9-0.6-2.4-0.9c-0.9-0.6-1.4-1.4-1.4-2.4
			c0-1.2,0.4-2.1,1.3-2.9s2-1.1,3.5-1.1c1.9,0,3.3,0.6,4.1,1.7c0.5,0.7,0.8,1.5,0.8,2.3h-2c0-0.5-0.2-0.9-0.5-1.3
			c-0.5-0.6-1.3-0.8-2.5-0.8c-0.8,0-1.4,0.2-1.8,0.5s-0.6,0.7-0.6,1.2s0.3,1,0.8,1.3c0.3,0.2,0.8,0.4,1.4,0.5l1.4,0.3
			c1.5,0.4,2.5,0.7,3,1.1c0.8,0.5,1.2,1.4,1.2,2.5s-0.4,2.1-1.3,2.9s-2.1,1.2-3.9,1.2c-1.9,0-3.2-0.4-4-1.3s-1.2-1.9-1.2-3.1
			C1054.1,120.2,1056.1,120.2,1056.1,120.2z"/>
		<path class="st2" d="M1073.8,112c0.4,0.2,0.8,0.6,1.3,1.2v-6.3h2v17.3h-1.9v-1.7c-0.5,0.8-1.1,1.3-1.7,1.7s-1.4,0.5-2.3,0.5
			c-1.4,0-2.6-0.6-3.6-1.8s-1.5-2.7-1.5-4.7c0-1.8,0.5-3.4,1.4-4.8s2.3-2,4-2C1072.3,111.4,1073.1,111.6,1073.8,112z M1069.1,121.4
			c0.6,0.9,1.5,1.4,2.7,1.4c1,0,1.8-0.4,2.4-1.3s0.9-2,0.9-3.6s-0.3-2.8-1-3.5s-1.4-1.1-2.4-1.1c-1.1,0-1.9,0.4-2.6,1.2s-1,2-1,3.6
			C1068.2,119.4,1068.5,120.5,1069.1,121.4z"/>
		<path class="st2" d="M1088,112c0.8,0.4,1.5,1,1.9,1.6s0.7,1.4,0.8,2.2c0.1,0.6,0.2,1.5,0.2,2.8h-9.2c0,1.3,0.3,2.3,0.9,3.1
			s1.4,1.2,2.6,1.2c1.1,0,2-0.4,2.6-1.1c0.4-0.4,0.6-0.9,0.8-1.5h2.1c-0.1,0.5-0.2,1-0.5,1.5s-0.7,1-1,1.4c-0.6,0.6-1.4,1-2.4,1.3
			c-0.5,0.1-1.1,0.2-1.7,0.2c-1.6,0-2.9-0.6-4-1.7s-1.6-2.7-1.6-4.8c0-2,0.5-3.7,1.6-4.9s2.5-1.9,4.3-1.9
			C1086.3,111.3,1087.2,111.6,1088,112z M1088.8,116.9c-0.1-0.9-0.3-1.6-0.6-2.2c-0.6-1-1.5-1.5-2.9-1.5c-1,0-1.8,0.3-2.4,1
			s-1,1.6-1,2.7H1088.8z"/>
		<path class="st2" d="M1101,112.3v-1.6c1.5-0.1,2.6-0.4,3.2-0.7s1.1-1.2,1.3-2.5h1.7v16.7h-2.2v-11.9
			C1105,112.3,1101,112.3,1101,112.3z"/>
		<path class="st2" d="M1115.2,120.1c0.1,1.2,0.5,2,1.3,2.4c0.4,0.2,0.9,0.4,1.5,0.4c1,0,1.9-0.4,2.6-1.3s1.2-2.5,1.5-5.1
			c-0.5,0.7-1,1.3-1.7,1.6s-1.4,0.5-2.2,0.5c-1.6,0-2.9-0.5-3.8-1.5s-1.4-2.3-1.4-3.9c0-1.5,0.5-2.9,1.4-4s2.3-1.7,4.1-1.7
			c2.4,0,4.1,1.1,5.1,3.3c0.5,1.2,0.8,2.7,0.8,4.5c0,2.1-0.3,3.9-0.9,5.5c-1,2.6-2.8,4-5.2,4c-1.6,0-2.9-0.4-3.7-1.3
			s-1.3-1.9-1.3-3.2h1.9V120.1z M1120.7,115.9c0.7-0.6,1-1.5,1-2.9c0-1.2-0.3-2.2-0.9-2.8s-1.4-0.9-2.4-0.9s-1.8,0.3-2.5,1
			s-0.9,1.6-0.9,2.8c0,1.1,0.3,2,0.8,2.6s1.4,1,2.5,1C1119.3,116.7,1120,116.4,1120.7,115.9z"/>
		<path class="st2" d="M1137.9,107.7v1.8c-0.5,0.5-1.3,1.4-2.2,2.7s-1.7,2.7-2.4,4.2c-0.7,1.5-1.2,2.8-1.5,4c-0.2,0.8-0.5,2-0.9,3.7
			h-2.3c0.5-3.2,1.7-6.4,3.5-9.6c1.1-1.9,2.2-3.5,3.4-4.8h-9.3v-2.1h11.7V107.7z"/>
		<path class="st2" d="M1149.7,108.8c0.7,1,1.1,2,1.1,3h-2.1c-0.1-0.7-0.3-1.2-0.6-1.6c-0.5-0.7-1.3-1.1-2.3-1.1
			c-1.2,0-2.1,0.5-2.8,1.6s-1.1,2.7-1.2,4.7c0.5-0.7,1.1-1.2,1.8-1.6c0.7-0.3,1.4-0.5,2.2-0.5c1.4,0,2.6,0.4,3.7,1.3s1.6,2.2,1.6,4
			c0,1.5-0.5,2.9-1.5,4s-2.4,1.8-4.2,1.8c-1.6,0-2.9-0.6-4.1-1.8s-1.7-3.2-1.7-6c0-2.1,0.3-3.9,0.8-5.3c1-2.8,2.8-4.2,5.4-4.2
			C1147.6,107.3,1148.9,107.8,1149.7,108.8z M1148.1,121.6c0.6-0.7,0.8-1.6,0.8-2.6c0-0.9-0.2-1.7-0.7-2.5s-1.4-1.2-2.7-1.2
			c-0.9,0-1.7,0.3-2.4,0.9s-1,1.5-1,2.7c0,1.1,0.3,2,0.9,2.7s1.5,1.1,2.6,1.1C1146.7,122.7,1147.5,122.4,1148.1,121.6z"/>
	</g>
</g>
<g>
	<g>
		<path class="st2" d="M827.4,27.9c1.5-1.5,3.4-2.3,5.8-2.3c3.1,0,5.4,1,6.8,3.1c0.8,1.2,1.2,2.3,1.3,3.5h-3.9c-0.2-0.9-0.6-1.6-1-2
			c-0.7-0.8-1.7-1.2-3.1-1.2c-1.4,0-2.5,0.6-3.3,1.7s-1.2,2.8-1.2,4.9s0.4,3.7,1.3,4.7c0.8,1,1.9,1.6,3.2,1.6s2.4-0.4,3.1-1.3
			c0.4-0.5,0.7-1.2,1-2.2h3.9c-0.3,2-1.2,3.7-2.6,5s-3.1,1.9-5.3,1.9c-2.7,0-4.8-0.9-6.3-2.6c-1.5-1.7-2.3-4.1-2.3-7.1
			C824.8,32.2,825.7,29.7,827.4,27.9z"/>
		<path class="st2" d="M854.1,30.9c0.7,0.3,1.3,0.8,1.7,1.4c0.4,0.5,0.6,1,0.7,1.6c0.1,0.5,0.1,1.4,0.1,2.7v8.1h-3.7v-8.4
			c0-0.7-0.1-1.3-0.4-1.8c-0.3-0.6-0.9-1-1.9-1c-0.9,0-1.7,0.3-2.2,1s-0.7,1.6-0.7,2.7v7.5h-3.6V26h3.6v6.6c0.5-0.8,1.1-1.4,1.8-1.7
			c0.7-0.3,1.4-0.5,2.2-0.5C852.6,30.5,853.4,30.6,854.1,30.9z"/>
		<path class="st2" d="M865.5,36.3c0.7-0.1,1.2-0.2,1.4-0.3c0.5-0.2,0.8-0.6,0.8-1c0-0.6-0.2-1-0.6-1.2c-0.4-0.2-1-0.3-1.8-0.3
			c-0.9,0-1.5,0.2-1.8,0.6c-0.3,0.3-0.4,0.7-0.5,1.3h-3.5c0.1-1.2,0.4-2.2,1-3c1-1.2,2.6-1.8,4.9-1.8c1.5,0,2.9,0.3,4.1,0.9
			c1.2,0.6,1.8,1.7,1.8,3.4v6.3c0,0.4,0,1,0,1.6c0,0.5,0.1,0.8,0.2,1c0.1,0.2,0.3,0.3,0.5,0.4v0.5h-3.9c-0.1-0.3-0.2-0.5-0.2-0.8
			c0-0.2-0.1-0.5-0.1-0.8c-0.5,0.5-1.1,1-1.7,1.4c-0.8,0.4-1.7,0.7-2.7,0.7c-1.3,0-2.3-0.4-3.1-1.1c-0.8-0.7-1.2-1.7-1.2-3
			c0-1.7,0.7-2.9,2-3.7c0.7-0.4,1.8-0.7,3.2-0.9L865.5,36.3z M867.7,38c-0.2,0.1-0.5,0.3-0.7,0.3c-0.2,0.1-0.6,0.2-1,0.2l-0.8,0.2
			c-0.8,0.1-1.3,0.3-1.7,0.5c-0.6,0.3-0.9,0.8-0.9,1.5c0,0.6,0.2,1.1,0.5,1.3c0.3,0.3,0.8,0.4,1.3,0.4c0.8,0,1.5-0.2,2.2-0.7
			s1-1.3,1-2.5V38H867.7z"/>
		<path class="st2" d="M885.6,31.6c0.9,0.8,1.4,2,1.4,3.7v9.3h-3.7v-8.4c0-0.7-0.1-1.3-0.3-1.7c-0.4-0.7-1-1.1-2-1.1
			c-1.2,0-2.1,0.5-2.5,1.6c-0.2,0.5-0.4,1.3-0.4,2.1v7.5h-3.6V30.9h3.5v2c0.5-0.7,0.9-1.2,1.3-1.5c0.7-0.6,1.7-0.8,2.8-0.8
			C883.5,30.5,884.7,30.9,885.6,31.6z"/>
		<path class="st2" d="M897.2,30.8c0.9,0.4,1.6,1,2.1,2v-2h3.5V44c0,1.8-0.3,3.1-0.9,4c-1,1.6-3,2.3-5.9,2.3c-1.8,0-3.2-0.3-4.3-1
			s-1.7-1.7-1.9-3.1h3.9c0.1,0.4,0.3,0.7,0.5,0.9c0.4,0.3,1,0.5,2,0.5c1.3,0,2.2-0.4,2.6-1.3c0.3-0.6,0.4-1.5,0.4-2.8v-0.9
			c-0.3,0.6-0.7,1-1.1,1.3c-0.7,0.5-1.7,0.8-2.8,0.8c-1.8,0-3.2-0.6-4.3-1.9c-1.1-1.2-1.6-2.9-1.6-5.1c0-2.1,0.5-3.8,1.5-5.2
			c1-1.4,2.5-2.1,4.3-2.1C896.1,30.5,896.7,30.6,897.2,30.8z M898.4,40.8c0.6-0.6,0.9-1.7,0.9-3.1c0-1.3-0.3-2.3-0.8-3s-1.3-1-2.2-1
			c-1.3,0-2.1,0.6-2.6,1.8c-0.3,0.6-0.4,1.4-0.4,2.3c0,0.8,0.1,1.5,0.4,2.1c0.5,1.2,1.4,1.8,2.6,1.8
			C897.1,41.7,897.8,41.4,898.4,40.8z"/>
		<path class="st2" d="M906.3,31.8c0.9-0.3,1.5-0.7,1.8-1.3c0.2-0.4,0.3-0.7,0.2-1.1h-2.1V26h3.7v2.7c0,1.3-0.3,2.3-1,3
			s-1.5,1.2-2.7,1.4L906.3,31.8L906.3,31.8z"/>
		<path class="st2" d="M922.5,31.1c1,0.4,1.8,1.1,2.4,2c0.6,0.8,0.9,1.8,1.1,2.9c0.1,0.6,0.1,1.6,0.1,2.7H916
			c0.1,1.4,0.5,2.4,1.4,2.9c0.6,0.3,1.2,0.5,2,0.5s1.5-0.2,2-0.6c0.3-0.2,0.5-0.5,0.7-1h3.7c-0.1,0.8-0.5,1.7-1.3,2.5
			c-1.2,1.3-3,2-5.2,2c-1.8,0-3.5-0.6-4.9-1.7c-1.4-1.1-2.1-3-2.1-5.5c0-2.4,0.6-4.2,1.9-5.5s2.9-1.9,4.9-1.9
			C920.4,30.5,921.5,30.7,922.5,31.1z M917,34.3c-0.5,0.5-0.8,1.2-1,2.1h6.2c-0.1-1-0.4-1.7-1-2.2s-1.3-0.7-2.1-0.7
			C918.3,33.5,917.6,33.7,917,34.3z"/>
		<path class="st2" d="M937.7,39.8c0.1,0.8,0.4,1.4,0.8,1.8c0.4,0.4,1,0.6,1.8,0.6c0.9,0,1.6-0.3,2-0.9c0.5-0.6,0.7-1.4,0.7-2.4
			c0-0.9-0.2-1.7-0.7-2.4c-0.4-0.6-1.1-1-2.1-1c-0.4,0-0.8,0.1-1.1,0.2c-0.6,0.2-1,0.6-1.3,1.1l-3.2-0.2l1.3-10.2H946v3.1h-7.5
			l-0.7,4c0.6-0.4,1-0.6,1.3-0.7c0.5-0.2,1.2-0.3,1.9-0.3c1.5,0,2.8,0.5,4,1.5c1.1,1,1.7,2.5,1.7,4.5c0,1.7-0.5,3.2-1.6,4.6
			s-2.7,2-4.9,2c-1.8,0-3.2-0.5-4.3-1.4s-1.8-2.3-1.9-4h3.7V39.8z"/>
	</g>
</g>
<polyline class="st0" points="516,488.6 475.3,441.7 127,441.7 75,441.7 "/>
<polyline class="st7" points="798.7,178.6 823.3,137.4 990.9,137.4 1220.4,137.4 "/>
<polyline class="st8" points="714.8,693.7 739.4,652.5 907.1,652.5 1136.5,652.5 1231.8,652.5 "/>
<ellipse class="st6" cx="699.8" cy="513.2" rx="20" ry="20.5"/>
<g>
	<g>
		<path class="st5" d="M76.6,369.1c0.5-1.1,1.5-2,3-2.9l2.2-1.3c1-0.6,1.7-1.1,2.1-1.5c0.6-0.6,1-1.4,1-2.2c0-1-0.3-1.8-0.9-2.3
			s-1.4-0.9-2.3-0.9c-1.4,0-2.4,0.5-3,1.6c-0.3,0.6-0.5,1.4-0.5,2.4h-2.1c0-1.5,0.3-2.7,0.8-3.6c0.9-1.6,2.5-2.4,4.8-2.4
			c1.9,0,3.3,0.5,4.2,1.6s1.3,2.2,1.3,3.5s-0.5,2.5-1.4,3.4c-0.5,0.6-1.5,1.2-2.9,2l-1.6,0.9c-0.8,0.4-1.4,0.8-1.8,1.2
			c-0.8,0.7-1.3,1.4-1.5,2.3h9.2v2H75.7C75.8,371.4,76.1,370.1,76.6,369.1z"/>
		<path class="st5" d="M99.5,358.7c0.8,1.4,1.1,3.3,1.1,5.7c0,2.3-0.3,4.2-1,5.7c-1,2.1-2.6,3.2-4.8,3.2c-2,0-3.5-0.9-4.5-2.6
			c-0.8-1.5-1.2-3.4-1.2-5.9c0-1.9,0.2-3.5,0.7-4.9c0.9-2.5,2.6-3.8,5-3.8C97,356,98.6,356.9,99.5,358.7z M97.4,369.9
			c0.6-1,1-2.8,1-5.4c0-1.9-0.2-3.5-0.7-4.7S96.3,358,95,358c-1.2,0-2.2,0.6-2.7,1.8s-0.9,2.9-0.9,5.2c0,1.7,0.2,3.1,0.6,4.1
			c0.6,1.6,1.5,2.4,2.9,2.4C95.9,371.4,96.8,370.9,97.4,369.9z"/>
		<path class="st5" d="M104,360.9v-1.6c1.5-0.1,2.6-0.4,3.2-0.7s1.1-1.2,1.3-2.5h1.7v16.7H108v-11.9H104z"/>
		<path class="st5" d="M117.3,363c-0.6-0.6-0.9-1.4-0.9-2.4c0-1.2,0.5-2.3,1.4-3.2s2.2-1.3,3.9-1.3c1.6,0,2.9,0.4,3.8,1.3
			s1.4,1.8,1.4,3c0,1-0.3,1.9-0.8,2.5c-0.3,0.4-0.8,0.7-1.4,1.1c0.7,0.3,1.2,0.7,1.6,1.1c0.7,0.8,1.1,1.8,1.1,3
			c0,1.5-0.5,2.7-1.5,3.8s-2.4,1.5-4.2,1.5c-1.6,0-3-0.4-4.1-1.3s-1.7-2.2-1.7-3.9c0-1,0.2-1.8,0.7-2.6s1.2-1.3,2.2-1.7
			C118.1,363.6,117.6,363.3,117.3,363z M124.1,370.6c0.6-0.5,1-1.3,1-2.4s-0.3-1.9-1-2.5s-1.5-0.8-2.6-0.8c-1,0-1.8,0.3-2.5,0.9
			s-1,1.4-1,2.4c0,0.9,0.3,1.6,0.9,2.3s1.5,1,2.7,1C122.7,371.4,123.5,371.1,124.1,370.6z M123.7,362.3c0.5-0.5,0.8-1.1,0.8-1.9
			c0-0.6-0.2-1.2-0.8-1.7s-1.3-0.8-2.3-0.8s-1.8,0.3-2.2,0.8s-0.7,1.1-0.7,1.8c0,0.8,0.3,1.4,0.9,1.9s1.3,0.7,2.1,0.7
			C122.5,363.1,123.2,362.8,123.7,362.3z"/>
	</g>
</g>
<g>
	<g>
		<path class="st2" d="M826.8,65.6c0.5-1.1,1.5-2,3-2.9l2.2-1.3c1-0.6,1.7-1.1,2.1-1.5c0.6-0.6,1-1.4,1-2.2c0-1-0.3-1.8-0.9-2.3
			s-1.4-0.9-2.3-0.9c-1.4,0-2.4,0.5-3,1.6c-0.3,0.6-0.5,1.4-0.5,2.4h-2.1c0-1.5,0.3-2.7,0.8-3.6c0.9-1.6,2.5-2.4,4.8-2.4
			c1.9,0,3.3,0.5,4.2,1.6s1.3,2.2,1.3,3.5s-0.5,2.5-1.4,3.4c-0.5,0.6-1.5,1.2-2.9,2l-1.6,0.9c-0.8,0.4-1.4,0.8-1.8,1.2
			c-0.8,0.7-1.3,1.4-1.5,2.3h9.2v2h-11.5C826,67.9,826.3,66.7,826.8,65.6z"/>
		<path class="st2" d="M849.7,55.3c0.8,1.4,1.1,3.3,1.1,5.7c0,2.3-0.3,4.2-1,5.7c-1,2.1-2.6,3.2-4.8,3.2c-2,0-3.5-0.9-4.5-2.6
			c-0.8-1.5-1.2-3.4-1.2-5.9c0-1.9,0.2-3.5,0.7-4.9c0.9-2.5,2.6-3.8,5-3.8C847.2,52.6,848.8,53.5,849.7,55.3z M847.6,66.5
			c0.6-1,1-2.8,1-5.4c0-1.9-0.2-3.5-0.7-4.7s-1.4-1.8-2.7-1.8c-1.2,0-2.2,0.6-2.7,1.8s-0.9,2.9-0.9,5.2c0,1.7,0.2,3.1,0.6,4.1
			c0.6,1.6,1.5,2.4,2.9,2.4C846.1,67.9,847,67.4,847.6,66.5z"/>
		<path class="st2" d="M853.5,65.6c0.5-1.1,1.5-2,3-2.9l2.2-1.3c1-0.6,1.7-1.1,2.1-1.5c0.6-0.6,1-1.4,1-2.2c0-1-0.3-1.8-0.9-2.3
			s-1.4-0.9-2.3-0.9c-1.4,0-2.4,0.5-3,1.6c-0.3,0.6-0.5,1.4-0.5,2.4H853c0-1.5,0.3-2.7,0.8-3.6c0.9-1.6,2.5-2.4,4.8-2.4
			c1.9,0,3.3,0.5,4.2,1.6s1.3,2.2,1.3,3.5s-0.5,2.5-1.4,3.4c-0.5,0.6-1.5,1.2-2.9,2l-1.6,0.9c-0.8,0.4-1.4,0.8-1.8,1.2
			c-0.8,0.7-1.3,1.4-1.5,2.3h9.2v2h-11.5C852.7,67.9,853,66.7,853.5,65.6z"/>
		<path class="st2" d="M876.4,55.3c0.8,1.4,1.1,3.3,1.1,5.7c0,2.3-0.3,4.2-1,5.7c-1,2.1-2.6,3.2-4.8,3.2c-2,0-3.5-0.9-4.5-2.6
			c-0.8-1.5-1.2-3.4-1.2-5.9c0-1.9,0.2-3.5,0.7-4.9c0.9-2.5,2.6-3.8,5-3.8C873.9,52.6,875.5,53.5,876.4,55.3z M874.3,66.5
			c0.6-1,1-2.8,1-5.4c0-1.9-0.2-3.5-0.7-4.7s-1.4-1.8-2.7-1.8c-1.2,0-2.2,0.6-2.7,1.8s-0.9,2.9-0.9,5.2c0,1.7,0.2,3.1,0.6,4.1
			c0.6,1.6,1.5,2.4,2.9,2.4C872.8,67.9,873.7,67.4,874.3,66.5z"/>
	</g>
</g>
<g>
	<g>
		<path class="st6" d="M746.3,576.8c0.5-1.1,1.5-2,3-2.9l2.2-1.3c1-0.6,1.7-1.1,2.1-1.5c0.6-0.6,1-1.4,1-2.2c0-1-0.3-1.8-0.9-2.3
			s-1.4-0.9-2.3-0.9c-1.4,0-2.4,0.5-3,1.6c-0.3,0.6-0.5,1.4-0.5,2.4h-2.1c0-1.5,0.3-2.7,0.8-3.6c0.9-1.6,2.5-2.4,4.8-2.4
			c1.9,0,3.3,0.5,4.2,1.6s1.3,2.2,1.3,3.5s-0.5,2.5-1.4,3.4c-0.5,0.6-1.5,1.2-2.9,2l-1.6,0.9c-0.8,0.4-1.4,0.8-1.8,1.2
			c-0.8,0.7-1.3,1.4-1.5,2.3h9.2v2h-11.5C745.5,579.1,745.8,577.9,746.3,576.8z"/>
		<path class="st6" d="M769.2,566.5c0.8,1.4,1.1,3.3,1.1,5.7c0,2.3-0.3,4.2-1,5.7c-1,2.1-2.6,3.2-4.8,3.2c-2,0-3.5-0.9-4.5-2.6
			c-0.8-1.5-1.2-3.4-1.2-5.9c0-1.9,0.2-3.5,0.7-4.9c0.9-2.5,2.6-3.8,5-3.8C766.7,563.8,768.3,564.7,769.2,566.5z M767.1,577.7
			c0.6-1,1-2.8,1-5.4c0-1.9-0.2-3.5-0.7-4.7s-1.4-1.8-2.7-1.8c-1.2,0-2.2,0.6-2.7,1.8s-0.9,2.9-0.9,5.2c0,1.7,0.2,3.1,0.6,4.1
			c0.6,1.6,1.5,2.4,2.9,2.4C765.6,579.1,766.5,578.6,767.1,577.7z"/>
		<path class="st6" d="M773,576.8c0.5-1.1,1.5-2,3-2.9l2.2-1.3c1-0.6,1.7-1.1,2.1-1.5c0.6-0.6,1-1.4,1-2.2c0-1-0.3-1.8-0.9-2.3
			s-1.4-0.9-2.3-0.9c-1.4,0-2.4,0.5-3,1.6c-0.3,0.6-0.5,1.4-0.5,2.4h-2.1c0-1.5,0.3-2.7,0.8-3.6c0.9-1.6,2.5-2.4,4.8-2.4
			c1.9,0,3.3,0.5,4.2,1.6s1.3,2.2,1.3,3.5s-0.5,2.5-1.4,3.4c-0.5,0.6-1.5,1.2-2.9,2l-1.6,0.9c-0.8,0.4-1.4,0.8-1.8,1.2
			c-0.8,0.7-1.3,1.4-1.5,2.3h9.2v2h-11.5C772.2,579.1,772.5,577.9,773,576.8z"/>
		<path class="st6" d="M792.7,580.6v-4.1h-7.4v-2.1l7.7-10.7h1.8v10.9h2.5v1.8h-2.5v4.1L792.7,580.6L792.7,580.6z M792.7,574.6V567
			l-5.4,7.6H792.7z"/>
	</g>
</g>
<g>
	<g>
		<path class="st1" d="M1167.8,324.9h23.6v5.8h-16.7v7.6h14.7v5.8h-14.7V358h-6.9V324.9z"/>
		<path class="st1" d="M1209,332.9c0.1,0,0.3,0,0.5,0v6.6c-0.4,0-0.8-0.1-1.1-0.1c-0.3,0-0.6,0-0.8,0c-2.6,0-4.3,0.8-5.2,2.5
			c-0.5,0.9-0.7,2.4-0.7,4.4V358h-6.4v-24.5h6.1v4.3c1-1.6,1.8-2.7,2.6-3.3c1.2-1,2.8-1.5,4.7-1.5
			C1208.8,332.9,1208.9,332.9,1209,332.9z"/>
		<path class="st1" d="M1229.3,334c1.7,0.8,3.1,2,4.2,3.6c1,1.5,1.7,3.1,2,5.1c0.2,1.1,0.2,2.7,0.2,4.9h-17.8c0.1,2.5,1,4.2,2.6,5.2
			c1,0.6,2.2,0.9,3.5,0.9c1.5,0,2.6-0.4,3.6-1.1c0.5-0.4,0.9-1,1.3-1.7h6.5c-0.2,1.5-1,2.9-2.4,4.4c-2.2,2.4-5.3,3.6-9.2,3.6
			c-3.3,0-6.1-1-8.6-3s-3.7-5.3-3.7-9.8c0-4.2,1.1-7.5,3.4-9.8c2.2-2.3,5.2-3.4,8.8-3.4C1225.6,332.8,1227.6,333.2,1229.3,334z
			 M1219.7,339.5c-0.9,0.9-1.5,2.2-1.7,3.8h11c-0.1-1.7-0.7-3-1.7-3.9s-2.3-1.3-3.8-1.3C1221.9,338.1,1220.6,338.6,1219.7,339.5z"/>
		<path class="st1" d="M1258.6,334.9c1.6,1.3,2.4,3.5,2.4,6.6V358h-6.6v-14.9c0-1.3-0.2-2.3-0.5-3c-0.6-1.3-1.8-1.9-3.6-1.9
			c-2.2,0-3.6,0.9-4.4,2.8c-0.4,1-0.6,2.2-0.6,3.7V358h-6.4v-24.4h6.2v3.6c0.8-1.3,1.6-2.2,2.3-2.7c1.3-1,3-1.5,5-1.5
			C1255,332.9,1257,333.5,1258.6,334.9z"/>
		<path class="st1" d="M1264.5,338.2v-4.6h3.4v-6.8h6.3v6.8h4v4.6h-4v12.9c0,1,0.1,1.6,0.4,1.9s1,0.4,2.3,0.4c0.2,0,0.4,0,0.6,0
			s0.4,0,0.6,0v4.8l-3,0.1c-3,0.1-5.1-0.4-6.2-1.6c-0.7-0.7-1.1-1.9-1.1-3.4v-15.1L1264.5,338.2L1264.5,338.2z"/>
		<path class="st1" d="M1298.3,334c1.7,0.8,3.1,2,4.2,3.6c1,1.5,1.7,3.1,2,5.1c0.2,1.1,0.2,2.7,0.2,4.9h-17.8c0.1,2.5,1,4.2,2.6,5.2
			c1,0.6,2.2,0.9,3.5,0.9c1.5,0,2.6-0.4,3.6-1.1c0.5-0.4,0.9-1,1.3-1.7h6.5c-0.2,1.5-1,2.9-2.4,4.4c-2.2,2.4-5.3,3.6-9.2,3.6
			c-3.3,0-6.1-1-8.6-3s-3.7-5.3-3.7-9.8c0-4.2,1.1-7.5,3.4-9.8c2.2-2.3,5.2-3.4,8.8-3.4C1294.6,332.8,1296.6,333.2,1298.3,334z
			 M1288.7,339.5c-0.9,0.9-1.5,2.2-1.7,3.8h11c-0.1-1.7-0.7-3-1.7-3.9s-2.3-1.3-3.8-1.3C1290.9,338.1,1289.6,338.6,1288.7,339.5z"/>
		<path class="st1" d="M1177,398.3c1.2-0.1,2-0.3,2.6-0.6c0.9-0.4,1.4-1,1.4-1.8c0-1-0.4-1.7-1.1-2.1s-1.7-0.6-3.1-0.6
			c-1.5,0-2.6,0.4-3.3,1.1c-0.5,0.6-0.8,1.3-0.9,2.2h-6.2c0.1-2.1,0.7-3.9,1.8-5.3c1.7-2.2,4.6-3.2,8.8-3.2c2.7,0,5.1,0.5,7.2,1.6
			s3.1,3.1,3.1,6v11.2c0,0.8,0,1.7,0,2.8c0,0.8,0.2,1.4,0.4,1.7c0.2,0.3,0.5,0.5,0.9,0.7v0.9h-7c-0.2-0.5-0.3-1-0.4-1.4
			s-0.1-0.9-0.2-1.5c-0.9,1-1.9,1.8-3.1,2.4c-1.4,0.8-3,1.2-4.7,1.2c-2.2,0-4.1-0.6-5.5-1.9s-2.2-3.1-2.2-5.4c0-3,1.2-5.2,3.5-6.5
			c1.3-0.7,3.2-1.3,5.7-1.6L1177,398.3z M1180.9,401.2c-0.4,0.3-0.8,0.5-1.2,0.6c-0.4,0.2-1,0.3-1.7,0.4l-1.5,0.3
			c-1.4,0.2-2.3,0.5-2.9,0.9c-1,0.6-1.5,1.5-1.5,2.7c0,1.1,0.3,1.9,0.9,2.4s1.4,0.7,2.2,0.7c1.4,0,2.7-0.4,3.9-1.2
			c1.2-0.8,1.8-2.3,1.8-4.4L1180.9,401.2L1180.9,401.2z"/>
		<path class="st1" d="M1212.2,413.1h-6.4V380h6.4V413.1z"/>
		<path class="st1" d="M1228.1,398.3c1.2-0.1,2-0.3,2.6-0.6c0.9-0.4,1.4-1,1.4-1.8c0-1-0.4-1.7-1.1-2.1s-1.7-0.6-3.1-0.6
			c-1.5,0-2.6,0.4-3.3,1.1c-0.5,0.6-0.8,1.3-0.9,2.2h-6.2c0.1-2.1,0.7-3.9,1.8-5.3c1.7-2.2,4.6-3.2,8.8-3.2c2.7,0,5.1,0.5,7.2,1.6
			s3.1,3.1,3.1,6v11.2c0,0.8,0,1.7,0,2.8c0,0.8,0.2,1.4,0.4,1.7c0.2,0.3,0.5,0.5,0.9,0.7v0.9h-7c-0.2-0.5-0.3-1-0.4-1.4
			s-0.1-0.9-0.2-1.5c-0.9,1-1.9,1.8-3.1,2.4c-1.4,0.8-3,1.2-4.7,1.2c-2.2,0-4.1-0.6-5.5-1.9c-1.5-1.3-2.2-3.1-2.2-5.4
			c0-3,1.2-5.2,3.5-6.5c1.3-0.7,3.2-1.3,5.7-1.6L1228.1,398.3z M1232.1,401.2c-0.4,0.3-0.8,0.5-1.2,0.6c-0.4,0.2-1,0.3-1.7,0.4
			l-1.5,0.3c-1.4,0.2-2.3,0.5-2.9,0.9c-1,0.6-1.5,1.5-1.5,2.7c0,1.1,0.3,1.9,0.9,2.4s1.4,0.7,2.2,0.7c1.4,0,2.7-0.4,3.9-1.2
			s1.8-2.3,1.8-4.4L1232.1,401.2L1232.1,401.2z"/>
		<path class="st1" d="M1254.3,393.4v-4.6h3.4V382h6.3v6.8h4v4.6h-4v12.9c0,1,0.1,1.6,0.4,1.9c0.3,0.2,1,0.4,2.3,0.4
			c0.2,0,0.4,0,0.6,0s0.4,0,0.6,0v4.8l-3,0.1c-3,0.1-5.1-0.4-6.2-1.6c-0.7-0.7-1.1-1.9-1.1-3.4v-15.1L1254.3,393.4L1254.3,393.4z"/>
		<path class="st1" d="M1278.7,385.7h-6.5v-5.9h6.5V385.7z M1272.2,388.7h6.5v24.5h-6.5V388.7z"/>
		<path class="st1" d="M1300.9,389.2c1.7,0.8,3.1,2,4.2,3.6c1,1.5,1.7,3.1,2,5.1c0.2,1.1,0.2,2.7,0.2,4.9h-17.8
			c0.1,2.5,1,4.2,2.6,5.2c1,0.6,2.2,0.9,3.5,0.9c1.5,0,2.6-0.4,3.6-1.1c0.5-0.4,0.9-1,1.3-1.7h6.5c-0.2,1.5-1,2.9-2.4,4.4
			c-2.2,2.4-5.3,3.6-9.2,3.6c-3.3,0-6.1-1-8.6-3s-3.7-5.3-3.7-9.8c0-4.2,1.1-7.5,3.4-9.8c2.2-2.3,5.2-3.4,8.8-3.4
			C1297.2,388,1299.2,388.4,1300.9,389.2z M1291.3,394.7c-0.9,0.9-1.5,2.2-1.7,3.8h11c-0.1-1.7-0.7-3-1.7-3.9s-2.3-1.3-3.8-1.3
			C1293.5,393.3,1292.2,393.8,1291.3,394.7z"/>
		<path class="st1" d="M1324.1,388.1c0.1,0,0.3,0,0.5,0v6.6c-0.4,0-0.8-0.1-1.1-0.1c-0.3,0-0.6,0-0.8,0c-2.6,0-4.3,0.8-5.2,2.5
			c-0.5,0.9-0.7,2.4-0.7,4.4v11.7h-6.4v-24.5h6.1v4.3c1-1.6,1.8-2.7,2.6-3.3c1.2-1,2.8-1.5,4.7-1.5
			C1323.9,388.1,1324,388.1,1324.1,388.1z"/>
		<path class="st1" d="M1342,388.1c0.1,0,0.3,0,0.6,0v6.6c-0.4,0-0.8-0.1-1.1-0.1c-0.3,0-0.6,0-0.8,0c-2.6,0-4.3,0.8-5.2,2.5
			c-0.5,0.9-0.7,2.4-0.7,4.4v11.7h-6.4v-24.5h6.1v4.3c1-1.6,1.8-2.7,2.6-3.3c1.2-1,2.8-1.5,4.7-1.5
			C1341.8,388.1,1341.9,388.1,1342,388.1z"/>
		<path class="st1" d="M1356,398.3c1.2-0.1,2-0.3,2.6-0.6c0.9-0.4,1.4-1,1.4-1.8c0-1-0.4-1.7-1.1-2.1s-1.7-0.6-3.1-0.6
			c-1.5,0-2.6,0.4-3.3,1.1c-0.5,0.6-0.8,1.3-0.9,2.2h-6.2c0.1-2.1,0.7-3.9,1.8-5.3c1.7-2.2,4.6-3.2,8.8-3.2c2.7,0,5.1,0.5,7.2,1.6
			s3.1,3.1,3.1,6v11.2c0,0.8,0,1.7,0,2.8c0,0.8,0.2,1.4,0.4,1.7c0.2,0.3,0.5,0.5,0.9,0.7v0.9h-7c-0.2-0.5-0.3-1-0.4-1.4
			s-0.1-0.9-0.2-1.5c-0.9,1-1.9,1.8-3.1,2.4c-1.4,0.8-3,1.2-4.7,1.2c-2.2,0-4.1-0.6-5.5-1.9c-1.5-1.3-2.2-3.1-2.2-5.4
			c0-3,1.2-5.2,3.5-6.5c1.3-0.7,3.2-1.3,5.7-1.6L1356,398.3z M1359.9,401.2c-0.4,0.3-0.8,0.5-1.2,0.6c-0.4,0.2-1,0.3-1.7,0.4
			l-1.5,0.3c-1.4,0.2-2.3,0.5-2.9,0.9c-1,0.6-1.5,1.5-1.5,2.7c0,1.1,0.3,1.9,0.9,2.4s1.4,0.7,2.2,0.7c1.4,0,2.7-0.4,3.9-1.2
			s1.8-2.3,1.8-4.4L1359.9,401.2L1359.9,401.2z"/>
	</g>
</g>
</svg>
