<?xml version="1.0" encoding="utf-8"?>
<!-- Generator: Adobe Illustrator 22.0.1, SVG Export Plug-In . SVG Version: 6.00 Build 0)  -->
<svg version="1.1" id="Layer_1" xmlns="http://www.w3.org/2000/svg" xmlns:xlink="http://www.w3.org/1999/xlink" x="0px" y="0px"
	 viewBox="0 0 378.8 448.5" style="enable-background:new 0 0 378.8 448.5;" xml:space="preserve">
<style type="text/css">
	.st0{stroke:#B64026;stroke-miterlimit:10;}
	.st1{fill:#020202;stroke:#BE965F;stroke-linecap:round;stroke-linejoin:round;stroke-miterlimit:10;}
	.st2{fill:#020202;stroke:#BE965F;stroke-miterlimit:10;}
	.st3{fill:none;stroke:#BE965F;stroke-miterlimit:10;}
	.st4{enable-background:new    ;}
	.st5{fill:#B64026;}
	.st6{fill:#BE965F;}
	.st7{fill:none;stroke:#FFFFFF;stroke-width:6;stroke-miterlimit:10;}
</style>
<path class="st0" d="M34.2,131.3c0,0-8.4,10.3-9.3,16.3c-0.2,0.7-0.1,1.5,0.1,2.2h17.1C42.1,149.9,43.5,143.9,34.2,131.3z"/>
<polygon class="st0" points="22,377.8 45.5,377.8 45.5,264 42.2,251.4 42.1,149.8 25,149.8 24.8,251.9 22,263.8 "/>
<path class="st0" d="M45.6,377c0,0,8.9,2.1,10.6-1.3v-79c0,0-6-13.3-10.6-13.5V377z"/>
<path class="st0" d="M22.2,377.2c0,0-8.9,2.1-10.6-1.3v-79c0,0,6-13.3,10.6-13.5V377.2z"/>
<polygon class="st0" points="29.2,377.7 26.7,382.5 40.6,382.5 38.9,377.7 "/>
<polygon class="st0" points="13.3,376.7 8.5,382.5 22.2,382.5 20.9,377.4 "/>
<polygon class="st0" points="47.5,377.7 45.5,382.5 56.1,382.5 53.6,376.7 "/>
<rect x="31.3" y="259.4" class="st0" width="5.1" height="5.1"/>
<rect x="31.3" y="266.1" class="st0" width="5.1" height="5.1"/>
<rect x="31.3" y="272.9" class="st0" width="5.1" height="5.1"/>
<rect x="25" y="196.2" class="st0" width="16.9" height="37.9"/>
<rect x="25" y="180.2" class="st0" width="16.9" height="5.1"/>
<rect x="22.4" y="284.7" class="st0" width="22.8" height="20.2"/>
<rect x="22.4" y="337.8" class="st0" width="22.8" height="9.3"/>
<rect x="22.4" y="366.5" class="st0" width="22.8" height="11"/>
<rect x="29.2" y="297.3" class="st0" width="9.7" height="80.3"/>
<polygon class="st0" points="33.8,282.3 29.2,297.3 38.9,297.3 "/>
<path class="st1" d="M141.5,81.7c0,0-10.1,9.3-10.1,26.1v264.3c0,0,1.7,4,8.4,4.3h6c0,0,4.9-0.5,6.6-4.8V108.2
	c0,0-0.4-20.5-8.6-26.5C143.1,81.5,142.3,81.5,141.5,81.7z"/>
<path class="st2" d="M124.6,236.6c-3.7,3.3-5.9,8-5.9,12.9v131c0,0,1,2,4.9,2.1h3.5c0,0,2.9-0.3,3.9-2.4V249.7c0,0-0.2-10.2-5-13.1
	C125.5,236.5,125.1,236.5,124.6,236.6z"/>
<path class="st2" d="M159,236.7c3.7,3.3,5.9,8,5.9,13v131c0,0-1,2-4.9,2.1h-3.5c0,0-2.9-0.3-3.8-2.4V249.8c0,0,0.2-10.2,5-13.1
	C158.1,236.6,158.6,236.6,159,236.7z"/>
<rect x="131" y="165.6" class="st2" width="21.9" height="189.7"/>
<path class="st2" d="M145.1,376.4l-0.9,6.2l5.9,0.1l-0.8-7.6C148,375.7,146.6,376.1,145.1,376.4z"/>
<path class="st2" d="M138.3,376.4l0.9,6.2l-5.9,0.1l0.8-7.6C135.4,375.7,136.8,376.1,138.3,376.4z"/>
<path class="st2" d="M118.8,380.5v3.4H131v-3.5C131,380.3,126.3,385.1,118.8,380.5z"/>
<path class="st2" d="M152.5,381v3.4h12.6v-3.6C165.1,380.7,160.3,385.6,152.5,381z"/>
<path class="st2" d="M250.1,63.7c0,0-10.1,10.1-10.1,28.4v287.3c0,0,1.7,4.4,8.4,4.7h6c0,0,4.9-0.6,6.6-5.2V92.5
	c0,0-0.4-22.3-8.6-28.8C251.7,63.4,250.8,63.4,250.1,63.7z"/>
<polygon class="st2" points="240,151.3 227.3,186.9 227.3,202.9 240,202.9 "/>
<polygon class="st2" points="261.5,151.1 274.2,186.7 274.2,202.7 261.5,202.7 "/>
<polygon class="st2" points="240,359.3 229.9,376.9 229.9,384.1 240,379.4 "/>
<polygon class="st2" points="245,365.1 245,387.3 241.9,390.4 240,384.1 "/>
<polygon class="st2" points="256.2,365.1 256.2,386.8 261.1,391 260.4,380.3 "/>
<polygon class="st2" points="261.1,359.3 272,377.8 272,384.1 260.4,380.3 "/>
<path class="st2" d="M244.5,72.1L229,94.6v7.4l11,2.3C240,104.2,238.9,80.8,244.5,72.1z"/>
<path class="st2" d="M258.1,73.3L272,92.9v8.4l-11,2.9C261,104.2,261.9,81.6,258.1,73.3z"/>
<path class="st3" d="M240.4,88.2c0,0,5.8,1.2,20.4,0"/>
<path class="st3" d="M239.7,92.3c0,0,5.8,1.2,20.4,0"/>
<path class="st3" d="M239.7,96.5c0,0,5.8,1.2,20.4,0"/>
<path class="st3" d="M240.6,99.9c0,0,5.8,1.2,20.4,0"/>
<path class="st3" d="M240.6,103.3c0,0,5.8,1.2,20.4,0"/>
<ellipse class="st2" cx="240.8" cy="224.8" rx="3.4" ry="10.5"/>
<ellipse class="st2" cx="260.2" cy="224" rx="3.4" ry="10.5"/>
<g class="st4">
	<path class="st5" d="M20.2,391h1.2v7.6h4.4v1h-5.5L20.2,391L20.2,391z"/>
	<path class="st5" d="M30.1,395.8c0.2,0,0.4-0.1,0.5-0.3c0-0.1,0.1-0.2,0.1-0.4c0-0.4-0.1-0.6-0.4-0.8c-0.3-0.2-0.6-0.2-1.1-0.2
		c-0.6,0-0.9,0.1-1.2,0.4c-0.1,0.2-0.2,0.4-0.3,0.7h-1c0-0.8,0.3-1.3,0.8-1.6s1-0.5,1.7-0.5s1.3,0.1,1.8,0.4s0.7,0.7,0.7,1.3v3.6
		c0,0.1,0,0.2,0.1,0.3c0.1,0.1,0.1,0.1,0.3,0.1c0,0,0.1,0,0.2,0s0.1,0,0.2,0v0.8c-0.2,0-0.3,0.1-0.4,0.1s-0.2,0-0.4,0
		c-0.4,0-0.6-0.1-0.8-0.4c-0.1-0.1-0.1-0.3-0.2-0.6c-0.2,0.3-0.5,0.5-0.9,0.7s-0.8,0.3-1.3,0.3c-0.6,0-1.1-0.2-1.4-0.5
		s-0.6-0.8-0.6-1.3c0-0.6,0.2-1,0.5-1.4s0.8-0.5,1.4-0.6L30.1,395.8z M27.9,398.7c0.2,0.2,0.5,0.3,0.8,0.3c0.4,0,0.7-0.1,1.1-0.3
		c0.6-0.3,0.9-0.8,0.9-1.4v-0.8c-0.1,0.1-0.3,0.2-0.5,0.2s-0.4,0.1-0.6,0.1l-0.6,0.1c-0.4,0.1-0.7,0.1-0.9,0.2
		c-0.3,0.2-0.5,0.5-0.5,0.9C27.6,398.2,27.7,398.5,27.9,398.7z"/>
	<path class="st5" d="M33.5,393.3h1v1.1c0.1-0.2,0.3-0.5,0.6-0.8s0.7-0.5,1.1-0.5h0.1c0,0,0.1,0,0.2,0v1.1c-0.1,0-0.1,0-0.2,0
		s-0.1,0-0.2,0c-0.5,0-0.9,0.2-1.2,0.5s-0.4,0.7-0.4,1.2v3.6h-1.1L33.5,393.3L33.5,393.3z"/>
	<path class="st5" d="M40.9,393.6c0.2,0.1,0.4,0.3,0.6,0.6v-0.8h1v5.7c0,0.8-0.1,1.4-0.4,1.9c-0.4,0.9-1.3,1.3-2.5,1.3
		c-0.7,0-1.2-0.2-1.7-0.5s-0.7-0.8-0.8-1.4h1.1c0.1,0.3,0.2,0.5,0.3,0.7c0.2,0.2,0.6,0.4,1.1,0.4c0.8,0,1.3-0.3,1.6-0.9
		c0.1-0.3,0.2-0.9,0.2-1.8c-0.2,0.3-0.5,0.6-0.8,0.7s-0.7,0.2-1.2,0.2c-0.7,0-1.3-0.2-1.8-0.7s-0.8-1.3-0.8-2.4s0.3-1.9,0.8-2.5
		s1.1-0.9,1.9-0.9C40.2,393.2,40.6,393.3,40.9,393.6z M41.1,394.7c-0.3-0.4-0.7-0.6-1.2-0.6c-0.7,0-1.2,0.3-1.5,1
		c-0.1,0.4-0.2,0.9-0.2,1.5c0,0.7,0.1,1.2,0.4,1.6s0.7,0.6,1.2,0.6c0.8,0,1.3-0.3,1.6-1c0.2-0.4,0.3-0.8,0.3-1.4
		C41.6,395.7,41.4,395.1,41.1,394.7z"/>
	<path class="st5" d="M47.5,395.8c0.2,0,0.4-0.1,0.5-0.3c0-0.1,0.1-0.2,0.1-0.4c0-0.4-0.1-0.6-0.4-0.8s-0.6-0.2-1.1-0.2
		c-0.6,0-0.9,0.1-1.2,0.4c-0.1,0.2-0.2,0.4-0.3,0.7h-1c0-0.8,0.3-1.3,0.8-1.6s1-0.5,1.7-0.5s1.3,0.1,1.8,0.4s0.7,0.7,0.7,1.3v3.6
		c0,0.1,0,0.2,0.1,0.3s0.1,0.1,0.3,0.1c0,0,0.1,0,0.2,0s0.1,0,0.2,0v0.8c-0.2,0-0.3,0.1-0.4,0.1s-0.2,0-0.4,0
		c-0.4,0-0.6-0.1-0.8-0.4c-0.1-0.1-0.1-0.3-0.2-0.6c-0.2,0.3-0.5,0.5-0.9,0.7s-0.8,0.3-1.3,0.3c-0.6,0-1.1-0.2-1.4-0.5
		s-0.6-0.8-0.6-1.3c0-0.6,0.2-1,0.5-1.4s0.8-0.5,1.4-0.6L47.5,395.8z M45.3,398.7c0.2,0.2,0.5,0.3,0.8,0.3c0.4,0,0.7-0.1,1.1-0.3
		c0.6-0.3,0.9-0.8,0.9-1.4v-0.8c-0.1,0.1-0.3,0.2-0.5,0.2s-0.4,0.1-0.6,0.1l-0.6,0.1c-0.4,0.1-0.7,0.1-0.9,0.2
		c-0.3,0.2-0.5,0.5-0.5,0.9C44.9,398.2,45,398.5,45.3,398.7z"/>
</g>
<g class="st4">
	<path class="st5" d="M12.2,405.4h1.7l2.5,7.3l2.5-7.3h1.7v8.6h-1.1v-5.1c0-0.2,0-0.5,0-0.9s0-0.8,0-1.3L17,414h-1.2l-2.5-7.3v0.3
		c0,0.2,0,0.5,0,1s0,0.7,0,1v5.1h-1.1V405.4z"/>
	<path class="st5" d="M25.5,410.2c0.2,0,0.4-0.1,0.5-0.3c0-0.1,0.1-0.2,0.1-0.4c0-0.4-0.1-0.6-0.4-0.8c-0.3-0.2-0.6-0.2-1.1-0.2
		c-0.6,0-0.9,0.1-1.2,0.4c-0.1,0.2-0.2,0.4-0.3,0.7h-1c0-0.8,0.3-1.3,0.8-1.6s1-0.5,1.7-0.5s1.3,0.1,1.8,0.4s0.7,0.7,0.7,1.3v3.6
		c0,0.1,0,0.2,0.1,0.3c0.1,0.1,0.1,0.1,0.3,0.1c0,0,0.1,0,0.2,0s0.1,0,0.2,0v0.8c-0.2,0-0.3,0.1-0.4,0.1s-0.2,0-0.4,0
		c-0.4,0-0.6-0.1-0.8-0.4c-0.1-0.1-0.1-0.3-0.2-0.6c-0.2,0.3-0.5,0.5-0.9,0.7s-0.8,0.3-1.3,0.3c-0.6,0-1.1-0.2-1.4-0.5
		s-0.6-0.8-0.6-1.3c0-0.6,0.2-1,0.5-1.4s0.8-0.5,1.4-0.6L25.5,410.2z M23.2,413.1c0.2,0.2,0.5,0.3,0.8,0.3c0.4,0,0.7-0.1,1.1-0.3
		c0.6-0.3,0.9-0.8,0.9-1.4v-0.8c-0.1,0.1-0.3,0.2-0.5,0.2s-0.4,0.1-0.6,0.1l-0.6,0.1c-0.4,0.1-0.7,0.1-0.9,0.2
		c-0.3,0.2-0.5,0.5-0.5,0.9C22.9,412.6,23,412.9,23.2,413.1z"/>
	<path class="st5" d="M28.8,407.7h1v1.1c0.1-0.2,0.3-0.5,0.6-0.8s0.7-0.5,1.1-0.5h0.1c0,0,0.1,0,0.2,0v1.1c-0.1,0-0.1,0-0.2,0
		s-0.1,0-0.2,0c-0.5,0-0.9,0.2-1.2,0.5s-0.4,0.7-0.4,1.2v3.6h-1.1L28.8,407.7L28.8,407.7z"/>
	<path class="st5" d="M36.9,408.1c0.4,0.3,0.7,0.9,0.8,1.8h-1c-0.1-0.4-0.2-0.7-0.4-1s-0.6-0.4-1.1-0.4c-0.7,0-1.2,0.3-1.4,1
		c-0.2,0.4-0.3,1-0.3,1.6s0.1,1.2,0.4,1.6s0.7,0.6,1.3,0.6c0.4,0,0.8-0.1,1-0.4s0.4-0.6,0.5-1.1h1c-0.1,0.8-0.4,1.4-0.9,1.8
		s-1.1,0.6-1.8,0.6c-0.8,0-1.5-0.3-2-0.9s-0.7-1.3-0.7-2.2c0-1.1,0.3-2,0.8-2.6s1.2-0.9,2-0.9C35.9,407.6,36.5,407.7,36.9,408.1z"/>
	<path class="st5" d="M38.8,405.4h1.1v3.2c0.2-0.3,0.5-0.5,0.7-0.7c0.3-0.2,0.8-0.3,1.3-0.3c0.9,0,1.5,0.3,1.9,1
		c0.2,0.3,0.3,0.8,0.3,1.4v4H43v-4c0-0.5-0.1-0.8-0.2-1c-0.2-0.3-0.6-0.5-1.1-0.5c-0.4,0-0.8,0.2-1.2,0.5s-0.5,0.9-0.5,1.7v3.3h-1.1
		L38.8,405.4L38.8,405.4z"/>
	<path class="st5" d="M48.8,410.2c0.2,0,0.4-0.1,0.5-0.3c0-0.1,0.1-0.2,0.1-0.4c0-0.4-0.1-0.6-0.4-0.8s-0.6-0.2-1.1-0.2
		c-0.6,0-0.9,0.1-1.2,0.4c-0.1,0.2-0.2,0.4-0.3,0.7h-1c0-0.8,0.3-1.3,0.8-1.6s1-0.5,1.7-0.5s1.3,0.1,1.8,0.4s0.7,0.7,0.7,1.3v3.6
		c0,0.1,0,0.2,0.1,0.3c0.1,0.1,0.1,0.1,0.3,0.1c0,0,0.1,0,0.2,0s0.1,0,0.2,0v0.8c-0.2,0-0.3,0.1-0.4,0.1s-0.2,0-0.4,0
		c-0.4,0-0.6-0.1-0.8-0.4c-0.1-0.1-0.1-0.3-0.2-0.6c-0.2,0.3-0.5,0.5-0.9,0.7s-0.8,0.3-1.3,0.3c-0.6,0-1.1-0.2-1.4-0.5
		s-0.6-0.8-0.6-1.3c0-0.6,0.2-1,0.5-1.4s0.8-0.5,1.4-0.6L48.8,410.2z M46.6,413.1c0.2,0.2,0.5,0.3,0.8,0.3c0.4,0,0.7-0.1,1.1-0.3
		c0.6-0.3,0.9-0.8,0.9-1.4v-0.8c-0.1,0.1-0.3,0.2-0.5,0.2s-0.4,0.1-0.6,0.1l-0.6,0.1c-0.4,0.1-0.7,0.1-0.9,0.2
		c-0.3,0.2-0.5,0.5-0.5,0.9C46.2,412.6,46.4,412.9,46.6,413.1z"/>
	<path class="st5" d="M56.3,412c0,0.6,0.3,1,0.7,1.2c0.2,0.1,0.5,0.2,0.7,0.2c0.5,0,0.9-0.2,1.3-0.6s0.6-1.3,0.8-2.6
		c-0.2,0.4-0.5,0.6-0.9,0.8c-0.4,0.2-0.7,0.2-1.1,0.2c-0.8,0-1.4-0.3-1.9-0.8s-0.7-1.2-0.7-1.9c0-0.8,0.2-1.4,0.7-2s1.2-0.9,2.1-0.9
		c1.2,0,2.1,0.6,2.5,1.7c0.3,0.6,0.4,1.4,0.4,2.3c0,1-0.2,1.9-0.5,2.7c-0.5,1.3-1.4,2-2.6,2c-0.8,0-1.4-0.2-1.9-0.6s-0.6-1-0.6-1.6
		h1V412z M59,409.9c0.3-0.3,0.5-0.8,0.5-1.4s-0.2-1.1-0.5-1.4s-0.7-0.5-1.2-0.5s-0.9,0.2-1.2,0.5s-0.5,0.8-0.5,1.4
		c0,0.5,0.1,1,0.4,1.3s0.7,0.5,1.3,0.5C58.3,410.3,58.7,410.1,59,409.9z"/>
</g>
<g class="st4">
	<path class="st5" d="M24.8,94.7c0.6,0.6,0.9,1.2,1,2h-1.1c-0.1-0.6-0.4-1-0.8-1.3s-0.9-0.5-1.6-0.5c-0.8,0-1.5,0.3-2.1,0.9
		s-0.8,1.5-0.8,2.7c0,1,0.2,1.8,0.7,2.5s1.2,0.9,2.1,0.9s1.5-0.3,2-1c0.2-0.3,0.4-0.8,0.5-1.4h1.1c-0.1,0.9-0.4,1.7-1,2.3
		c-0.7,0.7-1.6,1.1-2.8,1.1c-1,0-1.8-0.3-2.5-0.9c-0.9-0.8-1.3-2-1.3-3.7c0-1.3,0.3-2.3,1-3.1c0.7-0.9,1.7-1.3,3-1.3
		C23.3,93.8,24.2,94.1,24.8,94.7z"/>
	<path class="st5" d="M27.2,94h1.1v3.2c0.2-0.3,0.5-0.5,0.7-0.7c0.3-0.2,0.8-0.3,1.3-0.3c0.9,0,1.5,0.3,1.9,1
		c0.2,0.3,0.3,0.8,0.3,1.4v4h-1.1v-4c0-0.5-0.1-0.8-0.2-1c-0.2-0.3-0.6-0.5-1.1-0.5c-0.4,0-0.8,0.2-1.2,0.5s-0.5,0.9-0.5,1.7v3.3
		h-1.1L27.2,94L27.2,94z"/>
	<path class="st5" d="M33.8,94h1.1v1.2h-1.1V94z M33.8,96.4h1.1v6.2h-1.1V96.4z"/>
	<path class="st5" d="M36.5,96.4h1v0.9c0.3-0.4,0.6-0.6,0.9-0.8s0.7-0.2,1.1-0.2c0.9,0,1.5,0.3,1.8,0.9c0.2,0.3,0.3,0.8,0.3,1.5v4
		h-1.1v-4c0-0.4-0.1-0.7-0.2-0.9c-0.2-0.4-0.5-0.6-1-0.6c-0.2,0-0.5,0-0.6,0.1c-0.3,0.1-0.5,0.3-0.8,0.5c-0.2,0.2-0.3,0.4-0.3,0.6
		s-0.1,0.5-0.1,0.9v3.3h-1.1L36.5,96.4C36.4,96.4,36.5,96.4,36.5,96.4z"/>
	<path class="st5" d="M46.5,98.8c0.2,0,0.4-0.1,0.5-0.3c0-0.1,0.1-0.2,0.1-0.4c0-0.4-0.1-0.6-0.4-0.8s-0.6-0.2-1.1-0.2
		c-0.6,0-0.9,0.1-1.2,0.4c-0.1,0.2-0.2,0.4-0.3,0.7h-1c0-0.8,0.3-1.3,0.8-1.6c0.5-0.3,1-0.5,1.7-0.5s1.3,0.1,1.8,0.4
		s0.7,0.7,0.7,1.3v3.6c0,0.1,0,0.2,0.1,0.3s0.1,0.1,0.3,0.1c0,0,0.1,0,0.2,0s0.1,0,0.2,0v0.8c-0.2,0-0.3,0.1-0.4,0.1s-0.2,0-0.4,0
		c-0.4,0-0.6-0.1-0.8-0.4c-0.1-0.1-0.1-0.3-0.2-0.6c-0.2,0.3-0.5,0.5-0.9,0.7s-0.8,0.3-1.3,0.3c-0.6,0-1.1-0.2-1.4-0.5
		s-0.6-0.8-0.6-1.3c0-0.6,0.2-1,0.5-1.4s0.8-0.5,1.4-0.6L46.5,98.8z M44.3,101.7c0.2,0.2,0.5,0.3,0.8,0.3c0.4,0,0.7-0.1,1.1-0.3
		c0.6-0.3,0.9-0.8,0.9-1.4v-0.8c-0.1,0.1-0.3,0.2-0.5,0.2s-0.4,0.1-0.6,0.1l-0.6,0.1c-0.4,0.1-0.7,0.1-0.9,0.2
		c-0.3,0.2-0.5,0.5-0.5,0.9C44,101.3,44.1,101.5,44.3,101.7z"/>
</g>
<g class="st4">
	<path class="st5" d="M21.6,115c0,0.6,0.3,1,0.7,1.2c0.2,0.1,0.5,0.2,0.7,0.2c0.5,0,0.9-0.2,1.3-0.6s0.6-1.3,0.8-2.6
		c-0.2,0.4-0.5,0.6-0.9,0.8c-0.4,0.2-0.7,0.2-1.1,0.2c-0.8,0-1.4-0.3-1.9-0.8s-0.7-1.2-0.7-1.9c0-0.8,0.2-1.4,0.7-2s1.2-0.9,2.1-0.9
		c1.2,0,2.1,0.6,2.5,1.7c0.3,0.6,0.4,1.4,0.4,2.3c0,1-0.2,1.9-0.5,2.7c-0.5,1.3-1.4,2-2.6,2c-0.8,0-1.4-0.2-1.9-0.6s-0.6-1-0.6-1.6
		L21.6,115L21.6,115z M24.4,112.9c0.3-0.3,0.5-0.8,0.5-1.4s-0.2-1.1-0.5-1.4s-0.7-0.5-1.2-0.5s-0.9,0.2-1.2,0.5s-0.5,0.8-0.5,1.4
		c0,0.5,0.1,1,0.4,1.3s0.7,0.5,1.3,0.5C23.6,113.3,24,113.1,24.4,112.9z"/>
	<path class="st5" d="M27.6,116.4c-0.4-0.5-0.7-1.2-0.7-2H28c0,0.5,0.1,0.9,0.3,1.2c0.3,0.4,0.8,0.7,1.5,0.7c0.6,0,1-0.1,1.3-0.4
		s0.5-0.7,0.5-1.1c0-0.6-0.2-1-0.5-1.2s-0.8-0.3-1.5-0.3c-0.1,0-0.1,0-0.2,0s-0.1,0-0.2,0v-0.9c0.1,0,0.2,0,0.3,0s0.2,0,0.2,0
		c0.4,0,0.7-0.1,1-0.2c0.4-0.2,0.7-0.6,0.7-1.2c0-0.4-0.1-0.7-0.4-1s-0.6-0.3-1-0.3c-0.7,0-1.2,0.2-1.5,0.7
		c-0.1,0.3-0.2,0.6-0.3,1.1h-1c0-0.6,0.1-1.2,0.4-1.6c0.4-0.8,1.2-1.2,2.3-1.2c0.9,0,1.5,0.2,2,0.6s0.7,0.9,0.7,1.7
		c0,0.5-0.1,0.9-0.4,1.3c-0.2,0.2-0.4,0.4-0.7,0.5c0.4,0.1,0.8,0.4,1,0.7s0.4,0.8,0.4,1.3c0,0.8-0.3,1.5-0.8,2s-1.3,0.8-2.2,0.8
		C28.8,117.3,28.1,117,27.6,116.4z"/>
	<path class="st5" d="M37.5,110.8h1v0.9c0.2-0.3,0.5-0.5,0.7-0.7c0.3-0.2,0.7-0.4,1.2-0.4s0.9,0.1,1.2,0.4c0.2,0.1,0.3,0.3,0.5,0.6
		c0.2-0.3,0.5-0.6,0.8-0.7s0.7-0.2,1.1-0.2c0.8,0,1.4,0.3,1.7,0.9c0.2,0.3,0.2,0.8,0.2,1.3v4.2h-1.1v-4.4c0-0.4-0.1-0.7-0.3-0.9
		c-0.2-0.2-0.5-0.2-0.8-0.2c-0.4,0-0.8,0.1-1.1,0.4s-0.4,0.7-0.4,1.4v3.7h-1.1V113c0-0.4-0.1-0.7-0.2-0.9c-0.2-0.3-0.5-0.4-0.9-0.4
		s-0.8,0.2-1.1,0.5s-0.5,0.9-0.5,1.7v3.3h-1.1v-6.4C37.3,110.8,37.5,110.8,37.5,110.8z"/>
</g>
<g>
	<g class="st4">
		<path class="st6" d="M132.3,397.5c0,0.5,0.1,0.9,0.3,1.2c0.4,0.6,1.1,0.9,2,0.9c0.4,0,0.8-0.1,1.2-0.2c0.7-0.2,1-0.7,1-1.3
			c0-0.5-0.1-0.8-0.4-1s-0.8-0.4-1.4-0.5l-1.2-0.3c-0.8-0.2-1.3-0.4-1.6-0.6c-0.5-0.4-0.8-0.9-0.8-1.6c0-0.8,0.3-1.4,0.8-1.9
			s1.3-0.7,2.3-0.7c0.9,0,1.7,0.2,2.3,0.7s0.9,1.1,0.9,2.1h-1.1c-0.1-0.5-0.2-0.8-0.4-1.1c-0.4-0.4-1-0.7-1.8-0.7
			c-0.7,0-1.2,0.1-1.5,0.4s-0.5,0.6-0.5,1s0.2,0.7,0.5,0.9c0.2,0.1,0.8,0.3,1.6,0.5l1.2,0.3c0.6,0.1,1,0.3,1.3,0.5
			c0.5,0.4,0.8,1,0.8,1.8c0,1-0.3,1.6-1,2s-1.5,0.6-2.4,0.6c-1.1,0-1.9-0.3-2.5-0.8s-0.9-1.3-0.9-2.2L132.3,397.5L132.3,397.5z"/>
		<path class="st6" d="M139.5,391.7h1.2v7.6h4.4v1h-5.5L139.5,391.7L139.5,391.7z"/>
		<path class="st6" d="M146.9,397.5c0,0.5,0.1,0.9,0.3,1.2c0.4,0.6,1.1,0.9,2,0.9c0.4,0,0.8-0.1,1.2-0.2c0.7-0.2,1-0.7,1-1.3
			c0-0.5-0.1-0.8-0.4-1s-0.8-0.4-1.4-0.5l-1.2-0.3c-0.8-0.2-1.3-0.4-1.6-0.6c-0.5-0.4-0.8-0.9-0.8-1.6c0-0.8,0.3-1.4,0.8-1.9
			s1.3-0.7,2.3-0.7c0.9,0,1.7,0.2,2.3,0.7s0.9,1.1,0.9,2.1h-1.1c-0.1-0.5-0.2-0.8-0.4-1.1c-0.4-0.4-1-0.7-1.8-0.7
			c-0.7,0-1.2,0.1-1.5,0.4s-0.5,0.6-0.5,1s0.2,0.7,0.5,0.9c0.2,0.1,0.8,0.3,1.6,0.5l1.2,0.3c0.6,0.1,1,0.3,1.3,0.5
			c0.5,0.4,0.8,1,0.8,1.8c0,1-0.3,1.6-1,2s-1.5,0.6-2.4,0.6c-1.1,0-1.9-0.3-2.5-0.8s-0.9-1.3-0.9-2.2L146.9,397.5L146.9,397.5z"/>
	</g>
	<g class="st4">
		<path class="st6" d="M123.2,406.1h3.7c1,0,1.7,0.3,2.2,0.9c0.2,0.4,0.4,0.8,0.4,1.2c0,0.5-0.2,1-0.5,1.3c-0.2,0.2-0.4,0.4-0.7,0.5
			c0.4,0.2,0.8,0.4,1,0.6c0.4,0.4,0.6,0.9,0.6,1.6c0,0.6-0.2,1.1-0.5,1.5c-0.5,0.7-1.3,1-2.5,1h-3.6L123.2,406.1L123.2,406.1z
			 M126.4,409.7c0.5,0,0.9-0.1,1.1-0.2c0.4-0.2,0.6-0.6,0.6-1.2s-0.2-0.9-0.7-1.1c-0.3-0.1-0.6-0.2-1.1-0.2h-2.1v2.7L126.4,409.7
			L126.4,409.7z M126.8,413.7c0.7,0,1.2-0.2,1.5-0.6c0.2-0.3,0.3-0.6,0.3-0.9c0-0.6-0.3-1.1-0.8-1.3c-0.3-0.1-0.7-0.2-1.2-0.2h-2.3
			v3H126.8z"/>
		<path class="st6" d="M131.1,406.1h1.1v8.6h-1.1V406.1z"/>
		<path class="st6" d="M138.3,409c0.6,0.5,0.8,1.3,0.8,2.4c0,1-0.2,1.8-0.7,2.5s-1.3,1-2.3,1c-0.9,0-1.5-0.3-2.1-0.9
			s-0.8-1.4-0.8-2.4c0-1.1,0.3-1.9,0.8-2.5s1.3-0.9,2.2-0.9S137.7,408.5,138.3,409z M137.7,413.2c0.3-0.5,0.4-1.1,0.4-1.8
			c0-0.6-0.1-1.1-0.3-1.4c-0.3-0.6-0.8-0.9-1.5-0.9c-0.6,0-1.1,0.2-1.4,0.7s-0.4,1.1-0.4,1.8c0,0.7,0.1,1.2,0.4,1.7s0.8,0.7,1.4,0.7
			C136.9,414,137.4,413.7,137.7,413.2z"/>
		<path class="st6" d="M144.5,408.7c0.4,0.3,0.7,0.9,0.8,1.8h-1c-0.1-0.4-0.2-0.7-0.4-1s-0.6-0.4-1.1-0.4c-0.7,0-1.2,0.3-1.4,1
			c-0.2,0.4-0.3,1-0.3,1.6s0.1,1.2,0.4,1.6s0.7,0.6,1.3,0.6c0.4,0,0.8-0.1,1-0.4s0.4-0.6,0.5-1.1h1c-0.1,0.8-0.4,1.4-0.9,1.8
			s-1.1,0.6-1.8,0.6c-0.8,0-1.5-0.3-2-0.9s-0.7-1.3-0.7-2.2c0-1.1,0.3-2,0.8-2.6s1.2-0.9,2-0.9C143.5,408.2,144.1,408.4,144.5,408.7
			z"/>
		<path class="st6" d="M146.4,406.1h1v5l2.7-2.7h1.3l-2.4,2.3l2.5,3.9h-1.3l-2-3.2l-0.9,0.8v2.4h-1L146.4,406.1L146.4,406.1z"/>
		<path class="st6" d="M155.8,412.8c0.3-0.5,0.8-1,1.5-1.5l1.1-0.7c0.5-0.3,0.9-0.5,1.1-0.8c0.3-0.3,0.5-0.7,0.5-1.1
			c0-0.5-0.1-0.9-0.4-1.2s-0.7-0.4-1.2-0.4c-0.7,0-1.2,0.3-1.5,0.8c-0.1,0.3-0.2,0.7-0.2,1.2h-1.1c0-0.7,0.1-1.3,0.4-1.8
			c0.5-0.8,1.3-1.2,2.4-1.2c1,0,1.7,0.3,2.1,0.8s0.7,1.1,0.7,1.7c0,0.7-0.2,1.2-0.7,1.7c-0.3,0.3-0.8,0.6-1.5,1l-0.8,0.4
			c-0.4,0.2-0.7,0.4-0.9,0.6c-0.4,0.3-0.6,0.7-0.7,1.1h4.6v1h-5.8C155.4,413.9,155.5,413.3,155.8,412.8z"/>
	</g>
	<g class="st4">
		<path class="st6" d="M132.7,421.1c0.6,0.6,0.9,1.2,1,2h-1.1c-0.1-0.6-0.4-1-0.8-1.3s-0.9-0.5-1.6-0.5c-0.8,0-1.5,0.3-2.1,0.9
			s-0.8,1.5-0.8,2.7c0,1,0.2,1.8,0.7,2.5s1.2,0.9,2.1,0.9s1.5-0.3,2-1c0.2-0.3,0.4-0.8,0.5-1.4h1.1c-0.1,0.9-0.4,1.7-1,2.3
			c-0.7,0.7-1.6,1.1-2.8,1.1c-1,0-1.8-0.3-2.5-0.9c-0.9-0.8-1.3-2-1.3-3.7c0-1.3,0.3-2.3,1-3.1c0.7-0.9,1.7-1.3,3-1.3
			C131.2,420.2,132.1,420.5,132.7,421.1z"/>
		<path class="st6" d="M138.4,425.3c0.2,0,0.4-0.1,0.5-0.3c0-0.1,0.1-0.2,0.1-0.4c0-0.4-0.1-0.6-0.4-0.8s-0.6-0.2-1.1-0.2
			c-0.6,0-0.9,0.1-1.2,0.4c-0.1,0.2-0.2,0.4-0.3,0.7h-1c0-0.8,0.3-1.3,0.8-1.6s1-0.5,1.7-0.5s1.3,0.1,1.8,0.4s0.7,0.7,0.7,1.3v3.6
			c0,0.1,0,0.2,0.1,0.3s0.1,0.1,0.3,0.1c0,0,0.1,0,0.2,0s0.1,0,0.2,0v0.8c-0.2,0-0.3,0.1-0.4,0.1s-0.2,0-0.4,0
			c-0.4,0-0.6-0.1-0.8-0.4c-0.1-0.1-0.1-0.3-0.2-0.6c-0.2,0.3-0.5,0.5-0.9,0.7s-0.8,0.3-1.3,0.3c-0.6,0-1.1-0.2-1.4-0.5
			s-0.6-0.8-0.6-1.3c0-0.6,0.2-1,0.5-1.4s0.8-0.5,1.4-0.6L138.4,425.3z M136.2,428.1c0.2,0.2,0.5,0.3,0.8,0.3c0.4,0,0.7-0.1,1.1-0.3
			c0.6-0.3,0.9-0.8,0.9-1.4v-0.8c-0.1,0.1-0.3,0.2-0.5,0.2s-0.4,0.1-0.6,0.1l-0.6,0.1c-0.4,0.1-0.7,0.1-0.9,0.2
			c-0.3,0.2-0.5,0.5-0.5,0.9C135.8,427.7,135.9,427.9,136.2,428.1z"/>
		<path class="st6" d="M141.7,422.8h1v1.1c0.1-0.2,0.3-0.5,0.6-0.8s0.7-0.5,1.1-0.5h0.1c0,0,0.1,0,0.2,0v1.1c-0.1,0-0.1,0-0.2,0
			s-0.1,0-0.2,0c-0.5,0-0.9,0.2-1.2,0.5s-0.4,0.7-0.4,1.2v3.6h-1.1L141.7,422.8L141.7,422.8L141.7,422.8z"/>
		<path class="st6" d="M149.2,423c0.2,0.1,0.4,0.3,0.6,0.6v-0.8h1v5.7c0,0.8-0.1,1.4-0.4,1.9c-0.4,0.9-1.3,1.3-2.5,1.3
			c-0.7,0-1.2-0.2-1.7-0.5s-0.7-0.8-0.8-1.4h1.1c0.1,0.3,0.2,0.5,0.3,0.7c0.2,0.2,0.6,0.4,1.1,0.4c0.8,0,1.3-0.3,1.6-0.9
			c0.1-0.3,0.2-0.9,0.2-1.8c-0.2,0.3-0.5,0.6-0.8,0.7s-0.7,0.2-1.2,0.2c-0.7,0-1.3-0.2-1.8-0.7s-0.8-1.3-0.8-2.4s0.3-1.9,0.8-2.5
			s1.1-0.9,1.9-0.9C148.4,422.7,148.8,422.8,149.2,423z M149.3,424.2c-0.3-0.4-0.7-0.6-1.2-0.6c-0.7,0-1.2,0.3-1.5,1
			c-0.1,0.4-0.2,0.9-0.2,1.5c0,0.7,0.1,1.2,0.4,1.6s0.7,0.6,1.2,0.6c0.8,0,1.3-0.3,1.6-1c0.2-0.4,0.3-0.8,0.3-1.4
			C149.8,425.1,149.6,424.6,149.3,424.2z"/>
		<path class="st6" d="M156.9,423.4c0.6,0.5,0.8,1.3,0.8,2.4c0,1-0.2,1.8-0.7,2.5s-1.3,1-2.3,1c-0.9,0-1.5-0.3-2.1-0.9
			s-0.8-1.4-0.8-2.4c0-1.1,0.3-1.9,0.8-2.5s1.3-0.9,2.2-0.9S156.4,422.9,156.9,423.4z M156.3,427.6c0.3-0.5,0.4-1.1,0.4-1.8
			c0-0.6-0.1-1.1-0.3-1.4c-0.3-0.6-0.8-0.9-1.5-0.9c-0.6,0-1.1,0.2-1.4,0.7s-0.4,1.1-0.4,1.8c0,0.7,0.1,1.2,0.4,1.7s0.8,0.7,1.4,0.7
			C155.6,428.4,156,428.1,156.3,427.6z"/>
	</g>
</g>
<g>
	<g class="st4">
		<path class="st6" d="M131.8,41.3v5.3c0,0.6,0.1,1.1,0.4,1.6c0.3,0.6,0.9,0.9,1.8,0.9c1,0,1.7-0.3,2-1c0.2-0.4,0.3-0.9,0.3-1.5
			v-5.3h1.2v4.8c0,1.1-0.1,1.9-0.4,2.4c-0.5,1-1.5,1.6-3,1.6s-2.4-0.5-3-1.6c-0.3-0.6-0.4-1.4-0.4-2.4v-4.8H131.8z"/>
		<path class="st6" d="M139.9,47.1c0,0.5,0.1,0.9,0.3,1.2c0.4,0.6,1.1,0.9,2,0.9c0.4,0,0.8-0.1,1.2-0.2c0.7-0.2,1-0.7,1-1.3
			c0-0.5-0.1-0.8-0.4-1s-0.8-0.4-1.4-0.5l-1.2-0.3c-0.8-0.2-1.3-0.4-1.6-0.6c-0.5-0.4-0.8-0.9-0.8-1.6c0-0.8,0.3-1.4,0.8-1.9
			s1.3-0.7,2.3-0.7c0.9,0,1.7,0.2,2.3,0.7s0.9,1.1,0.9,2.1h-1.1c-0.1-0.5-0.2-0.8-0.4-1.1c-0.4-0.4-1-0.7-1.8-0.7
			c-0.7,0-1.2,0.1-1.5,0.4s-0.5,0.6-0.5,1s0.2,0.7,0.5,0.9c0.2,0.1,0.8,0.3,1.6,0.5l1.2,0.3c0.6,0.1,1,0.3,1.3,0.5
			c0.5,0.4,0.8,1,0.8,1.8c0,1-0.3,1.6-1,2s-1.5,0.6-2.4,0.6c-1.1,0-1.9-0.3-2.5-0.8s-0.9-1.3-0.9-2.2
			C138.6,47.1,139.9,47.1,139.9,47.1z"/>
		<path class="st6" d="M149.7,41.3h1.3l3.1,8.6h-1.3l-0.9-2.6h-3.4l-0.9,2.6h-1.2L149.7,41.3z M151.6,46.4l-1.3-3.8l-1.4,3.8H151.6z
			"/>
	</g>
	<g class="st4">
		<path class="st6" d="M128.1,58.4v-0.8c0.8-0.1,1.3-0.2,1.6-0.4s0.5-0.6,0.7-1.2h0.8v8.4H130v-5.9L128.1,58.4L128.1,58.4z"/>
		<path class="st6" d="M133.8,58.4v-0.8c0.8-0.1,1.3-0.2,1.6-0.4s0.5-0.6,0.7-1.2h0.8v8.4h-1.1v-5.9L133.8,58.4L133.8,58.4z"/>
		<path class="st6" d="M145,57.3c0.4,0.7,0.6,1.6,0.6,2.8c0,1.1-0.2,2.1-0.5,2.8c-0.5,1.1-1.3,1.6-2.4,1.6c-1,0-1.8-0.4-2.2-1.3
			c-0.4-0.7-0.6-1.7-0.6-2.9c0-1,0.1-1.8,0.4-2.5c0.5-1.3,1.3-1.9,2.5-1.9C143.7,55.9,144.5,56.4,145,57.3z M143.9,62.9
			c0.3-0.5,0.5-1.4,0.5-2.7c0-1-0.1-1.7-0.4-2.4s-0.7-0.9-1.4-0.9c-0.6,0-1.1,0.3-1.4,0.9s-0.4,1.4-0.4,2.6c0,0.9,0.1,1.5,0.3,2.1
			c0.3,0.8,0.8,1.2,1.4,1.2C143.1,63.6,143.6,63.3,143.9,62.9z"/>
		<path class="st6" d="M147,65.5c0.3,0,0.5-0.2,0.6-0.6c0.1-0.2,0.1-0.3,0.1-0.5v-0.1c0,0,0,0,0-0.1H147V63h1.3v1.2
			c0,0.5-0.1,0.9-0.3,1.2s-0.5,0.6-1,0.7V65.5z"/>
		<path class="st6" d="M154.8,56.6c0.4,0.5,0.6,1,0.6,1.5h-1c-0.1-0.3-0.2-0.6-0.3-0.8c-0.3-0.4-0.6-0.5-1.2-0.5s-1.1,0.3-1.4,0.8
			S151,59,150.9,60c0.2-0.4,0.5-0.6,0.9-0.8c0.3-0.2,0.7-0.2,1.1-0.2c0.7,0,1.3,0.2,1.8,0.7s0.8,1.1,0.8,2c0,0.8-0.2,1.4-0.7,2
			c-0.5,0.6-1.2,0.9-2.1,0.9c-0.8,0-1.5-0.3-2-0.9s-0.9-1.6-0.9-3c0-1,0.1-1.9,0.4-2.7c0.5-1.4,1.4-2.1,2.7-2.1
			C153.8,55.9,154.5,56.1,154.8,56.6z M154.1,63c0.3-0.4,0.4-0.8,0.4-1.3c0-0.4-0.1-0.8-0.4-1.2s-0.7-0.6-1.3-0.6
			c-0.5,0-0.9,0.2-1.2,0.5s-0.5,0.8-0.5,1.4c0,0.5,0.2,1,0.5,1.3s0.7,0.5,1.3,0.5C153.4,63.6,153.8,63.4,154.1,63z"/>
	</g>
</g>
<g>
	<g>
		<path class="st6" d="M230.6,399.5c0,0.5,0.1,0.9,0.3,1.2c0.4,0.6,1.1,0.9,2,0.9c0.4,0,0.8-0.1,1.2-0.2c0.7-0.2,1-0.7,1-1.3
			c0-0.5-0.1-0.8-0.4-1s-0.8-0.4-1.4-0.5l-1.2-0.3c-0.8-0.2-1.3-0.4-1.6-0.6c-0.5-0.4-0.8-0.9-0.8-1.6c0-0.8,0.3-1.4,0.8-1.9
			s1.3-0.7,2.3-0.7c0.9,0,1.7,0.2,2.3,0.7s0.9,1.1,0.9,2.1h-1c-0.1-0.5-0.2-0.8-0.4-1.1c-0.4-0.4-1-0.7-1.8-0.7
			c-0.7,0-1.2,0.1-1.5,0.4s-0.5,0.6-0.5,1s0.2,0.7,0.5,0.9c0.2,0.1,0.8,0.3,1.6,0.5l1.2,0.3c0.6,0.1,1,0.3,1.3,0.5
			c0.5,0.4,0.8,1,0.8,1.8c0,1-0.3,1.6-1,2s-1.5,0.6-2.4,0.6c-1.1,0-1.9-0.3-2.5-0.8s-0.9-1.3-0.9-2.2L230.6,399.5L230.6,399.5z"/>
		<path class="st6" d="M237.9,394.2h1.1v1.8h1v0.9h-1v4.1c0,0.2,0.1,0.4,0.2,0.4s0.2,0.1,0.4,0.1c0.1,0,0.1,0,0.2,0s0.1,0,0.2,0v0.8
			c-0.1,0-0.2,0.1-0.4,0.1s-0.3,0-0.4,0c-0.5,0-0.8-0.1-1-0.4s-0.3-0.6-0.3-1v-4.2h-0.8V396h0.8V394.2L237.9,394.2z"/>
		<path class="st6" d="M244.4,398.5c0.2,0,0.4-0.1,0.5-0.3c0-0.1,0.1-0.2,0.1-0.4c0-0.4-0.1-0.6-0.4-0.8s-0.6-0.2-1.1-0.2
			c-0.6,0-0.9,0.1-1.2,0.4c-0.1,0.2-0.2,0.4-0.3,0.7h-1c0-0.8,0.3-1.3,0.8-1.6s1-0.5,1.7-0.5s1.3,0.1,1.8,0.4s0.7,0.7,0.7,1.3v3.6
			c0,0.1,0,0.2,0.1,0.3s0.1,0.1,0.3,0.1c0,0,0.1,0,0.2,0s0.1,0,0.2,0v0.8c-0.2,0-0.3,0.1-0.4,0.1s-0.2,0-0.4,0
			c-0.4,0-0.6-0.1-0.8-0.4c-0.1-0.1-0.1-0.3-0.2-0.6c-0.2,0.3-0.5,0.5-0.9,0.7s-0.8,0.3-1.3,0.3c-0.6,0-1.1-0.2-1.4-0.5
			s-0.6-0.8-0.6-1.3c0-0.6,0.2-1,0.5-1.4s0.8-0.5,1.4-0.6L244.4,398.5z M242.2,401.3c0.2,0.2,0.5,0.3,0.8,0.3c0.4,0,0.7-0.1,1.1-0.3
			c0.6-0.3,0.9-0.8,0.9-1.4v-0.8c-0.1,0.1-0.3,0.2-0.5,0.2s-0.4,0.1-0.6,0.1l-0.6,0.1c-0.4,0.1-0.7,0.1-0.9,0.2
			c-0.3,0.2-0.5,0.5-0.5,0.9C241.8,400.9,242,401.1,242.2,401.3z"/>
		<path class="st6" d="M247.7,396h1v1.1c0.1-0.2,0.3-0.5,0.6-0.8s0.7-0.5,1.1-0.5h0.1c0,0,0.1,0,0.2,0v1.1c-0.1,0-0.1,0-0.2,0
			s-0.1,0-0.2,0c-0.5,0-0.9,0.2-1.2,0.5s-0.4,0.7-0.4,1.2v3.6h-1.1L247.7,396L247.7,396z"/>
		<path class="st6" d="M252.3,400.3c0,0.4,0.1,0.6,0.3,0.8c0.3,0.3,0.7,0.5,1.4,0.5c0.4,0,0.7-0.1,1-0.3s0.4-0.4,0.4-0.8
			c0-0.3-0.1-0.5-0.4-0.6c-0.2-0.1-0.5-0.2-0.9-0.3l-0.8-0.2c-0.5-0.1-0.9-0.3-1.2-0.4c-0.5-0.3-0.7-0.7-0.7-1.2
			c0-0.6,0.2-1.1,0.6-1.4s1-0.6,1.7-0.6c0.9,0,1.6,0.3,2,0.8c0.3,0.4,0.4,0.7,0.4,1.1h-1c0-0.2-0.1-0.5-0.3-0.7
			c-0.2-0.3-0.7-0.4-1.3-0.4c-0.4,0-0.7,0.1-0.9,0.2s-0.3,0.4-0.3,0.6c0,0.3,0.1,0.5,0.4,0.7c0.2,0.1,0.4,0.2,0.7,0.3l0.7,0.2
			c0.8,0.2,1.3,0.4,1.5,0.5c0.4,0.3,0.6,0.7,0.6,1.3c0,0.6-0.2,1-0.6,1.4s-1.1,0.6-1.9,0.6c-0.9,0-1.6-0.2-2-0.6s-0.6-0.9-0.6-1.6
			h1.2L252.3,400.3L252.3,400.3z"/>
		<path class="st6" d="M257.7,393.6h1.1v3.2c0.2-0.3,0.5-0.5,0.7-0.7c0.3-0.2,0.8-0.3,1.3-0.3c0.9,0,1.5,0.3,1.9,1
			c0.2,0.3,0.3,0.8,0.3,1.4v4h-1.1v-4c0-0.5-0.1-0.8-0.2-1c-0.2-0.3-0.6-0.5-1.1-0.5c-0.4,0-0.8,0.2-1.2,0.5s-0.5,0.9-0.5,1.7v3.3
			h-1.1L257.7,393.6L257.7,393.6z"/>
		<path class="st6" d="M264.4,393.7h1.1v1.2h-1.1V393.7z M264.4,396h1.1v6.2h-1.1V396z"/>
		<path class="st6" d="M267,396h1v0.8c0.2-0.3,0.4-0.5,0.7-0.7c0.4-0.2,0.8-0.4,1.3-0.4c0.7,0,1.3,0.3,1.8,0.8s0.7,1.3,0.7,2.3
			c0,1.4-0.4,2.3-1.1,2.9c-0.5,0.4-1,0.6-1.6,0.6c-0.5,0-0.9-0.1-1.2-0.3c-0.2-0.1-0.4-0.3-0.6-0.6v3.2h-1L267,396L267,396z
			 M270.9,400.9c0.3-0.4,0.5-1,0.5-1.8c0-0.5-0.1-0.9-0.2-1.3c-0.3-0.7-0.8-1-1.5-1s-1.2,0.4-1.5,1.1c-0.1,0.4-0.2,0.9-0.2,1.5
			c0,0.5,0.1,0.9,0.2,1.2c0.3,0.6,0.8,1,1.5,1C270.2,401.6,270.6,401.4,270.9,400.9z"/>
	</g>
</g>
<g>
	<g class="st4">
		<path class="st6" d="M240.8,30.2v5.3c0,0.6,0.1,1.1,0.4,1.6c0.3,0.6,0.9,0.9,1.8,0.9c1,0,1.7-0.3,2-1c0.2-0.4,0.3-0.9,0.3-1.5
			v-5.3h1.2V35c0,1.1-0.1,1.9-0.4,2.4c-0.5,1-1.5,1.6-3,1.6s-2.4-0.5-3-1.6c-0.3-0.6-0.4-1.4-0.4-2.4v-4.8H240.8z"/>
		<path class="st6" d="M248.9,36c0,0.5,0.1,0.9,0.3,1.2c0.4,0.6,1.1,0.9,2,0.9c0.4,0,0.8-0.1,1.2-0.2c0.7-0.2,1-0.7,1-1.3
			c0-0.5-0.1-0.8-0.4-1c-0.3-0.2-0.8-0.4-1.4-0.5l-1.2-0.3c-0.8-0.2-1.3-0.4-1.6-0.6c-0.5-0.4-0.8-0.9-0.8-1.6
			c0-0.8,0.3-1.4,0.8-1.9s1.3-0.7,2.3-0.7c0.9,0,1.7,0.2,2.3,0.7s0.9,1.1,0.9,2.1h-1.1c-0.1-0.5-0.2-0.8-0.4-1.1
			c-0.4-0.4-1-0.7-1.8-0.7c-0.7,0-1.2,0.1-1.5,0.4s-0.5,0.6-0.5,1c0,0.4,0.2,0.7,0.5,0.9c0.2,0.1,0.8,0.3,1.6,0.5l1.2,0.3
			c0.6,0.1,1,0.3,1.3,0.5c0.5,0.4,0.8,1,0.8,1.8c0,1-0.3,1.6-1,2S251.9,39,251,39c-1.1,0-1.9-0.3-2.5-0.8s-0.9-1.3-0.9-2.2H248.9z"
			/>
		<path class="st6" d="M258.7,30.2h1.3l3.1,8.6h-1.3l-0.9-2.6h-3.4l-0.9,2.6h-1.2L258.7,30.2z M260.6,35.3l-1.3-3.8l-1.4,3.8H260.6z
			"/>
	</g>
	<g class="st4">
		<path class="st6" d="M235.4,47.3v-0.8c0.8-0.1,1.3-0.2,1.6-0.4s0.5-0.6,0.7-1.2h0.8v8.4h-1.1v-5.9L235.4,47.3L235.4,47.3z"/>
		<path class="st6" d="M241.8,51.3c0.3-0.5,0.8-1,1.5-1.5l1.1-0.7c0.5-0.3,0.9-0.5,1.1-0.8c0.3-0.3,0.5-0.7,0.5-1.1
			c0-0.5-0.1-0.9-0.4-1.2s-0.7-0.4-1.2-0.4c-0.7,0-1.2,0.3-1.5,0.8c-0.1,0.3-0.2,0.7-0.2,1.2h-1.1c0-0.7,0.1-1.3,0.4-1.8
			c0.5-0.8,1.3-1.2,2.4-1.2c1,0,1.7,0.3,2.1,0.8s0.7,1.1,0.7,1.7c0,0.7-0.2,1.2-0.7,1.7c-0.3,0.3-0.8,0.6-1.5,1l-0.8,0.4
			c-0.4,0.2-0.7,0.4-0.9,0.6c-0.4,0.3-0.6,0.7-0.7,1.1h4.6v1h-5.8C241.4,52.5,241.5,51.9,241.8,51.3z"/>
		<path class="st6" d="M253.2,46.2c0.4,0.7,0.6,1.6,0.6,2.8c0,1.1-0.2,2.1-0.5,2.8c-0.5,1.1-1.3,1.6-2.4,1.6c-1,0-1.8-0.4-2.2-1.3
			c-0.4-0.7-0.6-1.7-0.6-2.9c0-1,0.1-1.8,0.4-2.5c0.5-1.3,1.3-1.9,2.5-1.9C252,44.8,252.8,45.3,253.2,46.2z M252.2,51.7
			c0.3-0.5,0.5-1.4,0.5-2.7c0-1-0.1-1.7-0.4-2.4s-0.7-0.9-1.4-0.9c-0.6,0-1.1,0.3-1.4,0.9s-0.4,1.4-0.4,2.6c0,0.9,0.1,1.5,0.3,2.1
			c0.3,0.8,0.8,1.2,1.4,1.2C251.4,52.5,251.9,52.2,252.2,51.7z"/>
		<path class="st6" d="M258.4,46.9h1v0.9c0.2-0.3,0.5-0.5,0.7-0.7c0.3-0.2,0.7-0.4,1.2-0.4s0.9,0.1,1.2,0.4c0.2,0.1,0.3,0.3,0.5,0.6
			c0.2-0.3,0.5-0.6,0.8-0.7s0.7-0.2,1.1-0.2c0.8,0,1.4,0.3,1.7,0.9c0.2,0.3,0.2,0.8,0.2,1.3v4.2h-1.1v-4.4c0-0.4-0.1-0.7-0.3-0.9
			c-0.2-0.2-0.5-0.2-0.8-0.2c-0.4,0-0.8,0.1-1.1,0.4s-0.4,0.7-0.4,1.4v3.7H262v-4.1c0-0.4-0.1-0.7-0.2-0.9c-0.2-0.3-0.5-0.4-0.9-0.4
			c-0.4,0-0.8,0.2-1.1,0.5c-0.3,0.3-0.5,0.9-0.5,1.7v3.3h-1.1v-6.4C258.2,46.9,258.4,46.9,258.4,46.9z"/>
	</g>
</g>
<rect x="327" y="231.7" class="st2" width="38.5" height="150.6"/>
<rect x="319.3" y="213.1" class="st2" width="55.1" height="18.5"/>
<rect x="321.9" y="186.8" class="st2" width="49.7" height="22.3"/>
<path class="st7" d="M324.9,209.1"/>
<line class="st3" x1="328.4" y1="209.1" x2="328.4" y2="213.2"/>
<line class="st3" x1="325.3" y1="209.1" x2="325.3" y2="212.9"/>
<line class="st3" x1="365.1" y1="209.1" x2="365.1" y2="213.1"/>
<line class="st3" x1="368.2" y1="209.1" x2="368.2" y2="213.2"/>
<rect x="331.6" y="209.1" class="st2" width="29.9" height="3.8"/>
<rect x="319.3" y="184.2" class="st2" width="54.6" height="2.6"/>
<rect x="331.6" y="169.8" class="st2" width="29.9" height="14.3"/>
<rect x="319.7" y="152.4" class="st2" width="54.1" height="17.4"/>
<rect x="340.7" y="110.5" class="st2" width="11.6" height="41.9"/>
<rect x="331.6" y="96" class="st2" width="30.1" height="14.4"/>
<rect x="338.9" y="85.5" class="st2" width="16" height="8.5"/>
<rect x="328.4" y="94" class="st2" width="36.6" height="2"/>
<ellipse class="st2" cx="325" cy="178.7" rx="4.9" ry="5"/>
<ellipse class="st2" cx="368.8" cy="178.7" rx="4.9" ry="5"/>
<rect x="319.7" y="138.2" class="st2" width="54.1" height="2.1"/>
<rect x="319.7" y="119.6" class="st2" width="54.1" height="2"/>
<rect x="336" y="121.6" class="st2" width="1" height="30.8"/>
<rect x="358" y="121.6" class="st2" width="1" height="30.8"/>
<line class="st3" x1="325" y1="147" x2="370.3" y2="147"/>
<line class="st3" x1="325.2" y1="147" x2="325.2" y2="152.4"/>
<line class="st3" x1="370.3" y1="147" x2="370.3" y2="152.4"/>
<line class="st3" x1="325" y1="134.3" x2="370.3" y2="134.3"/>
<line class="st3" x1="325.2" y1="134.3" x2="325.2" y2="138.1"/>
<line class="st3" x1="370.3" y1="134.3" x2="370.3" y2="138.2"/>
<line class="st3" x1="325" y1="115.5" x2="368.3" y2="115.5"/>
<line class="st3" x1="325.2" y1="115.5" x2="325.2" y2="119.7"/>
<line class="st3" x1="368.3" y1="115.5" x2="368.3" y2="119.7"/>
<line class="st3" x1="329.3" y1="90.4" x2="364.1" y2="90.4"/>
<line class="st3" x1="329.4" y1="90.4" x2="329.4" y2="94"/>
<line class="st3" x1="364.1" y1="90.4" x2="364.1" y2="94"/>
<line class="st3" x1="344.1" y1="54.3" x2="344.1" y2="85.5"/>
<line class="st3" x1="349.5" y1="54.3" x2="349.5" y2="85.5"/>
<line class="st3" x1="343.1" y1="54.3" x2="350.5" y2="54.3"/>
<line class="st3" x1="347.5" y1="37.9" x2="347.5" y2="54.3"/>
<ellipse class="st6" cx="347.5" cy="37.1" rx="0.9" ry="0.9"/>
<line class="st3" x1="326.6" y1="186.9" x2="326.6" y2="208.8"/>
<line class="st3" x1="331.1" y1="187.1" x2="331.1" y2="208.9"/>
<line class="st3" x1="335.4" y1="187" x2="335.4" y2="208.9"/>
<line class="st3" x1="339.9" y1="187.1" x2="339.9" y2="209"/>
<line class="st3" x1="344.7" y1="187" x2="344.7" y2="208.9"/>
<line class="st3" x1="349.2" y1="187.2" x2="349.2" y2="209"/>
<line class="st3" x1="353.5" y1="187.1" x2="353.5" y2="209"/>
<line class="st3" x1="358" y1="187.2" x2="358" y2="209.1"/>
<line class="st3" x1="362.7" y1="186.9" x2="362.7" y2="208.7"/>
<line class="st3" x1="367.2" y1="187" x2="367.2" y2="208.9"/>
<g>
	<path class="st6" d="M340.1,393.4v1h-2.9v7.6H336v-7.6h-2.9v-1H340.1z"/>
	<path class="st6" d="M344.3,396.4c0.6,0.5,0.8,1.3,0.8,2.4c0,1-0.2,1.8-0.7,2.5s-1.3,1-2.3,1c-0.9,0-1.5-0.3-2.1-0.9
		s-0.8-1.4-0.8-2.4c0-1.1,0.3-1.9,0.8-2.5s1.3-0.9,2.2-0.9C343,395.6,343.7,395.9,344.3,396.4z M343.6,400.6
		c0.3-0.5,0.4-1.1,0.4-1.8c0-0.6-0.1-1.1-0.3-1.4c-0.3-0.6-0.8-0.9-1.5-0.9c-0.6,0-1.1,0.2-1.4,0.7s-0.4,1.1-0.4,1.8
		c0,0.7,0.1,1.2,0.4,1.7s0.8,0.7,1.4,0.7C342.9,401.4,343.4,401.1,343.6,400.6z"/>
	<path class="st6" d="M346.4,395.8h1v1.1c0.1-0.2,0.3-0.5,0.6-0.8s0.7-0.5,1.1-0.5h0.1c0,0,0.1,0,0.2,0v1.1c-0.1,0-0.1,0-0.2,0
		s-0.1,0-0.2,0c-0.5,0-0.9,0.2-1.2,0.5s-0.4,0.7-0.4,1.2v3.6h-1.1v-6.2L346.4,395.8L346.4,395.8z"/>
	<path class="st6" d="M350.4,395.8h1v1.1c0.1-0.2,0.3-0.5,0.6-0.8s0.7-0.5,1.1-0.5h0.1c0,0,0.1,0,0.2,0v1.1c-0.1,0-0.1,0-0.2,0
		s-0.1,0-0.2,0c-0.5,0-0.9,0.2-1.2,0.5s-0.4,0.7-0.4,1.2v3.6h-1.1v-6.2L350.4,395.8L350.4,395.8z"/>
	<path class="st6" d="M358.3,395.9c0.4,0.2,0.7,0.5,1,0.8c0.2,0.3,0.4,0.7,0.4,1.1c0.1,0.3,0.1,0.8,0.1,1.4h-4.6
		c0,0.6,0.2,1.1,0.5,1.5s0.7,0.6,1.3,0.6s1-0.2,1.3-0.5c0.2-0.2,0.3-0.5,0.4-0.7h1c0,0.2-0.1,0.5-0.3,0.8s-0.3,0.5-0.5,0.7
		c-0.3,0.3-0.7,0.5-1.2,0.6c-0.3,0.1-0.5,0.1-0.9,0.1c-0.8,0-1.4-0.3-2-0.9S354,400,354,399s0.3-1.8,0.8-2.5s1.3-0.9,2.1-0.9
		C357.4,395.6,357.8,395.7,358.3,395.9z M358.6,398.4c0-0.5-0.1-0.8-0.3-1.1c-0.3-0.5-0.8-0.8-1.4-0.8c-0.5,0-0.9,0.2-1.2,0.5
		s-0.5,0.8-0.5,1.3h3.4V398.4z"/>
	<path class="st6" d="M333.9,407.8h6.3v1.1h-5.1v2.6h4.8v1h-4.8v2.9h5.2v1h-6.4V407.8L333.9,407.8z"/>
	<path class="st6" d="M341.7,410.2h1v0.9c0.3-0.4,0.6-0.6,0.9-0.8c0.3-0.2,0.7-0.2,1.1-0.2c0.9,0,1.5,0.3,1.8,0.9
		c0.2,0.3,0.3,0.8,0.3,1.5v4h-1.1v-4c0-0.4-0.1-0.7-0.2-0.9c-0.2-0.4-0.5-0.6-1-0.6c-0.2,0-0.5,0-0.6,0.1c-0.3,0.1-0.5,0.3-0.8,0.5
		c-0.2,0.2-0.3,0.4-0.3,0.6s-0.1,0.5-0.1,0.9v3.3h-1.1L341.7,410.2L341.7,410.2L341.7,410.2z"/>
	<path class="st6" d="M348.6,408.4h1.1v1.8h1v0.9h-1v4.1c0,0.2,0.1,0.4,0.2,0.4s0.2,0.1,0.4,0.1c0.1,0,0.1,0,0.2,0s0.1,0,0.2,0v0.8
		c-0.1,0-0.2,0.1-0.4,0.1s-0.3,0-0.4,0c-0.5,0-0.8-0.1-1-0.4s-0.3-0.6-0.3-1V411h-0.8v-0.9h0.8L348.6,408.4L348.6,408.4z"/>
	<path class="st6" d="M355.6,410.3c0.4,0.2,0.7,0.5,1,0.8c0.2,0.3,0.4,0.7,0.4,1.1c0.1,0.3,0.1,0.8,0.1,1.4h-4.6
		c0,0.6,0.2,1.1,0.5,1.5s0.7,0.6,1.3,0.6s1-0.2,1.3-0.5c0.2-0.2,0.3-0.5,0.4-0.7h1c0,0.2-0.1,0.5-0.3,0.8s-0.3,0.5-0.5,0.7
		c-0.3,0.3-0.7,0.5-1.2,0.6c-0.3,0.1-0.5,0.1-0.9,0.1c-0.8,0-1.4-0.3-2-0.9s-0.8-1.4-0.8-2.4s0.3-1.8,0.8-2.5s1.3-0.9,2.1-0.9
		C354.7,410,355.2,410.1,355.6,410.3z M356,412.8c0-0.5-0.1-0.8-0.3-1.1c-0.3-0.5-0.8-0.8-1.4-0.8c-0.5,0-0.9,0.2-1.2,0.5
		s-0.5,0.8-0.5,1.3h3.4V412.8z"/>
	<path class="st6" d="M358.4,407.8h1.1v8.6h-1.1V407.8z"/>
</g>
<g>
	<g>
		<path class="st6" d="M334.3,19.5v-0.8c0.8-0.1,1.3-0.2,1.6-0.4c0.3-0.2,0.5-0.6,0.7-1.2h0.8v8.4h-1.2v-5.9h-1.9V19.5L334.3,19.5z"
			/>
		<path class="st6" d="M340.6,23.5c0.3-0.5,0.8-1,1.5-1.5l1.1-0.7c0.5-0.3,0.9-0.5,1.1-0.8c0.3-0.3,0.5-0.7,0.5-1.1
			c0-0.5-0.1-0.9-0.4-1.2s-0.7-0.4-1.2-0.4c-0.7,0-1.2,0.3-1.5,0.8c-0.1,0.3-0.2,0.7-0.2,1.2h-1.1c0-0.7,0.1-1.3,0.4-1.8
			c0.5-0.8,1.3-1.2,2.4-1.2c1,0,1.7,0.3,2.1,0.8s0.7,1.1,0.7,1.7c0,0.7-0.2,1.2-0.7,1.7c-0.3,0.3-0.8,0.6-1.5,1l-0.8,0.4
			c-0.4,0.2-0.7,0.4-0.9,0.6c-0.4,0.3-0.6,0.7-0.7,1.1h4.6v1h-5.8C340.2,24.7,340.4,24.1,340.6,23.5z"/>
		<path class="st6" d="M352.7,17.2v0.9c-0.3,0.3-0.6,0.7-1.1,1.4c-0.5,0.7-0.8,1.3-1.2,2.1c-0.3,0.7-0.6,1.4-0.8,2
			c-0.1,0.4-0.3,1-0.4,1.9H348c0.3-1.6,0.9-3.2,1.8-4.8c0.5-0.9,1.1-1.7,1.7-2.4h-4.6v-1.1H352.7z"/>
		<path class="st6" d="M357.2,19.1h1V20c0.2-0.3,0.5-0.5,0.7-0.7c0.3-0.2,0.7-0.4,1.2-0.4s0.9,0.1,1.2,0.4c0.2,0.1,0.3,0.3,0.5,0.6
			c0.2-0.3,0.5-0.6,0.8-0.7s0.7-0.2,1.1-0.2c0.8,0,1.4,0.3,1.7,0.9c0.2,0.3,0.2,0.8,0.2,1.3v4.2h-1.1V21c0-0.4-0.1-0.7-0.3-0.9
			s-0.5-0.2-0.8-0.2c-0.4,0-0.8,0.1-1.1,0.4s-0.4,0.7-0.4,1.4v3.7h-1.1v-4.1c0-0.4-0.1-0.7-0.2-0.9c-0.2-0.3-0.5-0.4-0.9-0.4
			s-0.8,0.2-1.1,0.5s-0.5,0.9-0.5,1.7v3.3h-0.9L357.2,19.1L357.2,19.1z"/>
	</g>
</g>
</svg>
