<?xml version="1.0" encoding="utf-8"?>
<!-- Generator: Adobe Illustrator 22.0.1, SVG Export Plug-In . SVG Version: 6.00 Build 0)  -->
<svg version="1.1" id="Capa_2_1_" xmlns="http://www.w3.org/2000/svg" xmlns:xlink="http://www.w3.org/1999/xlink" x="0px" y="0px"
	 viewBox="0 0 642.2 439" style="enable-background:new 0 0 642.2 439;" xml:space="preserve">
<style type="text/css">
	.st0{fill:#AAAAAA;}
	.st1{fill:#BE965F;}
	.st2{fill:#CCCCCC;}
	.st3{fill:none;}
	.st4{fill:#DDDDDD;}
	.st5{font-family:'MyriadPro-Regular';}
	.st6{font-size:12px;}
</style>
<polyline class="st0" points="199.3,199.9 199.3,195.9 200.3,195.9 200.2,200.1 "/>
<polyline class="st0" points="208,200 208,195.9 209,195.9 209,199.9 "/>
<path class="st0" d="M214.4,44.9l0-1.8l0.7-15.1l-1.6-6.7V9.9l-5.4-1.4V8.2c0-1.8-1.5-3.2-3.3-3.2h-2.1c-1.8,0-3.3,1.4-3.3,3.2v0.5
	L194,9.9l-0.4,11.5l-1.8,6.5l0.2,17h-1v-0.6l-0.2-16.5l1.9-6.6L193,9.1l5.4-1.2c0.1-2.2,2-3.9,4.3-3.9h2.1c2.2,0,4.1,1.7,4.3,3.8
	l5.4,1.4v12.1l1.6,6.6l-0.8,15.2l0,1.7L214.4,44.9L214.4,44.9z"/>
<path class="st0" d="M203.2,47.1c-2.1,0-12.3-0.1-12.3-2.2s10.2-2.2,12.3-2.2c4.9,0,10.5,0.5,11.9,1.5c0.4,0.2,0.4,0.5,0.4,0.7
	C215.4,47,205.2,47.1,203.2,47.1z M192,44.9c0.9,0.5,5,1.2,11.1,1.2s10.2-0.7,11.1-1.2c-1.2-0.6-5.5-1.2-11.1-1.2
	C197.1,43.7,192.9,44.4,192,44.9L192,44.9z"/>
<path class="st0" d="M210.3,108.2l-0.2-3.4V89.4l4.4-10.4V52.2l-5.8-1.9v-1.5c0-1.7-1.5-3.1-3.3-3.1h-2.2c-1.8,0-3.3,1.4-3.3,3.1
	v1.5l-5.8,1.9V79l4.4,10.6v15.2l-0.2,3.5l-1-0.1l0.2-3.4V89.6l-4.4-10.6V51.5l5.8-1.9v-0.8c0-2.3,1.9-4.1,4.3-4.1h2.2
	c2.4,0,4.3,1.8,4.3,4.1v0.8l5.8,1.9l0,27.8L211,89.6v15.1l0.2,3.4L210.3,108.2L210.3,108.2z"/>
<path class="st0" d="M204.3,111.4c-3.9,0-6.9-1.4-6.9-3.2s3-3.2,6.9-3.2s6.9,1.4,6.9,3.2S208.3,111.4,204.3,111.4z M204.3,106
	c-3.4,0-5.9,1.2-5.9,2.2s2.5,2.2,5.9,2.2s5.9-1.2,5.9-2.2S207.7,106,204.3,106z"/>
<path class="st1" d="M215.4,196.4h-20.6v-71.2c0-3.8,2.1-7.3,5.5-9.1v-7.8l0.2-0.2c3.8-2.8,8,0,8.1,0l0.2,0.2v7.3
	c4,1.5,6.7,5.3,6.7,9.7V196.4L215.4,196.4z M195.8,195.4h18.6v-70.2c0-4-2.5-7.6-6.3-8.8l-0.3-0.1v-7.4c-0.8-0.5-3.8-1.9-6.5,0v7.9
	l-0.3,0.1c-3.2,1.6-5.2,4.8-5.2,8.4L195.8,195.4L195.8,195.4z"/>
<path class="st1" d="M199,204.5c0.1,2.1-0.4,3.6-1.5,4.7c-1.6,1.5-3.9,1.5-4.9,1.5v9.5c-0.3-0.4-0.6-0.8-1-1.1v-9.6l0.6,0.1
	c0,0,3,0.4,4.7-1.1c0.9-0.9,1.3-2.2,1.2-4v-0.1"/>
<path class="st1" d="M210.3,204.5c-0.1,1.8,0.3,3.1,1.2,4c1.7,1.6,4.6,1.1,4.7,1.1l0.6-0.1v10.4h-1v-9.2c-1.1,0.1-3.4,0-4.9-1.5
	c-1.1-1.1-1.7-2.6-1.5-4.7"/>
<polygon class="st0" points="234.4,176.1 218,176.1 218,165.1 214.9,165.1 214.9,164.1 219,164.1 219,175.1 233.4,175.1 
	232.6,164.8 233.4,154.6 219,154.6 219,163.4 214.9,163.4 214.9,162.4 218,162.4 218,153.6 234.4,153.6 233.5,164.8 "/>
<path class="st0" d="M215.4,97.4H210v-2.7h5.4V97.4z M211,96.4h3.4v-0.7H211V96.4z"/>
<path class="st0" d="M198.4,97.4H192v-2.7h6.4V97.4z M193,96.4h4.4v-0.7H193V96.4z"/>
<path class="st0" d="M190.4,176.8l-1.3-23.1l4.1-0.2l1.3,23.1L190.4,176.8L190.4,176.8z M190.1,154.6l1.2,21.1l2.1-0.1l-1.2-21.1
	L190.1,154.6z"/>
<path class="st0" d="M184.7,177.5l-1.3-23.1l4.1-0.2l1.3,23.1L184.7,177.5L184.7,177.5z M184.4,155.3l1.2,21.1l2.1-0.1l-1.2-21.1
	L184.4,155.3z"/>
<path class="st0" d="M179.3,178L178,155l4.1-0.2l1.3,23.1L179.3,178z M179.1,155.9l1.2,21.1l2.1-0.1l-1.2-21.1L179.1,155.9
	L179.1,155.9z"/>
<path class="st0" d="M276,107.9h-28.6v-2.4h-33V85.9h33v-2.4H276V107.9L276,107.9z M248.5,106.9H275V84.5h-26.6v2.4h-33v17.6h33
	V106.9L248.5,106.9z"/>
<rect x="214.5" y="87.5" class="st0" width="61.1" height="0.5"/>
<rect x="214.5" y="92.4" class="st0" width="61.1" height="0.5"/>
<rect x="214.5" y="97.3" class="st0" width="61.1" height="0.5"/>
<rect x="214.5" y="102.2" class="st0" width="61.1" height="0.5"/>
<rect x="268.6" y="84" class="st0" width="0.5" height="23.4"/>
<rect x="261.5" y="84" class="st0" width="0.5" height="23.4"/>
<rect x="254.5" y="84" class="st0" width="0.5" height="23.4"/>
<rect x="247.9" y="84" class="st0" width="0.5" height="23.4"/>
<rect x="240.9" y="86.4" class="st0" width="0.5" height="18.6"/>
<rect x="234.2" y="86.4" class="st0" width="0.5" height="18.6"/>
<rect x="227.1" y="86.4" class="st0" width="0.5" height="18.6"/>
<rect x="220.4" y="86.4" class="st0" width="0.5" height="18.6"/>
<path class="st0" d="M159.5,108.2h-28.6V83.8h28.6v2.4h33v19.6h-33V108.2L159.5,108.2z M131.9,107.2h26.6v-2.4h33V87.2h-33v-2.4
	h-26.6V107.2L131.9,107.2z"/>
<rect x="131.4" y="87.8" class="st0" width="61.1" height="0.5"/>
<rect x="131.4" y="92.8" class="st0" width="61.1" height="0.5"/>
<rect x="131.4" y="97.7" class="st0" width="61.1" height="0.5"/>
<rect x="131.4" y="102.6" class="st0" width="61.1" height="0.5"/>
<rect x="137.9" y="84.3" class="st0" width="0.5" height="23.4"/>
<rect x="144.9" y="84.3" class="st0" width="0.5" height="23.4"/>
<rect x="152" y="84.3" class="st0" width="0.5" height="23.4"/>
<rect x="158.6" y="84.3" class="st0" width="0.5" height="23.4"/>
<rect x="165.6" y="86.8" class="st0" width="0.5" height="18.6"/>
<rect x="172.3" y="86.8" class="st0" width="0.5" height="18.6"/>
<rect x="179.4" y="86.8" class="st0" width="0.5" height="18.6"/>
<rect x="186.1" y="86.8" class="st0" width="0.5" height="18.6"/>
<polygon class="st0" points="247.3,304.4 241.5,302.9 215.5,302.9 215.5,301.9 241.7,301.9 247.6,303.4 "/>
<polygon class="st0" points="241.6,325.9 215.5,325.9 215.5,324.9 241.5,324.9 247.3,323.4 247.6,324.3 "/>
<path class="st0" d="M265.1,304.4c-0.3-0.4-0.5-0.7-0.9-1c0,0-0.1-0.1-0.1-0.1c-0.3-0.3-0.6-0.6-1-0.9v1.1h-0.3c0.3,0.3,0.7,0.6,1,1
	c2.1,2.4,3.4,5.8,3.4,9.5s-1.3,7.1-3.4,9.5c-0.3,0.4-0.6,0.7-1,1h0.3v1.1c0.4-0.3,0.7-0.6,1-0.9c0,0,0.1-0.1,0.1-0.1
	c0.3-0.3,0.6-0.6,0.9-1c1.9-2.5,3.1-5.9,3.1-9.5S267,306.9,265.1,304.4L265.1,304.4z M255.7,299.5c-6.9,0-12.5,6.4-12.5,14.4
	s5.6,14.4,12.5,14.4c1.6,0,3.1-0.3,4.5-0.9c0.3-0.1,0.7-0.3,1-0.5v-1.2c-0.3,0.2-0.7,0.4-1,0.6c-1.4,0.7-2.9,1-4.4,1
	c-6.3,0-11.5-6-11.5-13.4s5.2-13.4,11.5-13.4c1.6,0,3.1,0.4,4.4,1c0.3,0.2,0.7,0.4,1,0.6v-1.2c-0.3-0.2-0.7-0.4-1-0.5
	C258.7,299.8,257.2,299.5,255.7,299.5L255.7,299.5z"/>
<path class="st0" d="M277,324.3h-13v-1h12.4c6-10,1-17.6,0-19H264v-1h12.9l0.1,0.2c0.1,0.1,7.1,9,0,20.5L277,324.3L277,324.3z"/>
<path class="st0" d="M271.7,294.6v9.8h4v-9.8H271.7z M272.7,303.4v-7.8h2v7.8H272.7z"/>
<path class="st0" d="M265.7,294.6v9.8h4v-9.8H265.7z M266.7,303.4v-7.8h2v7.8H266.7z"/>
<path class="st0" d="M260.1,294.6v9.8h4v-9.8H260.1z M263.1,303.4h-2v-7.8h2V303.4z"/>
<path class="st0" d="M271.7,323.3v9.8h4v-9.8H271.7z M274.6,332.1h-2v-7.8h2V332.1z"/>
<path class="st0" d="M265.7,323.3v9.8h4v-9.8H265.7z M268.7,332.1h-2v-7.8h2V332.1z"/>
<path class="st0" d="M260.1,323.3v9.8h4v-9.8H260.1z M263.1,332.1h-2v-7.8h2V332.1z"/>
<polygon class="st0" points="194.5,304.9 185.2,304.9 178.4,302.9 163.9,302.9 163.9,301.9 178.6,301.9 185.4,303.9 194.5,303.9 "/>
<polygon class="st0" points="178.5,326.9 163.9,326.9 163.9,325.9 178.4,325.9 185.4,323.8 194.5,323.8 194.5,324.8 185.4,324.8 "/>
<path class="st0" d="M163.9,326.9c-1.9,0-2.1-9.6-2.1-12.5s0.1-12.5,2.1-12.5s2.1,9.6,2.1,12.5S165.8,326.9,163.9,326.9z
	 M163.9,303.1c-0.5,1.1-1.1,5.2-1.1,11.3s0.6,10.2,1.1,11.3c0.5-1.1,1.1-5.2,1.1-11.3S164.4,304.1,163.9,303.1z"/>
<path class="st0" d="M243.9,248.9l-7.5-6.8l-1-0.9h-19.6v17.7h100.4v-10H243.9z M315.1,257.9h-98.4v-15.7h18.2l8.5,7.8h71.7V257.9z"
	/>
<path class="st0" d="M341.2,260.4h-26.1v-16.7h26.1V260.4z M316.1,259.4h24.1v-14.7h-24.1V259.4z"/>
<path class="st0" d="M396.4,260.4h-52.9v-16.7h52.9V260.4z M344.5,259.4h50.9v-14.7h-50.9V259.4z"/>
<path class="st0" d="M112.3,257.3H105v-4.1h7.2V257.3z M106,256.3h5.2v-2.1H106V256.3z"/>
<path class="st0" d="M417.2,107.9H368V102h49.2V107.9z M369,106.9h47.2V103H369V106.9z"/>
<path class="st0" d="M417.2,241.2H368v-5.9h49.2V241.2z M369,240.2h47.2v-3.9H369V240.2z"/>
<path class="st0" d="M410.8,236.3h-17V106.9h17V236.3z M394.9,235.3h15V107.9h-15V235.3L394.9,235.3z"/>
<path class="st0" d="M390.9,236.3h-17V106.9h17V236.3z M374.9,235.3h15V107.9h-15V235.3L374.9,235.3z"/>
<path class="st0" d="M365.3,107.9h-49.2V102h49.2V107.9z M317.1,106.9h47.2V103h-47.2V106.9z"/>
<path class="st0" d="M365.3,241.2h-49.2v-5.9h49.2V241.2z M317.1,240.2h47.2v-3.9h-47.2V240.2z"/>
<path class="st0" d="M359,236.3h-17V106.9h17V236.3z M343,235.3h15V107.9h-15V235.3L343,235.3z"/>
<path class="st0" d="M339,236.3h-17V106.9h17V236.3z M323.1,235.3h15V107.9h-15V235.3L323.1,235.3z"/>
<path class="st0" d="M417.2,268.9H368V263h49.2V268.9z M369,267.9h47.2V264H369V267.9z"/>
<path class="st0" d="M416.4,402h-47.5v-5.8h47.5V402z M369.8,401h45.5v-3.8h-45.5V401z"/>
<path class="st0" d="M410.8,397.3h-17V267.9h17V397.3z M394.9,396.3h15V268.9h-15V396.3z"/>
<path class="st0" d="M390.9,397.3h-17V267.9h17V397.3z M374.9,396.3h15V268.9h-15V396.3z"/>
<path class="st0" d="M365.3,268.9h-49.2V263h49.2V268.9z M317.1,267.9h47.2V264h-47.2V267.9z"/>
<path class="st0" d="M363.8,402h-47.5v-5.8h47.5V402z M317.2,401h45.5v-3.8h-45.5V401z"/>
<path class="st0" d="M359,397.3h-17V267.9h17V397.3z M343,396.3h15V268.9h-15V396.3z"/>
<path class="st0" d="M339,397.3h-17V267.9h17V397.3z M323.1,396.3h15V268.9h-15V396.3z"/>
<path class="st0" d="M393.5,244.7h-4.6v-4.5h4.6V244.7z M389.9,243.7h2.6v-2.5h-2.6V243.7z"/>
<path class="st0" d="M393.5,263.9h-4.6v-4.5h4.6V263.9z M389.9,262.9h2.6v-2.5h-2.6V262.9z"/>
<path class="st0" d="M360.8,244.7h-4.6v-4.5h4.6V244.7z M357.2,243.7h2.6v-2.5h-2.6V243.7z"/>
<path class="st0" d="M360.8,263.9h-4.6v-4.5h4.6V263.9z M357.2,262.9h2.6v-2.5h-2.6V262.9z"/>
<path class="st0" d="M106,262.2H79.9v-16.7H106V262.2z M80.9,261.2H105v-14.7H80.9V261.2z"/>
<path class="st0" d="M77.7,262.2H24.8v-16.7h52.9V262.2z M25.8,261.2h50.9v-14.7H25.8V261.2z"/>
<path class="st0" d="M80.9,255.7h-4.2v-4.1h4.2V255.7z M77.7,254.7h2.2v-2.1h-2.2V254.7z"/>
<path class="st0" d="M52.5,403.8H4.9v-5.8h47.5V403.8z M5.9,402.8h45.5v-3.8H5.9L5.9,402.8L5.9,402.8z"/>
<path class="st0" d="M53.2,270.7H4v-5.9h49.2V270.7z M5,269.7h47.2v-3.9H5V269.7z"/>
<path class="st0" d="M27.3,399.1h-17V269.7h17V399.1z M11.3,398.1h15V270.7h-15C11.4,270.7,11.4,398.1,11.3,398.1z"/>
<path class="st0" d="M47.3,399.1h-17V269.7h17L47.3,399.1L47.3,399.1z M31.3,398.1h15V270.7h-15V398.1z"/>
<path class="st0" d="M101.9,403.8H54.4v-5.8h47.5V403.8z M55.4,402.8h45.5v-3.8H55.4V402.8z"/>
<path class="st0" d="M105,270.7H55.8v-5.9H105L105,270.7L105,270.7z M56.8,269.7H104v-3.9H56.8L56.8,269.7L56.8,269.7z"/>
<path class="st0" d="M79.2,399.1h-17V269.7h17V399.1z M63.2,398.1h15V270.7h-15V398.1z"/>
<path class="st0" d="M99.1,399.1h-17V269.7h17V399.1z M83.2,398.1h15V270.7h-15V398.1z"/>
<path class="st0" d="M53.2,243H4v-5.9h49.2V243z M5,242h47.2v-3.9H5V242z"/>
<path class="st0" d="M53.2,109.7H4v-5.9h49.2V109.7z M5,108.7h47.2v-3.9H5V108.7z"/>
<path class="st0" d="M27.3,238.1h-17V108.7h17V238.1z M11.3,237.1h15V109.7h-15L11.3,237.1L11.3,237.1z"/>
<path class="st0" d="M47.3,238.1h-17V108.7h17L47.3,238.1L47.3,238.1z M31.3,237.1h15V109.7h-15V237.1L31.3,237.1z"/>
<path class="st0" d="M105,243H55.8v-5.9H105L105,243L105,243z M56.8,242H104v-3.9H56.8L56.8,242L56.8,242z"/>
<path class="st0" d="M105,109.7H55.8v-5.9H105L105,109.7L105,109.7z M56.8,108.7H104v-3.9H56.8L56.8,108.7L56.8,108.7z"/>
<path class="st0" d="M79.2,238.1h-17V108.7h17V238.1z M63.2,237.1h15V109.7h-15V237.1L63.2,237.1z"/>
<path class="st0" d="M99.1,238.1h-17V108.7h17V238.1z M83.2,237.1h15V109.7h-15V237.1L83.2,237.1z"/>
<path class="st0" d="M32.3,265.8h-4.6v-4.5h4.6C32.3,261.2,32.3,265.8,32.3,265.8z M28.7,264.8h2.6v-2.5h-2.6V264.8z"/>
<path class="st0" d="M32.3,246.6h-4.6V242h4.6C32.3,242,32.3,246.6,32.3,246.6z M28.7,245.6h2.6V243h-2.6V245.6z"/>
<path class="st0" d="M65,265.8h-4.6v-4.5H65V265.8z M61.4,264.8H64v-2.5h-2.6V264.8z"/>
<path class="st0" d="M65,246.6h-4.6V242H65V246.6z M61.4,245.6H64V243h-2.6V245.6z"/>
<path class="st0" d="M315.2,241.5l-57.1-0.3l-3.2-5.9h56.6L315.2,241.5L315.2,241.5z M258.6,240.2l54.8,0.3l-2.6-4.2h-54.3
	L258.6,240.2L258.6,240.2z"/>
<path class="st0" d="M311.8,234.5h-16.1l-1.2-14.9h16L311.8,234.5L311.8,234.5z M296.6,233.5h14.1l-1.1-12.9h-14L296.6,233.5z"/>
<path class="st0" d="M309,218.7h-14.5l1.2-14.9h14.9L309,218.7L309,218.7z M295.6,217.7H308l1.4-12.9h-12.9L295.6,217.7L295.6,217.7
	z"/>
<path class="st0" d="M310.6,203.1h-14.9l-1.7-14.7h14.9L310.6,203.1z M296.6,202.1h12.9l-1.5-12.7h-12.9L296.6,202.1z"/>
<path class="st0" d="M309.1,187.8h-14.9l1.5-14.9h14.9L309.1,187.8z M295.3,186.8h12.9l1.3-12.9h-12.9L295.3,186.8z"/>
<path class="st0" d="M310.6,172.1h-14.9l-1.7-14.5h14.9L310.6,172.1z M296.6,171.1h12.9l-1.5-12.5h-12.9L296.6,171.1z"/>
<path class="st0" d="M309.1,156.4h-14.9l1.5-14.9h14.9L309.1,156.4z M295.3,155.4h12.9l1.3-12.9h-12.9L295.3,155.4z"/>
<path class="st0" d="M310.6,140.8h-14.9l-1.7-14.6h14.9L310.6,140.8z M296.6,139.8h12.9l-1.5-12.6h-12.9L296.6,139.8z"/>
<path class="st0" d="M308.9,125.5H294l1.7-15.3h14.9L308.9,125.5z M295.1,124.5H308l1.5-13.3h-12.9L295.1,124.5z"/>
<path class="st0" d="M292.7,233.7h-16.1l-1.2-14.9h16L292.7,233.7L292.7,233.7z M277.6,232.7h14.1l-1.1-12.9h-14L277.6,232.7z"/>
<path class="st0" d="M289.9,217.9h-14.5l1.2-14.9h14.9L289.9,217.9L289.9,217.9z M276.5,216.9H289l1.4-12.9h-12.9L276.5,216.9
	L276.5,216.9z"/>
<path class="st0" d="M291.6,202.4h-14.9l-1.7-14.7h14.9L291.6,202.4z M277.6,201.4h12.9l-1.5-12.7h-12.9L277.6,201.4z"/>
<path class="st0" d="M290,187.1h-14.9l1.5-14.9h14.9L290,187.1z M276.2,186.1h12.9l1.3-12.9h-12.9L276.2,186.1z"/>
<path class="st0" d="M291.6,171.3h-14.9l-1.7-14.5h14.9L291.6,171.3z M277.6,170.3h12.9l-1.5-12.5h-12.9L277.6,170.3z"/>
<path class="st0" d="M290,155.6h-14.9l1.5-14.9h14.9L290,155.6z M276.2,154.6h12.9l1.3-12.9h-12.9L276.2,154.6z"/>
<path class="st0" d="M291.6,140.1h-14.9l-1.7-14.6h14.9L291.6,140.1z M277.6,139.1h12.9l-1.5-12.6h-12.9L277.6,139.1z"/>
<path class="st0" d="M289.9,124.7H275l1.7-14.3h14.9L289.9,124.7z M276.1,123.7H289l1.5-12.3h-12.9L276.1,123.7z"/>
<path class="st0" d="M273.1,233.7H257l-1.2-14.9h16L273.1,233.7L273.1,233.7z M257.9,232.7H272l-1.1-12.9h-14L257.9,232.7
	L257.9,232.7z"/>
<path class="st0" d="M270.3,217.9h-14.5L257,203H272L270.3,217.9z M256.9,216.9h12.5l1.4-12.9h-12.9L256.9,216.9L256.9,216.9z"/>
<path class="st0" d="M272,202.4H257l-1.7-14.7h14.9L272,202.4z M257.9,201.4h12.9l-1.5-12.7h-12.9L257.9,201.4L257.9,201.4z"/>
<path class="st0" d="M270.4,187.1h-14.9l1.5-14.9h14.9L270.4,187.1L270.4,187.1z M256.6,186.1h12.9l1.3-12.9h-12.9L256.6,186.1
	L256.6,186.1z"/>
<path class="st0" d="M272,171.3H257l-1.7-14.5h14.9L272,171.3z M257.9,170.3h12.9l-1.5-12.5h-12.9L257.9,170.3L257.9,170.3z"/>
<path class="st0" d="M270.4,155.6h-14.9l1.5-14.9h14.9L270.4,155.6L270.4,155.6z M256.6,154.6h12.9l1.3-12.9h-12.9L256.6,154.6
	L256.6,154.6z"/>
<path class="st0" d="M272,140.1H257l-1.7-14.6h14.9L272,140.1z M257.9,139.1h12.9l-1.5-12.6h-12.9L257.9,139.1L257.9,139.1z"/>
<path class="st0" d="M270.3,124.7h-14.9l1.7-14.3H272L270.3,124.7L270.3,124.7z M256.5,123.7h12.9l1.5-12.3h-12.9L256.5,123.7z"/>
<path class="st0" d="M167,245.3l-57.1-0.3l-3.2-5.9h56.6L167,245.3L167,245.3z M110.4,244l54.8,0.3l-2.6-4.2h-54.3L110.4,244
	L110.4,244z"/>
<path class="st0" d="M163.5,238.3h-16.1l-1.2-14.9h16L163.5,238.3L163.5,238.3z M148.4,237.3h14.1l-1.1-12.9h-14L148.4,237.3z"/>
<path class="st0" d="M160.7,222.5h-14.5l1.2-14.9h14.9L160.7,222.5L160.7,222.5z M147.3,221.5h12.5l1.4-12.9h-12.9L147.3,221.5
	L147.3,221.5z"/>
<path class="st0" d="M162.4,206.9h-14.9l-1.7-14.7h14.9L162.4,206.9z M148.4,205.9h12.9l-1.5-12.7h-12.9L148.4,205.9z"/>
<path class="st0" d="M160.8,191.6h-14.9l1.5-14.9h14.9L160.8,191.6z M147,190.6h12.9l1.3-12.9h-12.9L147,190.6z"/>
<path class="st0" d="M162.4,175.9h-14.9l-1.7-14.5h14.9L162.4,175.9z M148.4,174.9h12.9l-1.5-12.5h-12.9L148.4,174.9z"/>
<path class="st0" d="M160.8,160.2h-14.9l1.5-14.9h14.9L160.8,160.2z M147,159.2h12.9l1.3-12.9h-12.9L147,159.2z"/>
<path class="st0" d="M162.4,144.6h-14.9l-1.7-14.6h14.9L162.4,144.6z M148.4,143.6h12.9l-1.5-12.6h-12.9L148.4,143.6z"/>
<path class="st0" d="M160.7,129.3h-14.9l1.7-15.3h14.9L160.7,129.3z M146.9,128.3h12.9l1.5-13.3h-12.9L146.9,128.3z"/>
<path class="st0" d="M144.5,237.5h-16.1l-1.2-14.9h16L144.5,237.5L144.5,237.5z M129.3,236.5h14.1l-1.1-12.9h-14L129.3,236.5z"/>
<path class="st0" d="M141.7,221.7h-14.5l1.2-14.9h14.9L141.7,221.7L141.7,221.7z M128.3,220.7h12.5l1.4-12.9h-12.9L128.3,220.7
	L128.3,220.7z"/>
<path class="st0" d="M143.4,206.2h-14.9l-1.7-14.7h14.9L143.4,206.2z M129.3,205.2h12.9l-1.5-12.7h-12.9L129.3,205.2L129.3,205.2z"
	/>
<path class="st0" d="M141.8,190.9h-14.9l1.5-14.9h14.9L141.8,190.9z M128,189.9h12.9l1.3-12.9h-12.9
	C129.3,176.9,128,189.9,128,189.9z"/>
<path class="st0" d="M143.4,175.1h-14.9l-1.7-14.5h14.9L143.4,175.1z M129.3,174.1h12.9l-1.5-12.5h-12.9L129.3,174.1L129.3,174.1z"
	/>
<path class="st0" d="M141.8,159.4h-14.9l1.5-14.9h14.9L141.8,159.4z M128,158.4h12.9l1.3-12.9h-12.9
	C129.3,145.5,128,158.4,128,158.4z"/>
<path class="st0" d="M143.4,143.9h-14.9l-1.7-14.6h14.9L143.4,143.9z M129.3,142.9h12.9l-1.5-12.6h-12.9L129.3,142.9L129.3,142.9z"
	/>
<path class="st0" d="M141.7,128.5h-14.9l1.7-14.3h14.9L141.7,128.5z M127.9,127.5h12.9l1.5-12.3h-12.9
	C129.3,115.2,127.9,127.5,127.9,127.5z"/>
<path class="st0" d="M124.9,237.5h-16.1l-1.2-14.9h16L124.9,237.5L124.9,237.5z M109.7,236.5h14.1l-1.1-12.9h-14
	C108.7,223.6,109.7,236.5,109.7,236.5z"/>
<path class="st0" d="M122.1,221.7h-14.5l1.2-14.9h14.9L122.1,221.7z M108.7,220.7h12.5l1.4-12.9h-12.9L108.7,220.7L108.7,220.7z"/>
<path class="st0" d="M123.7,206.2h-14.9l-1.7-14.7H122C122,191.5,123.7,206.2,123.7,206.2z M109.7,205.2h12.9l-1.5-12.7h-12.9
	L109.7,205.2z"/>
<path class="st0" d="M122.2,190.9h-14.9l1.5-14.9h14.9L122.2,190.9z M108.4,189.9h12.9l1.3-12.9h-12.9L108.4,189.9z"/>
<path class="st0" d="M123.7,175.1h-14.9l-1.7-14.5H122C122,160.6,123.7,175.1,123.7,175.1z M109.7,174.1h12.9l-1.5-12.5h-12.9
	L109.7,174.1z"/>
<path class="st0" d="M122.2,159.4h-14.9l1.5-14.9h14.9L122.2,159.4z M108.4,158.4h12.9l1.3-12.9h-12.9L108.4,158.4z"/>
<path class="st0" d="M123.7,143.9h-14.9l-1.7-14.6H122C122,129.3,123.7,143.9,123.7,143.9z M109.7,142.9h12.9l-1.5-12.6h-12.9
	L109.7,142.9z"/>
<path class="st0" d="M122,128.5h-14.9l1.7-14.3h14.9L122,128.5z M108.2,127.5h12.9l1.5-12.3h-12.9L108.2,127.5z"/>
<polygon class="st0" points="191.7,260.9 111.7,260.9 111.7,250.4 178.2,250.4 191.8,241.2 192.3,242.1 178.6,251.4 112.7,251.4 
	112.7,259.9 191.7,259.9 "/>
<path class="st0" d="M214.1,18.5l-0.1-4.7l39-1.2l0.1,4.7L214.1,18.5z M214.9,14.7l0.1,2.7l37-1.2l-0.1-2.7L214.9,14.7z"/>
<path class="st0" d="M237.1,26l-23.2-3.1l0.6-4.7l23.2,3.1C237.7,21.3,237.1,26,237.1,26z M215,22l21.2,2.9l0.4-2.7l-21.2-2.9
	L215,22z"/>
<path class="st0" d="M193.8,17.5l-38.9-2.4l0.3-4.7l38.9,2.4C194,12.8,193.8,17.5,193.8,17.5z M155.9,14.2l36.9,2.3l0.2-2.7
	l-36.9-2.3L155.9,14.2z"/>
<path class="st0" d="M170.5,24.3l-0.5-4.7l23.2-2.4l0.5,4.7L170.5,24.3z M171.1,20.5l0.3,2.7l21.2-2.2l-0.3-2.7L171.1,20.5z"/>
<polygon class="st2" points="563.4,95.2 562.9,94.8 565.4,91.8 565.4,77 555.2,77 555.2,91.8 557.7,94.8 557.2,95.2 554.6,92 
	554.6,76.4 566,76.4 566,92 "/>
<path class="st2" d="M566.5,104h-12.8v-9.3h12.8V104z M554.3,103.4h11.5v-8h-11.5C554.3,95.4,554.3,103.4,554.3,103.4z"/>
<path class="st2" d="M564.3,119.5h-8v-16.1h8V119.5z M557,118.8h6.6V104H557C557,104,557,118.8,557,118.8z"/>
<path class="st2" d="M560.4,115c-2.2,0-3.9-1.8-3.9-3.9c0-2.2,1.8-3.9,3.9-3.9s3.9,1.8,3.9,3.9C564.3,113.2,562.5,115,560.4,115z
	 M560.4,107.8c-1.8,0-3.3,1.5-3.3,3.3c0,1.8,1.5,3.3,3.3,3.3s3.3-1.5,3.3-3.3C563.6,109.3,562.2,107.8,560.4,107.8z"/>
<polygon class="st2" points="589.4,118.8 572.6,118.8 568.7,114.5 564,114.5 564,113.8 569,113.8 572.8,118.2 589.3,118.2 
	592.9,116 622.3,116 622.3,106.2 592.9,106.2 589.3,104 572.8,104 569,108.4 564,108.4 564,107.7 568.7,107.7 572.6,103.4 
	589.4,103.4 593.1,105.6 622.9,105.6 622.9,116.6 593.1,116.6 "/>
<polygon class="st2" points="548.1,118.8 531.2,118.8 527.5,116.6 497.7,116.6 497.7,105.6 527.5,105.6 531.2,103.4 548.1,103.4 
	552,107.7 556.7,107.7 556.7,108.4 551.7,108.4 547.8,104 531.4,104 527.7,106.2 498.4,106.2 498.4,116 527.7,116 531.4,118.2 
	547.8,118.2 551.7,113.8 556.7,113.8 556.7,114.5 552,114.5 "/>
<path class="st2" d="M552.5,87.1h-17.7v-8h17.7V87.1L552.5,87.1z M535.4,86.4h16.4v-6.7h-16.4C535.4,79.8,535.4,86.4,535.4,86.4z"/>
<path class="st2" d="M555.2,84.7h-3.4v-2.4h3.4V84.7z M552.5,84.1h2.1V83h-2.1V84.1z"/>
<path class="st2" d="M586,87.1h-17.7v-8H586V87.1L586,87.1z M568.9,86.4h16.4v-6.7h-16.4V86.4z"/>
<path class="st2" d="M568.8,84.7h-3.4v-2.4h3.4V84.7z M566,84.1h2.1V83H566V84.1z"/>
<path class="st2" d="M553.1,197.3h-17.7v-8h17.7V197.3z M536.1,196.6h16.4v-6.7h-16.4C536.1,189.9,536.1,196.6,536.1,196.6z"/>
<path class="st2" d="M555.9,194.9h-3.4v-2.4h3.4V194.9z M553.1,194.2h2.1v-1.1h-2.1C553.1,193.2,553.1,194.2,553.1,194.2z"/>
<path class="st2" d="M585.7,197.3H568v-8h17.7V197.3z M568.7,196.6h16.4v-6.7h-16.4V196.6z"/>
<path class="st2" d="M568.7,194.9h-3.9v-2.4h3.9V194.9z M565.4,194.2h2.6v-1.1h-2.6V194.2z"/>
<path class="st2" d="M552.6,138.3h-32.5v-12.6h32.5V138.3z M520.8,137.6h31.2v-11.3h-31.2C520.8,126.3,520.8,137.6,520.8,137.6z"/>
<path class="st2" d="M600.8,138.3h-32.5v-12.6h32.5V138.3z M568.9,137.6h31.2v-11.3h-31.2V137.6z"/>
<path class="st2" d="M554.3,133.1h-2.3v-2.5h2.3V133.1z M552.6,132.5h1v-1.2h-1V132.5z"/>
<path class="st2" d="M568.7,133.1h-2.3v-2.5h2.3V133.1z M567,132.5h1v-1.2h-1V132.5z"/>
<polygon class="st1" points="565.4,198.3 555.2,198.3 555.2,187.3 552.8,184.9 552.8,170.9 556.3,167.4 556.3,166.2 551.9,163.5 
	551.9,141.9 553.6,139 553.6,122.6 556.4,119 556.9,119.4 554.3,122.9 554.3,139.1 552.6,142.1 552.6,163.1 557,165.9 557,167.6 
	553.5,171.2 553.5,184.7 555.9,187 555.9,197.7 564.8,197.7 564.8,187 567.2,184.7 567.2,171.2 563.6,167.6 563.6,165.9 568,163.1 
	568,142.1 566.4,139.1 566.4,122.9 563.7,119.4 564.2,119 567,122.6 567,139 568.7,141.9 568.7,163.5 564.3,166.2 564.3,167.4 
	567.8,170.9 567.8,184.9 565.4,187.3 "/>
<rect x="487" y="216.5" class="st3" width="144.2" height="15.1"/>
<text transform="matrix(1 0 0 1 491.6367 225.0314)" class="st4 st5 st6">Estación Espacial Tiangong</text>
<rect x="103" y="393.5" class="st3" width="214.2" height="15.1"/>
<text transform="matrix(1 0 0 1 133.6577 402.0514)" class="st4 st5 st6">Estación Espacial Internacional</text>
<path class="st0" d="M235.1,218.9h-26.2c-6.4,0-11.6,5.2-11.6,11.6v11.6h37.8c0.4,0,0.8,0,1.2-0.1c5.8-0.6,10.4-5.6,10.4-11.6
	C246.7,224.1,241.5,218.9,235.1,218.9L235.1,218.9z M235.3,241.1h-37v-10.6c0-5.9,4.8-10.6,10.6-10.6h26.2c5.9,0,10.6,4.8,10.6,10.6
	S241.1,241,235.3,241.1L235.3,241.1z"/>
<path class="st0" d="M192.5,218.7c-0.3-0.3-0.6-0.6-1-0.8c-1.1-0.8-2.3-1.2-3.6-1.2h-6.7l-2.2,7.9h-13.3v11.1h13.3l2.2,6.4h6.7
	c1.3,0,2.5-0.4,3.6-1.2c0.4-0.2,0.7-0.5,1-0.8c2.3-2.3,3.9-6.2,3.9-10.7S194.9,221,192.5,218.7L192.5,218.7z M191.5,239.7
	c-1.1,0.9-2.3,1.4-3.6,1.4h-6l-2.2-6.4h-13v-9.1h13l2.2-7.9h5.9c1.3,0,2.5,0.5,3.6,1.4c0.4,0.3,0.7,0.7,1,1.1
	c1.7,2.1,2.9,5.5,2.9,9.2s-1.1,7.1-2.9,9.2C192.2,239,191.9,239.4,191.5,239.7z"/>
<path class="st1" d="M215.7,241.1h1v47.6l-0.5,0c-0.1,0-3.1-0.2-4.2,3.2l4,1.3v35.3l-5.3,3.3v5.1h-9.6v-5l-7.1-3.2v-35l5-2.2
	c-2.2-3.6-6.7-2.9-6.9-2.9l-0.6,0.1v-0.6l0-48.5c0.4-0.3,0.7-0.7,1-1.1v49c1.5-0.1,5.7,0,7.7,3.9l0.2,0.5l-5.4,2.4v33.7l7.1,3.2v4.6
	h7.6v-4.6l5.3-3.3v-34l-4.2-1.4l0.1-0.5c1-3.6,3.7-4.3,4.9-4.4L215.7,241.1L215.7,241.1z"/>
<path class="st0" d="M212.6,205.2h-15.3v-5.8h15.3V205.2z M198.3,204.2h13.3v-3.8h-13.3V204.2z"/>
</svg>
