<?xml version="1.0" encoding="UTF-8"?><svg id="Capa_1" xmlns="http://www.w3.org/2000/svg" viewBox="0 0 1350.46 493.06"><defs><style>.cls-1,.cls-2{fill:#fff;}.cls-3,.cls-4{fill:#bd955f;}.cls-5,.cls-6,.cls-7{stroke-width:1.24px;}.cls-5,.cls-6,.cls-7,.cls-8,.cls-9{fill:none;stroke-miterlimit:10;}.cls-5,.cls-7,.cls-8{stroke:#bd955f;}.cls-6,.cls-9{stroke:#fff;}.cls-2,.cls-4{font-family:Helvetica, Helvetica;font-size:14.93px;}.cls-10{letter-spacing:-.05em;}.cls-7{stroke-dasharray:0 0 6.22 6.22;}.cls-8,.cls-9{stroke-width:.62px;}</style></defs><rect width="1350.46" height="493.06"/><path class="cls-6" d="M35.05,167.7l6.7-11.66c1.24-2.16,4.36-2.16,5.6,0l6.7,11.66v164.4c0,3.61-2.93,6.53-6.53,6.53h-5.92c-3.61,0-6.53-2.93-6.53-6.53V167.7Z"/><path class="cls-5" d="M382.69,68.67l6.7-18.48c1.24-3.42,4.36-3.42,5.6,0l6.7,18.48V329.31c0,5.72-2.93,10.36-6.53,10.36h-5.92c-3.61,0-6.53-4.64-6.53-10.36V68.67Z"/><path class="cls-6" d="M486.55,123.31v42.12l3.42,17.88v150.38c0,3.3-2.93,5.98-6.53,5.98h-5.92c-3.61,0-6.53-2.68-6.53-5.98V183.32l3.41-17.88v-42.12l-.87-5.61c-.41-2.63-.61-5.28-.61-7.94v-7.08c0-4.64,1.87-9.09,5.18-12.34h0c1.29-1.27,3.39-1.18,4.58,.18l.54,.62c2.73,3.14,4.24,7.17,4.24,11.33l.33,6.29c.21,3.95-.04,7.92-.73,11.81l-.49,2.73Z"/><path class="cls-5" d="M573.82,96.35v47.74l2.56,22.19v167.42c0,3.3-2.93,5.98-6.53,5.98h-5.92c-3.61,0-6.53-2.68-6.53-5.98V166.07l3.24-21.57v-48.16h0c-2.66-4.52-4.07-9.67-4.07-14.92v-13.66c0-5.26,1.68-10.39,4.79-14.63l2.95-4.02c1.52-2.07,4.63-2.01,6.08,.11l2.69,3.96c2.78,4.1,4.27,8.94,4.27,13.89v15.29c0,4.64-1.1,9.22-3.21,13.36l-.31,.61Z"/><path class="cls-6" d="M660.67,68.82v53.14l2.56,24.7v186.36c0,3.67-2.93,6.65-6.53,6.65h-5.92c-3.61,0-6.53-2.98-6.53-6.65V146.43l3.24-24.01v-53.6h0c-2.66-5.03-4.07-10.77-4.07-16.61v-15.21c0-5.86,1.68-11.56,4.79-16.29l2.95-4.47c1.52-2.31,4.63-2.24,6.08,.12l2.69,4.41c2.78,4.56,4.27,9.95,4.27,15.47v17.02c0,5.17-1.1,10.26-3.21,14.87l-.31,.68Z"/><polyline class="cls-6" points="38.2 337.69 38.2 344.69 42.25 344.69 42.25 338.63"/><polyline class="cls-6" points="50.58 337.69 50.58 344.69 46.53 344.69 46.53 338.63"/><path class="cls-6" d="M54.04,326.57c-10.98-2.38-18.99,0-18.99,0v3.28s8.01-2.38,18.99,0v-3.28Z"/><path class="cls-6" d="M54.04,282.43c-10.98-2.38-18.99,0-18.99,0v3.28s8.01-2.38,18.99,0v-3.28Z"/><rect class="cls-6" x="35.05" y="221.57" width="18.99" height="9.14"/><line class="cls-9" x1="37.2" y1="222.12" x2="38.96" y2="230.17"/><line class="cls-9" x1="38.87" y1="222.11" x2="37.29" y2="230.18"/><line class="cls-9" x1="43.8" y1="222.12" x2="45.55" y2="230.17"/><line class="cls-9" x1="45.47" y1="222.11" x2="43.88" y2="230.18"/><line class="cls-9" x1="50.13" y1="222.12" x2="51.88" y2="230.17"/><line class="cls-9" x1="51.8" y1="222.11" x2="50.21" y2="230.18"/><path class="cls-6" d="M35.05,167.7s8.65-2.59,18.99,0"/><path class="cls-5" d="M136.82,157.74l4.81,8.45v165.8c0,3.64-2.93,6.59-6.53,6.59h-5.92c-3.61,0-6.53-2.95-6.53-6.59V166.2l4.81-8.45"/><path class="cls-5" d="M137.04,158.73l-2.49-9.53c-1.07-4.1-3.76-4.1-4.83,0l-2.49,9.53h9.8Z"/><polyline class="cls-5" points="125.8 337.63 125.8 344.69 129.85 344.69 129.85 338.58"/><polyline class="cls-5" points="138.17 337.63 138.17 344.69 134.12 344.69 134.12 338.58"/><path class="cls-5" d="M141.63,324.99c-10.98-2.38-18.99,0-18.99,0v3.28s8.01-2.38,18.99,0v-3.28Z"/><path class="cls-5" d="M141.63,280.85c-10.98-2.38-18.99,0-18.99,0v3.28s8.01-2.38,18.99,0v-3.28Z"/><rect class="cls-8" x="122.64" y="220" width="18.99" height="9.14"/><line class="cls-8" x1="124.8" y1="220.54" x2="126.55" y2="228.59"/><line class="cls-8" x1="126.47" y1="220.53" x2="124.88" y2="228.61"/><line class="cls-8" x1="131.39" y1="220.54" x2="133.15" y2="228.59"/><line class="cls-8" x1="133.06" y1="220.53" x2="131.48" y2="228.61"/><line class="cls-8" x1="137.72" y1="220.54" x2="139.48" y2="228.59"/><line class="cls-8" x1="139.39" y1="220.53" x2="137.81" y2="228.61"/><path class="cls-5" d="M224.21,146.12l4.81,9.13v179.06c0,3.93-2.93,7.12-6.53,7.12h-5.92c-3.61,0-6.53-3.19-6.53-7.12V155.25l4.81-9.13"/><path class="cls-6" d="M314.42,115.49v215.54c0,4.73-2.79,8.57-6.24,8.57h-5.66c-3.45,0-6.24-3.84-6.24-8.57V115.49"/><polyline class="cls-5" points="213.19 340.47 213.19 346.4 217.24 346.4 217.24 341.27"/><polyline class="cls-6" points="283.27 333.74 283.27 339.67 287.32 339.67 287.32 333.74"/><polyline class="cls-6" points="323.94 333.74 323.94 339.67 327.99 339.67 327.99 333.74"/><polyline class="cls-5" points="225.56 340.47 225.56 346.4 221.51 346.4 221.51 341.27"/><polyline class="cls-6" points="298.73 337.83 298.73 343.94 302.78 343.94 302.78 339.32"/><polyline class="cls-6" points="311.1 338.6 311.1 343.94 307.05 343.94 307.05 339.32"/><polyline class="cls-5" points="385.78 337.83 385.78 343.94 389.83 343.94 389.83 339.32"/><polyline class="cls-5" points="398.15 338.6 398.15 343.94 394.11 343.94 394.11 339.32"/><polyline class="cls-6" points="473.73 338.6 473.73 344.71 477.78 344.71 477.78 340.09"/><polyline class="cls-6" points="486.11 339.37 486.11 344.71 482.06 344.71 482.06 340.09"/><polyline class="cls-5" points="560.77 338.6 560.77 344.71 564.82 344.71 564.82 340.09"/><polyline class="cls-5" points="573.14 339.37 573.14 344.71 569.09 344.71 569.09 340.09"/><polyline class="cls-6" points="647.17 338.6 647.17 344.71 651.22 344.71 651.22 340.09"/><polyline class="cls-6" points="659.55 339.37 659.55 344.71 655.5 344.71 655.5 340.09"/><rect class="cls-8" x="210.03" y="198.5" width="18.99" height="9.14"/><line class="cls-8" x1="212.18" y1="199.05" x2="213.94" y2="207.1"/><line class="cls-8" x1="213.86" y1="199.04" x2="212.27" y2="207.11"/><line class="cls-8" x1="218.78" y1="199.05" x2="220.53" y2="207.1"/><line class="cls-8" x1="220.45" y1="199.04" x2="218.86" y2="207.11"/><line class="cls-8" x1="225.11" y1="199.05" x2="226.87" y2="207.1"/><line class="cls-8" x1="226.78" y1="199.04" x2="225.2" y2="207.11"/><rect class="cls-8" x="557.46" y="210.49" width="18.92" height="9.14"/><line class="cls-8" x1="559.61" y1="211.03" x2="561.36" y2="219.08"/><line class="cls-8" x1="561.27" y1="211.02" x2="559.69" y2="219.1"/><line class="cls-8" x1="566.18" y1="211.03" x2="567.93" y2="219.08"/><line class="cls-8" x1="567.84" y1="211.02" x2="566.26" y2="219.1"/><line class="cls-8" x1="572.49" y1="211.03" x2="574.24" y2="219.08"/><line class="cls-8" x1="574.15" y1="211.02" x2="572.57" y2="219.1"/><rect class="cls-6" x="470.97" y="226.65" width="18.99" height="9.14"/><line class="cls-9" x1="473.13" y1="227.19" x2="474.88" y2="235.24"/><line class="cls-9" x1="474.8" y1="227.18" x2="473.21" y2="235.26"/><line class="cls-9" x1="479.72" y1="227.19" x2="481.48" y2="235.24"/><line class="cls-9" x1="481.39" y1="227.18" x2="479.81" y2="235.26"/><line class="cls-9" x1="486.05" y1="227.19" x2="487.81" y2="235.24"/><line class="cls-9" x1="487.73" y1="227.18" x2="486.14" y2="235.26"/><path class="cls-5" d="M122.64,166.12s8.65-2.59,18.99,0"/><path class="cls-5" d="M210.16,155s8.65-2.59,18.99,0"/><path class="cls-6" d="M296.25,208.22s8.65-2.59,18.99,0"/><path class="cls-6" d="M295.85,203.65s8.65-2.59,18.99,0"/><path class="cls-5" d="M382.84,208.8s8.65-2.59,18.99,0"/><path class="cls-5" d="M382.44,204.23s8.65-2.59,18.99,0"/><path class="cls-6" d="M470.42,211.66s8.65-2.59,18.99,0"/><path class="cls-5" d="M557.46,264.29s8.65-2.59,18.99,0"/><path class="cls-5" d="M557.46,325.43s8.65-2.59,18.99,0"/><path class="cls-6" d="M470.42,326.01s8.65-2.59,18.99,0"/><path class="cls-6" d="M470.97,283s8.65-2.59,18.99,0"/><path class="cls-6" d="M470.97,183.63s8.65-2.59,18.99,0"/><path class="cls-6" d="M474.01,164.2s5.71-2.39,12.54,0"/><path class="cls-6" d="M474.01,159.26s5.71-2.39,12.54,0"/><path class="cls-5" d="M561.23,144.56s5.71-1.27,12.54,0"/><path class="cls-6" d="M647.53,121.68s5.71-1.27,12.54,0"/><path class="cls-6" d="M647.53,74.19s5.71-1.27,12.54,0"/><path class="cls-5" d="M560.69,101.5s5.71-2.39,12.54,0"/><path class="cls-5" d="M557.46,166.99s8.62-2.39,18.92,0"/><path class="cls-6" d="M644.34,144.5s8.62-2.39,18.92,0"/><path class="cls-6" d="M643.68,149.73s8.62-2.39,18.92,0"/><path class="cls-5" d="M557.46,226.65s8.62-2.39,18.92,0"/><rect class="cls-6" x="644.34" y="202.96" width="18.92" height="9.14"/><line class="cls-9" x1="646.48" y1="203.5" x2="648.23" y2="211.55"/><line class="cls-9" x1="648.15" y1="203.49" x2="646.57" y2="211.56"/><line class="cls-9" x1="653.05" y1="203.5" x2="654.8" y2="211.55"/><line class="cls-9" x1="654.72" y1="203.49" x2="653.14" y2="211.56"/><line class="cls-9" x1="659.36" y1="203.5" x2="661.11" y2="211.55"/><line class="cls-9" x1="661.03" y1="203.49" x2="659.45" y2="211.56"/><path class="cls-6" d="M644.34,216.84s8.62-2.39,18.92,0"/><path class="cls-6" d="M474.2,124.68s5.71-2.39,12.54,0"/><path class="cls-5" d="M382.64,148.41s8.65-2.59,18.99,0"/><path class="cls-5" d="M382.64,155.58s8.65-2.59,18.99,0"/><path class="cls-5" d="M382.24,143.84s8.65-2.59,18.99,0"/><path class="cls-5" d="M383.03,119.48s8.65-2.59,18.99,0"/><path class="cls-5" d="M382.64,114.91s8.65-2.59,18.99,0"/><path class="cls-6" d="M295.85,146.7s8.65-2.59,18.99,0"/><path class="cls-6" d="M295.85,154.42s8.65-2.59,18.99,0"/><path class="cls-5" d="M210.03,334.31h18.99c0,3.93-3.19,7.12-7.12,7.12h-4.76c-3.93,0-7.12-3.19-7.12-7.12h0Z"/><path class="cls-5" d="M214.63,146.12h9.66v-9.43c0-.87-.18-1.73-.53-2.53l-2.95-6.72c-.52-1.17-2.18-1.18-2.7,0l-2.93,6.6c-.36,.8-.54,1.67-.54,2.55v9.54Z"/><line class="cls-7" x1="218.86" y1="213.11" x2="218.86" y2="329.85"/><path class="cls-6" d="M293.23,96.13v6.63c0,2.41,.36,4.8,1.05,7.09l1.59,5.22h18.74l1.76-5.62c.73-2.34,1.11-4.79,1.11-7.26v-6.38c0-12.64-2.85-25.09-8.31-36.25h0c-1.61-3.3-5.96-3.26-7.52,.06l-.62,1.33c-5.12,10.88-7.79,22.94-7.79,35.18Z"/><path class="cls-6" d="M284.09,242.01l.57-1.25c.79-1.72,3.23-1.74,4.04-.02l.5,1.07c2.75,5.85,4.18,12.23,4.18,18.7v73.24h-13.25v-73.52c0-6.29,1.35-12.5,3.96-18.22Z"/><path class="cls-6" d="M280.14,260.22s7.9-1.98,13.25,.28"/><path class="cls-6" d="M293.38,323.03c-5.35-2.26-13.25-.28-13.25-.28v10.99h-6.97v-5.9l6.97-6.72"/><polyline class="cls-5" points="369.87 333.74 369.87 339.67 373.92 339.67 373.92 333.74"/><path class="cls-5" d="M370.69,242.01l.57-1.25c.79-1.72,3.23-1.74,4.04-.02l.5,1.07c2.75,5.85,4.18,12.23,4.18,18.7v73.24h-13.25v-73.52c0-6.29,1.35-12.5,3.96-18.22Z"/><path class="cls-5" d="M366.74,260.22s7.9-1.98,13.25,.28"/><path class="cls-5" d="M379.98,323.03c-5.35-2.26-13.25-.28-13.25-.28v10.99h-6.97v-5.9l6.97-6.72"/><polyline class="cls-6" points="630.73 334.99 630.73 340.92 634.78 340.92 634.78 334.99"/><path class="cls-6" d="M631.55,243.25l.57-1.25c.79-1.72,3.23-1.74,4.04-.02l.5,1.07c2.75,5.85,4.18,12.23,4.18,18.7v73.24h-13.25v-73.52c0-6.29,1.35-12.5,3.96-18.22Z"/><path class="cls-6" d="M627.6,261.47s7.9-1.98,13.25,.28"/><path class="cls-6" d="M640.84,324.28c-5.35-2.26-13.25-.28-13.25-.28v10.99h-6.97v-5.9l6.97-6.72"/><polyline class="cls-6" points="470.97 325.27 470.97 336.26 464 336.26 464 330.36 470.97 323.64"/><polyline class="cls-6" points="330.56 322.75 330.56 333.74 337.54 333.74 337.54 327.85 330.56 321.13"/><path class="cls-6" d="M302.68,243.25l.57-1.25c.79-1.72,3.23-1.74,4.04-.02l.5,1.07c2.75,5.85,4.18,12.23,4.18,18.7v73.24h-13.25v-73.52c0-6.29,1.35-12.5,3.96-18.22Z"/><path class="cls-6" d="M298.73,261.47s7.9-1.98,13.25,.28"/><path class="cls-6" d="M298.73,324s7.9-1.98,13.25,.28"/><path class="cls-5" d="M389.47,243.25l.57-1.25c.79-1.72,3.23-1.74,4.04-.02l.5,1.07c2.75,5.85,4.18,12.23,4.18,18.7v73.24h-13.25v-73.52c0-6.29,1.35-12.5,3.96-18.22Z"/><path class="cls-5" d="M385.51,261.47s7.9-1.98,13.25,.28"/><path class="cls-5" d="M385.51,324s7.9-1.98,13.25,.28"/><path class="cls-6" d="M651.13,243.25l.57-1.25c.79-1.72,3.23-1.74,4.04-.02l.5,1.07c2.75,5.85,4.18,12.23,4.18,18.7v73.24h-13.25v-73.52c0-6.29,1.35-12.5,3.96-18.22Z"/><path class="cls-6" d="M647.17,261.47s7.9-1.98,13.25,.28"/><path class="cls-6" d="M647.17,324s7.9-1.98,13.25,.28"/><path class="cls-5" d="M840.52,235.17l.57-1.25c.79-1.72,3.23-1.74,4.04-.02l.5,1.07c2.75,5.85,4.18,12.23,4.18,18.7v73.24h-13.25v-73.52c0-6.29,1.35-12.5,3.96-18.22Z"/><path class="cls-5" d="M836.56,253.39s7.9-1.98,13.25,.28"/><path class="cls-5" d="M836.56,315.92s7.9-1.98,13.25,.28"/><path class="cls-6" d="M321.27,242.01l.57-1.25c.79-1.72,3.23-1.74,4.04-.02l.5,1.07c2.75,5.85,4.18,12.23,4.18,18.7v73.24h-13.25v-73.52c0-6.29,1.35-12.5,3.96-18.22Z"/><path class="cls-6" d="M317.32,260.22s7.9-1.98,13.25,.28"/><path class="cls-6" d="M317.32,322.75s7.9-1.98,13.25,.28"/><path class="cls-5" d="M1152.73,123.5v205.55c0,4.51-2.79,8.17-6.24,8.17h-5.66c-3.45,0-6.24-3.66-6.24-8.17V123.5"/><polyline class="cls-5" points="1121.42 338.54 1121.42 340.69 1125.47 340.69 1125.47 338.54"/><polyline class="cls-5" points="1162.09 338.54 1162.09 340.69 1166.14 340.69 1166.14 338.54"/><polyline class="cls-5" points="1145.8 337.07 1145.8 341.37 1141.75 341.37 1141.75 337.65"/><path class="cls-5" d="M1118.71,295.07s5.91-2.47,12.98,0"/><path class="cls-5" d="M1118.44,290.71s5.91-2.47,12.98,0"/><path class="cls-5" d="M1155.89,295.07s5.91-2.47,12.98,0"/><path class="cls-5" d="M1155.62,290.71s5.91-2.47,12.98,0"/><path class="cls-5" d="M1134.83,326.89s8.15-2.47,17.89,0"/><path class="cls-5" d="M1134.46,322.53s8.15-2.47,17.89,0"/><path class="cls-5" d="M1134.16,140.21s8.65-2.47,18.99,0"/><path class="cls-5" d="M1253.78,127.01s8.65-2.47,18.99,0"/><path class="cls-5" d="M1253.55,210.17s8.65-2.47,18.99,0"/><path class="cls-5" d="M1251.22,78.25s11.04-2.47,24.23,0"/><path class="cls-5" d="M1134.56,184.11s8.65-2.47,18.99,0"/><path class="cls-5" d="M1131.53,105.04v6.32c0,2.3,.36,4.58,1.05,6.76l1.59,4.97h18.74l1.76-5.36c.73-2.23,1.11-4.57,1.11-6.92v-6.09c0-12.06-2.85-23.93-8.31-34.57h0c-1.61-3.15-5.96-3.11-7.52,.06l-.62,1.27c-5.12,10.38-7.79,21.88-7.79,33.55Z"/><path class="cls-5" d="M1118.44,261.53s7.9-1.89,13.25,.27"/><path class="cls-5" d="M1131.69,321.43c-5.35-2.15-13.25-.27-13.25-.27v10.48h-6.97v-5.62l6.97-6.41"/><polyline class="cls-5" points="1168.87 321.16 1168.87 331.64 1175.84 331.64 1175.84 326.02 1168.87 319.61"/><path class="cls-5" d="M1168.94,331.89c-.05-.17-.07-.34-.07-.51v-69.59c0-6.17-1.43-12.25-4.18-17.83l-.5-1.02c-.83-1.68-3.23-1.67-4.04,.03l-.57,1.19c-2.61,5.45-3.96,11.38-3.96,17.37v70.11l-1.33,4.84c-.32,1.18,.56,2.34,1.79,2.34h12.39c1.23,0,2.12-1.18,1.78-2.36l-1.3-4.57Z"/><path class="cls-5" d="M1155.62,261.53s7.9-1.89,13.25,.27"/><path class="cls-5" d="M1155.62,321.16s7.9-1.89,13.25,.27"/><polyline class="cls-5" points="410.91 333.74 410.91 339.67 414.96 339.67 414.96 333.74"/><polyline class="cls-5" points="417.53 322.75 417.53 333.74 424.51 333.74 424.51 327.85 417.53 321.13"/><polyline class="cls-6" points="489.97 325.27 489.97 336.26 496.94 336.26 496.94 330.36 489.97 323.64"/><polyline class="cls-5" points="557.46 325.27 557.46 336.26 550.49 336.26 550.49 330.36 557.46 323.64"/><polyline class="cls-5" points="576.45 325.27 576.45 336.26 583.42 336.26 583.42 330.36 576.45 323.64"/><path class="cls-5" d="M408.24,242.01l.57-1.25c.79-1.72,3.23-1.74,4.04-.02l.5,1.07c2.75,5.85,4.18,12.23,4.18,18.7v73.24h-13.25v-73.52c0-6.29,1.35-12.5,3.96-18.22Z"/><path class="cls-5" d="M404.29,260.22s7.9-1.98,13.25,.28"/><path class="cls-5" d="M404.29,322.75s7.9-1.98,13.25,.28"/><polyline class="cls-6" points="672.74 334.99 672.74 340.92 676.79 340.92 676.79 334.99"/><polyline class="cls-6" points="679.36 324 679.36 334.99 686.34 334.99 686.34 329.09 679.36 322.37"/><path class="cls-6" d="M670.07,243.25l.57-1.25c.79-1.72,3.23-1.74,4.04-.02l.5,1.07c2.75,5.85,4.18,12.23,4.18,18.7v73.24h-13.25v-73.52c0-6.29,1.35-12.5,3.96-18.22Z"/><path class="cls-6" d="M666.12,261.47s7.9-1.98,13.25,.28"/><path class="cls-6" d="M666.12,324s7.9-1.98,13.25,.28"/><path class="cls-5" d="M1272.79,126.15v212.52c0,3.25-2.93,5.89-6.53,5.89h-5.92c-3.61,0-6.53-2.64-6.53-5.89V127.1l-2.61-5.67c-.8-1.74-1.22-3.64-1.22-5.55v-30.12c0-3.57,.91-7.07,2.66-10.18l5.73-10.23c2.17-3.88,7.74-3.93,9.98-.09l5.39,9.25c1.86,3.19,2.84,6.81,2.84,10.5v30.85c0,2.24-.56,4.44-1.64,6.4l-2.14,3.9Z"/><polyline class="cls-5" points="1240.3 336.48 1240.3 341.07 1244.35 341.07 1244.35 336.48"/><path class="cls-5" d="M1241.12,194.61l.09-.29c.74-2.5,4.27-2.51,5.02-.02h0c2.75,9.05,4.18,18.92,4.18,28.92v113.27h-13.25v-113.7c0-9.72,1.35-19.33,3.96-28.17Z"/><path class="cls-5" d="M1250.41,319.92c-5.35-3.49-13.25-.43-13.25-.43v17h-6.97v-9.12l6.97-10.39"/><polyline class="cls-5" points="1282.31 336.48 1282.31 341.07 1286.36 341.07 1286.36 336.48"/><polyline class="cls-5" points="1288.93 319.49 1288.93 336.48 1295.9 336.48 1295.9 327.36 1288.93 316.97"/><path class="cls-5" d="M1279.64,194.61l.09-.31c.73-2.49,4.26-2.51,5.01-.02v.02c2.76,9.05,4.19,18.92,4.19,28.92v113.27h-13.25v-113.7c0-9.72,1.35-19.33,3.96-28.17Z"/><path class="cls-5" d="M1276.75,209.19s6.63-3.06,11.11,.43"/><path class="cls-5" d="M1238.23,209.19s6.63-3.06,11.11,.43"/><path class="cls-5" d="M1275.69,319.49s7.9-3.06,13.25,.43"/><path class="cls-5" d="M747.67,67.92v53.14l2.56,24.7v186.36c0,3.67-2.93,6.65-6.53,6.65h-5.92c-3.61,0-6.53-2.98-6.53-6.65V145.53l3.24-24.01v-53.6h0c-2.66-5.03-4.07-10.77-4.07-16.61v-15.21c0-5.86,1.68-11.56,4.79-16.29l2.95-4.47c1.52-2.31,4.63-2.24,6.08,.12l2.69,4.41c2.78,4.56,4.27,9.95,4.27,15.47v17.02c0,5.17-1.1,10.26-3.21,14.87l-.31,.68Z"/><polyline class="cls-5" points="734.18 337.7 734.18 343.81 738.23 343.81 738.23 339.19"/><polyline class="cls-5" points="746.55 338.47 746.55 343.81 742.5 343.81 742.5 339.19"/><path class="cls-5" d="M734.53,120.78s5.71-1.27,12.54,0"/><path class="cls-5" d="M734.53,73.3s5.71-1.27,12.54,0"/><path class="cls-5" d="M731.34,143.61s8.62-2.39,18.92,0"/><path class="cls-5" d="M730.68,148.84s8.62-2.39,18.92,0"/><rect class="cls-8" x="731.34" y="202.06" width="18.92" height="9.14"/><line class="cls-8" x1="733.49" y1="202.6" x2="735.24" y2="210.65"/><line class="cls-8" x1="735.15" y1="202.59" x2="733.57" y2="210.67"/><line class="cls-8" x1="740.06" y1="202.6" x2="741.81" y2="210.65"/><line class="cls-8" x1="741.73" y1="202.59" x2="740.14" y2="210.67"/><line class="cls-8" x1="746.37" y1="202.6" x2="748.12" y2="210.65"/><line class="cls-8" x1="748.03" y1="202.59" x2="746.45" y2="210.67"/><path class="cls-5" d="M731.34,215.94s8.62-2.39,18.92,0"/><polyline class="cls-5" points="717.74 334.09 717.74 340.02 721.79 340.02 721.79 334.09"/><path class="cls-5" d="M718.56,242.35l.57-1.25c.79-1.72,3.23-1.74,4.04-.02l.5,1.07c2.75,5.85,4.18,12.23,4.18,18.7v73.24h-13.25v-73.52c0-6.29,1.35-12.5,3.96-18.22Z"/><path class="cls-5" d="M714.6,260.57s7.9-1.98,13.25,.28"/><path class="cls-5" d="M727.85,323.38c-5.35-2.26-13.25-.28-13.25-.28v10.99h-6.97v-5.9l6.97-6.72"/><polyline class="cls-5" points="759.75 334.09 759.75 340.02 763.8 340.02 763.8 334.09"/><polyline class="cls-5" points="766.37 323.1 766.37 334.09 773.34 334.09 773.34 328.19 766.37 321.47"/><path class="cls-5" d="M757.08,242.35l.57-1.25c.79-1.72,3.23-1.74,4.04-.02l.5,1.07c2.75,5.85,4.18,12.23,4.18,18.7v73.24h-13.25v-73.52c0-6.29,1.35-12.5,3.96-18.22Z"/><path class="cls-5" d="M753.12,260.57s7.9-1.98,13.25,.28"/><path class="cls-5" d="M753.12,323.1s7.9-1.98,13.25,.28"/><rect class="cls-5" x="386.65" y="78.74" width="11.07" height="11.07"/><polyline class="cls-5" points="382.24 78.74 378.27 78.74 378.27 89.81 382.24 89.81"/><polyline class="cls-5" points="402.03 78.74 406 78.74 406 89.81 402.03 89.81"/><path class="cls-5" d="M390,48.53V16.53c0-1.09,.88-1.97,1.97-1.97h0c1.09,0,1.97,.88,1.97,1.97v32"/><polyline class="cls-5" points="390 29.86 387 31.54 387 34.11 390 34.11"/><polyline class="cls-5" points="393.94 29.86 396.94 31.54 396.94 34.11 393.94 34.11"/><path class="cls-5" d="M1052.09,212.27v38.36l2.2,9.29-.11,74.06c0,1.39-2.53,2.52-5.65,2.52h-5.12c-3.12,0-5.65-1.13-5.65-2.52l.11-74.06,1.62-9.34v-38.31h0c-.9-2.38-1.36-4.91-1.36-7.46v-10.35c0-2.49,.73-4.93,2.1-7.02l3.88-5.91c.89-1.36,2.89-1.33,3.74,.05l3.29,5.3c1.26,2.02,1.92,4.36,1.92,6.74v12.15c0,1.76-.22,3.51-.65,5.21l-.33,1.29Z"/><polyline class="cls-5" points="1044.26 336.55 1044.26 340.42 1047.44 340.42 1047.44 336.5"/><path class="cls-5" d="M1039.49,216.54s5.86-.8,12.86,0"/><path class="cls-5" d="M1039.49,247.09s5.86-.8,12.86,0"/><path class="cls-5" d="M1037.76,267.53s7.52-.8,16.51,0"/><path class="cls-5" d="M1037.67,271.18s7.52-.8,16.51,0"/><path class="cls-5" d="M1037.76,325.36s7.52-.8,16.51,0"/><path class="cls-5" d="M1037.67,329.01s7.52-.8,16.51,0"/><text class="cls-2" transform="translate(35.46 374.02)"><tspan x="0" y="0">2</tspan><tspan class="cls-10" x="8.3" y="0">A</tspan></text><text class="cls-4" transform="translate(60.9 433.13)"><tspan x="0" y="0">Activo</tspan></text><text class="cls-2" transform="translate(60.9 458.03)"><tspan x="0" y="0">Retirado</tspan></text><text class="cls-4" transform="translate(123.05 374.02)"><tspan x="0" y="0">2C</tspan></text><text class="cls-4" transform="translate(210.44 374.02)"><tspan x="0" y="0">2D</tspan></text><text class="cls-2" transform="translate(298.88 374.02)"><tspan x="0" y="0">2E</tspan></text><text class="cls-4" transform="translate(383.03 373.66)"><tspan x="0" y="0">2F</tspan></text><text class="cls-2" transform="translate(477.24 373.58)"><tspan x="0" y="0">3</tspan></text><text class="cls-4" transform="translate(558.02 373.66)"><tspan x="0" y="0">3</tspan><tspan class="cls-10" x="8.3" y="0">A</tspan></text><text class="cls-2" transform="translate(646.35 373.66)"><tspan x="0" y="0">3B</tspan></text><text class="cls-4" transform="translate(729.41 373.66)"><tspan x="0" y="0">3C</tspan></text><text class="cls-4" transform="translate(839.09 373.66)"><tspan x="0" y="0">5</tspan></text><text class="cls-4" transform="translate(945.47 373.66)"><tspan x="0" y="0">5B</tspan></text><text class="cls-4" transform="translate(1041.2 373.66)"><tspan x="0" y="0">6</tspan></text><text class="cls-4" transform="translate(1139.25 373.66)"><tspan x="0" y="0">6</tspan><tspan class="cls-10" x="8.3" y="0">A</tspan></text><text class="cls-4" transform="translate(1259.45 373.3)"><tspan x="0" y="0">7</tspan></text><circle class="cls-3" cx="43.02" cy="426.38" r="7.1"/><circle class="cls-1" cx="43.02" cy="451.29" r="7.1"/><g><path class="cls-5" d="M829.68,210.05V99.85c0-6.96,1.76-13.81,5.12-19.91l4.05-7.36c1.69-3.09,5.97-3.09,7.66,0l4.05,7.36c3.36,6.1,5.12,12.95,5.12,19.91v109.06"/><path class="cls-5" d="M834.55,332.5c1.22,.65,2.61,1.02,4.07,1.02h8.11c1.89,0,3.64-.61,5.09-1.66"/></g><path class="cls-5" d="M829.68,103.04s11.84-2.27,25.99,0"/><path class="cls-5" d="M829.49,140.42s11.84-2.27,25.99,0"/><path class="cls-5" d="M829.49,197.15s11.84-2.27,25.99,0"/><path class="cls-5" d="M816.68,228.81s8.14-2.27,17.87,0"/><path class="cls-5" d="M851.64,228.81s8.14-2.27,17.87,0"/><path class="cls-5" d="M817.04,318.28v-91.41c0-1.72,.64-3.38,1.8-4.68l10.84-12.15,1.29-1.44c1.23-1.38,3.59-.53,3.59,1.28v125.44h-17.51"/><path class="cls-5" d="M807.72,326.89v8.44h13.28v-17.98c0-1.02-1.27-1.54-2.04-.84l-11.24,10.38Z"/><path class="cls-5" d="M869.33,318.28v-91.41c0-1.72-.64-3.38-1.79-4.68l-11.86-13.28-.27-.3c-1.23-1.38-3.59-.53-3.59,1.28v125.44h17.51"/><path class="cls-5" d="M878.65,326.89v8.44h-13.28v-17.98c0-1.02,1.27-1.54,2.04-.84l11.24,10.38Z"/><path class="cls-5" d="M817.04,335.33l-.75,3.4c-.17,.77,.44,1.49,1.25,1.49h4.44c.92,0,1.59-.84,1.35-1.7l-.89-3.19"/><path class="cls-5" d="M832.68,335.33l1.46,5.43c.21,.78-.4,1.54-1.24,1.54h-8.04c-.9,0-1.51-.87-1.19-1.67l2.12-5.3"/><path class="cls-5" d="M869.33,335.33l.75,3.4c.17,.77-.44,1.49-1.25,1.49h-4.44c-.92,0-1.59-.84-1.35-1.7l.89-3.19"/><path class="cls-5" d="M853.68,335.33l-1.46,5.43c-.21,.78,.4,1.54,1.24,1.54h8.04c.9,0,1.51-.87,1.19-1.67l-2.12-5.3"/><path class="cls-5" d="M839.57,333.53l-2.04,7.22c-.22,.78,.39,1.55,1.23,1.55h7.45c.87,0,1.48-.82,1.21-1.61l-2.42-7.17"/><path class="cls-5" d="M951.6,235.17l.57-1.25c.79-1.72,3.23-1.74,4.04-.02l.5,1.07c2.75,5.85,4.18,12.23,4.18,18.7v73.24h-13.25v-73.52c0-6.29,1.35-12.5,3.96-18.22Z"/><path class="cls-5" d="M947.64,253.39s7.9-1.98,13.25,.28"/><path class="cls-5" d="M947.64,315.92s7.9-1.98,13.25,.28"/><g><path class="cls-5" d="M940.76,210.04v-67.28c0-5.69,1.77-11.27,5.13-16.25l4.04-6.02c1.69-2.51,5.97-2.51,7.66,0l4.04,6.02c3.36,4.98,5.13,10.56,5.13,16.25v66.16"/><path class="cls-5" d="M945.63,332.69c1.22,.53,2.61,.83,4.07,.83h8.11c1.89,0,3.64-.5,5.09-1.36"/></g><path class="cls-5" d="M940.76,145.36s11.84-1.85,25.99,0"/><path class="cls-5" d="M940.57,184.31s11.84-1.85,25.99,0"/><path class="cls-5" d="M940.57,194.39s11.84-2.27,25.99,0"/><path class="cls-5" d="M927.77,228.81s8.14-2.27,17.87,0"/><path class="cls-5" d="M962.72,228.81s8.14-2.27,17.87,0"/><path class="cls-5" d="M928.12,318.28v-91.41c0-1.72,.64-3.38,1.8-4.68l10.84-12.15,1.29-1.44c1.23-1.38,3.59-.53,3.59,1.28v125.44h-17.51"/><path class="cls-5" d="M918.8,326.89v8.44h13.28v-17.98c0-1.02-1.27-1.54-2.04-.84l-11.24,10.38Z"/><path class="cls-5" d="M980.41,318.28v-91.41c0-1.72-.64-3.38-1.79-4.68l-11.86-13.28-.27-.3c-1.23-1.38-3.59-.53-3.59,1.28v125.44h17.51"/><path class="cls-5" d="M989.74,326.89v8.44h-13.28v-17.98c0-1.02,1.27-1.54,2.04-.84l11.24,10.38Z"/><path class="cls-5" d="M928.12,335.33l-.75,3.4c-.17,.77,.44,1.49,1.25,1.49h4.44c.92,0,1.59-.84,1.35-1.7l-.89-3.19"/><path class="cls-5" d="M943.77,335.33l1.46,5.43c.21,.78-.4,1.54-1.24,1.54h-8.04c-.9,0-1.51-.87-1.19-1.67l2.12-5.3"/><path class="cls-5" d="M980.41,335.33l.75,3.4c.17,.77-.44,1.49-1.25,1.49h-4.44c-.92,0-1.59-.84-1.35-1.7l.89-3.19"/><path class="cls-5" d="M964.77,335.33l-1.46,5.43c-.21,.78,.4,1.54,1.24,1.54h8.04c.9,0,1.51-.87,1.19-1.67l-2.12-5.3"/><path class="cls-5" d="M950.65,333.53l-2.04,7.22c-.22,.78,.39,1.55,1.23,1.55h7.45c.87,0,1.48-.82,1.21-1.61l-2.42-7.17"/><path class="cls-5" d="M1118.44,331.64l-1.59,4.51c-.4,1.12,.44,2.3,1.63,2.3h13.42c1.22,0,2.06-1.24,1.6-2.37l-1.68-4.13c-.08-.21-.13-.43-.13-.65v-69.51c0-6.17-1.43-12.25-4.18-17.83l-.5-1.02c-.83-1.68-3.23-1.67-4.04,.03l-.57,1.19c-2.61,5.45-3.96,11.38-3.96,17.37v70.11"/></svg>