<?xml version="1.0" encoding="UTF-8"?><svg id="Capa_1" xmlns="http://www.w3.org/2000/svg" viewBox="0 0 1349.26 1079.34"><defs><style>.cls-1{stroke-dasharray:0 0 8 8;}.cls-1,.cls-2,.cls-3,.cls-4,.cls-5{fill:none;stroke-miterlimit:10;}.cls-1,.cls-2,.cls-5{stroke:#bd955f;}.cls-1,.cls-4,.cls-5{stroke-width:1.6px;}.cls-2,.cls-3{stroke-width:.8px;}.cls-3,.cls-4{stroke:#fff;}.cls-6,.cls-7{fill:#fff;}.cls-8,.cls-9{fill:#bd955f;}.cls-7,.cls-9{font-family:Helvetica, Helvetica;font-size:19.2px;}.cls-10{letter-spacing:-.05em;}.cls-11{letter-spacing:-.05em;}</style></defs><rect width="1349.26" height="1079.34"/><path class="cls-4" d="M80.32,239.28l8.61-15c1.6-2.78,5.6-2.78,7.2,0l8.61,15v211.47c0,4.64-3.76,8.4-8.4,8.4h-7.62c-4.64,0-8.4-3.76-8.4-8.4V239.28Z"/><path class="cls-5" d="M527.51,111.89l8.61-23.78c1.6-4.41,5.6-4.41,7.2,0l8.61,23.78V447.16c0,7.36-3.76,13.33-8.4,13.33h-7.62c-4.64,0-8.4-5.97-8.4-13.33V111.89Z"/><path class="cls-4" d="M661.1,182.17v54.19l4.4,23v193.44c0,4.25-3.76,7.69-8.4,7.69h-7.62c-4.64,0-8.4-3.44-8.4-7.69v-193.44l4.39-23v-54.19l-1.12-7.22c-.52-3.38-.79-6.79-.79-10.21v-9.11c0-5.97,2.4-11.69,6.67-15.87h0c1.66-1.63,4.36-1.52,5.89,.24l.69,.79c3.52,4.04,5.45,9.22,5.45,14.58l.43,8.1c.27,5.08-.05,10.18-.94,15.19l-.63,3.51Z"/><path class="cls-5" d="M773.37,147.49v61.4l3.29,28.55v215.35c0,4.25-3.76,7.69-8.4,7.69h-7.62c-4.64,0-8.4-3.44-8.4-7.69V237.18l4.17-27.74v-61.94h0c-3.43-5.81-5.23-12.44-5.23-19.19v-17.57c0-6.77,2.16-13.36,6.17-18.82l3.79-5.17c1.96-2.66,5.96-2.59,7.82,.14l3.46,5.09c3.58,5.27,5.5,11.5,5.5,17.87v19.67c0,5.97-1.42,11.86-4.13,17.18l-.4,.79Z"/><polyline class="cls-4" points="84.39 457.93 84.39 466.93 89.6 466.93 89.6 459.15"/><polyline class="cls-4" points="100.3 457.93 100.3 466.93 95.09 466.93 95.09 459.15"/><path class="cls-4" d="M104.75,443.63c-14.13-3.06-24.43,0-24.43,0v4.23s10.3-3.06,24.43,0v-4.23Z"/><path class="cls-4" d="M104.75,386.85c-14.13-3.06-24.43,0-24.43,0v4.23s10.3-3.06,24.43,0v-4.23Z"/><rect class="cls-4" x="80.32" y="308.57" width="24.43" height="11.76"/><line class="cls-3" x1="83.1" y1="309.28" x2="85.36" y2="319.63"/><line class="cls-3" x1="85.25" y1="309.26" x2="83.21" y2="319.65"/><line class="cls-3" x1="91.58" y1="309.28" x2="93.84" y2="319.63"/><line class="cls-3" x1="93.73" y1="309.26" x2="91.69" y2="319.65"/><line class="cls-3" x1="99.72" y1="309.28" x2="101.98" y2="319.63"/><line class="cls-3" x1="101.87" y1="309.26" x2="99.83" y2="319.65"/><path class="cls-4" d="M80.32,239.28s11.13-3.34,24.43,0"/><path class="cls-5" d="M211.24,226.47l6.19,10.87v213.27c0,4.68-3.76,8.48-8.4,8.48h-7.62c-4.64,0-8.4-3.8-8.4-8.48V237.34l6.19-10.87"/><path class="cls-5" d="M211.52,227.74l-3.2-12.26c-1.38-5.28-4.83-5.28-6.21,0l-3.2,12.26h12.61Z"/><polyline class="cls-5" points="197.06 457.85 197.06 466.93 202.27 466.93 202.27 459.08"/><polyline class="cls-5" points="212.98 457.85 212.98 466.93 207.77 466.93 207.77 459.08"/><path class="cls-5" d="M217.43,441.6c-14.13-3.06-24.43,0-24.43,0v4.23s10.3-3.06,24.43,0v-4.23Z"/><path class="cls-5" d="M217.43,384.82c-14.13-3.06-24.43,0-24.43,0v4.23s10.3-3.06,24.43,0v-4.23Z"/><rect class="cls-2" x="193" y="306.55" width="24.43" height="11.76"/><line class="cls-2" x1="195.77" y1="307.25" x2="198.03" y2="317.6"/><line class="cls-2" x1="197.92" y1="307.23" x2="195.88" y2="317.62"/><line class="cls-2" x1="204.26" y1="307.25" x2="206.51" y2="317.6"/><line class="cls-2" x1="206.41" y1="307.23" x2="204.36" y2="317.62"/><line class="cls-2" x1="212.4" y1="307.25" x2="214.66" y2="317.6"/><line class="cls-2" x1="214.55" y1="307.23" x2="212.51" y2="317.62"/><path class="cls-5" d="M323.65,211.52l6.19,11.74v230.33c0,5.06-3.76,9.15-8.4,9.15h-7.62c-4.64,0-8.4-4.1-8.4-9.15V223.26l6.19-11.74"/><path class="cls-4" d="M439.69,172.11V449.37c0,6.09-3.59,11.02-8.03,11.02h-7.28c-4.43,0-8.03-4.93-8.03-11.02V172.11"/><polyline class="cls-5" points="309.47 461.51 309.47 469.14 314.68 469.14 314.68 462.54"/><polyline class="cls-4" points="399.63 452.86 399.63 460.49 404.84 460.49 404.84 452.86"/><polyline class="cls-4" points="451.94 452.86 451.94 460.49 457.14 460.49 457.14 452.86"/><polyline class="cls-5" points="325.39 461.51 325.39 469.14 320.18 469.14 320.18 462.54"/><polyline class="cls-4" points="419.5 458.12 419.5 465.98 424.71 465.98 424.71 460.03"/><polyline class="cls-4" points="435.42 459.1 435.42 465.98 430.21 465.98 430.21 460.03"/><polyline class="cls-5" points="531.49 458.12 531.49 465.98 536.69 465.98 536.69 460.03"/><polyline class="cls-5" points="547.4 459.1 547.4 465.98 542.19 465.98 542.19 460.03"/><polyline class="cls-4" points="644.62 459.1 644.62 466.97 649.83 466.97 649.83 461.02"/><polyline class="cls-4" points="660.53 460.09 660.53 466.97 655.32 466.97 655.32 461.02"/><polyline class="cls-5" points="756.58 459.1 756.58 466.97 761.78 466.97 761.78 461.02"/><polyline class="cls-5" points="772.49 460.09 772.49 466.97 767.28 466.97 767.28 461.02"/><rect class="cls-2" x="305.41" y="278.9" width="24.43" height="11.76"/><line class="cls-2" x1="308.18" y1="279.6" x2="310.44" y2="289.96"/><line class="cls-2" x1="310.33" y1="279.58" x2="308.29" y2="289.97"/><line class="cls-2" x1="316.66" y1="279.6" x2="318.92" y2="289.96"/><line class="cls-2" x1="318.81" y1="279.58" x2="316.77" y2="289.97"/><line class="cls-2" x1="324.81" y1="279.6" x2="327.07" y2="289.96"/><line class="cls-2" x1="326.96" y1="279.58" x2="324.92" y2="289.97"/><rect class="cls-2" x="752.32" y="294.31" width="24.34" height="11.76"/><line class="cls-2" x1="755.08" y1="295.02" x2="757.33" y2="305.37"/><line class="cls-2" x1="757.22" y1="295" x2="755.19" y2="305.39"/><line class="cls-2" x1="763.53" y1="295.02" x2="765.78" y2="305.37"/><line class="cls-2" x1="765.67" y1="295" x2="763.64" y2="305.39"/><line class="cls-2" x1="771.65" y1="295.02" x2="773.9" y2="305.37"/><line class="cls-2" x1="773.79" y1="295" x2="771.76" y2="305.39"/><rect class="cls-4" x="641.07" y="315.1" width="24.43" height="11.76"/><line class="cls-3" x1="643.84" y1="315.8" x2="646.1" y2="326.16"/><line class="cls-3" x1="645.99" y1="315.79" x2="643.95" y2="326.17"/><line class="cls-3" x1="652.32" y1="315.8" x2="654.58" y2="326.16"/><line class="cls-3" x1="654.47" y1="315.79" x2="652.43" y2="326.17"/><line class="cls-3" x1="660.47" y1="315.8" x2="662.73" y2="326.16"/><line class="cls-3" x1="662.62" y1="315.79" x2="660.58" y2="326.17"/><path class="cls-5" d="M193,237.25s11.13-3.34,24.43,0"/><path class="cls-5" d="M305.58,222.94s11.13-3.34,24.43,0"/><path class="cls-4" d="M416.32,291.4s11.13-3.34,24.43,0"/><path class="cls-4" d="M415.81,285.52s11.13-3.34,24.43,0"/><path class="cls-5" d="M527.7,292.14s11.13-3.34,24.43,0"/><path class="cls-5" d="M527.19,286.26s11.13-3.34,24.43,0"/><path class="cls-4" d="M640.36,295.82s11.13-3.34,24.43,0"/><path class="cls-5" d="M752.32,363.51s11.13-3.34,24.43,0"/><path class="cls-5" d="M752.32,442.17s11.13-3.34,24.43,0"/><path class="cls-4" d="M640.36,442.91s11.13-3.34,24.43,0"/><path class="cls-4" d="M641.07,387.59s11.13-3.34,24.43,0"/><path class="cls-4" d="M641.07,259.76s11.13-3.34,24.43,0"/><path class="cls-4" d="M644.97,234.77s7.35-3.07,16.13,0"/><path class="cls-4" d="M644.97,228.41s7.35-3.07,16.13,0"/><path class="cls-5" d="M757.17,209.5s7.35-1.63,16.13,0"/><path class="cls-5" d="M756.47,154.12s7.35-3.07,16.13,0"/><path class="cls-5" d="M752.32,238.36s11.09-3.07,24.34,0"/><path class="cls-5" d="M752.32,315.1s11.09-3.07,24.34,0"/><path class="cls-4" d="M645.22,183.93s7.35-3.07,16.13,0"/><path class="cls-5" d="M527.44,214.46s11.13-3.34,24.43,0"/><path class="cls-5" d="M527.44,223.68s11.13-3.34,24.43,0"/><path class="cls-5" d="M526.93,208.58s11.13-3.34,24.43,0"/><path class="cls-5" d="M527.95,177.24s11.13-3.34,24.43,0"/><path class="cls-5" d="M527.44,171.36s11.13-3.34,24.43,0"/><path class="cls-4" d="M415.81,212.26s11.13-3.34,24.43,0"/><path class="cls-4" d="M415.81,222.2s11.13-3.34,24.43,0"/><path class="cls-5" d="M305.41,453.59h24.43c0,5.06-4.1,9.15-9.15,9.15h-6.12c-5.06,0-9.15-4.1-9.15-9.15h0Z"/><path class="cls-5" d="M311.32,211.52h12.43v-12.13c0-1.12-.23-2.22-.68-3.25l-3.8-8.65c-.66-1.51-2.8-1.51-3.47,0l-3.77,8.49c-.46,1.03-.7,2.15-.7,3.28v12.27Z"/><line class="cls-1" x1="316.77" y1="297.69" x2="316.77" y2="447.85"/><path class="cls-4" d="M412.43,147.21v8.53c0,3.1,.46,6.18,1.36,9.12l2.05,6.71h24.1l2.26-7.23c.94-3,1.42-6.16,1.42-9.33v-8.21c0-16.26-3.67-32.28-10.68-46.63h0c-2.08-4.24-7.66-4.2-9.68,.08l-.8,1.71c-6.59,14-10.03,29.51-10.03,45.25Z"/><path class="cls-4" d="M400.68,334.86l.73-1.61c1.01-2.22,4.16-2.24,5.19-.03l.65,1.38c3.54,7.52,5.38,15.74,5.38,24.05v94.21h-17.04v-94.57c0-8.08,1.74-16.08,5.09-23.43Z"/><path class="cls-4" d="M395.59,358.29s10.16-2.55,17.04,.36"/><path class="cls-4" d="M412.63,439.08c-6.88-2.9-17.04-.36-17.04-.36v14.14h-8.97v-7.58l8.97-8.64"/><polyline class="cls-5" points="511.02 452.86 511.02 460.49 516.23 460.49 516.23 452.86"/><path class="cls-5" d="M512.07,334.86l.73-1.61c1.01-2.22,4.16-2.24,5.19-.03l.65,1.38c3.54,7.52,5.38,15.74,5.38,24.05v94.21h-17.04v-94.57c0-8.08,1.74-16.08,5.09-23.43Z"/><path class="cls-5" d="M506.98,358.29s10.16-2.55,17.04,.36"/><path class="cls-5" d="M524.02,439.08c-6.88-2.9-17.04-.36-17.04-.36v14.14h-8.97v-7.58l8.97-8.64"/><polyline class="cls-4" points="641.07 441.96 641.07 456.1 632.1 456.1 632.1 448.51 641.07 439.87"/><polyline class="cls-4" points="460.46 438.72 460.46 452.86 469.42 452.86 469.42 445.27 460.46 436.63"/><path class="cls-4" d="M424.59,336.46l.73-1.61c1.01-2.22,4.16-2.24,5.19-.03l.65,1.38c3.54,7.52,5.38,15.74,5.38,24.05v94.21h-17.04v-94.57c0-8.08,1.74-16.08,5.09-23.43Z"/><path class="cls-4" d="M419.5,359.89s10.16-2.55,17.04,.36"/><path class="cls-4" d="M419.5,440.32s10.16-2.55,17.04,.36"/><path class="cls-5" d="M536.22,336.46l.73-1.61c1.01-2.22,4.16-2.24,5.19-.03l.65,1.38c3.54,7.52,5.38,15.74,5.38,24.05v94.21h-17.04v-94.57c0-8.08,1.74-16.08,5.09-23.43Z"/><path class="cls-5" d="M531.14,359.89s10.16-2.55,17.04,.36"/><path class="cls-5" d="M531.14,440.32s10.16-2.55,17.04,.36"/><path class="cls-4" d="M448.5,334.86l.73-1.61c1.01-2.22,4.16-2.24,5.19-.03l.65,1.38c3.54,7.52,5.38,15.74,5.38,24.05v94.21h-17.04v-94.57c0-8.08,1.74-16.08,5.09-23.43Z"/><path class="cls-4" d="M443.42,358.29s10.16-2.55,17.04,.36"/><path class="cls-4" d="M443.42,438.72s10.16-2.55,17.04,.36"/><polyline class="cls-5" points="563.81 452.86 563.81 460.49 569.02 460.49 569.02 452.86"/><polyline class="cls-5" points="572.33 438.72 572.33 452.86 581.29 452.86 581.29 445.27 572.33 436.63"/><polyline class="cls-4" points="665.5 441.96 665.5 456.1 674.47 456.1 674.47 448.51 665.5 439.87"/><polyline class="cls-5" points="752.32 441.96 752.32 456.1 743.35 456.1 743.35 448.51 752.32 439.87"/><polyline class="cls-5" points="776.75 441.96 776.75 456.1 785.72 456.1 785.72 448.51 776.75 439.87"/><path class="cls-5" d="M560.38,334.86l.73-1.61c1.01-2.22,4.16-2.24,5.19-.03l.65,1.38c3.54,7.52,5.38,15.74,5.38,24.05v94.21h-17.04v-94.57c0-8.08,1.74-16.08,5.09-23.43Z"/><path class="cls-5" d="M555.29,358.29s10.16-2.55,17.04,.36"/><path class="cls-5" d="M555.29,438.72s10.16-2.55,17.04,.36"/><rect class="cls-5" x="532.6" y="124.84" width="14.23" height="14.23"/><polyline class="cls-5" points="526.93 124.84 521.83 124.84 521.83 139.08 526.93 139.08"/><polyline class="cls-5" points="552.38 124.84 557.48 124.84 557.48 139.08 552.38 139.08"/><path class="cls-5" d="M536.91,85.98V44.82c0-1.4,1.13-2.53,2.53-2.53h0c1.4,0,2.53,1.13,2.53,2.53v41.16"/><polyline class="cls-5" points="536.91 61.97 533.05 64.13 533.05 67.44 536.91 67.44"/><polyline class="cls-5" points="541.97 61.97 545.84 64.13 545.84 67.44 541.97 67.44"/><text class="cls-7" transform="translate(80.85 504.67)"><tspan x="0" y="0">2</tspan><tspan class="cls-11" x="10.68" y="0">A</tspan></text><text class="cls-9" transform="translate(193.53 504.67)"><tspan x="0" y="0">2C</tspan></text><text class="cls-9" transform="translate(305.93 504.67)"><tspan x="0" y="0">2D</tspan></text><text class="cls-7" transform="translate(419.7 504.67)"><tspan x="0" y="0">2E</tspan></text><text class="cls-9" transform="translate(527.95 504.2)"><tspan x="0" y="0">2F</tspan></text><text class="cls-7" transform="translate(649.13 504.1)"><tspan x="0" y="0">3</tspan></text><text class="cls-9" transform="translate(753.04 504.2)"><tspan x="0" y="0">3</tspan><tspan class="cls-10" x="10.68" y="0">A</tspan></text><path class="cls-4" d="M106.68,639.63v68.35l3.29,31.78v239.72c0,4.73-3.76,8.56-8.4,8.56h-7.62c-4.64,0-8.4-3.83-8.4-8.56v-240.02l4.17-30.88v-68.95h0c-3.43-6.47-5.23-13.85-5.23-21.36v-19.56c0-7.54,2.16-14.87,6.17-20.95l3.79-5.75c1.96-2.97,5.96-2.88,7.82,.16l3.46,5.67c3.58,5.87,5.5,12.8,5.5,19.89v21.9c0,6.65-1.42,13.2-4.13,19.12l-.4,.88Z"/><polyline class="cls-4" points="89.33 986.65 89.33 994.51 94.54 994.51 94.54 988.57"/><polyline class="cls-4" points="105.24 987.63 105.24 994.51 100.03 994.51 100.03 988.57"/><path class="cls-4" d="M89.78,707.62s7.35-1.63,16.13,0"/><path class="cls-4" d="M89.78,646.54s7.35-1.63,16.13,0"/><path class="cls-4" d="M85.68,736.98s11.09-3.07,24.34,0"/><path class="cls-4" d="M84.83,743.71s11.09-3.07,24.34,0"/><rect class="cls-4" x="85.68" y="812.17" width="24.34" height="11.76"/><line class="cls-3" x1="88.44" y1="812.87" x2="90.69" y2="823.23"/><line class="cls-3" x1="90.58" y1="812.85" x2="88.55" y2="823.24"/><line class="cls-3" x1="96.89" y1="812.87" x2="99.14" y2="823.23"/><line class="cls-3" x1="99.03" y1="812.85" x2="97" y2="823.24"/><line class="cls-3" x1="105.01" y1="812.87" x2="107.26" y2="823.23"/><line class="cls-3" x1="107.15" y1="812.85" x2="105.11" y2="823.24"/><path class="cls-4" d="M85.68,830.02s11.09-3.07,24.34,0"/><polyline class="cls-4" points="68.18 982 68.18 989.63 73.39 989.63 73.39 982"/><path class="cls-4" d="M69.23,864l.73-1.61c1.01-2.22,4.16-2.24,5.19-.03l.65,1.38c3.54,7.52,5.38,15.74,5.38,24.05v94.21h-17.04v-94.57c0-8.08,1.74-16.08,5.09-23.43Z"/><path class="cls-4" d="M64.14,887.43s10.16-2.55,17.04,.36"/><path class="cls-4" d="M81.18,968.23c-6.88-2.9-17.04-.36-17.04-.36v14.14h-8.97v-7.58l8.97-8.64"/><path class="cls-4" d="M94.42,864l.73-1.61c1.01-2.22,4.16-2.24,5.19-.03l.65,1.38c3.54,7.52,5.38,15.74,5.38,24.05v94.21h-17.04v-94.57c0-8.08,1.74-16.08,5.09-23.43Z"/><path class="cls-4" d="M89.33,887.43s10.16-2.55,17.04,.36"/><path class="cls-4" d="M89.33,967.87s10.16-2.55,17.04,.36"/><path class="cls-5" d="M338.03,853.61l.73-1.61c1.01-2.22,4.16-2.24,5.19-.03l.65,1.38c3.54,7.52,5.38,15.74,5.38,24.05v94.21h-17.04v-94.57c0-8.08,1.74-16.08,5.09-23.43Z"/><path class="cls-5" d="M332.94,877.04s10.16-2.55,17.04,.36"/><path class="cls-5" d="M332.94,957.47s10.16-2.55,17.04,.36"/><path class="cls-5" d="M739.63,709.96v264.41c0,5.8-3.59,10.51-8.03,10.51h-7.28c-4.43,0-8.03-4.71-8.03-10.51v-264.41"/><polyline class="cls-5" points="699.36 986.58 699.36 989.34 704.57 989.34 704.57 986.58"/><polyline class="cls-5" points="751.67 986.58 751.67 989.34 756.88 989.34 756.88 986.58"/><polyline class="cls-5" points="730.72 984.68 730.72 990.22 725.52 990.22 725.52 985.43"/><path class="cls-5" d="M695.88,930.66s7.61-3.18,16.69,0"/><path class="cls-5" d="M695.53,925.05s7.61-3.18,16.69,0"/><path class="cls-5" d="M743.7,930.66s7.61-3.18,16.69,0"/><path class="cls-5" d="M743.35,925.05s7.61-3.18,16.69,0"/><path class="cls-5" d="M716.61,971.58s10.49-3.18,23.02,0"/><path class="cls-5" d="M716.13,965.98s10.49-3.18,23.02,0"/><path class="cls-5" d="M715.75,731.46s11.13-3.18,24.43,0"/><path class="cls-5" d="M869.62,714.48s11.13-3.18,24.43,0"/><path class="cls-5" d="M869.33,821.44s11.13-3.18,24.43,0"/><path class="cls-5" d="M866.33,651.75s14.2-3.18,31.16,0"/><path class="cls-5" d="M716.26,787.92s11.13-3.18,24.43,0"/><path class="cls-5" d="M712.37,686.21v8.13c0,2.96,.46,5.89,1.36,8.7l2.05,6.4h24.1l2.26-6.89c.94-2.87,1.42-5.87,1.42-8.9v-7.83c0-15.51-3.67-30.78-10.68-44.47h0c-2.08-4.05-7.66-4-9.68,.08l-.8,1.63c-6.59,13.35-10.03,28.14-10.03,43.16Z"/><path class="cls-5" d="M695.53,887.51s10.16-2.43,17.04,.34"/><path class="cls-5" d="M712.57,964.56c-6.88-2.77-17.04-.34-17.04-.34v13.48h-8.97v-7.23l8.97-8.24"/><polyline class="cls-5" points="760.39 964.22 760.39 977.7 769.36 977.7 769.36 970.47 760.39 962.23"/><path class="cls-5" d="M760.49,978.02c-.06-.21-.09-.43-.09-.65v-89.52c0-7.93-1.84-15.76-5.38-22.94l-.65-1.31c-1.07-2.16-4.15-2.14-5.19,.03l-.73,1.53c-3.35,7.02-5.09,14.64-5.09,22.35v90.19l-1.71,6.22c-.42,1.52,.72,3.01,2.3,3.01h15.93c1.58,0,2.72-1.51,2.29-3.04l-1.68-5.88Z"/><path class="cls-5" d="M743.35,887.51s10.16-2.43,17.04,.34"/><path class="cls-5" d="M743.35,964.22s10.16-2.43,17.04,.34"/><polyline class="cls-4" points="122.21 982 122.21 989.63 127.42 989.63 127.42 982"/><polyline class="cls-4" points="130.73 967.87 130.73 982 139.7 982 139.7 974.42 130.73 965.78"/><path class="cls-4" d="M118.78,864l.73-1.61c1.01-2.22,4.16-2.24,5.19-.03l.65,1.38c3.54,7.52,5.38,15.74,5.38,24.05v94.21h-17.04v-94.57c0-8.08,1.74-16.08,5.09-23.43Z"/><path class="cls-4" d="M113.69,887.43s10.16-2.55,17.04,.36"/><path class="cls-4" d="M113.69,967.87s10.16-2.55,17.04,.36"/><path class="cls-5" d="M894.08,713.37v273.37c0,4.18-3.76,7.57-8.4,7.57h-7.62c-4.64,0-8.4-3.39-8.4-7.57v-272.14l-3.35-7.29c-1.03-2.24-1.56-4.68-1.56-7.14v-38.75c0-4.59,1.18-9.1,3.42-13.1l7.37-13.16c2.79-4.99,9.95-5.05,12.84-.11l6.94,11.89c2.39,4.1,3.65,8.76,3.65,13.51v39.69c0,2.88-.73,5.71-2.11,8.23l-2.75,5.02Z"/><polyline class="cls-5" points="852.28 983.93 852.28 989.83 857.49 989.83 857.49 983.93"/><path class="cls-5" d="M853.34,801.44l.11-.38c.95-3.21,5.49-3.23,6.46-.03h0c3.54,11.64,5.38,24.34,5.38,37.2v145.7h-17.04v-146.25c0-12.5,1.74-24.86,5.09-36.24Z"/><path class="cls-5" d="M865.29,962.62c-6.88-4.49-17.04-.55-17.04-.55v21.86h-8.97v-11.73l8.97-13.37"/><polyline class="cls-5" points="906.32 983.93 906.32 989.83 911.53 989.83 911.53 983.93"/><polyline class="cls-5" points="914.84 962.06 914.84 983.93 923.8 983.93 923.8 972.2 914.84 958.83"/><path class="cls-5" d="M902.89,801.44l.12-.4c.94-3.2,5.48-3.22,6.45-.03v.03c3.55,11.64,5.38,24.34,5.38,37.2v145.7h-17.04v-146.25c0-12.5,1.74-24.86,5.09-36.24Z"/><path class="cls-5" d="M899.17,820.18s8.53-3.94,14.29,.55"/><path class="cls-5" d="M849.62,820.18s8.53-3.94,14.29,.55"/><path class="cls-5" d="M897.8,962.06s10.16-3.94,17.04,.55"/><path class="cls-5" d="M218.6,638.47v68.35l3.29,31.78v239.72c0,4.73-3.76,8.56-8.4,8.56h-7.62c-4.64,0-8.4-3.83-8.4-8.56v-240.02l4.17-30.88v-68.95h0c-3.43-6.47-5.23-13.85-5.23-21.36v-19.56c0-7.54,2.16-14.87,6.17-20.95l3.79-5.75c1.96-2.97,5.96-2.88,7.82,.16l3.46,5.67c3.58,5.87,5.5,12.8,5.5,19.89v21.9c0,6.65-1.42,13.2-4.13,19.12l-.4,.88Z"/><polyline class="cls-5" points="201.25 985.49 201.25 993.36 206.45 993.36 206.45 987.41"/><polyline class="cls-5" points="217.16 986.48 217.16 993.36 211.95 993.36 211.95 987.41"/><path class="cls-5" d="M201.7,706.47s7.35-1.63,16.13,0"/><path class="cls-5" d="M201.7,645.38s7.35-1.63,16.13,0"/><path class="cls-5" d="M197.6,735.83s11.09-3.07,24.34,0"/><path class="cls-5" d="M196.75,742.55s11.09-3.07,24.34,0"/><rect class="cls-2" x="197.59" y="811.01" width="24.34" height="11.76"/><line class="cls-2" x1="200.36" y1="811.72" x2="202.61" y2="822.07"/><line class="cls-2" x1="202.5" y1="811.7" x2="200.47" y2="822.09"/><line class="cls-2" x1="208.81" y1="811.72" x2="211.06" y2="822.07"/><line class="cls-2" x1="210.95" y1="811.7" x2="208.92" y2="822.09"/><line class="cls-2" x1="216.92" y1="811.72" x2="219.17" y2="822.07"/><line class="cls-2" x1="219.07" y1="811.7" x2="217.03" y2="822.09"/><path class="cls-5" d="M197.6,828.87s11.09-3.07,24.34,0"/><polyline class="cls-5" points="180.1 980.85 180.1 988.48 185.31 988.48 185.31 980.85"/><path class="cls-5" d="M181.15,862.85l.73-1.61c1.01-2.22,4.16-2.24,5.19-.03l.65,1.38c3.54,7.52,5.38,15.74,5.38,24.05v94.21h-17.04v-94.57c0-8.08,1.74-16.08,5.09-23.43Z"/><path class="cls-5" d="M176.06,886.28s10.16-2.55,17.04,.36"/><path class="cls-5" d="M193.1,967.07c-6.88-2.9-17.04-.36-17.04-.36v14.14h-8.97v-7.58l8.97-8.64"/><polyline class="cls-5" points="234.13 980.85 234.13 988.48 239.34 988.48 239.34 980.85"/><polyline class="cls-5" points="242.65 966.71 242.65 980.85 251.62 980.85 251.62 973.26 242.65 964.62"/><path class="cls-5" d="M230.7,862.85l.73-1.61c1.01-2.22,4.16-2.24,5.19-.03l.65,1.38c3.54,7.52,5.38,15.74,5.38,24.05v94.21h-17.04v-94.57c0-8.08,1.74-16.08,5.09-23.43Z"/><path class="cls-5" d="M225.61,886.28s10.16-2.55,17.04,.36"/><path class="cls-5" d="M225.61,966.71s10.16-2.55,17.04,.36"/><path class="cls-5" d="M610.18,824.14v49.35l2.83,11.95-.15,95.27c0,1.79-3.25,3.24-7.27,3.24h-6.59c-4.01,0-7.27-1.45-7.27-3.24l.15-95.27,2.09-12.02v-49.28h0c-1.15-3.07-1.75-6.32-1.75-9.59v-13.31c0-3.21,.94-6.35,2.7-9.03l5-7.61c1.15-1.74,3.72-1.71,4.82,.06l4.23,6.81c1.62,2.6,2.47,5.61,2.47,8.67v15.63c0,2.26-.28,4.51-.84,6.71l-.42,1.66Z"/><polyline class="cls-5" points="600.11 984.02 600.11 988.99 604.2 988.99 604.2 983.95"/><path class="cls-5" d="M593.98,829.64s7.54-1.03,16.55,0"/><path class="cls-5" d="M593.98,868.94s7.54-1.03,16.55,0"/><path class="cls-5" d="M591.74,895.24s9.68-1.03,21.24,0"/><path class="cls-5" d="M591.63,899.93s9.68-1.03,21.24,0"/><path class="cls-5" d="M591.74,969.62s9.68-1.03,21.24,0"/><path class="cls-5" d="M591.63,974.32s9.68-1.03,21.24,0"/><text class="cls-7" transform="translate(88.27 1031.75)"><tspan x="0" y="0">3B</tspan></text><text class="cls-9" transform="translate(195.1 1031.75)"><tspan x="0" y="0">3C</tspan></text><text class="cls-9" transform="translate(336.19 1031.75)"><tspan x="0" y="0">5</tspan></text><text class="cls-9" transform="translate(473.04 1031.75)"><tspan x="0" y="0">5B</tspan></text><text class="cls-9" transform="translate(596.17 1031.75)"><tspan x="0" y="0">6</tspan></text><text class="cls-9" transform="translate(722.3 1031.75)"><tspan x="0" y="0">6</tspan><tspan class="cls-10" x="10.68" y="0">A</tspan></text><text class="cls-9" transform="translate(876.91 1031.28)"><tspan x="0" y="0">7</tspan></text><g><path class="cls-5" d="M324.09,821.29v-141.74c0-8.96,2.26-17.77,6.58-25.61l5.21-9.47c2.18-3.97,7.67-3.97,9.85,0l5.21,9.47c4.32,7.85,6.58,16.66,6.58,25.61v140.29"/><path class="cls-5" d="M330.36,978.81c1.57,.84,3.35,1.31,5.24,1.31h10.43c2.44,0,4.69-.78,6.54-2.14"/></g><path class="cls-5" d="M324.09,683.64s15.24-2.92,33.44,0"/><path class="cls-5" d="M323.84,731.73s15.24-2.92,33.44,0"/><path class="cls-5" d="M323.84,804.7s15.24-2.92,33.44,0"/><path class="cls-5" d="M307.37,845.42s10.47-2.92,22.99,0"/><path class="cls-5" d="M352.34,845.42s10.47-2.92,22.99,0"/><path class="cls-5" d="M307.83,960.51v-117.58c0-2.21,.83-4.35,2.32-6.01l13.94-15.62,1.65-1.85c1.58-1.78,4.61-.69,4.61,1.65v161.35h-22.53"/><path class="cls-5" d="M295.84,971.59v10.86h17.08v-23.13c0-1.31-1.63-1.99-2.62-1.08l-14.46,13.35Z"/><path class="cls-5" d="M375.09,960.51v-117.58c0-2.21-.83-4.35-2.31-6.01l-15.26-17.08-.35-.39c-1.58-1.78-4.61-.69-4.61,1.65v161.35h22.53"/><path class="cls-5" d="M387.08,971.59v10.86h-17.08v-23.13c0-1.31,1.63-1.99,2.62-1.08l14.46,13.35Z"/><path class="cls-5" d="M307.83,982.45l-.96,4.38c-.22,.99,.56,1.91,1.61,1.91h5.72c1.18,0,2.04-1.08,1.74-2.18l-1.14-4.11"/><path class="cls-5" d="M327.95,982.45l1.87,6.99c.27,1-.52,1.98-1.59,1.98h-10.34c-1.15,0-1.95-1.12-1.53-2.15l2.73-6.82"/><path class="cls-5" d="M375.09,982.45l.96,4.38c.22,.99-.56,1.91-1.61,1.91h-5.72c-1.18,0-2.04-1.08-1.74-2.18l1.14-4.11"/><path class="cls-5" d="M354.97,982.45l-1.87,6.99c-.27,1,.52,1.98,1.59,1.98h10.34c1.15,0,1.95-1.12,1.53-2.15l-2.73-6.82"/><path class="cls-5" d="M336.8,980.12l-2.63,9.29c-.28,1.01,.5,2,1.58,2h9.59c1.12,0,1.91-1.05,1.56-2.07l-3.11-9.22"/><path class="cls-5" d="M480.92,853.61l.73-1.61c1.01-2.22,4.16-2.24,5.19-.03l.65,1.38c3.54,7.52,5.38,15.74,5.38,24.05v94.21h-17.04v-94.57c0-8.08,1.74-16.08,5.09-23.43Z"/><path class="cls-5" d="M475.83,877.04s10.16-2.55,17.04,.36"/><path class="cls-5" d="M475.83,957.47s10.16-2.55,17.04,.36"/><g><path class="cls-5" d="M466.97,821.28v-86.55c0-7.31,2.27-14.5,6.59-20.9l5.2-7.75c2.18-3.23,7.68-3.23,9.86,0l5.2,7.75c4.32,6.4,6.59,13.59,6.59,20.9v85.11"/><path class="cls-5" d="M473.24,979.05c1.57,.69,3.35,1.07,5.24,1.07h10.43c2.44,0,4.69-.64,6.54-1.75"/></g><path class="cls-5" d="M466.98,738.08s15.24-2.38,33.44,0"/><path class="cls-5" d="M466.73,788.19s15.24-2.38,33.44,0"/><path class="cls-5" d="M466.73,801.15s15.24-2.92,33.44,0"/><path class="cls-5" d="M450.26,845.42s10.47-2.92,22.99,0"/><path class="cls-5" d="M495.22,845.42s10.47-2.92,22.99,0"/><path class="cls-5" d="M450.72,960.51v-117.58c0-2.21,.83-4.35,2.32-6.01l13.94-15.62,1.65-1.85c1.58-1.78,4.61-.69,4.61,1.65v161.35h-22.53"/><path class="cls-5" d="M438.73,971.59v10.86h17.08v-23.13c0-1.31-1.63-1.99-2.62-1.08l-14.46,13.35Z"/><path class="cls-5" d="M517.98,960.51v-117.58c0-2.21-.83-4.35-2.31-6.01l-15.26-17.08-.35-.39c-1.58-1.78-4.61-.69-4.61,1.65v161.35h22.53"/><path class="cls-5" d="M529.97,971.59v10.86h-17.08v-23.13c0-1.31,1.63-1.99,2.62-1.08l14.46,13.35Z"/><path class="cls-5" d="M450.72,982.45l-.96,4.38c-.22,.99,.56,1.91,1.61,1.91h5.72c1.18,0,2.04-1.08,1.74-2.18l-1.14-4.11"/><path class="cls-5" d="M470.84,982.45l1.87,6.99c.27,1-.52,1.98-1.59,1.98h-10.34c-1.15,0-1.95-1.12-1.53-2.15l2.73-6.82"/><path class="cls-5" d="M517.98,982.45l.96,4.38c.22,.99-.56,1.91-1.61,1.91h-5.72c-1.18,0-2.04-1.08-1.74-2.18l1.14-4.11"/><path class="cls-5" d="M497.85,982.45l-1.87,6.99c-.27,1,.52,1.98,1.59,1.98h10.34c1.15,0,1.95-1.12,1.53-2.15l-2.73-6.82"/><path class="cls-5" d="M479.69,980.12l-2.63,9.29c-.28,1.01,.5,2,1.58,2h9.59c1.12,0,1.91-1.05,1.56-2.07l-3.11-9.22"/><path class="cls-5" d="M695.53,977.7l-2.05,5.81c-.51,1.44,.56,2.96,2.09,2.96h17.27c1.57,0,2.65-1.59,2.05-3.05l-2.16-5.31c-.11-.27-.16-.55-.16-.84v-89.41c0-7.93-1.84-15.76-5.38-22.94l-.65-1.31c-1.07-2.16-4.15-2.14-5.19,.03l-.73,1.53c-3.35,7.02-5.09,14.64-5.09,22.35v90.19"/><text class="cls-9" transform="translate(1146.81 961.34)"><tspan x="0" y="0">Activo</tspan></text><text class="cls-7" transform="translate(1146.81 993.38)"><tspan x="0" y="0">Retirado</tspan></text><circle class="cls-8" cx="1123.82" cy="952.66" r="9.14"/><circle class="cls-6" cx="1123.82" cy="984.7" r="9.14"/></svg>