<?xml version="1.0" encoding="UTF-8"?><svg id="Capa_1" xmlns="http://www.w3.org/2000/svg" viewBox="0 0 1361.46 960.09"><defs><style>.cls-1,.cls-2{stroke-linecap:round;}.cls-1,.cls-2,.cls-3,.cls-4,.cls-5,.cls-6,.cls-7,.cls-8,.cls-9,.cls-10,.cls-11{fill:none;stroke-miterlimit:10;}.cls-1,.cls-2,.cls-7,.cls-8,.cls-9,.cls-10{stroke-width:1.61px;}.cls-1,.cls-6,.cls-10{stroke:#bd955f;}.cls-2,.cls-5,.cls-9{stroke:#cad4b8;}.cls-12{letter-spacing:-.02em;}.cls-3,.cls-4,.cls-5,.cls-6{stroke-width:.81px;}.cls-3,.cls-7,.cls-11{stroke:#fff;}.cls-4,.cls-8{stroke:#d2a59e;}.cls-13{font-family:Helvetica, Helvetica;}.cls-11{stroke-dasharray:0 1.61;stroke-width:.4px;}.cls-14{fill:#bd955f;}.cls-14,.cls-15,.cls-16{font-size:22.58px;}.cls-15{fill:#d2a59e;}.cls-16{fill:#cad4b8;}.cls-17{font-family:Helvetica-Bold, Helvetica;font-weight:700;}</style></defs><rect width="1359.76" height="960.09"/><text class="cls-16" transform="translate(207.39 119.36)"><tspan class="cls-17"><tspan class="cls-12" x="0" y="0">W</tspan><tspan x="20.92" y="0">entian</tspan></tspan><tspan class="cls-13"><tspan x="0" y="27.1">Laboratorio</tspan></tspan></text><text class="cls-14" transform="translate(709.09 182.63)"><tspan class="cls-17"><tspan x="0" y="0">Thianhe</tspan></tspan><tspan class="cls-13"><tspan x="0" y="27.1">Modulo principal</tspan></tspan></text><text class="cls-15" transform="translate(1170.71 273.51)"><tspan class="cls-17"><tspan x="0" y="0">Mengtian</tspan></tspan><tspan class="cls-13"><tspan x="0" y="27.1">Laboratorio</tspan></tspan></text><path class="cls-7" d="M920.75,224.27l3.4-2.1,40.9-21.43,1.38-.58c13.89-1.54,26.51,9.53,28.19,24.72,.99,8.92-2.02,17.27-7.48,22.96l-33.67,20.47-5.77,2.86"/><path class="cls-7" d="M956.95,250.43c0,8.26-3.58,15.68-9.27,20.74-2.77,.98-5.76,1.5-8.87,1.5-15.1,0-27.35-12.37-27.35-27.64,0-8.27,3.6-15.69,9.29-20.76,2.77-.97,5.76-1.48,8.85-1.48,15.11,0,27.35,12.39,27.35,27.64Z"/><path class="cls-7" d="M956.95,250.43c0,8.26-3.58,15.68-9.27,20.74-2.77,.98-5.76,1.5-8.87,1.5-15.1,0-27.35-12.37-27.35-27.64,0-8.27,3.6-15.69,9.29-20.76,2.77-.97,5.76-1.48,8.85-1.48,15.11,0,27.35,12.39,27.35,27.64Z"/><path class="cls-7" d="M931.08,263.37c-.5,.74-1.18,1.34-1.97,1.77-3.85,2.1-9.32-.58-12.24-5.97-2.92-5.37-2.16-11.44,1.68-13.52,.24-.13,.5-.24,.76-.35"/><path class="cls-7" d="M931.84,263.03c-.24,.13-.5,.24-.76,.34,2.03-2.79,2.02-7.47-.29-11.74-2.71-5.03-7.69-7.69-11.48-6.32,.52-.73,1.19-1.32,1.98-1.76,3.84-2.1,9.32,.58,12.24,5.97,2.92,5.37,2.16,11.44-1.69,13.52Z"/><path class="cls-3" d="M930.46,229.61l7.44,2.51,.96,.32-4.66,7.76-7.95-2.74s-2.28-4.38,4.2-7.85Z"/><polygon class="cls-3" points="949.21 254.89 952.48 254.89 952.48 259.7 949.21 261.42 949.21 254.89"/><path class="cls-3" d="M993.06,238.18l8.82-6.87c2.04-5.93,1.67-13.03-1.55-19.56-4.69-9.51-14.02-14.94-22.86-14.16l-9.31,2.43"/><path class="cls-3" d="M1001.89,231.31l9.14-4.59c2.04-5.93,1.67-13.03-1.55-19.56-4.69-9.51-14.02-14.94-22.86-14.16l-9.14,4.59"/><path class="cls-7" d="M986.57,192.93l25.57-14.46c8.74-.9,17.86,4.18,22.33,13.25,3.07,6.23,3.32,13.05,1.21,18.78l-24.67,16.22"/><polygon class="cls-7" points="956.03 205.46 897.06 178.37 928.49 160.83 989.74 188.38 956.03 205.46"/><polygon class="cls-7" points="1083.02 261.42 1016.42 230.82 1047.84 213.28 1112.1 242.19 1083.02 261.42"/><polyline class="cls-7" points="1029.86 222.79 1023.28 218.66 1018.92 215.91"/><polyline class="cls-7" points="1016.42 230.82 1023.28 218.66 1047.84 213.28"/><line class="cls-7" x1="915.89" y1="187.02" x2="947.58" y2="169.42"/><line class="cls-7" x1="935.7" y1="196.28" x2="967.39" y2="178.68"/><line class="cls-7" x1="1038.15" y1="241.22" x2="1068.6" y2="222.79"/><line class="cls-7" x1="1060.29" y1="251.04" x2="1090.74" y2="232.6"/><path class="cls-10" d="M864.75,325.97l.98-.56c3.5-1.66,6.27-4.39,8.23-7.84"/><polyline class="cls-10" points="859.75 328.85 854.81 331.67 850.34 334.23"/><path class="cls-10" d="M810.72,275.96l25.34-13.32c12.19-5.76,28.72,3.61,36.93,20.93,5.31,11.23,5.82,23.05,2.19,31.55"/><path class="cls-10" d="M827.6,351.83l13.05-7.73c13.11-6.21,16.6-26.31,7.81-44.92-8.81-18.6-26.56-28.64-39.68-22.45l-54.98,31.11-.81,.45-.02,.02"/><path class="cls-6" d="M789.49,290.12c11.41,.25,23.93,9.6,30.88,24.28,4.06,8.58,5.5,17.48,4.59,25.18"/><path class="cls-10" d="M873.2,312.85l14.07,16.16,3.99-.33c.44-.04,.76,.4,.6,.81l-4.35,3.31-15.81-17.75s-.8-1.3,1.5-2.19Z"/><path class="cls-10" d="M854.82,331.67l5.51,1.42,3.91-2.29,.6-5.83c.07-.67-.64-1.16-1.24-.85l-3.26,1.68c-.27,.14-.44,.41-.46,.71l-.27,4.86"/><path class="cls-6" d="M836.26,291.65l.63-1.02c-.17-.5-.76-.72-1.22-.45l-10.62,6.37c-.25,.15-.38,.45-.31,.74l1.47,.49"/><path class="cls-6" d="M817.91,297.68l.63-1.02c-.17-.5-.76-.72-1.22-.45l-10.62,6.37c-.25,.15-.38,.45-.31,.74l1.47,.49"/><path class="cls-6" d="M806.73,308.72l.63-1.02c-.17-.5-.76-.72-1.22-.45l-10.62,6.37c-.25,.15-.38,.45-.31,.74l1.47,.49"/><path class="cls-6" d="M773.48,341.17l.63-1.02c-.17-.5-.76-.72-1.22-.45l-10.62,6.37c-.25,.15-.38,.45-.31,.74l1.47,.49"/><path class="cls-6" d="M760.89,348.89l.63-1.02c-.17-.5-.76-.72-1.22-.45l-10.62,6.37c-.25,.15-.38,.45-.31,.74l1.47,.49"/><path class="cls-4" d="M785.71,445.01l1.19,.06c.36-.39,.27-1.01-.19-1.28l-10.69-6.25c-.26-.15-.58-.11-.8,.09l.28,1.52"/><path class="cls-4" d="M802.83,454.23l1.19,.06c.36-.39,.27-1.01-.19-1.28l-10.69-6.25c-.26-.15-.58-.11-.8,.09l.28,1.52"/><path class="cls-4" d="M777.17,428.87l.12-1.19c-.37-.38-1-.31-1.29,.13l-6.76,10.37c-.16,.25-.14,.57,.05,.8l1.53-.2"/><path class="cls-4" d="M790.61,416.24l.58-1.05c-.19-.5-.79-.69-1.24-.39l-10.32,6.84c-.25,.16-.36,.47-.27,.75l1.49,.42"/><path class="cls-5" d="M529.78,283.85l1,.07c.25-.35,.1-.92-.31-1.17l-9.65-5.83c-.23-.14-.5-.11-.65,.07l.41,1.39"/><path class="cls-5" d="M555.19,297.79l1,.07c.25-.35,.1-.92-.31-1.17l-9.65-5.83c-.23-.14-.5-.11-.65,.07l.41,1.39"/><path class="cls-5" d="M575.14,309.03l1,.07c.25-.35,.1-.92-.31-1.17l-9.65-5.83c-.23-.14-.5-.11-.65,.07l.41,1.39"/><path class="cls-5" d="M560.56,333.16l1,.07c.25-.35,.1-.92-.31-1.17l-9.65-5.83c-.23-.14-.5-.11-.65,.07l.41,1.39"/><path class="cls-5" d="M543.09,323.49l1,.07c.25-.35,.1-.92-.31-1.17l-9.65-5.83c-.23-.14-.5-.11-.65,.07l.41,1.39"/><path class="cls-5" d="M515.65,307.29l1,.07c.25-.35,.1-.92-.31-1.17l-9.65-5.83c-.23-.14-.5-.11-.65,.07l.41,1.39"/><path class="cls-6" d="M833.17,313.5l.93,.75c.52-.11,.81-.66,.6-1.15h0c-.22-4.21-1.95-8.2-4.87-11.24l-.1-.1c-.12-.27-.4-.43-.7-.4l-.67,1.39"/><path class="cls-6" d="M764.81,335.81l1.08,.55c.57-.04,.86-.39,.6-.72h0c-.49-2.78-2.65-5.5-6.08-7.66l-.11-.07c-.15-.19-.47-.31-.8-.3l-.66,.88"/><path class="cls-6" d="M845.37,304.98l.93,.75c.52-.11,.81-.66,.6-1.15h0c-.22-4.21-1.95-8.2-4.87-11.24l-.1-.1c-.12-.27-.4-.43-.7-.4l-.67,1.39"/><ellipse class="cls-6" cx="838.55" cy="328.46" rx="2.87" ry="1.69" transform="translate(283.89 1037.97) rotate(-73.37)"/><path class="cls-6" d="M837.73,331.21l-2.03-1.03c-.77-.23-1.03-1.65-.58-3.17s1.45-2.57,2.22-2.33l2.03,1.03"/><path class="cls-6" d="M841.65,331.83c-.98,1.53-2.53,2.52-4.26,2.52-2.96,0-5.37-2.88-5.37-6.42s2.4-6.42,5.37-6.42c1.35,0,2.58,.59,3.52,1.57"/><ellipse class="cls-5" cx="530.59" cy="328.31" rx="1.69" ry="2.87" transform="translate(-71.76 165.54) rotate(-16.63)"/><path class="cls-5" d="M531.41,331.07l2.03-1.03c.77-.23,1.03-1.65,.58-3.17s-1.45-2.57-2.22-2.33l-2.03,1.03"/><ellipse class="cls-5" cx="511.92" cy="316.54" rx="1.69" ry="2.87" transform="translate(-69.17 159.71) rotate(-16.63)"/><path class="cls-5" d="M512.74,319.29l2.03-1.03c.77-.23,1.03-1.65,.58-3.17s-1.45-2.57-2.22-2.33l-2.03,1.03"/><path class="cls-6" d="M798.52,321.46l1.72,2.32c.36,.48,1.03,.6,1.54,.28l2.93-1.9c.55-.35,.68-1.09,.3-1.62l-1.51-2.09c-.33-.46-.96-.6-1.46-.34l-3.14,1.67c-.61,.33-.79,1.12-.38,1.68Z"/><path class="cls-6" d="M798.9,319.78l-1.81,1.98c-.27,.3-.32,.74-.11,1.09l2.1,3.5c.17,.45,.73,.59,1.1,.28l.51-2.24"/><path class="cls-6" d="M805.31,321.47l.09,2.48c.02,.41-.25,.78-.65,.9l-4.63,2.49"/><path class="cls-5" d="M566.5,317.36l-1.72,1.87c-.36,.39-1.03,.49-1.54,.22l-2.93-1.54c-.55-.29-.68-.88-.3-1.31l1.51-1.68c.33-.37,.96-.49,1.46-.27l3.14,1.35c.61,.26,.79,.91,.38,1.36Z"/><path class="cls-5" d="M566.12,316.01l1.81,1.6c.27,.24,.32,.6,.11,.88l-2.1,2.82c-.17,.36-.73,.48-1.1,.22l-.51-1.81"/><path class="cls-5" d="M559.71,317.37l-.09,2.01c-.02,.33,.25,.63,.65,.73l4.63,2.01"/><path class="cls-5" d="M556.96,311.91l-1.72,1.87c-.36,.39-1.03,.49-1.54,.22l-2.93-1.54c-.55-.29-.68-.88-.3-1.31l1.51-1.68c.33-.37,.96-.49,1.46-.27l3.14,1.35c.61,.26,.79,.91,.38,1.36Z"/><path class="cls-5" d="M556.58,310.55l1.81,1.6c.27,.24,.32,.6,.11,.88l-2.1,2.82c-.17,.36-.73,.48-1.1,.22l-.51-1.81"/><path class="cls-5" d="M550.18,311.92l-.09,2.01c-.02,.33,.25,.63,.65,.73l4.63,2.01"/><path class="cls-6" d="M808.05,315.62l1.72,2.32c.36,.48,1.03,.6,1.54,.28l2.93-1.9c.55-.35,.68-1.09,.3-1.62l-1.51-2.09c-.33-.46-.96-.6-1.46-.34l-3.14,1.67c-.61,.33-.79,1.12-.38,1.68Z"/><path class="cls-6" d="M808.43,313.94l-1.81,1.98c-.27,.3-.32,.74-.11,1.09l2.1,3.5c.17,.45,.73,.59,1.1,.28l.51-2.24"/><path class="cls-6" d="M814.83,315.63l.09,2.48c.02,.41-.25,.78-.65,.9l-4.63,2.49"/><path class="cls-6" d="M811.7,335.58l-6.7,3.38c-.54,.27-1.2-.06-1.3-.66l-.82-4.84c-.07-.39,.13-.79,.49-.96l6.81-3.38c.55-.27,1.21,.07,1.3,.68l.72,4.85c.06,.39-.14,.77-.49,.94Z"/><ellipse class="cls-6" cx="784.69" cy="348.75" rx="6.72" ry="6.27"/><path class="cls-6" d="M780.25,344.05l3.82-4.15c1.09-.77,2.42-1.22,3.86-1.22,3.71,0,6.72,3.01,6.72,6.72,0,.71-.11,1.4-.32,2.04l-4.03,4.75"/><path class="cls-6" d="M779.41,329.04c0,3.63-1.89,6.58-4.21,6.58s-4.21-2.95-4.21-6.58c0-1.6,.35-3.05,.95-4.18,.79-1.47,1.95-2.4,3.26-2.4,.08,0,.18,0,.26,.02,2.21,.21,3.95,3.06,3.95,6.56Z"/><path class="cls-6" d="M779.41,329.04c.64,3.57-.32,8.19-2.61,8.6s-4.44-1.2-5.08-4.77"/><path class="cls-6" d="M775.2,322.46l.34-.05,.02-.02h.02l7.08-1.13,1.71-.16c2.26,0,4.1,2.68,4.1,5.97,0,.76-.1,1.5-.27,2.16l-.81,1.08-9.64,6.87"/><path class="cls-6" d="M770.22,321.11c0,3.44-2.26,6.24-5.05,6.24-.74,0-1.44-.19-2.06-.56,0,0-.1-.05-.27-.15-1.1-.73-1.95-1.92-2.37-3.37-.16-.48-.26-1.02-.29-1.55-.03-.21-.03-.4-.03-.61s0-.44,.03-.65c.06-.85,.27-1.68,.61-2.4l.02-.02c.85-1.9,2.48-3.19,4.37-3.19,.18,0,.35,.02,.52,.03,1.47,.19,2.76,1.16,3.56,2.56,.26,.42,.47,.89,.61,1.37,.23,.71,.35,1.48,.35,2.29Z"/><path class="cls-6" d="M760.14,321.11c0-.21,0-.44,.03-.65,.03-.77,.16-1.53,.35-2.26h.02c.6-2.21,1.89-4.05,3.61-4.92,.71-.39,1.48-.58,2.32-.58,1.4,0,2.71,.5,3.79,1.35l-.19,2.32-.05,.55-.16,1.89"/><path class="cls-6" d="M756.28,312.12c.97-.26,1.87-.45,2.73-.6l.02-.02h.02c.47-.08,.94-.15,1.37-.19,7.64-.85,9.85,2.74,9.85,2.74"/><path class="cls-6" d="M763.11,326.78s-.1-.05-.27-.15c-.61-.34-2.16-1.26-3.73-2.48-1.13-.9-2.26-1.97-3.02-3.1-.27-.42-.5-.84-.66-1.27"/><path class="cls-6" d="M756.57,314.06h-.02c-.03-.29-.08-.56-.16-.84-.5-2.02-1.74-3.74-3.4-4.92-1.45-1.03-3.26-1.65-5.19-1.65-.32,0-.65,.02-.95,.05-2.84,.31-5.29,1.92-6.66,4.23-.79,1.27-1.24,2.79-1.24,4.4,0,.52,.05,1.03,.15,1.53,.06,.4,.16,.79,.31,1.16,.06,.24,.15,.47,.24,.68,.61,1.4,1.56,2.61,2.79,3.52,1.19,.92,2.64,1.52,4.23,1.71,.37,.05,.76,.08,1.15,.08,.48,0,.97-.03,1.42-.13h.02c2.82-.44,5.19-2.18,6.44-4.58,.64-1.19,1-2.53,1-3.97,0-.44-.03-.85-.1-1.27Zm-9.94,5.45c-.34-1.74-.5-3.35-.56-4.81,.24-.05,.5-.11,.77-.18h.02"/><path class="cls-6" d="M747.8,324.01c-.52-1.58-.9-3.08-1.16-4.5-.34-1.74-.5-3.35-.56-4.81-.02-.21-.02-.4-.02-.6-.03-.61-.03-1.19,0-1.73,.1-3.56,.79-5.68,.79-5.68"/><path class="cls-6" d="M739.38,318.04l.02-.02c.16-.16,2.08-2.16,6.68-3.32,.24-.05,.5-.11,.77-.18h.02c2.21-.47,4.97-.74,8.35-.55,.44,.02,.89,.05,1.34,.08h.02"/><path class="cls-6" d="M749.25,323.9l.03,1.55,.11,5.14,.11,5.37s-1.26,.81-2.21,.31c-.15-.06-.27-.18-.39-.31l-.13-6.18-.06-2.69-.06-3.16v-.03"/><path class="cls-6" d="M738.94,315.33s-.89,.77-1.69,2.08c-.18,.29-.35,.61-.52,.97-.73,1.53-1.15,3.55-.31,5.81,.18,.47,.4,.95,.71,1.44,.23,.39,.5,.77,.81,1.16,.53,.65,1.16,1.29,1.92,1.95l2.65-1.26,4.15-1.98"/><ellipse class="cls-6" cx="756.27" cy="361.1" rx="1.48" ry=".83" transform="translate(184.54 973.85) rotate(-72.51)"/><path class="cls-6" d="M756.71,359.69l-4.2-2.75-.55-.4c-.44-.14-1,.42-1.26,1.24s-.11,1.6,.32,1.74l4.8,2.99"/><ellipse class="cls-6" cx="747" cy="375.69" rx="1.48" ry=".83" transform="translate(164.15 975.21) rotate(-72.51)"/><path class="cls-6" d="M747.44,374.27l-4.2-2.75-.55-.4c-.44-.14-1,.42-1.26,1.24s-.11,1.6,.32,1.74l4.8,2.99"/><ellipse class="cls-6" cx="743.7" cy="380.26" rx="1.48" ry=".83" transform="translate(157.47 975.26) rotate(-72.51)"/><path class="cls-6" d="M744.14,378.85l-4.2-2.75-.55-.4c-.44-.14-1,.42-1.26,1.24s-.11,1.6,.32,1.74l4.8,2.99"/><ellipse class="cls-6" cx="733.39" cy="375.67" rx="1.48" ry=".83" transform="translate(154.64 962.23) rotate(-72.51)"/><path class="cls-6" d="M733.84,374.26l-4.2-2.75-.55-.4c-.44-.14-1,.42-1.26,1.24s-.11,1.6,.32,1.74l4.8,2.99"/><ellipse class="cls-6" cx="761.23" cy="371.05" rx="1.48" ry=".83" transform="translate(178.52 985.54) rotate(-72.51)"/><path class="cls-6" d="M761.67,369.64l-4.2-2.75-.55-.4c-.44-.14-1,.42-1.26,1.24s-.11,1.6,.32,1.74l4.8,2.99"/><ellipse class="cls-6" cx="765.1" cy="361.09" rx="1.48" ry=".83" transform="translate(190.73 982.27) rotate(-72.51)"/><path class="cls-6" d="M765.55,359.68l-4.2-2.75-.55-.4c-.44-.14-1,.42-1.26,1.24s-.11,1.6,.32,1.74l4.8,2.99"/><ellipse class="cls-6" cx="770.58" cy="358.31" rx="1.26" ry=".68" transform="translate(210.79 997.69) rotate(-73.73)"/><path class="cls-6" d="M770.95,357.1l-3.46-2.35-.45-.34c-.36-.12-.82,.36-1.04,1.06s-.09,1.37,.27,1.49l3.94,2.56"/><ellipse class="cls-6" cx="750.93" cy="371.05" rx="2.76" ry="1.83" transform="translate(184.41 987.99) rotate(-73.73)"/><polyline class="cls-6" points="797.98 356.95 797.98 350.7 797.98 348.75 805.4 345.43 805.4 347.87"/><path class="cls-6" d="M803.57,348.2l-5.58,2.5,5.58-2.5Z"/><line class="cls-6" x1="803.57" y1="353.59" x2="803.57" y2="348.2"/><rect class="cls-6" x="750.03" y="341.09" width="9.76" height="2.39" rx=".74" ry=".74" transform="translate(-70 423.31) rotate(-30)"/><path class="cls-6" d="M757.07,337.43c-.02,.4-.23,.79-.6,1l-6.39,3.69c-.58,.32-1.31,.13-1.63-.44-.11-.19-.16-.4-.16-.6,0-.06,0-.15,.02-.21,.06-.34,.26-.65,.58-.82l4.35-2.52,.02-.02,2.02-1.16c.56-.32,1.29-.13,1.63,.44,.1,.15,.15,.32,.15,.47l.02,.16Z"/><path class="cls-6" d="M752.68,344.8v2.27s-1.5,.66-2.16-.25v-2.8"/><path class="cls-6" d="M750.44,341.87v2.27s-1.5,.66-2.16-.25v-2.8"/><path class="cls-6" d="M759.29,340.38v3.06s-1.46,.26-2.29-.28v-.71"/><line class="cls-6" x1="757.06" y1="337.27" x2="757.26" y2="339.55"/><line class="cls-6" x1="755.52" y1="338.99" x2="755.52" y2="340.38"/><polyline class="cls-10" points="688.16 362.51 694.16 354.39 737.95 326.79"/><line class="cls-1" x1="714.8" y1="400.37" x2="776.82" y2="363.77"/><polygon class="cls-10" points="794.65 359.52 823.14 343.45 822.48 349.45 828.36 352.19 798.76 369.46 794.65 365.61 794.65 359.52"/><line class="cls-10" x1="794.65" y1="365.61" x2="822.48" y2="349.45"/><polygon class="cls-10" points="597.18 250.8 625.68 234.72 625.01 240.72 630.89 243.46 601.3 260.74 597.18 256.88 597.18 250.8"/><line class="cls-6" x1="597.18" y1="256.88" x2="625.01" y2="240.72"/><polygon class="cls-10" points="754.91 381.67 783.11 365.61 783.11 372.46 788.46 374.76 761.23 392.01 754.91 389.68 754.91 381.67"/><line class="cls-10" x1="754.91" y1="389.68" x2="783.11" y2="372.46"/><path class="cls-10" d="M773.7,365.61s-.14,2.88,3.12,3.58"/><line class="cls-10" x1="783.11" y1="369.19" x2="794.65" y2="362.51"/><polyline class="cls-10" points="943.15 447.52 798.76 369.46 828.36 352.19 967.22 425.05"/><polyline class="cls-10" points="905.59 469.05 761.23 392.01 788.46 374.76 928.91 449.8"/><line class="cls-6" x1="807.35" y1="364.68" x2="945.63" y2="439.37"/><line class="cls-6" x1="813.93" y1="361.03" x2="952.21" y2="435.71"/><line class="cls-6" x1="820.54" y1="356.53" x2="958.82" y2="431.21"/><line class="cls-6" x1="768.03" y1="388.17" x2="908.51" y2="463.2"/><line class="cls-6" x1="768.85" y1="380.47" x2="914.96" y2="459.01"/><line class="cls-6" x1="781.13" y1="379.4" x2="921.59" y2="454.61"/><line class="cls-6" x1="765.9" y1="394.5" x2="793.95" y2="377.26"/><line class="cls-6" x1="773.24" y1="398.29" x2="801.29" y2="381.06"/><line class="cls-6" x1="778.84" y1="401.89" x2="806.89" y2="384.65"/><line class="cls-6" x1="785.53" y1="405.14" x2="813.58" y2="387.91"/><line class="cls-6" x1="791.48" y1="408.82" x2="819.52" y2="391.58"/><line class="cls-6" x1="798.3" y1="411.74" x2="826.35" y2="394.5"/><line class="cls-6" x1="804.95" y1="415.53" x2="833" y2="398.29"/><line class="cls-6" x1="811.42" y1="418.66" x2="839.47" y2="401.42"/><line class="cls-6" x1="817.7" y1="422.38" x2="845.75" y2="405.14"/><line class="cls-6" x1="823.56" y1="425.52" x2="851.61" y2="408.28"/><line class="cls-6" x1="830.42" y1="429.44" x2="858.47" y2="412.21"/><line class="cls-6" x1="836.74" y1="432.77" x2="864.79" y2="415.53"/><line class="cls-6" x1="843.82" y1="436.2" x2="871.87" y2="418.97"/><line class="cls-6" x1="850.77" y1="440.29" x2="878.82" y2="423.05"/><line class="cls-6" x1="856.94" y1="443.49" x2="884.99" y2="426.25"/><line class="cls-6" x1="864.79" y1="447.35" x2="892.84" y2="430.11"/><line class="cls-6" x1="870.97" y1="450.48" x2="899.01" y2="433.24"/><line class="cls-6" x1="877.54" y1="454.51" x2="905.59" y2="437.27"/><line class="cls-6" x1="883.86" y1="457.92" x2="911.91" y2="440.68"/><line class="cls-6" x1="890.71" y1="461.72" x2="918.75" y2="444.49"/><line class="cls-6" x1="897.17" y1="465.44" x2="925.22" y2="448.21"/><line class="cls-6" x1="804.3" y1="372.46" x2="833" y2="355.02"/><line class="cls-6" x1="809.21" y1="375.19" x2="837.91" y2="357.75"/><line class="cls-6" x1="817.22" y1="379.76" x2="845.92" y2="362.33"/><line class="cls-6" x1="822.78" y1="382.82" x2="851.48" y2="365.39"/><line class="cls-6" x1="830.1" y1="385.98" x2="858.8" y2="368.55"/><line class="cls-6" x1="836.42" y1="389.74" x2="865.12" y2="372.3"/><line class="cls-6" x1="842.59" y1="392.5" x2="871.29" y2="375.06"/><line class="cls-6" x1="848.81" y1="395.7" x2="877.51" y2="378.26"/><line class="cls-6" x1="854.82" y1="399.54" x2="884.21" y2="381.69"/><line class="cls-6" x1="861.65" y1="403.22" x2="891" y2="385.39"/><line class="cls-6" x1="869.17" y1="406.99" x2="897.87" y2="388.66"/><line class="cls-6" x1="875.1" y1="410.14" x2="903.8" y2="391.78"/><line class="cls-6" x1="881.11" y1="413.43" x2="909.81" y2="395.07"/><line class="cls-6" x1="887.87" y1="417.04" x2="916.57" y2="398.68"/><line class="cls-6" x1="895.46" y1="421.32" x2="924.16" y2="402.96"/><line class="cls-6" x1="901.04" y1="424.71" x2="930.46" y2="405.76"/><line class="cls-6" x1="907.49" y1="428.14" x2="936.91" y2="409.18"/><line class="cls-6" x1="913.36" y1="431.92" x2="942.78" y2="412.96"/><line class="cls-6" x1="920.2" y1="435.73" x2="949.62" y2="416.77"/><line class="cls-6" x1="927.18" y1="438.73" x2="956.59" y2="419.78"/><line class="cls-6" x1="933.98" y1="442" x2="963.39" y2="423.05"/><polygon class="cls-10" points="944.18 440.68 973.4 421.32 973.39 430.47 944.51 450.05 944.18 440.68"/><polyline class="cls-10" points="565.41 282.13 591.39 265.94 586.01 263.7 585.92 256.85 557.93 273.28 557.99 277.59"/><line class="cls-6" x1="560.78" y1="279.3" x2="586.08" y2="263.85"/><polyline class="cls-10" points="749.22 305.45 733.43 297.16 706.77 283.17 700.85 280.06 631.34 243.58 623.72 248.03 601.74 260.85 671.54 298.59"/><line class="cls-6" x1="770.19" y1="316.45" x2="770.07" y2="316.38"/><polyline class="cls-10" points="692.75 310.06 716.75 323.03 723.7 326.78"/><line class="cls-6" x1="686.2" y1="306.53" x2="675.61" y2="300.78"/><polyline class="cls-10" points="672.09 309.24 674.54 310.54 687.9 317.69 689.53 318.54"/><polyline class="cls-10" points="705.72 327.2 701.49 324.95 696.69 322.38"/><polyline class="cls-10" points="668.16 307.14 667.77 306.93 591.43 266.16"/><polyline class="cls-10" points="615.29 309.49 641.24 323.67 647.56 327.12 654.75 331.06 657.95 332.8"/><line class="cls-10" x1="681.17" y1="345.49" x2="661.48" y2="334.74"/><polyline class="cls-10" points="688.32 298.2 706.11 307.82 711.98 310.98 718.37 314.43 724.75 317.88 726.57 318.86"/><line class="cls-6" x1="610.33" y1="256.07" x2="672.96" y2="289.9"/><polyline class="cls-10" points="749.25 323.9 749.23 323.88 749.22 323.88"/><polyline class="cls-10" points="732.95 315.09 730.83 313.96 724.46 310.51 718.06 307.06 712.22 303.9 616.9 252.42"/><line class="cls-6" x1="761.8" y1="322.61" x2="761.61" y2="322.51"/><polyline class="cls-10" points="740.19 310.93 737.65 309.56 731.27 306.12 623.72 248.03 623.51 247.92"/><line class="cls-10" x1="746.86" y1="314.53" x2="746.85" y2="314.53"/><polyline class="cls-6" points="663.82 329.14 666.72 330.69 674.29 334.74 680.32 337.94 683.2 339.49"/><polyline class="cls-6" points="660.64 327.45 660.17 327.19 653.37 323.56 646.9 320.09 571 279.56"/><polyline class="cls-6" points="577.22 274.77 653.64 315.85 660.19 319.36 662.74 320.74"/><polyline class="cls-6" points="690.37 335.59 687.08 333.82 687.06 333.82 681.06 330.57 673.51 326.53 667.45 323.27 666.48 322.74"/><line class="cls-10" x1="708.51" y1="345.33" x2="707.67" y2="344.88"/><polyline class="cls-6" points="665.32 314.27 660.35 311.61 584.1 270.8"/><polyline class="cls-6" points="692.32 328.72 687.91 326.36 680.35 322.32 674.27 319.07 669.14 316.32"/><line class="cls-10" x1="715.32" y1="341.04" x2="715.3" y2="341.03"/><line class="cls-6" x1="570.51" y1="284.89" x2="596.93" y2="268.66"/><line class="cls-6" x1="577.64" y1="288.81" x2="604.27" y2="272.45"/><line class="cls-6" x1="583.68" y1="292.13" x2="609.87" y2="276.04"/><line class="cls-6" x1="589.63" y1="295.4" x2="616.56" y2="279.3"/><line class="cls-6" x1="595.9" y1="299.31" x2="622.5" y2="282.97"/><line class="cls-6" x1="602.42" y1="302.43" x2="629.32" y2="285.89"/><line class="cls-6" x1="609.35" y1="306.05" x2="635.98" y2="289.69"/><line class="cls-6" x1="614.4" y1="310.05" x2="642.45" y2="292.81"/><line class="cls-6" x1="621.92" y1="313.01" x2="648.72" y2="296.54"/><line class="cls-6" x1="627.34" y1="316.41" x2="654.58" y2="299.67"/><line class="cls-6" x1="634.97" y1="319.87" x2="661.45" y2="303.6"/><line class="cls-6" x1="641.24" y1="323.67" x2="667.77" y2="306.92"/><polyline class="cls-6" points="664.29 316.85 660.19 319.36 653.37 323.56 647.56 327.12 646.8 327.59"/><line class="cls-6" x1="674.85" y1="310.37" x2="670.51" y2="313.03"/><polyline class="cls-6" points="681.79 314.45 674.27 319.07 667.45 323.27 665.85 324.24"/><polyline class="cls-6" points="660.64 327.45 659.9 327.9 654.75 331.06 654.58 331.17"/><line class="cls-6" x1="660.82" y1="334.32" x2="687.96" y2="317.64"/><polyline class="cls-6" points="667.77 338.74 668.25 338.43 674.29 334.74 681.06 330.57 687.91 326.36 691.12 324.4"/><polyline class="cls-6" points="692.75 330.32 687.08 333.82 687.06 333.82 680.32 337.94 674.22 341.69 673.95 341.86"/><polyline class="cls-10" points="698.16 326.99 701.49 324.95 701.99 324.64"/><polyline class="cls-6" points="680.51 345.9 680.8 345.72 681.17 345.49"/><line class="cls-6" x1="607.28" y1="263.85" x2="635.98" y2="246.42"/><line class="cls-6" x1="612.18" y1="266.58" x2="640.88" y2="249.15"/><line class="cls-6" x1="620.19" y1="271.16" x2="648.89" y2="253.72"/><line class="cls-6" x1="625.76" y1="274.21" x2="654.46" y2="256.78"/><line class="cls-6" x1="633.07" y1="277.37" x2="661.77" y2="259.94"/><line class="cls-6" x1="639.39" y1="281.13" x2="668.09" y2="263.69"/><line class="cls-6" x1="645.56" y1="283.89" x2="674.26" y2="266.46"/><line class="cls-6" x1="651.78" y1="287.09" x2="680.48" y2="269.66"/><line class="cls-6" x1="657.79" y1="290.93" x2="687.19" y2="273.08"/><line class="cls-6" x1="693.98" y1="276.77" x2="678.62" y2="286.11"/><line class="cls-6" x1="673.4" y1="289.27" x2="664.62" y2="294.61"/><line class="cls-10" x1="700.85" y1="280.06" x2="683.93" y2="290.85"/><line class="cls-6" x1="679.38" y1="293.75" x2="678.24" y2="294.49"/><line class="cls-10" x1="706.77" y1="283.17" x2="688.45" y2="294.9"/><polyline class="cls-6" points="683.85 297.83 683.62 297.98 678.08 301.53"/><line class="cls-10" x1="712.78" y1="286.46" x2="689.9" y2="301.11"/><line class="cls-6" x1="685.5" y1="303.91" x2="684.09" y2="304.82"/><line class="cls-10" x1="719.54" y1="290.08" x2="691.99" y2="307.7"/><line class="cls-10" x1="698.44" y1="312.71" x2="727.14" y2="294.35"/><line class="cls-10" x1="704.02" y1="316.11" x2="733.43" y2="297.15"/><line class="cls-10" x1="710.47" y1="319.53" x2="739.88" y2="300.58"/><line class="cls-10" x1="716.34" y1="323.31" x2="745.75" y2="304.36"/><polyline class="cls-10" points="759.01 311.53 759.02 311.51 759.04 311.51"/><line class="cls-6" x1="756.4" y1="313.22" x2="755.22" y2="313.98"/><polyline class="cls-6" points="760.52 318.2 760.54 318.2 760.78 318.06 760.8 318.04"/><path class="cls-6" d="M748.9,340.06l4.35-2.52-4.94,3.34c.06-.34,.26-.65,.58-.82Z"/><path class="cls-6" d="M770.02,316.93l-.16,1.89c.23,.71,.35,1.48,.35,2.29,0,3.44-2.26,6.24-5.05,6.24-.74,0-1.44-.19-2.06-.56,0,0-.1-.05-.27-.15-.61-.34-2.16-1.26-3.73-2.48l1.35-.89,1.15-.76,7.64-5.06"/><path class="cls-6" d="M775.46,322.48l.08-.06-.34,.05c-1.31,0-2.47,.94-3.26,2.4"/><polyline class="cls-10" points="905.76 470.12 905.58 465.25 934.81 445.89 934.81 455.04 909.54 472.17"/><polyline class="cls-6" points="939.19 445.38 939.19 447.52 944.18 450.48"/><path class="cls-10" d="M710.85,389.44v-.23c-.44-14.82-12.27-26.69-26.82-26.69s-26.85,12.32-26.85,27.53c0,2.06,.23,4.06,.65,5.98,2.66,12.34,13.39,21.56,26.21,21.56,6.92,0,13.23-2.68,17.98-7.1"/><path class="cls-10" d="M694.23,354.28c13.72-1.17,25.89,10.17,27.18,25.32,.46,5.41-4.53,16.31-6.62,20.77"/><path class="cls-6" d="M712.85,403.47c-3.02,5.6-8.42,8.53-12.06,6.58-.84-.45-1.5-1.11-2-1.94-1.73-2.79-1.52-7.44,.82-11.76,1.58-2.94,3.81-5.14,6.1-6.27,2.1-1.06,4.23-1.24,5.97-.31,3.66,1.95,4.18,8.1,1.18,13.69Z"/><path class="cls-6" d="M709.64,402.56c-2.63,4.9-7.37,7.48-10.56,5.76-.1-.05-.19-.11-.29-.19-1.73-2.79-1.52-7.44,.82-11.76,1.58-2.94,3.81-5.14,6.1-6.27,1.03-.15,2.03,0,2.9,.47,3.21,1.73,3.66,7.1,1.03,12Z"/><line class="cls-6" x1="711.67" y1="389.78" x2="706.14" y2="386.01"/><path class="cls-6" d="M700.32,409.77l-7.89-7.38c-.71-2.75-.2-6.37,1.65-9.8,3.01-5.6,8.41-8.54,12.07-6.58"/><ellipse class="cls-6" cx="685.3" cy="367.45" rx="7.26" ry="2.51"/><ellipse class="cls-6" cx="685.3" cy="368.92" rx="7.26" ry="2.51"/><ellipse class="cls-6" cx="685.3" cy="370.29" rx="7.26" ry="2.51"/><path class="cls-6" d="M678.68,371.96s-7.78,5.19-10.78,13.49"/><path class="cls-10" d="M691.22,371.96s8.91,5.11,9.94,14.05"/><line class="cls-6" x1="683.16" y1="369.96" x2="683.16" y2="372.8"/><line class="cls-6" x1="688.16" y1="365.15" x2="688.16" y2="367.98"/><line class="cls-6" x1="683.16" y1="365.15" x2="683.16" y2="367.98"/><path class="cls-6" d="M667.16,411.49c1.53,.48,2.97,.45,4.15-.24,.95-.55,1.63-1.45,2.02-2.6,1.03-2.87,.34-7.24-2.06-11.4-2.63-4.53-6.5-7.45-9.64-7.58-.89-.05-1.73,.13-2.45,.55-.84,.47-1.45,1.23-1.87,2.16v.02"/><path class="cls-6" d="M673.32,408.65c-3.16-.15-7.02-3.06-9.63-7.58-2.39-4.16-3.1-8.55-2.08-11.4,3.14,.13,7.02,3.05,9.64,7.58,2.4,4.16,3.1,8.53,2.06,11.4Z"/><path class="cls-6" d="M672.85,410.06l7.42-8.01c-.07-2.59-.97-5.67-2.69-8.64-2.96-5.13-7.39-8.3-10.7-7.97l-7.72,4.77"/><ellipse class="cls-10" cx="714.06" cy="335.53" rx="2.16" ry="4.1" transform="translate(179.4 915.71) rotate(-72.51)"/><ellipse class="cls-10" cx="701.28" cy="344.75" rx="1.74" ry="3.09" transform="translate(-55.24 148.99) rotate(-11.67)"/><polyline class="cls-10" points="710.14 334.3 710.11 334.75 710.11 334.77 710.11 334.78 709.91 338.14 709.91 338.17 704.62 340.19 701.32 341.46 700.66 341.72"/><polyline class="cls-10" points="701.91 347.78 717.97 339.69 717.97 336.77"/><path class="cls-10" d="M704.62,340.19l-2.53-2.6c-.53-.53-.94-1.19-1.16-1.92l-.63-1.95-.27-.87-1.87-5.85-1.47-4.61-3.94-12.32-.76-2.35-2.1-6.6-1.13-3.52"/><path class="cls-10" d="M683.95,298.3c.02,.11,.05,.23,.1,.32l1.45,5.29,.71,2.61,3.31,12v.02h.02l1.6,5.85,1.19,4.32,.44,1.6,1.9,6.89,.23,.81,.06,.26c.13,.47,.39,.9,.73,1.24l3.84,3.94"/><ellipse class="cls-10" cx="686.31" cy="296.9" rx="3.14" ry="2.37" transform="translate(168.33 836.22) rotate(-69.55)"/><line class="cls-10" x1="687.41" y1="293.96" x2="677.14" y2="284.79"/><line class="cls-10" x1="677.79" y1="292.18" x2="683.94" y2="298.3"/><path class="cls-10" d="M677.79,291.26c-.48,.81-1.05,1.75-1.79,1.75-1.45,0-2.63-1.94-2.63-4.33s1.18-4.33,2.63-4.33c.54,0,1.05,.27,1.47,.74"/><polyline class="cls-10" points="655.53 349.03 661.48 334.74 661.95 333.62 663.82 329.14 665.85 324.24 666.48 322.74 669.14 316.32 670.51 313.03 678.74 293.28"/><path class="cls-10" d="M653.16,344.86c1.6-4.02,3.19-8.05,4.79-12.06,.65-1.63,1.31-3.27,1.95-4.9,.1-.24,.19-.47,.27-.71,.85-2.15,1.71-4.31,2.56-6.45,.52-1.29,1.03-2.6,1.55-3.89,.34-.85,.69-1.73,1.03-2.58,2.95-7.44,5.9-14.85,8.85-22.29"/><ellipse class="cls-10" cx="656.35" cy="352.79" rx="2.54" ry="1.97" transform="translate(47.98 783.07) rotate(-63.53)"/><line class="cls-6" x1="657.48" y1="350.51" x2="655.07" y2="348.98"/><polyline class="cls-10" points="653.75 343.11 651.5 341.72 642.58 341.72 636.49 341.72 636.49 354.89 634.58 354.89 634.58 361.53 646.33 361.53 646.33 354.89 643.08 354.89 643.08 348.27 646.67 348.27 654.85 354.89"/><path class="cls-5" d="M594.63,351.61c-3.05-2.24-3.89-7.61-1.81-12.82,2.34-5.84,7.5-9.26,11.53-7.64m8.44,5.06c-1.44-.58-3.02-.52-4.55,.08-2.79,1.05-5.47,3.81-6.98,7.58-1.18,2.92-1.42,5.9-.85,8.35,.48,2.15,1.58,3.87,3.19,4.79m4.44,.53c-8.53,9.98-19.66,14.45-27.6,10.14-9.37-5.05-10.95-20.48-4.06-35.42,.45-.97,.95-1.94,1.47-2.9,.92-1.69,1.89-3.31,2.94-4.82,.23-.34,.45-.66,.69-.98,.21-.29,.4-.58,.63-.85,8.71-11.4,20.84-16.79,29.29-12.21,8.63,4.68,10.66,18.19,5.48,32"/><path class="cls-9" d="M613.32,308.99c-8.97-4.85-21.98,1.18-31.22,13.71-.23,.27-.42,.56-.63,.85-.24,.32-.47,.65-.69,.98-1.05,1.52-2.02,3.13-2.94,4.82-.52,.97-1.02,1.94-1.47,2.9-7.55,16.05-6.03,32.61,3.82,37.95,9.5,5.14,23.47-1.92,32.82-15.93,.94-1.4,1.84-2.89,2.68-4.44,.1-.18,.19-.37,.29-.55,8.84-16.74,7.69-34.72-2.66-40.31Zm-10.31,47.63l-8.39-5.02c-3.05-2.24-3.89-7.61-1.81-12.82,2.34-5.84,7.5-9.26,11.53-7.64l9.28,5.5m-.85-.43c-1.44-.58-3.02-.52-4.55,.08-2.79,1.05-5.47,3.81-6.98,7.58-1.18,2.92-1.42,5.9-.85,8.35,.48,2.15,1.58,3.87,3.19,4.79"/><path class="cls-9" d="M613.33,308.99l-4.46-3.3c-11.1-6.01-27.6,2.98-36.86,20.08-7.1,13.12-7.87,27.21-2.83,35.77l7.12,5.53"/><path class="cls-9" d="M615.98,349.3c-.05,.15-.11,.27-.16,.42-.71,1.77-1.68,3.32-2.81,4.56-1.48,1.68-3.23,2.82-4.98,3.26-1.27,.34-2.56,.29-3.74-.18l-.69-.35c-1.61-.92-2.71-2.65-3.19-4.79-.56-2.45-.32-5.44,.85-8.35,1.52-3.77,4.19-6.53,6.98-7.58,1.53-.6,3.11-.66,4.55-.08,2.31,.94,3.73,3.31,4.08,6.29,.27,2.08-.02,4.45-.89,6.81Z"/><path class="cls-5" d="M607.38,344.64c-1.52,3.77-4.19,6.53-6.98,7.58-.56-2.45-.32-5.44,.85-8.35,1.52-3.77,4.19-6.53,6.98-7.58,.56,2.45,.32,5.44-.85,8.35Z"/><line class="cls-5" x1="572.31" y1="353.7" x2="590.71" y2="348.98"/><line class="cls-5" x1="616.97" y1="318.33" x2="611.1" y2="333.95"/><path class="cls-9" d="M569.19,361.53l-87.9-53.41c-.41-6.64,.56-14.1,3.07-21.62,6.87-20.54,22.69-33.76,35.35-29.53l86.74,47.66"/><path class="cls-5" d="M535.34,265.74c-7.83-3.78-20.71,6.69-28.77,23.38-5.28,10.94-7.18,21.83-5.67,29.11"/><path class="cls-5" d="M547.24,272.61c-6.77-3.27-17.32,4.12-25.26,16.97l-4.1-1.55s-3.61,2.52-5.58,9.32l4.35,2.74c-1.22,2.99-2.18,5.94-2.89,8.78"/><path class="cls-5" d="M573.79,286.65c-7.83-3.78-20.71,6.69-28.77,23.38-5.27,10.91-7.17,21.78-5.68,29.06"/><ellipse class="cls-5" cx="490.25" cy="297.86" rx="1.42" ry="2.57"/><ellipse class="cls-5" cx="508.07" cy="268.42" rx="3.33" ry="1.71" transform="translate(-66.45 258.03) rotate(-26.81)"/><polygon class="cls-9" points="481.2 299.25 450.26 315.46 437.66 299.52 469.14 284.51 481.2 299.25"/><polygon class="cls-5" points="458.61 297.79 445.84 303.82 442.89 300.05 455.48 294.32 458.61 297.79"/><polygon class="cls-5" points="463.9 304.23 451.36 310.73 448.27 307.07 460.64 300.88 463.9 304.23"/><polyline class="cls-9" points="488.02 276.83 458.61 261.37 459.43 288.19"/><polyline class="cls-9" points="516.68 255.59 491.67 242.8 458.61 261.37"/><ellipse class="cls-5" cx="478.68" cy="262.04" rx="1.71" ry="2.93" transform="translate(-59.16 169.71) rotate(-18.96)"/><path class="cls-5" d="M482.44,257.1c.89-.31,2.04,.68,2.57,2.21s.23,3.02-.66,3.32"/><polyline class="cls-5" points="489.23 227.97 482.44 257.1 477.73 259.27"/><line class="cls-5" x1="484.34" y1="262.64" x2="479.63" y2="264.8"/><line class="cls-5" x1="486.9" y1="225.95" x2="479.37" y2="258.51"/><ellipse class="cls-5" cx="489.28" cy="225.2" rx="2.39" ry="2.77"/><line class="cls-5" x1="484.34" y1="218.37" x2="486.9" y2="225.95"/><line class="cls-5" x1="488.77" y1="216.33" x2="491.67" y2="223.84"/><line class="cls-5" x1="490.45" y1="227.6" x2="500.4" y2="247.27"/><line class="cls-5" x1="491.67" y1="225.2" x2="503.9" y2="249.06"/><polygon class="cls-5" points="463.23 222.74 485.86 212.4 490.93 215.35 466.75 226.27 466.56 228.96 463.23 226.27 463.23 222.74"/><line class="cls-9" x1="433.22" y1="264.68" x2="428.74" y2="261.38"/><line class="cls-5" x1="447.25" y1="275.03" x2="435.93" y2="266.68"/><line class="cls-9" x1="459.3" y1="283.92" x2="450.05" y2="277.1"/><line class="cls-9" x1="480.53" y1="249.06" x2="442.43" y2="235.22"/><g><path class="cls-5" d="M434.06,249.78c-.42,0-.75,.75-.75,1.67s.34,1.67,.75,1.67"/><ellipse class="cls-5" cx="450.8" cy="261.76" rx=".75" ry="1.67"/><line class="cls-5" x1="434.06" y1="249.78" x2="450.8" y2="260.09"/><line class="cls-5" x1="450.8" y1="263.43" x2="434.06" y2="253.12"/></g><g><path class="cls-5" d="M433.22,266.57c-.41-.03-.8,.69-.87,1.61s.22,1.69,.63,1.72"/><ellipse class="cls-5" cx="449.06" cy="279.72" rx="1.67" ry=".75" transform="translate(137.94 707.62) rotate(-85.9)"/><line class="cls-5" x1="433.22" y1="266.57" x2="449.18" y2="278.05"/><line class="cls-5" x1="448.94" y1="281.38" x2="432.98" y2="269.89"/></g><line class="cls-5" x1="435.84" y1="268.45" x2="436.53" y2="254.64"/><line class="cls-5" x1="433.22" y1="266.57" x2="433.77" y2="252.75"/><line class="cls-5" x1="450.36" y1="263.11" x2="449.77" y2="279.13"/><line class="cls-5" x1="447.45" y1="276.5" x2="447.84" y2="261.54"/><line class="cls-5" x1="436.53" y1="254.64" x2="447.45" y2="276.5"/><line class="cls-5" x1="435.93" y1="267.86" x2="447.84" y2="261.54"/><path class="cls-9" d="M428.74,261.38c-1.26-3.78-.88-9.09,1.35-14.35,2.85-6.7,7.86-11.28,12.34-11.8l-10.09-5.16-3.6,1.56-10.09,5.81,10.09,5.37"/><path class="cls-5" d="M428.33,259.84l-4.46,1.92-9.06-5.57,6.76-1.56v-3.19l-5.25,1.3-.23-2.97-3.14-1.25h0c0-1.62,1.18-2.99,2.77-3.25l2.22-.35,.12-2.13-4.41-1.13v-6.45l2.32,.53v-3.6l6.5-3.19,6.26,2.66"/><line class="cls-5" x1="390.37" y1="259.44" x2="412.98" y2="248.52"/><line class="cls-5" x1="392.4" y1="262.67" x2="415.99" y2="251.66"/><polygon class="cls-5" points="387.43 257.16 392.87 261.38 369.37 273.16 363.19 269.31 387.43 257.16"/><polyline class="cls-5" points="388.05 263.79 391.48 265.16 392.87 261.38"/><polyline class="cls-5" points="363.19 269.31 363.19 273.16 369.37 276.31 369.37 273.16"/><polygon class="cls-9" points="362.15 267.98 336.98 253.09 337.25 259.03 333.84 259.97 358.34 275.34 362.16 273.16 362.15 267.98"/><line class="cls-5" x1="362.16" y1="273.16" x2="337.23" y2="258.63"/><polyline class="cls-9" points="32.63 397.93 333.84 259.97 358.34 275.34 56.88 416.36"/><line class="cls-5" x1="338.91" y1="263.15" x2="38.89" y2="402.19"/><line class="cls-5" x1="42.94" y1="405.48" x2="343.29" y2="265.89"/><line class="cls-5" x1="348" y1="268.85" x2="48.1" y2="409.78"/><line class="cls-5" x1="53.04" y1="412.92" x2="353.51" y2="272.31"/><line class="cls-5" x1="40.43" y1="394.36" x2="64.08" y2="413.22"/><line class="cls-5" x1="48.1" y1="390.85" x2="70.94" y2="409.78"/><line class="cls-5" x1="78.44" y1="406.27" x2="54.71" y2="387.82"/><line class="cls-5" x1="86.04" y1="402.72" x2="61.97" y2="384.5"/><line class="cls-5" x1="93.38" y1="399.29" x2="69.56" y2="381.02"/><line class="cls-5" x1="100.94" y1="395.75" x2="77.24" y2="377.5"/><line class="cls-5" x1="108.49" y1="392.22" x2="84.34" y2="374.25"/><line class="cls-5" x1="116.04" y1="388.69" x2="91.39" y2="371.02"/><line class="cls-5" x1="122.7" y1="385.57" x2="98.31" y2="367.85"/><line class="cls-5" x1="152" y1="371.86" x2="127.45" y2="354.51"/><line class="cls-5" x1="159.12" y1="368.53" x2="135.08" y2="351.01"/><line class="cls-5" x1="166.18" y1="365.23" x2="141.57" y2="348.04"/><line class="cls-5" x1="173" y1="362.04" x2="148.54" y2="344.85"/><line class="cls-5" x1="156.08" y1="341.39" x2="180.49" y2="358.54"/><line class="cls-5" x1="186.8" y1="355.59" x2="162.85" y2="338.29"/><line class="cls-5" x1="193.11" y1="352.63" x2="169.28" y2="335.35"/><line class="cls-5" x1="201.18" y1="348.86" x2="177.07" y2="331.78"/><line class="cls-5" x1="207.23" y1="346.03" x2="183.7" y2="328.74"/><line class="cls-5" x1="215.26" y1="342.27" x2="191.27" y2="325.27"/><line class="cls-5" x1="221.58" y1="339.32" x2="198.05" y2="322.17"/><line class="cls-5" x1="227.94" y1="336.34" x2="204.15" y2="319.37"/><line class="cls-5" x1="210.64" y1="316.4" x2="235" y2="333.04"/><line class="cls-5" x1="241.62" y1="329.94" x2="217.55" y2="313.23"/><line class="cls-5" x1="248.29" y1="326.82" x2="224.72" y2="309.95"/><line class="cls-5" x1="254.98" y1="323.69" x2="230.97" y2="307.09"/><line class="cls-5" x1="261.76" y1="320.52" x2="237.28" y2="304.2"/><line class="cls-5" x1="268.89" y1="317.18" x2="245.06" y2="300.63"/><line class="cls-5" x1="275.39" y1="314.14" x2="251.51" y2="297.68"/><line class="cls-5" x1="281.39" y1="311.34" x2="257.45" y2="294.96"/><line class="cls-5" x1="288.4" y1="308.06" x2="264.26" y2="291.84"/><line class="cls-5" x1="295.07" y1="304.94" x2="270.83" y2="288.83"/><line class="cls-5" x1="301.53" y1="301.91" x2="277.48" y2="285.78"/><line class="cls-5" x1="307.63" y1="299.06" x2="282.95" y2="283.28"/><line class="cls-5" x1="314.19" y1="295.99" x2="289.51" y2="280.27"/><line class="cls-5" x1="320.48" y1="293.05" x2="296.05" y2="277.28"/><line class="cls-5" x1="327.26" y1="289.88" x2="302.76" y2="274.2"/><line class="cls-5" x1="333.84" y1="286.8" x2="309.11" y2="271.3"/><line class="cls-5" x1="339.71" y1="284.06" x2="315.01" y2="268.59"/><line class="cls-5" x1="345.71" y1="281.25" x2="322.29" y2="265.89"/><line class="cls-5" x1="351.7" y1="278.44" x2="327.36" y2="262.93"/><polygon class="cls-9" points="26.94 393.61 58.54 417.63 57.9 423.27 27.59 400.32 26.94 393.61"/><polyline class="cls-5" points="57.9 423.27 61.97 420.32 58.54 419.52"/><polygon class="cls-9" points="397.96 287.76 372.32 272.7 372.65 278.8 369.21 279.79 394.17 295.35 398.02 293.07 397.96 287.76"/><line class="cls-5" x1="372.63" y1="278.39" x2="398.02" y2="293.07"/><polyline class="cls-9" points="65.46 424.27 369.21 279.79 394.17 295.35 90.18 442.96"/><line class="cls-5" x1="374.37" y1="283.01" x2="71.83" y2="428.58"/><line class="cls-5" x1="75.97" y1="431.93" x2="378.83" y2="285.79"/><line class="cls-5" x1="383.64" y1="288.79" x2="81.23" y2="436.29"/><line class="cls-5" x1="86.27" y1="439.46" x2="389.25" y2="292.28"/><line class="cls-5" x1="73.32" y1="420.53" x2="97.45" y2="439.67"/><line class="cls-5" x1="81.05" y1="416.85" x2="104.37" y2="436.08"/><line class="cls-5" x1="111.93" y1="432.4" x2="87.72" y2="413.68"/><line class="cls-5" x1="119.59" y1="428.68" x2="95.04" y2="410.2"/><line class="cls-5" x1="126.99" y1="425.09" x2="102.7" y2="406.56"/><line class="cls-5" x1="134.61" y1="421.39" x2="110.44" y2="402.87"/><line class="cls-5" x1="142.22" y1="417.69" x2="117.6" y2="399.47"/><line class="cls-5" x1="149.84" y1="413.99" x2="124.71" y2="396.09"/><line class="cls-5" x1="156.56" y1="410.73" x2="131.68" y2="392.77"/><line class="cls-5" x1="186.11" y1="396.38" x2="161.07" y2="378.79"/><line class="cls-5" x1="193.28" y1="392.9" x2="168.77" y2="375.13"/><line class="cls-5" x1="200.4" y1="389.44" x2="175.32" y2="372.02"/><line class="cls-5" x1="207.28" y1="386.1" x2="182.34" y2="368.68"/><line class="cls-5" x1="189.95" y1="365.06" x2="214.83" y2="382.44"/><line class="cls-5" x1="221.19" y1="379.35" x2="196.77" y2="361.81"/><line class="cls-5" x1="227.56" y1="376.25" x2="203.25" y2="358.73"/><line class="cls-5" x1="235.69" y1="372.31" x2="211.11" y2="354.99"/><line class="cls-5" x1="241.79" y1="369.34" x2="217.8" y2="351.81"/><line class="cls-5" x1="249.89" y1="365.41" x2="225.43" y2="348.18"/><line class="cls-5" x1="256.26" y1="362.32" x2="232.27" y2="344.93"/><line class="cls-5" x1="262.67" y1="359.2" x2="238.42" y2="342"/><line class="cls-5" x1="244.97" y1="338.89" x2="269.8" y2="355.74"/><line class="cls-5" x1="276.47" y1="352.5" x2="251.94" y2="335.57"/><line class="cls-5" x1="283.2" y1="349.24" x2="259.17" y2="332.13"/><line class="cls-5" x1="289.94" y1="345.96" x2="265.46" y2="329.14"/><line class="cls-5" x1="296.78" y1="342.64" x2="271.83" y2="326.11"/><line class="cls-5" x1="303.97" y1="339.15" x2="279.68" y2="322.38"/><line class="cls-5" x1="310.53" y1="335.97" x2="286.18" y2="319.28"/><line class="cls-5" x1="316.57" y1="333.03" x2="292.17" y2="316.44"/><line class="cls-5" x1="323.64" y1="329.59" x2="299.04" y2="313.17"/><line class="cls-5" x1="330.37" y1="326.33" x2="305.66" y2="310.02"/><line class="cls-5" x1="336.89" y1="323.16" x2="312.37" y2="306.83"/><line class="cls-5" x1="343.03" y1="320.18" x2="317.89" y2="304.2"/><line class="cls-5" x1="349.65" y1="316.97" x2="324.5" y2="301.06"/><line class="cls-5" x1="355.99" y1="313.89" x2="331.1" y2="297.92"/><line class="cls-5" x1="362.83" y1="310.57" x2="337.87" y2="294.7"/><line class="cls-5" x1="369.46" y1="307.34" x2="344.27" y2="291.66"/><line class="cls-5" x1="375.38" y1="304.47" x2="350.22" y2="288.82"/><line class="cls-5" x1="381.43" y1="301.54" x2="357.57" y2="285.99"/><line class="cls-5" x1="387.47" y1="298.6" x2="362.67" y2="282.9"/><polygon class="cls-9" points="59.65 419.88 91.88 444.25 91.28 450.05 60.37 426.76 59.65 419.88"/><polyline class="cls-5" points="91.28 450.05 95.37 446.98 91.9 446.19"/><line class="cls-5" x1="358.62" y1="275.34" x2="367.76" y2="280.19"/><polyline class="cls-9" points="463.23 200.99 691.41 95.36 715.61 106.12 488.77 214.08"/><line class="cls-5" x1="467.67" y1="203.21" x2="696.45" y2="97.6"/><line class="cls-5" x1="473.32" y1="206.14" x2="700.7" y2="99.49"/><line class="cls-5" x1="478.7" y1="209.17" x2="706.06" y2="101.87"/><line class="cls-5" x1="482.91" y1="211.44" x2="710.82" y2="103.99"/><polyline class="cls-9" points="715.61 106.12 719.66 104.73 719.66 100.01 694.49 89.85 694.49 94.08 691.41 95.36"/><line class="cls-5" x1="694.49" y1="94.08" x2="719.66" y2="104.73"/><line class="cls-5" x1="687.23" y1="97.6" x2="710.82" y2="108.4"/><line class="cls-5" x1="705.53" y1="110.91" x2="682.67" y2="99.41"/><line class="cls-5" x1="700.7" y1="113.21" x2="678.21" y2="101.47"/><line class="cls-5" x1="696.45" y1="115.24" x2="672.78" y2="103.99"/><line class="cls-5" x1="668.18" y1="106.12" x2="691.86" y2="117.42"/><line class="cls-5" x1="686.52" y1="119.96" x2="662.9" y2="108.56"/><line class="cls-5" x1="658.45" y1="110.62" x2="681.62" y2="122.3"/><line class="cls-5" x1="676.71" y1="124.63" x2="653.38" y2="112.97"/><line class="cls-5" x1="648.95" y1="115.24" x2="671.91" y2="126.91"/><line class="cls-5" x1="652.02" y1="136.38" x2="628.18" y2="124.63"/><line class="cls-5" x1="623.88" y1="126.62" x2="646.7" y2="138.92"/><line class="cls-5" x1="642.09" y1="141.11" x2="618.73" y2="129.01"/><line class="cls-5" x1="613.29" y1="131.53" x2="636.97" y2="143.55"/><line class="cls-5" x1="631.68" y1="146.06" x2="607.78" y2="134.08"/><line class="cls-5" x1="602.8" y1="136.38" x2="626.08" y2="148.73"/><line class="cls-5" x1="621.48" y1="150.92" x2="597.33" y2="138.92"/><line class="cls-5" x1="592.6" y1="141.11" x2="617.02" y2="153.04"/><line class="cls-5" x1="611.37" y1="155.73" x2="587.32" y2="143.55"/><line class="cls-5" x1="581.89" y1="146.06" x2="605.74" y2="158.41"/><line class="cls-5" x1="600.73" y1="160.8" x2="576.61" y2="148.51"/><line class="cls-5" x1="571.78" y1="150.74" x2="595.94" y2="163.08"/><line class="cls-5" x1="590.28" y1="165.77" x2="566.33" y2="153.27"/><line class="cls-5" x1="561.7" y1="155.41" x2="585.4" y2="168.09"/><line class="cls-5" x1="579.97" y1="170.67" x2="555.69" y2="158.19"/><line class="cls-5" x1="550.8" y1="160.45" x2="574.59" y2="173.23"/><line class="cls-5" x1="568.69" y1="176.04" x2="545.42" y2="163.08"/><line class="cls-5" x1="540.11" y1="165.4" x2="563.71" y2="178.42"/><line class="cls-5" x1="558.44" y1="180.92" x2="534.31" y2="168.09"/><line class="cls-5" x1="528.91" y1="170.59" x2="552.56" y2="183.72"/><line class="cls-5" x1="547.58" y1="186.09" x2="523.46" y2="173.23"/><line class="cls-5" x1="517.77" y1="175.75" x2="541.93" y2="188.78"/><line class="cls-5" x1="536.49" y1="191.37" x2="512" y2="178.42"/><line class="cls-5" x1="506.93" y1="180.76" x2="531.47" y2="193.76"/><line class="cls-5" x1="526.07" y1="196.33" x2="501.7" y2="183.19"/><line class="cls-5" x1="496.09" y1="185.78" x2="520.59" y2="198.94"/><line class="cls-5" x1="514.94" y1="201.63" x2="490.45" y2="188.39"/><line class="cls-5" x1="485.15" y1="190.85" x2="509.14" y2="204.39"/><line class="cls-5" x1="503.04" y1="207.29" x2="479.8" y2="193.32"/><line class="cls-5" x1="474.56" y1="195.75" x2="498.09" y2="209.65"/><line class="cls-5" x1="492.31" y1="212.4" x2="467.99" y2="198.79"/><polyline class="cls-9" points="477.73 216.11 456.68 204.84 456.68 197.27 484.67 212.4"/><polyline class="cls-9" points="497.58 218.97 727.12 112.7 751.33 123.45 520.86 233.14"/><line class="cls-5" x1="501.47" y1="221.44" x2="732.17" y2="114.94"/><line class="cls-5" x1="508.07" y1="224.63" x2="736.41" y2="116.83"/><line class="cls-5" x1="512.86" y1="227.24" x2="741.77" y2="119.21"/><line class="cls-5" x1="516.72" y1="229.68" x2="746.53" y2="121.32"/><polyline class="cls-9" points="751.33 123.45 755.37 122.07 755.37 117.35 730.2 107.18 730.2 111.42 727.12 112.7"/><line class="cls-5" x1="730.2" y1="111.42" x2="755.37" y2="122.07"/><line class="cls-5" x1="722.94" y1="114.94" x2="746.53" y2="125.73"/><line class="cls-5" x1="741.25" y1="128.25" x2="718.39" y2="116.74"/><line class="cls-5" x1="736.41" y1="130.55" x2="713.93" y2="118.81"/><line class="cls-5" x1="732.17" y1="132.57" x2="708.5" y2="121.32"/><line class="cls-5" x1="703.89" y1="123.45" x2="727.58" y2="134.75"/><line class="cls-5" x1="722.23" y1="137.3" x2="698.62" y2="125.89"/><line class="cls-5" x1="694.17" y1="127.96" x2="717.33" y2="139.63"/><line class="cls-5" x1="712.42" y1="141.97" x2="689.09" y2="130.3"/><line class="cls-5" x1="684.67" y1="132.57" x2="707.63" y2="144.25"/><line class="cls-5" x1="687.73" y1="153.72" x2="663.9" y2="141.97"/><line class="cls-5" x1="659.6" y1="143.96" x2="682.41" y2="156.25"/><line class="cls-5" x1="677.81" y1="158.44" x2="654.45" y2="146.34"/><line class="cls-5" x1="649.01" y1="148.86" x2="672.68" y2="160.88"/><line class="cls-5" x1="667.39" y1="163.4" x2="643.49" y2="151.41"/><line class="cls-5" x1="638.51" y1="153.72" x2="661.79" y2="166.07"/><line class="cls-5" x1="657.2" y1="168.25" x2="633.04" y2="156.25"/><line class="cls-5" x1="628.31" y1="158.44" x2="652.73" y2="170.38"/><line class="cls-5" x1="647.08" y1="173.07" x2="623.04" y2="160.88"/><line class="cls-5" x1="617.6" y1="163.4" x2="641.45" y2="175.75"/><line class="cls-5" x1="636.44" y1="178.13" x2="612.32" y2="165.85"/><line class="cls-5" x1="607.5" y1="168.08" x2="631.65" y2="180.41"/><line class="cls-5" x1="626" y1="183.1" x2="602.04" y2="170.6"/><line class="cls-5" x1="597.41" y1="172.75" x2="621.12" y2="185.43"/><line class="cls-5" x1="615.68" y1="188.01" x2="591.4" y2="175.53"/><line class="cls-5" x1="586.52" y1="177.79" x2="610.31" y2="190.57"/><line class="cls-5" x1="604.41" y1="193.38" x2="581.13" y2="180.41"/><line class="cls-5" x1="575.83" y1="182.74" x2="599.42" y2="195.75"/><line class="cls-5" x1="594.15" y1="198.26" x2="570.02" y2="185.43"/><line class="cls-5" x1="564.62" y1="187.93" x2="588.27" y2="201.06"/><line class="cls-5" x1="583.29" y1="203.43" x2="559.18" y2="190.57"/><line class="cls-5" x1="553.48" y1="193.09" x2="577.64" y2="206.12"/><line class="cls-5" x1="572.21" y1="208.71" x2="547.72" y2="195.75"/><line class="cls-5" x1="542.65" y1="198.1" x2="567.19" y2="211.1"/><line class="cls-5" x1="561.79" y1="213.66" x2="537.42" y2="200.52"/><line class="cls-5" x1="531.81" y1="203.12" x2="556.3" y2="216.28"/><line class="cls-5" x1="550.65" y1="218.97" x2="526.16" y2="205.73"/><line class="cls-5" x1="520.86" y1="208.19" x2="544.85" y2="221.73"/><line class="cls-5" x1="538.76" y1="224.63" x2="515.52" y2="210.66"/><line class="cls-5" x1="510.28" y1="213.09" x2="533.8" y2="226.98"/><line class="cls-5" x1="528.03" y1="229.73" x2="503.7" y2="216.13"/><polygon class="cls-9" points="520.39 231.66 492.39 216.53 492.39 224.1 520.39 237.94 520.39 231.66"/><polyline class="cls-5" points="520.39 237.94 522.9 235.77 520.39 235.41"/><polyline class="cls-10" points="693.7 333.77 690.37 335.59 683.2 339.49 680.67 340.88 680.9 348.98 696.09 339.94"/><polyline class="cls-10" points="701.45 336.77 710.87 331.17 710.87 324.4 705.72 327.2 699.33 330.69"/><polyline class="cls-6" points="676.68 343.51 673.29 345.99 680.91 348.98"/><polyline class="cls-10" points="754.91 306.7 754.91 302.07 749.22 305.45 747.12 306.69 746.8 306.88"/><polyline class="cls-10" points="740.33 310.72 740.07 310.87 732.95 315.09 726.57 318.86 723.17 320.88 723.17 326.49 723.17 327.12 723.17 328.74 735.96 320.88"/><polyline class="cls-10" points="723.17 328.74 718.72 326.78 720.61 325.11"/><path class="cls-7" d="M452.27,492.1l55.07-27.09c10.57-4.92,23.33-1.88,30.19,7.2h0c7.93,10.5,5.14,25.15-6.17,32.34l-49.85,32.98"/><ellipse class="cls-7" cx="464.88" cy="517.03" rx="14.55" ry="27.94" transform="translate(-183.33 265.53) rotate(-26.83)"/><path class="cls-11" d="M512.77,516.58c.42-5.29-.42-11.63-2.67-18.1-4.81-13.9-14.37-23.35-21.82-21.92"/><path class="cls-3" d="M524.85,510.14c.37-5.22-.7-11.51-3.34-17.94-5.67-13.83-16.61-23.35-24.97-22.08"/><path class="cls-7" d="M459.07,496.5c-4.37,5.03-4.56,14.31,.02,22.73,4.76,8.77,13.1,13.69,19.84,12.23"/><path class="cls-7" d="M530.35,456.39v-.02c.13-.08,.27-.16,.42-.23,7.77-3.94,18.21,1.03,23.29,11.08,3.85,7.61,3.55,15.95-.19,21.26"/><path class="cls-7" d="M527.52,464.54c.27-3.06,1.24-5.89,2.84-8.14v-.02l31.35-18.35c6.94-.68,14.66,4.15,18.82,12.37,3.85,7.61,3.55,15.95-.19,21.26l-24.68,15.19c-.85,.74-1.35,1.19-1.66,1.45l-.02,.02c-.39,.32-.47,.37-.55,.42-3.58,1.81-7.73,1.74-11.66,.13"/><path class="cls-7" d="M572.64,441.19l5.18-2.92c3.75-2.16,9.24,.32,12.25,5.54,3.02,5.23,2.42,11.22-1.32,13.38l-5.46,4"/><ellipse class="cls-3" cx="546.45" cy="452.72" rx="2.86" ry="1.34"/><ellipse class="cls-7" cx="685.82" cy="477.27" rx="12.9" ry="7.32"/><path class="cls-7" d="M698.72,477.27v4.54c0,4.05-5.78,7.32-12.9,7.32s-12.89-3.27-12.89-7.32v-4.54"/><path class="cls-7" d="M698.25,479.2c.16,.08,.31,.16,.47,.26,3.98,2.11,6.48,5.21,6.48,8.64,0,6.4-8.68,11.61-19.39,11.61s-19.39-5.21-19.39-11.61c0-3.45,2.52-6.55,6.5-8.64,.16-.11,.31-.19,.47-.26"/><ellipse class="cls-7" cx="707.82" cy="491.15" rx="1.2" ry="3.05"/><line class="cls-7" x1="705.2" y1="488.1" x2="708.05" y2="488.1"/><line class="cls-7" x1="702.69" y1="494.21" x2="707.82" y2="494.21"/><path class="cls-7" d="M703.72,514.7c.21,.56,.31,1.13,.31,1.73,0,5.26-8.18,9.53-18.27,9.53s-18.26-4.27-18.26-9.53c0-.6,.1-1.16,.31-1.73"/><line class="cls-7" x1="667.12" y1="491.15" x2="667.8" y2="514.7"/><line class="cls-7" x1="703.72" y1="514.7" x2="703.72" y2="494.21"/><path class="cls-7" d="M705.03,550.73c-2.27,4.84-9.95,8.4-19.08,8.4-7.92,0-14.76-2.68-17.92-6.56l-.23-.48v-18.6c0-4.1,1.58-7.87,4.19-10.81"/><path class="cls-7" d="M705.03,551v-17.52c0-4.34-1.77-8.32-4.69-11.32"/><path class="cls-3" d="M699.88,540.42c.23-.06,.47-.06,.71-.02,1.05,.23,1.65,1.55,1.32,2.94s-1.42,2.32-2.47,2.08c-.47-.11-.84-.42-1.06-.87"/><path class="cls-3" d="M699.88,540.42c-.79,.19-1.5,.98-1.74,2.05-.18,.77-.08,1.53,.24,2.08"/><path class="cls-3" d="M699.45,545.42l-1.79-.85c-1.05-.24-1.63-1.55-1.32-2.94,.32-1.39,1.42-2.32,2.47-2.08l2.38,1.13"/><path class="cls-7" d="M705.02,547.55c1.23,1.31,1.9,2.74,1.9,4.28,0,5.55-9.05,10.08-20.22,10.08s-20.22-4.52-20.22-10.08c0-1.27,.47-2.48,1.32-3.6"/><path class="cls-7" d="M666.19,581.57c0,4.87,9.06,8.84,20.23,8.84s20.23-3.97,20.23-8.84"/><line class="cls-7" x1="706.64" y1="581.56" x2="706.93" y2="551.3"/><path class="cls-7" d="M666.21,581.76c-1.18,1.58-1.82,3.31-1.82,5.14,0,7.11,9.79,12.87,21.89,12.87,8.68,0,16.16-2.97,19.73-7.26"/><path class="cls-3" d="M708.16,586.63c-.05-1.61-.6-3.13-1.56-4.53"/><path class="cls-11" d="M706.78,575.13c0,.58-.18,1.15-.5,1.68-2.03,3.34-10.02,5.82-19.58,5.82s-17.55-2.48-19.58-5.82c-.32-.53-.5-1.1-.5-1.68,0-.48,.13-.97,.35-1.42,.34,.56,.85,1.1,1.52,1.61,3.26,2.5,10.13,4.23,18.08,4.23s15-1.77,18.21-4.34c.69-.55,1.19-1.13,1.52-1.74,.32,.53,.48,1.1,.48,1.66Z"/><path class="cls-11" d="M668.5,575.32c3.26,2.5,10.13,4.23,18.08,4.23s15-1.77,18.21-4.34"/><path class="cls-11" d="M706.28,576.81c.32,.53,.5,1.1,.5,1.68,0,4.15-8.98,7.5-20.08,7.5s-20.08-3.35-20.08-7.5c0-.58,.18-1.15,.5-1.68"/><path class="cls-7" d="M476.47,542.37c4.03-5.68,3.18-17.39-2.63-28.85-6.63-13.13-17.37-21.21-24.56-18.79l-76.65-49.74,27.88-16.41,75.57,50.62"/><polygon class="cls-7" points="611.1 566.43 582.32 585.99 500.4 531.71 527.52 514.11 611.1 566.43"/><polyline class="cls-7" points="500.4 531.71 504.85 514.11 527.52 514.11"/><line class="cls-7" x1="514.84" y1="522.34" x2="504.85" y2="514.11"/><polyline class="cls-7" points="667.8 542.92 649.34 556.36 580.81 511.73 604.45 497.12 668.5 537.53"/><line class="cls-3" x1="666.34" y1="555.03" x2="649.34" y2="556.36"/><polyline class="cls-7" points="660.38 548.32 666.48 551.3 666.19 581.56"/><polygon class="cls-7" points="800.22 622.5 777.37 637.91 702.68 590.4 724.78 575.21 800.22 622.5"/><polyline class="cls-3" points="724.78 575.21 702 575.21 702.68 590.4"/><line class="cls-3" x1="713.99" y1="582.63" x2="702" y2="575.21"/><path class="cls-8" d="M793.29,409.67c-12.7-4.1-28.33,9.08-34.91,29.44-6.58,20.36-1.62,40.2,11.07,44.31l89.3,51.69"/><path class="cls-4" d="M896.53,465.24c-12.7-4.1-28.96,11.04-36.33,33.83-4.37,13.53-4.63,26.71-1.46,36.04"/><polyline class="cls-8" points="793.29 409.67 897.17 465.44 954.47 496.58"/><path class="cls-4" d="M834.64,431.67c-10.98-5.76-27.94,4.95-37.89,23.92-9.95,18.97-9.11,39.01,1.87,44.77"/><path class="cls-4" d="M865.37,448.9c-10.98-5.76-27.94,4.95-37.89,23.92-2.03,3.87-3.61,7.78-4.74,11.61l-1.23-.75c-2.78-1.69-6.41-.5-7.65,2.51h0c-.95,2.31-.16,4.97,1.89,6.38l4.88,3.36c-.64,10.05,2.31,18.29,8.73,21.66"/><ellipse class="cls-4" cx="817.7" cy="456.47" rx="6.03" ry="4.81" transform="translate(13.54 936.38) rotate(-60)"/><path class="cls-4" d="M795.27,416.36l2.4,1.34c.83,.46,.84,1.65,.02,2.13l-3.82,2.22c-.37,.21-.82,.22-1.19,.02l-2.43-1.29c-.84-.45-.87-1.65-.05-2.14l3.84-2.26c.37-.22,.84-.23,1.22-.01Z"/><path class="cls-4" d="M784.85,455.53l4.93,2.79c.43,.25,.61,.78,.41,1.24l-1.68,3.75c-.24,.53-.89,.74-1.39,.43l-4.78-2.92c-.41-.25-.57-.76-.39-1.21l1.53-3.62c.23-.53,.87-.75,1.37-.47Z"/><polyline class="cls-4" points="783.75 455.17 785.73 454.35 792 457.9 790.27 458.76"/><path class="cls-4" d="M787.66,463.88l.45,1.44c.25,.09,.6,.22,.71-.02l3.55-7.57"/><line class="cls-8" x1="858.75" y1="535.12" x2="909.54" y2="566.02"/><path class="cls-4" d="M880.81,487.42l36.48,21.85-24.66,16.19c-1.17,.77-2.68,.77-3.85,0l-27.83-18.12c-2.08-1.36-2.14-4.38-.11-5.81l19.97-14.11Z"/><path class="cls-4" d="M886.27,490.69l23.86-15.76-2-.75c-3.66-1.36-7.73-.99-11.08,1.03l-7.94,4.78c-2.66,1.6-4.64,4.11-5.58,7.06l-.53,1.67"/><path class="cls-4" d="M955.47,497.31c-13.6-3.03-31.02,7.77-41.27,26.56-8.18,15-9.61,31.1-4.81,41.95"/><line class="cls-8" x1="932.62" y1="484.7" x2="932.6" y2="484.7"/><line class="cls-8" x1="894.49" y1="524.25" x2="894.49" y2="524.23"/><path class="cls-8" d="M926.52,563.32c-5.86,2.73-11.79,3.68-17.13,2.5"/><path class="cls-8" d="M955.47,497.31c2.2,4.99,3.09,11.08,2.61,17.65"/><path class="cls-8" d="M982.25,580.01l-55.84-16.65c-2.36-7.37-1.11-17.81,4.01-27.84,7.84-15.36,21.78-23.94,31.15-19.16l39.63,32.58"/><path class="cls-4" d="M1000.21,548.52c-7.13-.44-14.76,5.82-18.02,15.34-2,5.82-1.95,11.68-.26,16.27l1.88,3.83"/><polygon class="cls-4" points="877.57 539.08 884.93 543.15 882.98 545.47 875.53 540.96 877.57 539.08"/><polyline class="cls-4" points="882.98 545.47 883.01 547.96 875.16 543.22 875.16 540.95"/><polyline class="cls-4" points="884.93 543.15 884.93 547.28 883.44 548.4"/><polygon class="cls-4" points="888.35 545.47 895.7 549.54 893.76 551.85 886.31 547.34 888.35 545.47"/><polyline class="cls-4" points="893.76 551.85 893.78 554.34 885.93 549.6 885.93 547.33"/><polyline class="cls-4" points="895.7 549.54 895.7 553.67 894.22 554.78"/><g><path class="cls-4" d="M933.25,541.62c-.08-.06-.18-.1-.27-.1-.47,0-.84,.77-.84,1.73s.37,1.74,.84,1.74"/><ellipse class="cls-4" cx="966.46" cy="555.3" rx=".84" ry="1.73"/><line class="cls-4" x1="932.97" y1="541.52" x2="966.46" y2="553.57"/><line class="cls-4" x1="966.46" y1="557.04" x2="932.97" y2="544.98"/></g><g><path class="cls-4" d="M933.24,555.66c-.08-.06-.18-.1-.27-.1-.47,0-.84,.77-.84,1.73s.37,1.74,.84,1.74"/><ellipse class="cls-4" cx="966.46" cy="569.35" rx=".84" ry="1.73"/><line class="cls-4" x1="932.97" y1="555.56" x2="966.46" y2="567.61"/><line class="cls-4" x1="966.46" y1="571.08" x2="932.97" y2="559.03"/></g><g><polyline class="cls-4" points="935.62 556.51 935.41 545.86 962.34 566.32"/><line class="cls-4" x1="932.98" y1="555.62" x2="932.97" y2="544.99"/></g><g><line class="cls-4" x1="965.41" y1="556.66" x2="965.59" y2="567.14"/><polyline class="cls-4" points="962.34 566.32 962.34 555.3 935.62 556.51"/></g><line class="cls-4" x1="961.17" y1="516" x2="966.9" y2="503.48"/><line class="cls-4" x1="963.24" y1="516.83" x2="968.97" y2="504.31"/><ellipse class="cls-4" cx="970.17" cy="498.83" rx="5.5" ry="10.01" transform="translate(133.23 1198.55) rotate(-67.11)"/><path class="cls-4" d="M968.03,503.9l3.37-6.59s-.53-1.63-11.04-.51"/><path class="cls-4" d="M978.94,503.79s-2.56-4.43-7.54-6.47c0,0,.23-2.01,3.77-2.02"/><path class="cls-4" d="M1000.21,548.52c.74,.5,1.43,1.08,2.05,1.74l-14.59,9.57,15.62,9.52,12.13-9.52"/><path class="cls-8" d="M1015.42,559.83l-13.16-9.57,13.16,9.57Z"/><polyline class="cls-8" points="1012.79 561.9 1024.98 567.61 1024.98 571.08 1022.47 572.61 1015.42 576.92 1015.42 572.51 1004.9 568.09"/><polyline class="cls-8" points="1024.98 571.08 1022.96 585.93 1013.59 590.52 1015.42 576.92"/><polyline class="cls-8" points="1013.59 590.52 1002.26 588.68 996.86 593.28 987.67 587.58"/><path class="cls-8" d="M991.35,574.71l-.88,.88c-1.38,1.38-1.01,3.71,.73,4.6l2.58,1.32c1.25,.64,2.78,.28,3.62-.84l1.49-2-7.53-3.95Z"/><line class="cls-8" x1="967.31" y1="595.92" x2="990.24" y2="579.3"/><line class="cls-8" x1="971.32" y1="598.74" x2="994.25" y2="582.12"/><polygon class="cls-8" points="963.24 594.61 972.35 600.65 947.52 617.77 938.63 611.73 963.24 594.61"/><path class="cls-8" d="M1019.02,564.82l22.21-17.25c1.12-.87,1.11-2.55,0-3.41h0c-.77-.59-1.85-.6-2.62,0l-23.18,17.74"/><path class="cls-8" d="M1038.6,544.16l-.51-2.07c-.26-1.05,.85-1.91,1.8-1.39l6.22,3.38c.78,.43,.88,1.52,.18,2.07l-5.22,4.11-1.02-1.76"/><polyline class="cls-8" points="1046.75 545.03 1068.91 528.97 1060.19 523.92 1038.59 540.55"/><polygon class="cls-8" points="897.44 585.99 938.63 611.73 938.63 616.43 932.97 619.99 891.41 595.92 897.71 593.28 897.44 585.99"/><line class="cls-8" x1="580.35" y1="815.14" x2="891.41" y2="595.92"/><polyline class="cls-8" points="932.97 619.99 620.32 844.06 617.11 841.77 574.57 811.45 574.57 824.08 616.11 854.05 625.15 849.74 617.43 847"/><line class="cls-4" x1="617.11" y1="841.77" x2="616.11" y2="854.05"/><line class="cls-4" x1="588.65" y1="821.49" x2="899.77" y2="600.77"/><line class="cls-4" x1="907.06" y1="604.99" x2="597.92" y2="828.09"/><line class="cls-4" x1="605.94" y1="833.81" x2="915.02" y2="609.6"/><line class="cls-4" x1="925.27" y1="615.54" x2="612.92" y2="838.79"/><polyline class="cls-8" points="897.71 593.28 938.63 616.43 952.54 627.12 993.45 650.27"/><line class="cls-4" x1="885.96" y1="599.76" x2="926.35" y2="624.74"/><line class="cls-4" x1="879.72" y1="604.85" x2="919.72" y2="629.49"/><line class="cls-4" x1="913.32" y1="634.07" x2="873.37" y2="608.64"/><line class="cls-4" x1="867.16" y1="613.01" x2="907.65" y2="638.14"/><line class="cls-4" x1="900.24" y1="643.45" x2="859.96" y2="618.09"/><line class="cls-4" x1="853.99" y1="622.29" x2="894.31" y2="647.7"/><line class="cls-4" x1="887.41" y1="652.65" x2="846.8" y2="627.36"/><line class="cls-4" x1="841.32" y1="631.22" x2="881.44" y2="656.92"/><line class="cls-4" x1="874.15" y1="662.14" x2="834.04" y2="636.35"/><line class="cls-4" x1="867.74" y1="666.74" x2="827.68" y2="640.83"/><line class="cls-4" x1="819.88" y1="646.33" x2="861.38" y2="671.3"/><line class="cls-4" x1="854.1" y1="676.52" x2="814.05" y2="650.44"/><line class="cls-4" x1="807.31" y1="655.19" x2="847.71" y2="681.09"/><line class="cls-4" x1="840.63" y1="686.17" x2="800.22" y2="660.19"/><line class="cls-4" x1="793.61" y1="664.85" x2="834.04" y2="690.89"/><line class="cls-4" x1="826.58" y1="696.24" x2="787.23" y2="669.34"/><line class="cls-4" x1="780.21" y1="674.29" x2="819.88" y2="701.04"/><line class="cls-4" x1="812.85" y1="706.08" x2="773.19" y2="679.24"/><line class="cls-4" x1="766.23" y1="684.14" x2="805.8" y2="711.13"/><line class="cls-4" x1="799.18" y1="715.88" x2="759.04" y2="689.21"/><line class="cls-4" x1="751.88" y1="694.25" x2="791.92" y2="721.08"/><line class="cls-4" x1="784.84" y1="726.15" x2="745.23" y2="698.94"/><line class="cls-4" x1="738.67" y1="703.57" x2="778.15" y2="730.95"/><line class="cls-4" x1="770.94" y1="736.12" x2="731.33" y2="708.74"/><line class="cls-4" x1="724.38" y1="713.63" x2="763.34" y2="741.56"/><line class="cls-4" x1="755.95" y1="746.86" x2="716.6" y2="719.12"/><line class="cls-4" x1="709.04" y1="724.44" x2="748.88" y2="751.93"/><line class="cls-4" x1="740.59" y1="757.86" x2="701.88" y2="729.49"/><line class="cls-4" x1="694.79" y1="734.49" x2="733.9" y2="762.66"/><line class="cls-4" x1="688.01" y1="739.28" x2="727.13" y2="767.45"/><line class="cls-4" x1="681.14" y1="745.43" x2="720.25" y2="773.6"/><line class="cls-4" x1="650.79" y1="766.44" x2="689.91" y2="794.61"/><line class="cls-4" x1="642.66" y1="772.12" x2="681.77" y2="800.29"/><line class="cls-4" x1="635.29" y1="777.64" x2="674.41" y2="805.81"/><line class="cls-4" x1="627.18" y1="782.83" x2="666.3" y2="811"/><line class="cls-4" x1="619.05" y1="788.2" x2="658.17" y2="816.37"/><line class="cls-4" x1="610.92" y1="793.32" x2="650.03" y2="821.49"/><line class="cls-4" x1="604.44" y1="798.95" x2="643.55" y2="827.12"/><line class="cls-4" x1="596.56" y1="804.79" x2="635.67" y2="832.95"/><line class="cls-4" x1="588.07" y1="811" x2="627.18" y2="839.17"/><polygon class="cls-8" points="952.26 619.83 993.45 645.57 993.45 650.27 987.79 653.84 946.23 629.77 952.54 627.12 952.26 619.83"/><line class="cls-8" x1="635.18" y1="848.98" x2="946.23" y2="629.77"/><polyline class="cls-8" points="987.79 653.84 675.15 877.9 671.94 875.62 629.39 845.3 629.39 857.92 670.94 887.9 679.97 883.58 672.26 880.84"/><line class="cls-4" x1="671.94" y1="875.62" x2="670.94" y2="887.9"/><line class="cls-4" x1="643.47" y1="855.33" x2="954.6" y2="634.61"/><line class="cls-4" x1="961.88" y1="638.83" x2="652.74" y2="861.94"/><line class="cls-4" x1="660.76" y1="867.65" x2="969.84" y2="643.44"/><line class="cls-4" x1="980.1" y1="649.38" x2="667.75" y2="872.63"/><line class="cls-4" x1="940.79" y1="633.6" x2="981.17" y2="658.58"/><line class="cls-4" x1="934.55" y1="638.7" x2="974.54" y2="663.33"/><line class="cls-4" x1="968.14" y1="667.92" x2="928.19" y2="642.48"/><line class="cls-4" x1="921.99" y1="646.85" x2="962.47" y2="671.98"/><line class="cls-4" x1="955.06" y1="677.29" x2="914.78" y2="651.93"/><line class="cls-4" x1="908.82" y1="656.13" x2="949.14" y2="681.54"/><line class="cls-4" x1="942.23" y1="686.49" x2="901.62" y2="661.2"/><line class="cls-4" x1="896.14" y1="665.07" x2="936.27" y2="690.76"/><line class="cls-4" x1="928.98" y1="695.99" x2="888.87" y2="670.19"/><line class="cls-4" x1="922.57" y1="700.58" x2="882.51" y2="674.68"/><line class="cls-4" x1="874.7" y1="680.18" x2="916.21" y2="705.14"/><line class="cls-4" x1="908.92" y1="710.36" x2="868.88" y2="684.28"/><line class="cls-4" x1="862.14" y1="689.03" x2="902.54" y2="714.94"/><line class="cls-4" x1="895.45" y1="720.01" x2="855.04" y2="694.03"/><line class="cls-4" x1="848.43" y1="698.69" x2="888.87" y2="724.73"/><line class="cls-4" x1="881.4" y1="730.08" x2="842.06" y2="703.18"/><line class="cls-4" x1="835.04" y1="708.13" x2="874.7" y2="734.89"/><line class="cls-4" x1="867.67" y1="739.92" x2="828.01" y2="713.08"/><line class="cls-4" x1="821.06" y1="717.98" x2="860.63" y2="744.97"/><line class="cls-4" x1="854.01" y1="749.72" x2="813.86" y2="723.05"/><line class="cls-4" x1="806.71" y1="728.1" x2="846.75" y2="754.92"/><line class="cls-4" x1="839.66" y1="760" x2="800.06" y2="732.78"/><line class="cls-4" x1="793.49" y1="737.41" x2="832.98" y2="764.79"/><line class="cls-4" x1="825.76" y1="769.96" x2="786.15" y2="742.58"/><line class="cls-4" x1="779.21" y1="747.47" x2="818.16" y2="775.41"/><line class="cls-4" x1="810.78" y1="780.7" x2="771.42" y2="752.96"/><line class="cls-4" x1="763.87" y1="758.29" x2="803.7" y2="785.77"/><line class="cls-4" x1="795.42" y1="791.71" x2="756.7" y2="763.33"/><line class="cls-4" x1="749.61" y1="768.33" x2="788.73" y2="796.5"/><line class="cls-4" x1="742.84" y1="773.13" x2="781.95" y2="801.29"/><line class="cls-4" x1="735.96" y1="779.27" x2="775.08" y2="807.44"/><line class="cls-4" x1="705.62" y1="800.28" x2="744.73" y2="828.45"/><line class="cls-4" x1="697.48" y1="805.96" x2="736.6" y2="834.13"/><line class="cls-4" x1="690.12" y1="811.48" x2="729.23" y2="839.65"/><line class="cls-4" x1="682.01" y1="816.67" x2="721.12" y2="844.84"/><line class="cls-4" x1="673.88" y1="822.04" x2="712.99" y2="850.21"/><line class="cls-4" x1="665.74" y1="827.16" x2="704.86" y2="855.33"/><line class="cls-4" x1="659.26" y1="832.8" x2="698.38" y2="860.97"/><line class="cls-4" x1="651.38" y1="838.63" x2="690.5" y2="866.8"/><line class="cls-4" x1="642.89" y1="844.84" x2="682.01" y2="873.01"/><line class="cls-4" x1="947.52" y1="617.77" x2="952.26" y2="619.83"/><polyline class="cls-8" points="1280.58 365.75 1285.4 362.69 1286.69 357.17 1246.78 339.49 1246.78 346.3 1243.44 349.33"/><polyline class="cls-8" points="1023.34 504.1 1243.44 349.33 1250.89 352.62 1280.58 365.75 1060.19 523.92 1015.42 500.55 1015.42 511.58 1051.14 530.89"/><line class="cls-4" x1="1029.77" y1="508.04" x2="1250.89" y2="352.62"/><line class="cls-4" x1="1257.84" y1="355.69" x2="1038.59" y2="512.64"/><line class="cls-4" x1="1045.02" y1="516" x2="1265.07" y2="358.89"/><line class="cls-4" x1="1272.32" y1="362.1" x2="1053.75" y2="520.56"/><line class="cls-4" x1="1236.56" y1="354.17" x2="1273.15" y2="371.08"/><line class="cls-4" x1="1226.91" y1="361.17" x2="1263.5" y2="378.08"/><line class="cls-4" x1="1222.07" y1="364.33" x2="1258.67" y2="381.25"/><line class="cls-4" x1="1218.26" y1="367.5" x2="1254.86" y2="384.41"/><line class="cls-4" x1="1213.34" y1="371.08" x2="1249.94" y2="388"/><line class="cls-4" x1="1207.66" y1="374.9" x2="1244.25" y2="391.82"/><line class="cls-4" x1="1203.78" y1="377.63" x2="1240.37" y2="394.55"/><line class="cls-4" x1="1198.09" y1="381.45" x2="1234.69" y2="398.37"/><line class="cls-4" x1="1188.32" y1="388" x2="1224.92" y2="404.92"/><line class="cls-4" x1="1182.63" y1="391.82" x2="1219.23" y2="408.73"/><line class="cls-4" x1="1179.79" y1="394.55" x2="1216.39" y2="411.46"/><line class="cls-4" x1="1174.1" y1="398.37" x2="1210.7" y2="415.28"/><line class="cls-4" x1="1168.6" y1="402.31" x2="1205.2" y2="419.22"/><line class="cls-4" x1="1165.76" y1="405.04" x2="1202.35" y2="421.95"/><line class="cls-4" x1="1160.07" y1="408.86" x2="1196.67" y2="425.77"/><line class="cls-4" x1="1154.04" y1="412.61" x2="1190.64" y2="429.52"/><line class="cls-4" x1="1147.46" y1="416.27" x2="1185.25" y2="434.17"/><line class="cls-4" x1="1145.06" y1="419.1" x2="1180.34" y2="437.03"/><line class="cls-4" x1="1139.22" y1="422.77" x2="1175.28" y2="441.33"/><line class="cls-4" x1="1134.65" y1="426.33" x2="1169.92" y2="444.26"/><line class="cls-4" x1="1128.8" y1="430" x2="1164.86" y2="448.56"/><line class="cls-4" x1="1124.01" y1="433.6" x2="1160.07" y2="452.17"/><line class="cls-4" x1="1119.47" y1="436.9" x2="1155.52" y2="455.46"/><line class="cls-4" x1="1113.49" y1="441.33" x2="1149.55" y2="459.89"/><line class="cls-4" x1="1107.97" y1="444.81" x2="1144.02" y2="463.38"/><line class="cls-4" x1="1102.92" y1="449.03" x2="1138.97" y2="467.59"/><line class="cls-4" x1="1097.89" y1="452.17" x2="1133.94" y2="470.73"/><line class="cls-4" x1="1092.75" y1="455.46" x2="1128.8" y2="474.03"/><line class="cls-4" x1="1087.53" y1="459.33" x2="1123.59" y2="477.89"/><line class="cls-4" x1="1082.41" y1="462.81" x2="1118.46" y2="481.37"/><line class="cls-4" x1="1076.32" y1="466.86" x2="1112.37" y2="485.43"/><line class="cls-4" x1="1071.38" y1="471.23" x2="1107.44" y2="489.79"/><line class="cls-4" x1="1065.29" y1="475.28" x2="1101.35" y2="493.84"/><line class="cls-4" x1="1059.84" y1="479.44" x2="1095.9" y2="498"/><line class="cls-4" x1="1053.75" y1="483.49" x2="1089.8" y2="502.05"/><line class="cls-4" x1="1049.92" y1="486.69" x2="1085.98" y2="505.25"/><line class="cls-4" x1="1043.83" y1="490.75" x2="1079.89" y2="509.31"/><line class="cls-4" x1="1038.77" y1="493.94" x2="1074.82" y2="512.5"/><line class="cls-4" x1="1032.68" y1="498" x2="1068.73" y2="516.56"/><line class="cls-4" x1="1027.75" y1="502.05" x2="1063.8" y2="520.62"/><line class="cls-4" x1="1231.64" y1="357.99" x2="1268.24" y2="374.9"/><polyline class="cls-8" points="1331.34 388.48 1336.07 385.29 1337.22 379.74 1296.83 363.15 1297.01 369.97 1293.77 373.08"/><line class="cls-4" x1="1084.54" y1="537.61" x2="1301.3" y2="376.17"/><line class="cls-4" x1="1308.33" y1="379.05" x2="1093.48" y2="541.96"/><line class="cls-4" x1="1099.99" y1="545.14" x2="1315.65" y2="382.05"/><line class="cls-4" x1="1322.98" y1="385.05" x2="1108.85" y2="549.46"/><line class="cls-4" x1="1287.02" y1="378.11" x2="1324.06" y2="394.01"/><line class="cls-4" x1="1277.56" y1="385.37" x2="1314.61" y2="401.27"/><line class="cls-4" x1="1272.82" y1="388.67" x2="1309.87" y2="404.57"/><line class="cls-4" x1="1269.09" y1="391.94" x2="1306.14" y2="407.84"/><line class="cls-4" x1="1264.28" y1="395.66" x2="1301.32" y2="411.56"/><line class="cls-4" x1="1258.7" y1="399.63" x2="1295.74" y2="415.53"/><line class="cls-4" x1="1254.89" y1="402.47" x2="1291.94" y2="418.37"/><line class="cls-4" x1="1249.31" y1="406.44" x2="1286.36" y2="422.34"/><line class="cls-4" x1="1239.73" y1="413.25" x2="1276.78" y2="429.16"/><line class="cls-4" x1="1234.15" y1="417.23" x2="1271.2" y2="433.13"/><line class="cls-4" x1="1231.38" y1="420.03" x2="1268.43" y2="435.94"/><line class="cls-4" x1="1225.8" y1="424.01" x2="1262.85" y2="439.91"/><line class="cls-4" x1="1220.41" y1="428.1" x2="1257.46" y2="444"/><line class="cls-4" x1="1217.64" y1="430.91" x2="1254.69" y2="446.81"/><line class="cls-4" x1="1212.06" y1="434.88" x2="1249.11" y2="450.78"/><line class="cls-4" x1="1206.14" y1="438.79" x2="1243.19" y2="454.7"/><line class="cls-4" x1="1199.66" y1="442.64" x2="1237.93" y2="459.49"/><line class="cls-4" x1="1197.34" y1="445.53" x2="1233.09" y2="462.48"/><line class="cls-4" x1="1191.6" y1="449.36" x2="1228.15" y2="466.92"/><line class="cls-4" x1="1187.13" y1="453.05" x2="1222.88" y2="470"/><line class="cls-4" x1="1181.39" y1="456.87" x2="1217.94" y2="474.43"/><line class="cls-4" x1="1176.7" y1="460.61" x2="1213.25" y2="478.17"/><line class="cls-4" x1="1172.24" y1="464.03" x2="1208.79" y2="481.59"/><line class="cls-4" x1="1166.39" y1="468.62" x2="1202.94" y2="486.18"/><line class="cls-4" x1="1160.97" y1="472.26" x2="1197.52" y2="489.82"/><line class="cls-4" x1="1156.03" y1="476.61" x2="1192.58" y2="494.17"/><line class="cls-4" x1="1151.09" y1="479.88" x2="1187.64" y2="497.44"/><line class="cls-4" x1="1146.05" y1="483.32" x2="1182.6" y2="500.88"/><line class="cls-4" x1="1140.94" y1="487.32" x2="1177.49" y2="504.89"/><line class="cls-4" x1="1135.91" y1="490.94" x2="1172.46" y2="508.51"/><line class="cls-4" x1="1129.93" y1="495.17" x2="1166.49" y2="512.73"/><line class="cls-4" x1="1125.12" y1="499.66" x2="1161.67" y2="517.23"/><line class="cls-4" x1="1119.14" y1="503.88" x2="1155.7" y2="521.45"/><line class="cls-4" x1="1113.81" y1="508.19" x2="1150.36" y2="525.75"/><line class="cls-4" x1="1107.83" y1="512.41" x2="1144.38" y2="529.97"/><line class="cls-4" x1="1104.09" y1="515.71" x2="1140.65" y2="533.27"/><line class="cls-4" x1="1098.12" y1="519.93" x2="1134.67" y2="537.5"/><line class="cls-4" x1="1093.14" y1="523.27" x2="1129.69" y2="540.83"/><line class="cls-4" x1="1087.17" y1="527.49" x2="1123.72" y2="545.05"/><line class="cls-4" x1="1082.35" y1="531.68" x2="1118.9" y2="549.24"/><line class="cls-4" x1="1282.21" y1="382.06" x2="1319.26" y2="397.96"/><polyline class="cls-8" points="1115.38 552.64 1115.38 561.9 1106.53 559.86 1070.29 541.54 1069.99 530.51 1115.38 552.64 1331.34 388.48 1301.3 376.17 1293.77 373.08 1078 533.84"/><line class="cls-4" x1="1246.78" y1="346.3" x2="1285.4" y2="362.69"/><line class="cls-4" x1="1297.01" y1="369.97" x2="1336.07" y2="385.29"/><polyline class="cls-2" points="369.5 207.09 351.7 168.25 208.98 168.25"/><polyline class="cls-8" points="1152.84 351.55 1170.63 312.71 1313.35 312.71"/><polyline class="cls-10" points="856.94 248.52 843.77 225.95 711.67 225.95"/></svg>