<?xml version="1.0" encoding="UTF-8"?><svg id="Capa_1" xmlns="http://www.w3.org/2000/svg" viewBox="0 0 1079.52 1249.47"><defs><style>.cls-1{letter-spacing:-.02em;}.cls-2{stroke-dasharray:0 1.74;stroke-width:.43px;}.cls-2,.cls-3,.cls-4,.cls-5,.cls-6,.cls-7,.cls-8,.cls-9,.cls-10,.cls-11,.cls-12{fill:none;stroke-miterlimit:10;}.cls-2,.cls-5,.cls-9{stroke:#fff;}.cls-3,.cls-4{stroke-linecap:round;}.cls-3,.cls-4,.cls-9,.cls-10,.cls-11,.cls-12{stroke-width:1.74px;}.cls-3,.cls-7,.cls-10{stroke:#cad4b8;}.cls-4,.cls-8,.cls-11{stroke:#bd955f;}.cls-13,.cls-14,.cls-15{font-family:Helvetica, Helvetica;font-size:19.13px;}.cls-13,.cls-16{fill:#d2a59e;}.cls-14,.cls-17{fill:#cad4b8;}.cls-15,.cls-18{fill:#bd955f;}.cls-5,.cls-6,.cls-7,.cls-8{stroke-width:.87px;}.cls-6,.cls-12{stroke:#d2a59e;}.cls-17,.cls-18,.cls-16{font-family:Helvetica-Bold, Helvetica;font-size:24.35px;font-weight:700;}</style></defs><rect width="1079.52" height="1249.47"/><polyline class="cls-12" points="858.6 150.53 839.41 108.65 685.51 108.65"/><polyline class="cls-3" points="213.39 752.08 194.2 710.2 40.3 710.2"/><text class="cls-17" transform="translate(40.16 665.91)"><tspan class="cls-1" x="0" y="0">W</tspan><tspan x="22.55" y="0">entian</tspan></text><text class="cls-14" transform="translate(39.21 692.34)"><tspan x="0" y="0">Laboratorio</tspan></text><text class="cls-16" transform="translate(686.3 70.58)"><tspan x="0" y="0">Mengtian</tspan></text><text class="cls-13" transform="translate(684.62 97.06)"><tspan x="0" y="0">Laboratorio</tspan></text><path class="cls-9" d="M565.12,330.71l.4-4.29,8.03-49.14,.39-1.56c7.67-12.97,25.39-16.67,39.57-8.28,8.32,4.93,13.58,12.93,14.95,21.32l-4.18,42.29-1.27,6.83"/><path class="cls-9" d="M611.13,316.46c7.12,5.35,11.19,13.24,11.87,21.43-.95,3.03-2.44,5.93-4.46,8.62-9.78,13.01-28.39,15.56-41.55,5.66-7.13-5.36-11.19-13.27-11.87-21.46,.96-3.02,2.45-5.92,4.46-8.59,9.79-13.03,28.4-15.55,41.55-5.66Z"/><path class="cls-9" d="M611.13,316.46c7.12,5.35,11.19,13.24,11.87,21.43-.95,3.03-2.44,5.93-4.46,8.62-9.78,13.01-28.39,15.56-41.55,5.66-7.13-5.36-11.19-13.27-11.87-21.46,.96-3.02,2.45-5.92,4.46-8.59,9.79-13.03,28.4-15.55,41.55-5.66Z"/><path class="cls-9" d="M605.51,347.14c.32,.91,.39,1.88,.25,2.85-.69,4.68-6.54,7.66-13.08,6.68-6.52-.96-11.26-5.55-10.56-10.2,.05-.29,.12-.59,.19-.88"/><path class="cls-9" d="M605.71,346.26c-.05,.29-.12,.59-.2,.87-1.09-3.56-5.13-6.58-10.31-7.36-6.09-.93-11.62,1.65-12.89,5.8-.29-.92-.37-1.89-.23-2.85,.68-4.67,6.54-7.66,13.08-6.68,6.52,.96,11.26,5.55,10.55,10.22Z"/><path class="cls-5" d="M576.01,325.8l6.99-4.79,.9-.62,3.67,9.04-7.51,5.07s-5.26-.87-4.05-8.71Z"/><polygon class="cls-5" points="609.95 326.02 612.07 323.21 616.22 326.33 615.58 330.25 609.95 326.02"/><path class="cls-5" d="M623.97,277.4l-.2-12.06c-3.79-5.59-10.14-9.88-17.86-11.34-11.23-2.12-21.96,2.4-27.02,10.53l-3.94,9.6"/><path class="cls-5" d="M623.76,265.34l1.97-10.85c-3.79-5.59-10.14-9.88-17.86-11.34-11.23-2.12-21.96,2.4-27.02,10.53l-1.97,10.85"/><path class="cls-9" d="M580.76,253.67l4.11-31.41c4.89-8.12,15.17-12.68,25.89-10.66,7.36,1.39,13.4,5.6,16.98,11.13l-2.01,31.77"/><polygon class="cls-9" points="571.77 288.12 510.21 321.38 515.45 282.93 578.89 247.99 571.77 288.12"/><polygon class="cls-9" points="702.29 214.93 632.76 252.5 638 214.05 704.56 177.39 702.29 214.93"/><polyline class="cls-9" points="634.55 235.71 626.72 238.7 621.53 240.68"/><polyline class="cls-9" points="632.76 252.5 626.72 238.7 638 214.05"/><line class="cls-9" x1="529.86" y1="310.76" x2="535.23" y2="272.04"/><line class="cls-9" x1="550.68" y1="299.69" x2="556.05" y2="260.96"/><line class="cls-9" x1="655.8" y1="240.51" x2="659.65" y2="202.32"/><line class="cls-9" x1="678.61" y1="227.78" x2="682.46" y2="189.6"/><path class="cls-11" d="M616.49,444.88l.15-1.21c.84-4.09,.28-8.25-1.43-12.17"/><polyline class="cls-11" points="615.72 451.05 614.96 457.13 614.27 462.65"/><path class="cls-11" d="M538.37,459.04l4.94-30.47c2.94-14.24,21.73-22.42,41.98-18.27,13.11,2.7,23.64,9.92,28.61,18.55"/><path class="cls-11" d="M614.71,493.65l1.8-16.25c3.15-15.33-11.92-31.35-33.66-35.83-21.73-4.46-41.9,4.33-45.06,19.65l-8.81,67.55-.13,.99v.02"/><path class="cls-8" d="M536.82,486.52c7.61-9.68,23.79-14.41,40.93-10.88,10.02,2.06,18.63,6.58,24.68,12.36"/><path class="cls-11" d="M610.66,429.09l23.05-1.65,2.3-3.65c.25-.4,.83-.4,1.08,0l.03,5.89-25.54,2.12s-1.64-.15-.92-2.71Z"/><path class="cls-11" d="M614.97,457.13l4.79-3.83,.56-4.86-4.63-4.29c-.54-.5-1.41-.2-1.53,.52l-.67,3.9c-.05,.32,.06,.65,.31,.86l4.01,3.38"/><path class="cls-8" d="M568.44,447.19l-.47-1.2c-.54-.18-1.11,.19-1.17,.76l-1.39,13.28c-.03,.32,.15,.62,.44,.74l1.37-.95"/><path class="cls-8" d="M561.75,466.91l-.47-1.2c-.54-.18-1.11,.19-1.17,.76l-1.39,13.28c-.03,.32,.15,.62,.44,.74l1.37-.95"/><path class="cls-8" d="M564.02,483.71l-.47-1.2c-.54-.18-1.11,.19-1.17,.76l-1.39,13.28c-.03,.32,.15,.62,.44,.74l1.37-.95"/><path class="cls-8" d="M570.45,533.39l-.47-1.2c-.54-.18-1.11,.19-1.17,.76l-1.39,13.28c-.03,.32,.15,.62,.44,.74l1.37-.95"/><path class="cls-8" d="M568.94,549.24l-.47-1.2c-.54-.18-1.11,.19-1.17,.76l-1.39,13.28c-.03,.32,.15,.62,.44,.74l1.37-.95"/><path class="cls-6" d="M667.87,590.14l.82-.99c-.1-.56-.7-.89-1.23-.66l-12.31,5.16c-.29,.12-.47,.43-.44,.74l1.49,.75"/><path class="cls-6" d="M686.91,581.36l.82-.99c-.1-.56-.7-.89-1.23-.66l-12.31,5.16c-.29,.12-.47,.43-.44,.74l1.49,.75"/><path class="cls-6" d="M648.42,587.04l-.95-.87c-.57,.08-.92,.66-.72,1.2l4.56,12.55c.11,.3,.4,.49,.72,.48l.82-1.45"/><path class="cls-6" d="M646.24,567.27l-.53-1.18c-.55-.15-1.1,.24-1.14,.81l-.79,13.33c-.02,.32,.17,.61,.47,.72l1.33-1.01"/><path class="cls-7" d="M363.12,706.28l.71-.82c-.14-.44-.73-.68-1.21-.49l-11.27,4.54c-.27,.11-.42,.35-.37,.61l1.46,.54"/><path class="cls-7" d="M391.61,693.42l.71-.82c-.14-.44-.73-.68-1.21-.49l-11.27,4.54c-.27,.11-.42,.35-.37,.61l1.46,.54"/><path class="cls-7" d="M414.22,683.51l.71-.82c-.14-.44-.73-.68-1.21-.49l-11.27,4.54c-.27,.11-.42,.35-.37,.61l1.46,.54"/><path class="cls-7" d="M425.57,711.71l.71-.82c-.14-.44-.73-.68-1.21-.49l-11.27,4.54c-.27,.11-.42,.35-.37,.61l1.46,.54"/><path class="cls-7" d="M405.91,720.5l.71-.82c-.14-.44-.73-.68-1.21-.49l-11.27,4.54c-.27,.11-.42,.35-.37,.61l1.46,.54"/><path class="cls-7" d="M374.17,733.66l.71-.82c-.14-.44-.73-.68-1.21-.49l-11.27,4.54c-.27,.11-.42,.35-.37,.61l1.46,.54"/><path class="cls-8" d="M585.28,464.01l1.25-.32c.25-.52-.05-1.13-.6-1.26h0c-3.77-2.54-8.33-3.64-12.84-3.08l-.15,.02c-.31-.07-.63,.07-.79,.34l.77,1.48"/><path class="cls-8" d="M560.21,537.39l1.17-.57c.34-.52,.22-.99-.23-.98h0c-2.71-1.38-6.46-1.28-10.54,.27l-.14,.05c-.26,0-.57,.21-.78,.49l.32,1.14"/><path class="cls-8" d="M585.84,447.97l1.25-.32c.25-.52-.05-1.13-.6-1.26h0c-3.77-2.54-8.33-3.64-12.84-3.08l-.15,.02c-.31-.07-.63,.07-.79,.34l.77,1.48"/><ellipse class="cls-8" cx="601.65" cy="469.07" rx="1.82" ry="3.1" transform="translate(-160.98 449.04) rotate(-36.44)"/><path class="cls-8" d="M603.49,471.56l-2.21,1.08c-.7,.52-2.09-.18-3.11-1.56s-1.27-2.91-.57-3.43l2.21-1.08"/><path class="cls-8" d="M606.57,468.58c.69,1.84,.54,3.81-.59,5.31-1.92,2.55-5.96,2.76-9.02,.46-3.06-2.3-3.98-6.23-2.06-8.79,.87-1.16,2.18-1.84,3.64-2.01"/><ellipse class="cls-7" cx="401.97" cy="734.41" rx="1.82" ry="3.1" transform="translate(-426.31 856.46) rotate(-69.69)"/><path class="cls-7" d="M404.87,735.48l.43-2.42c.3-.81-.75-1.96-2.36-2.55s-3.15-.41-3.45,.4l-.43,2.42"/><ellipse class="cls-7" cx="379.72" cy="742.87" rx="1.82" ry="3.1" transform="translate(-448.77 841.12) rotate(-69.69)"/><path class="cls-7" d="M382.62,743.94l.43-2.42c.3-.81-.75-1.96-2.36-2.55-1.6-.59-3.15-.41-3.45,.4l-.43,2.42"/><path class="cls-8" d="M569.68,499.04l3.11,.02c.65,0,1.19-.5,1.23-1.14l.26-3.76c.05-.7-.5-1.3-1.2-1.31l-2.78-.05c-.61-.01-1.14,.43-1.23,1.04l-.59,3.78c-.12,.74,.45,1.41,1.2,1.42Z"/><path class="cls-8" d="M568.48,497.62l.53,2.85c.08,.43,.43,.75,.87,.8l4.37,.46c.5,.14,.98-.25,.95-.76l-1.61-1.89"/><path class="cls-8" d="M574.09,493.2l2.2,1.53c.37,.25,.51,.72,.35,1.14l-.86,5.6"/><path class="cls-7" d="M415.8,696.36l.5,2.69c.1,.56-.25,1.21-.8,1.47l-3.22,1.53c-.6,.28-1.2,.02-1.32-.59l-.47-2.39c-.1-.53,.2-1.14,.71-1.43l3.19-1.83c.63-.36,1.3-.1,1.42,.55Z"/><path class="cls-7" d="M414.38,695.81l2.55-.52c.38-.08,.72,.11,.83,.47l1.07,3.64c.2,.38-.06,.94-.52,1.09l-1.89-.74"/><path class="cls-7" d="M411.41,702.22l1.67,1.38c.28,.23,.71,.19,1.05-.09l4.73-2.69"/><path class="cls-7" d="M404.92,701.04l.5,2.69c.1,.56-.25,1.21-.8,1.47l-3.22,1.53c-.6,.28-1.2,.02-1.32-.59l-.47-2.39c-.1-.53,.2-1.14,.71-1.43l3.19-1.83c.63-.36,1.3-.1,1.42,.55Z"/><path class="cls-7" d="M403.51,700.49l2.55-.52c.38-.08,.72,.11,.83,.47l1.07,3.64c.2,.38-.06,.94-.52,1.09l-1.89-.74"/><path class="cls-7" d="M400.54,706.9l1.67,1.38c.28,.23,.71,.19,1.05-.09l4.73-2.69"/><path class="cls-8" d="M570.82,487.04l3.11,.02c.65,0,1.19-.5,1.23-1.14l.26-3.76c.05-.7-.5-1.3-1.2-1.31l-2.78-.05c-.61-.01-1.14,.43-1.23,1.04l-.59,3.78c-.12,.74,.45,1.41,1.2,1.42Z"/><path class="cls-8" d="M569.62,485.62l.53,2.85c.08,.43,.43,.75,.87,.8l4.37,.46c.5,.14,.98-.25,.95-.76l-1.61-1.89"/><path class="cls-8" d="M575.23,481.2l2.2,1.53c.37,.25,.51,.72,.35,1.14l-.86,5.6"/><path class="cls-8" d="M590.39,496.83l-1.43,7.97c-.12,.65-.82,1-1.41,.69l-4.71-2.43c-.38-.2-.59-.62-.51-1.05l1.5-8.06c.12-.65,.84-1,1.43-.68l4.64,2.52c.37,.2,.57,.62,.5,1.03Z"/><ellipse class="cls-8" cx="584.24" cy="528.64" rx="7.25" ry="6.76" transform="translate(-189.39 677.94) rotate(-53.06)"/><path class="cls-8" d="M577.31,529.42l-1.1-5.98c.05-1.44,.52-2.88,1.45-4.11,2.4-3.2,6.95-3.84,10.14-1.44,.61,.46,1.13,1,1.56,1.6l1.48,6.55"/><path class="cls-8" d="M563.83,520.42c3.13,2.35,4.45,5.89,2.94,7.89s-5.27,1.72-8.4-.64c-1.38-1.03-2.4-2.28-2.98-3.53-.75-1.63-.81-3.24,.04-4.37,.05-.07,.11-.15,.18-.21,1.61-1.77,5.2-1.42,8.22,.85Z"/><path class="cls-8" d="M563.83,520.42c3.49,1.77,6.85,5.58,5.72,7.82s-3.91,3.05-7.41,1.29"/><path class="cls-8" d="M555.44,519.78l.18-.32v-.02s0-.01,0-.01l3.62-6.83,.97-1.58c1.46-1.95,4.96-1.8,7.8,.34,.65,.49,1.23,1.06,1.69,1.64l.41,1.4-.33,12.77"/><path class="cls-8" d="M551.04,523.2c2.96,2.23,3.92,5.99,2.11,8.4-.48,.64-1.1,1.11-1.82,1.41,0,0-.1,.05-.3,.14-1.34,.47-2.92,.44-4.44-.14-.52-.17-1.04-.44-1.52-.75-.2-.11-.37-.23-.55-.37s-.38-.28-.54-.45c-.7-.61-1.27-1.32-1.67-2.09v-.02c-1.09-1.97-1.15-4.21,.08-5.84,.12-.15,.24-.3,.36-.42,1.12-1.14,2.79-1.62,4.52-1.41,.53,.05,1.07,.17,1.58,.36,.76,.27,1.51,.66,2.2,1.18Z"/><path class="cls-8" d="M544.51,531.89c-.18-.14-.38-.28-.54-.45-.65-.53-1.22-1.13-1.72-1.77h.01c-1.52-1.96-2.27-4.26-1.9-6.32,.13-.86,.46-1.66,1-2.38,.91-1.21,2.19-2.01,3.62-2.39l1.88,1.67,.44,.4,1.52,1.36"/><path class="cls-8" d="M534.27,529.39c.4-1,.82-1.91,1.25-2.74v-.02s0-.01,0-.01c.23-.46,.48-.9,.72-1.31,4.22-7.14,8.75-6.72,8.75-6.72"/><path class="cls-8" d="M551.32,533.01s-.1,.05-.3,.14c-.69,.31-2.48,1.05-4.55,1.6-1.51,.39-3.16,.67-4.62,.59-.54-.04-1.05-.11-1.53-.26"/><path class="cls-8" d="M536.12,530.39h-.01c-.27-.15-.54-.28-.83-.39-2.06-.88-4.35-.92-6.44-.25-1.83,.58-3.53,1.74-4.78,3.41-.21,.28-.4,.57-.57,.85-1.58,2.65-1.77,5.8-.67,8.48,.59,1.51,1.6,2.88,2.99,3.92,.44,.33,.92,.63,1.41,.87,.39,.21,.79,.37,1.2,.49,.25,.1,.5,.18,.74,.23,1.61,.38,3.27,.34,4.84-.13,1.57-.43,3.02-1.3,4.21-2.53,.28-.29,.56-.6,.81-.93,.31-.42,.6-.85,.81-1.31h.01c1.45-2.73,1.49-5.9,.22-8.53-.61-1.33-1.53-2.5-2.77-3.43-.38-.28-.76-.53-1.16-.74Zm-1.74,12.1c-1.72-.84-3.22-1.74-4.51-2.63,.12-.24,.23-.5,.35-.78h.01"/><path class="cls-8" d="M539.01,544.4c-1.7-.58-3.24-1.22-4.63-1.92-1.72-.84-3.22-1.74-4.51-2.63-.19-.12-.36-.25-.52-.37-.55-.37-1.05-.75-1.49-1.12-3.01-2.39-4.38-4.36-4.38-4.36"/><path class="cls-8" d="M528.41,547.79v-.02c-.04-.24-.52-3.19,1.46-7.91,.12-.24,.23-.5,.35-.78h.01c1.03-2.22,2.58-4.78,4.94-7.57,.3-.36,.62-.73,.94-1.1h.01"/><path class="cls-8" d="M539.86,543.08l1.36,.98,4.51,3.24,4.7,3.38s-.12,1.61-1.17,2.1c-.15,.08-.33,.12-.51,.14l-5.41-3.89-2.36-1.69-2.77-1.99-.03-.02"/><path class="cls-8" d="M525.8,546.41s.09,1.27,.7,2.81c.14,.34,.3,.7,.5,1.07,.85,1.62,2.32,3.29,4.81,4.03,.52,.15,1.08,.27,1.7,.32,.48,.06,.99,.07,1.52,.06,.9-.04,1.86-.16,2.93-.39l.63-3.09,.98-4.86"/><ellipse class="cls-8" cx="576.47" cy="561.14" rx=".9" ry="1.6" transform="translate(-218.85 440.03) rotate(-35.57)"/><path class="cls-8" d="M575.54,559.85l-5.09,1.84-.7,.22c-.4,.29-.29,1.13,.25,1.89s1.3,1.13,1.71,.85l5.69-2.2"/><ellipse class="cls-8" cx="583.03" cy="578.58" rx=".9" ry="1.6" transform="translate(-227.77 447.1) rotate(-35.57)"/><path class="cls-8" d="M582.1,577.28l-5.09,1.84-.7,.22c-.4,.29-.29,1.13,.25,1.89s1.3,1.13,1.71,.85l5.69-2.2"/><ellipse class="cls-8" cx="584.84" cy="584.39" rx=".9" ry="1.6" transform="translate(-230.81 449.24) rotate(-35.57)"/><path class="cls-8" d="M583.91,583.1l-5.09,1.84-.7,.22c-.4,.29-.29,1.13,.25,1.89s1.3,1.13,1.71,.85l5.69-2.2"/><ellipse class="cls-8" cx="574.21" cy="590.3" rx=".9" ry="1.6" transform="translate(-236.23 444.16) rotate(-35.57)"/><path class="cls-8" d="M573.28,589l-5.09,1.84-.7,.22c-.4,.29-.29,1.13,.25,1.89s1.3,1.13,1.71,.85l5.69-2.2"/><ellipse class="cls-8" cx="588.25" cy="563.31" rx=".9" ry="1.6" transform="translate(-217.91 447.29) rotate(-35.57)"/><path class="cls-8" d="M587.33,562.02l-5.09,1.84-.7,.22c-.4,.29-.29,1.13,.25,1.89s1.3,1.13,1.71,.85l5.69-2.2"/><ellipse class="cls-8" cx="582.19" cy="553.52" rx=".9" ry="1.6" transform="translate(-213.35 441.94) rotate(-35.57)"/><path class="cls-8" d="M581.26,552.22l-5.09,1.84-.7,.22c-.4,.29-.29,1.13,.25,1.89s1.3,1.13,1.71,.85l5.69-2.2"/><ellipse class="cls-8" cx="583.34" cy="546.99" rx=".74" ry="1.36" transform="translate(-211.42 458.39) rotate(-36.8)"/><path class="cls-8" d="M582.53,545.89l-4.27,1.45-.58,.17c-.33,.23-.23,.94,.24,1.58s1.12,.97,1.45,.73l4.77-1.74"/><ellipse class="cls-8" cx="581.58" cy="572.19" rx="1.98" ry="2.97" transform="translate(-226.86 462.36) rotate(-36.8)"/><polyline class="cls-8" points="599.92 522.5 594.54 518.45 592.85 517.18 594.8 508.65 596.9 510.22"/><path class="cls-8" d="M596,512.01l-1.46,6.43,1.46-6.43Z"/><line class="cls-8" x1="600.65" y1="515.51" x2="596" y2="512.01"/><rect class="cls-8" x="554.11" y="548.83" width="10.53" height="2.58" rx=".74" ry=".74" transform="translate(-54.28 1038.95) rotate(-83.06)"/><path class="cls-8" d="M556.59,545.11c.34,.28,.53,.71,.48,1.16l-.96,7.9c-.1,.71-.74,1.21-1.43,1.12-.24-.03-.45-.12-.62-.25-.06-.04-.13-.09-.17-.15-.25-.28-.39-.64-.33-1.03l.65-5.38v-.02s.3-2.49,.3-2.49c.09-.7,.72-1.2,1.43-1.12,.19,.01,.37,.08,.5,.18l.15,.09Z"/><path class="cls-8" d="M560.1,553.67l1.96,1.47s-.41,1.72-1.61,1.7l-2.41-1.81"/><path class="cls-8" d="M556.11,553.7l1.96,1.47s-.41,1.72-1.61,1.7l-2.41-1.81"/><path class="cls-8" d="M560.58,545.11l2.64,1.98s-.73,1.43-1.73,1.79l-.61-.46"/><line class="cls-8" x1="556.44" y1="545.02" x2="558.54" y2="546.32"/><line class="cls-8" x1="556.92" y1="547.45" x2="558.13" y2="548.36"/><polyline class="cls-11" points="533.55 620.76 530.44 610.32 535.03 554.7"/><line class="cls-4" x1="583.44" y1="622.33" x2="592.09" y2="545.16"/><polygon class="cls-11" points="599.98 527.04 604.59 492.06 609.33 496.53 615.5 493.23 611.22 529.93 605.22 530.98 599.98 527.04"/><line class="cls-11" x1="605.22" y1="530.98" x2="609.33" y2="496.53"/><polygon class="cls-11" points="378.31 626.78 382.92 591.8 387.66 596.27 393.84 592.97 389.55 629.68 383.55 630.72 378.31 626.78"/><line class="cls-8" x1="383.55" y1="630.72" x2="387.66" y2="596.27"/><polygon class="cls-11" points="593.32 575.64 597.74 540.93 603.65 545.37 609.1 542.24 606.32 576.89 600.22 580.83 593.32 575.64"/><line class="cls-11" x1="600.22" y1="580.83" x2="603.65" y2="545.37"/><path class="cls-11" d="M591.65,549.04s2.39,1.99,5.11-.36"/><line class="cls-11" x1="600.83" y1="543.25" x2="602.56" y2="528.98"/><polyline class="cls-11" points="772.05 456.07 611.22 529.93 615.5 493.23 768.28 420.76"/><polyline class="cls-11" points="766.27 502.39 606.32 576.89 609.1 542.24 764.79 469.82"/><line class="cls-8" x1="612.66" y1="519.43" x2="766.63" y2="448.65"/><line class="cls-8" x1="613.77" y1="511.4" x2="767.75" y2="440.61"/><line class="cls-8" x1="614.17" y1="502.79" x2="768.15" y2="432"/><line class="cls-8" x1="607.42" y1="568.54" x2="763.11" y2="496.09"/><line class="cls-8" x1="601.32" y1="562.85" x2="763.69" y2="487.82"/><line class="cls-8" x1="608.35" y1="551.58" x2="764.19" y2="479.24"/><line class="cls-8" x1="611.5" y1="574.48" x2="614.82" y2="539.14"/><line class="cls-8" x1="619.53" y1="570.61" x2="622.85" y2="535.27"/><line class="cls-8" x1="626.25" y1="568.12" x2="629.57" y2="532.77"/><line class="cls-8" x1="633.39" y1="564.46" x2="636.71" y2="529.11"/><line class="cls-8" x1="640.41" y1="561.72" x2="643.73" y2="526.37"/><line class="cls-8" x1="647.35" y1="557.73" x2="650.67" y2="522.39"/><line class="cls-8" x1="654.93" y1="554.45" x2="658.25" y2="519.11"/><line class="cls-8" x1="661.82" y1="550.9" x2="665.14" y2="515.56"/><line class="cls-8" x1="669.09" y1="547.9" x2="672.41" y2="512.56"/><line class="cls-8" x1="675.59" y1="544.89" x2="678.91" y2="509.54"/><line class="cls-8" x1="683.43" y1="541.51" x2="686.75" y2="506.17"/><line class="cls-8" x1="690.39" y1="538.22" x2="693.71" y2="502.88"/><line class="cls-8" x1="697.94" y1="534.35" x2="701.25" y2="499"/><line class="cls-8" x1="705.96" y1="531.01" x2="709.28" y2="495.66"/><line class="cls-8" x1="712.71" y1="527.76" x2="716.03" y2="492.41"/><line class="cls-8" x1="721.13" y1="523.49" x2="724.45" y2="488.15"/><line class="cls-8" x1="727.83" y1="520.2" x2="731.15" y2="484.86"/><line class="cls-8" x1="735.56" y1="517.14" x2="738.88" y2="481.8"/><line class="cls-8" x1="742.59" y1="513.91" x2="745.91" y2="478.56"/><line class="cls-8" x1="750.31" y1="510.48" x2="753.63" y2="475.13"/><line class="cls-8" x1="757.7" y1="507.32" x2="761.02" y2="471.97"/><line class="cls-8" x1="617.38" y1="527.1" x2="620.95" y2="491.07"/><line class="cls-8" x1="622.92" y1="524.64" x2="626.49" y2="488.61"/><line class="cls-8" x1="632.05" y1="520.7" x2="635.62" y2="484.67"/><line class="cls-8" x1="638.29" y1="517.89" x2="641.86" y2="481.85"/><line class="cls-8" x1="645.75" y1="513.63" x2="649.33" y2="477.6"/><line class="cls-8" x1="653.09" y1="510.62" x2="656.66" y2="474.58"/><line class="cls-8" x1="659.47" y1="507.09" x2="663.04" y2="471.05"/><line class="cls-8" x1="666.25" y1="503.8" x2="669.83" y2="467.77"/><line class="cls-8" x1="673.46" y1="501.11" x2="677.12" y2="464.21"/><line class="cls-8" x1="681.05" y1="497.61" x2="684.71" y2="460.75"/><line class="cls-8" x1="689.18" y1="493.57" x2="691.98" y2="456.96"/><line class="cls-8" x1="695.74" y1="490.5" x2="698.51" y2="453.86"/><line class="cls-8" x1="702.47" y1="487.45" x2="705.24" y2="450.81"/><line class="cls-8" x1="709.97" y1="483.96" x2="712.73" y2="447.33"/><line class="cls-8" x1="718.57" y1="480.19" x2="721.34" y2="443.56"/><line class="cls-8" x1="725.11" y1="477.58" x2="727.84" y2="439.95"/><line class="cls-8" x1="732.24" y1="474.24" x2="734.97" y2="436.61"/><line class="cls-8" x1="739.3" y1="471.63" x2="742.03" y2="434"/><line class="cls-8" x1="747.02" y1="468.2" x2="749.74" y2="430.57"/><line class="cls-8" x1="754.13" y1="464.14" x2="756.85" y2="426.51"/><line class="cls-8" x1="761.35" y1="460.4" x2="764.08" y2="422.77"/><polygon class="cls-11" points="766.82 450.75 769.08 413.02 776.95 418.95 775.12 456.54 766.82 450.75"/><polyline class="cls-11" points="384.73 674.46 387.61 641.58 382.19 644.77 376.23 640.41 372.25 675.17 376 677.92"/><line class="cls-8" x1="379.29" y1="676.62" x2="382.37" y2="644.8"/><polyline class="cls-11" points="523.93 531.15 506.56 539.39 477.23 553.31 470.71 556.39 394.22 592.66 393.12 602.11 389.93 629.36 467.69 593.66"/><line class="cls-8" x1="547" y1="520.21" x2="546.87" y2="520.26"/><polyline class="cls-11" points="491.32 582.81 518.05 570.53 525.79 566.97"/><line class="cls-8" x1="484.03" y1="586.16" x2="472.22" y2="591.58"/><polyline class="cls-11" points="477.22 600.08 479.94 598.82 494.75 591.94 496.54 591.09"/><polyline class="cls-11" points="514.5 582.74 509.81 584.92 504.49 587.4"/><polyline class="cls-11" points="472.86 602.12 472.43 602.31 387.82 641.69"/><polyline class="cls-11" points="440.63 649.21 469.67 636.03 476.74 632.82 484.79 629.17 488.36 627.54"/><line class="cls-11" x1="514.35" y1="615.75" x2="492.32" y2="625.75"/><polyline class="cls-11" points="478.23 578.95 498.04 569.85 504.57 566.83 511.68 563.57 518.8 560.3 520.82 559.36"/><line class="cls-8" x1="391.38" y1="618.87" x2="461.12" y2="586.81"/><polyline class="cls-11" points="539.86 543.08 539.83 543.08 539.82 543.1"/><polyline class="cls-11" points="521.7 551.43 519.36 552.52 512.25 555.77 505.13 559.05 498.62 562.04 392.48 610.83"/><line class="cls-8" x1="546.88" y1="531.43" x2="546.67" y2="531.53"/><polyline class="cls-11" points="522.81 542.49 519.98 543.78 512.88 547.06 393.12 602.11 392.89 602.22"/><line class="cls-11" x1="530.23" y1="539.07" x2="530.22" y2="539.08"/><polyline class="cls-8" points="489.01 620.11 492.23 618.61 500.62 614.72 507.3 611.6 510.5 610.11"/><polyline class="cls-8" points="485.5 621.75 484.97 621.99 477.43 625.5 470.25 628.83 386.13 667.98"/><polyline class="cls-8" points="386.04 659.52 470.96 620.27 478.24 616.9 481.07 615.6"/><polyline class="cls-8" points="511.78 601.41 508.12 603.1 508.11 603.11 501.42 606.18 493.04 610.06 486.31 613.18 485.22 613.67"/><line class="cls-11" x1="531.93" y1="592.08" x2="531" y2="592.51"/><polyline class="cls-8" points="477.17 609.18 471.66 611.74 387.07 651.02"/><polyline class="cls-8" points="507.12 595.28 502.24 597.54 493.85 601.44 487.11 604.58 481.41 607.21"/><line class="cls-11" x1="532.64" y1="583.44" x2="532.62" y2="583.44"/><line class="cls-8" x1="390.41" y1="671.86" x2="393.54" y2="638.57"/><line class="cls-8" x1="398.41" y1="668.26" x2="401.56" y2="634.7"/><line class="cls-8" x1="405.19" y1="665.2" x2="408.29" y2="632.21"/><line class="cls-8" x1="411.87" y1="662.19" x2="415.43" y2="628.55"/><line class="cls-8" x1="419.3" y1="659.32" x2="422.45" y2="625.81"/><line class="cls-8" x1="426.2" y1="655.72" x2="429.39" y2="621.82"/><line class="cls-8" x1="433.82" y1="652.09" x2="436.97" y2="618.54"/><line class="cls-8" x1="440.54" y1="650.34" x2="443.86" y2="614.99"/><line class="cls-8" x1="447.96" y1="645.77" x2="451.13" y2="612"/><line class="cls-8" x1="454.41" y1="643.3" x2="457.63" y2="608.98"/><line class="cls-8" x1="462.33" y1="638.97" x2="465.46" y2="605.6"/><line class="cls-8" x1="469.67" y1="636.03" x2="472.43" y2="602.31"/><polyline class="cls-8" points="478.72 611.74 478.24 616.9 477.43 625.5 476.74 632.82 476.65 633.77"/><line class="cls-8" x1="479.98" y1="598.44" x2="479.46" y2="603.9"/><polyline class="cls-8" points="487.99 595.1 487.11 604.58 486.31 613.18 486.1 615.18"/><polyline class="cls-8" points="485.5 621.75 485.4 622.68 484.79 629.17 484.78 629.39"/><line class="cls-8" x1="491.54" y1="626.05" x2="494.75" y2="591.85"/><polyline class="cls-8" points="499.85 622.92 499.89 622.31 500.62 614.72 501.42 606.18 502.24 597.54 502.62 593.5"/><polyline class="cls-8" points="508.78 595.94 508.12 603.1 508.11 603.11 507.3 611.6 506.57 619.28 506.54 619.63"/><polyline class="cls-11" points="509.42 589.13 509.81 584.92 509.87 584.29"/><polyline class="cls-8" points="514.27 616.58 514.31 616.22 514.35 615.75"/><line class="cls-8" x1="396.1" y1="626.54" x2="399.67" y2="590.5"/><line class="cls-8" x1="401.63" y1="624.08" x2="405.21" y2="588.04"/><line class="cls-8" x1="410.77" y1="620.14" x2="414.34" y2="584.11"/><line class="cls-8" x1="417.01" y1="617.32" x2="420.58" y2="581.29"/><line class="cls-8" x1="424.47" y1="613.07" x2="428.04" y2="577.03"/><line class="cls-8" x1="431.81" y1="610.05" x2="435.38" y2="574.02"/><line class="cls-8" x1="438.19" y1="606.52" x2="441.76" y2="570.49"/><line class="cls-8" x1="444.97" y1="603.24" x2="448.54" y2="567.2"/><line class="cls-8" x1="452.18" y1="600.55" x2="455.84" y2="563.64"/><line class="cls-8" x1="463.42" y1="560.18" x2="461.52" y2="579.47"/><line class="cls-8" x1="460.86" y1="586.02" x2="459.77" y2="597.04"/><line class="cls-11" x1="470.71" y1="556.39" x2="469.05" y2="577.96"/><line class="cls-8" x1="468.6" y1="583.77" x2="468.5" y2="585.23"/><line class="cls-11" x1="477.23" y1="553.31" x2="475.46" y2="576.7"/><polyline class="cls-8" points="475.01 582.56 474.99 582.85 474.45 589.93"/><line class="cls-11" x1="483.96" y1="550.25" x2="481.75" y2="579.47"/><line class="cls-8" x1="481.32" y1="585.08" x2="481.19" y2="586.88"/><line class="cls-11" x1="491.45" y1="546.77" x2="488.8" y2="581.94"/><line class="cls-11" x1="497.29" y1="579.63" x2="500.06" y2="542.99"/><line class="cls-11" x1="503.83" y1="577.02" x2="506.56" y2="539.38"/><line class="cls-11" x1="510.96" y1="573.68" x2="513.69" y2="536.04"/><line class="cls-11" x1="518.02" y1="571.07" x2="520.75" y2="533.43"/><polyline class="cls-11" points="535.52 526.65 535.51 526.63 535.52 526.62"/><line class="cls-8" x1="535.28" y1="530" x2="535.17" y2="531.51"/><polyline class="cls-8" points="542.25 529.67 542.27 529.66 542.3 529.36 542.29 529.33"/><path class="cls-8" d="M553.56,553.86l.65-5.38-.32,6.42c-.25-.28-.39-.64-.33-1.03Z"/><path class="cls-8" d="M547.31,520.66l1.52,1.36c.76,.27,1.51,.66,2.2,1.18,2.96,2.23,3.92,5.99,2.11,8.4-.48,.64-1.1,1.11-1.82,1.41,0,0-.1,.05-.3,.14-.69,.31-2.48,1.05-4.55,1.6l.11-1.74,.09-1.48,.59-9.87"/><path class="cls-8" d="M555.62,519.57v-.11s-.18,.32-.18,.32c-.85,1.13-.79,2.73-.04,4.37"/><polyline class="cls-11" points="767.3 502.94 762.99 499.93 765.25 462.2 773.13 468.13 771.51 501.01"/><polyline class="cls-8" points="767.64 458.1 769.49 459.48 775.27 457.1"/><path class="cls-11" d="M571.46,618.65l-.19-.15c-13.06-9.23-30.96-6.72-40.39,5.82-9.6,12.77-6.78,31.13,6.33,40.99,1.78,1.34,3.65,2.44,5.58,3.32,12.36,5.7,27.26,2.44,35.57-8.62,4.48-5.96,6.26-13.13,5.54-20.1"/><path class="cls-11" d="M530.39,610.19c7.88-12.58,25.54-15.73,39.44-7.02,4.96,3.11,11.12,14.48,13.61,19.16"/><path class="cls-8" d="M584.86,626.02c2.87,6.23,1.9,12.78-2.15,14.66-.93,.43-1.93,.57-2.96,.47-3.52-.32-7.39-3.51-9.6-8.33-1.51-3.26-1.97-6.61-1.46-9.32,.44-2.5,1.67-4.45,3.6-5.34,4.05-1.89,9.69,1.65,12.56,7.86Z"/><path class="cls-8" d="M581.98,628.19c2.52,5.44,1.67,11.2-1.88,12.84-.1,.05-.22,.09-.35,.12-3.52-.32-7.39-3.51-9.6-8.33-1.51-3.26-1.97-6.61-1.46-9.32,.54-.98,1.32-1.75,2.28-2.2,3.57-1.65,8.49,1.44,11.01,6.89Z"/><line class="cls-8" x1="572.29" y1="618.16" x2="565.46" y2="620.48"/><path class="cls-8" d="M582.16,640.9l-11.47,2.02c-2.83-1.17-5.62-3.96-7.38-7.77-2.88-6.22-1.91-12.79,2.15-14.66"/><ellipse class="cls-8" cx="535.96" cy="626.42" rx="7.83" ry="2.7" transform="translate(-286.82 678.37) rotate(-53.06)"/><ellipse class="cls-8" cx="537.22" cy="627.37" rx="7.83" ry="2.7" transform="translate(-287.07 679.76) rotate(-53.06)"/><ellipse class="cls-8" cx="538.4" cy="628.26" rx="7.83" ry="2.7" transform="translate(-287.31 681.05) rotate(-53.06)"/><path class="cls-8" d="M535.55,635.05s-.57,10.07,4.64,18.04"/><path class="cls-11" d="M543.67,624.24s10.17-4.36,18.55,.54"/><line class="cls-8" x1="536.73" y1="629.89" x2="539.17" y2="631.73"/><line class="cls-8" x1="535.82" y1="622.46" x2="538.27" y2="624.3"/><line class="cls-8" x1="532.58" y1="626.77" x2="535.03" y2="628.61"/><path class="cls-8" d="M562.15,670.6c1.41-1.01,2.31-2.27,2.48-3.73,.14-1.18-.2-2.34-.93-3.42-1.81-2.75-6.02-4.98-11.17-5.61-5.61-.67-10.63,.77-12.78,3.4-.62,.73-1.01,1.57-1.12,2.47-.14,1.03,.12,2.05,.65,3.01h.01"/><path class="cls-8" d="M563.7,663.45c-2.17,2.63-7.19,4.06-12.77,3.39-5.13-.64-9.37-2.87-11.18-5.6,2.15-2.63,7.17-4.07,12.78-3.4,5.14,.63,9.36,2.86,11.17,5.61Z"/><path class="cls-8" d="M564.61,664.77l-2.09-11.58c-2.28-1.61-5.51-2.83-9.2-3.28-6.33-.77-11.94,.99-13.8,4.05l-.89,9.74"/><ellipse class="cls-11" cx="527.08" cy="580.95" rx="4.42" ry="2.33" transform="translate(-239.59 415) rotate(-35.57)"/><ellipse class="cls-11" cx="526.74" cy="597.93" rx="1.88" ry="3.34" transform="translate(-238.82 819.07) rotate(-64.73)"/><polyline class="cls-11" points="523.48 583.53 523.85 583.85 523.86 583.86 523.87 583.87 526.64 586.21 526.67 586.23 524.98 592.1 523.93 595.78 523.73 596.51"/><polyline class="cls-11" points="529.76 599.36 533.19 580.27 530.68 578.38"/><path class="cls-11" d="M524.98,592.1l-3.88,.5c-.8,.11-1.63,.03-2.41-.24l-2.09-.72-.93-.33-6.26-2.18-4.93-1.72-13.17-4.59-2.52-.87-7.04-2.47-3.76-1.31"/><path class="cls-11" d="M475.48,582.78c.11,.06,.23,.1,.34,.13l5.5,2.18,2.71,1.08,12.48,4.93h.01s.01,0,.01,0l6.08,2.42,4.5,1.77,1.66,.66,7.17,2.82,.84,.33,.26,.11c.49,.19,1.03,.25,1.54,.18l5.88-.76"/><ellipse class="cls-11" cx="475.8" cy="579.84" rx="2.56" ry="3.39" transform="translate(-237.49 347.86) rotate(-32.61)"/><line class="cls-11" x1="473.98" y1="576.98" x2="459.42" y2="579.89"/><line class="cls-11" x1="466.21" y1="584.12" x2="475.48" y2="582.78"/><path class="cls-11" d="M465.42,583.53c.39,.94,.82,2.04,.34,2.68-.94,1.25-3.37,1.01-5.43-.54s-2.96-3.82-2.02-5.07c.35-.47,.92-.73,1.59-.79"/><polyline class="cls-11" points="500.78 640.14 492.32 625.75 491.67 624.63 489.01 620.11 486.1 615.18 485.22 613.67 481.41 607.21 479.46 603.9 467.78 584.02"/><path class="cls-11" d="M495.66,639.49c-2.43-3.98-4.87-7.97-7.29-11.95-.99-1.61-1.98-3.25-2.96-4.86-.15-.24-.28-.47-.43-.7-1.29-2.13-2.6-4.26-3.9-6.39-.78-1.28-1.57-2.57-2.35-3.85-.52-.85-1.04-1.72-1.56-2.56-4.5-7.36-8.98-14.71-13.47-22.08"/><ellipse class="cls-11" cx="504.56" cy="641.88" rx="2.13" ry="2.74" transform="translate(-233.95 293.75) rotate(-26.59)"/><line class="cls-8" x1="503.33" y1="639.42" x2="500.44" y2="640.51"/><polyline class="cls-11" points="494.53 637.84 491.87 638.88 486.09 646.57 482.15 651.81 493.5 660.35 492.26 662 497.98 666.3 505.6 656.17 499.87 651.87 497.77 654.67 492.06 650.38 494.39 647.29 505.39 644.53"/><path class="cls-7" d="M463.54,694.3c-3.91,1.17-9.08-1.58-12.22-6.75-3.52-5.8-3.12-12.46,.88-14.89m9.83-3.99c-1.43,.86-2.4,2.26-2.88,3.97-.9,3.08-.26,7.18,2.01,10.93,1.75,2.91,4.17,5.05,6.65,6.15,2.16,.97,4.36,1.15,6.2,.35m3.33-3.48c3.08,13.82-.28,26.31-9.14,30.36-10.42,4.81-24.75-3.83-33.16-19.45-.54-1.02-1.05-2.07-1.55-3.15-.86-1.89-1.63-3.77-2.25-5.65-.15-.41-.28-.82-.4-1.24-.11-.37-.24-.72-.33-1.1-4.18-14.9-.97-28.84,8.46-33.16,9.62-4.41,22.59,2.6,31.13,16.01"/><path class="cls-10" d="M438.93,650.58c-10,4.58-13.23,19.71-8.42,35.8,.09,.37,.21,.73,.33,1.1,.12,.42,.25,.82,.4,1.24,.63,1.89,1.39,3.77,2.25,5.65,.5,1.07,1.01,2.13,1.55,3.15,8.94,16.9,24.2,26.33,35.19,21.3,10.59-4.85,13.55-21.47,7.53-38.61-.6-1.72-1.3-3.46-2.09-5.18-.09-.2-.19-.41-.28-.61-8.7-18.47-24.94-29.13-36.46-23.82Zm34.38,39.75l-9.76,3.97c-3.91,1.17-9.08-1.58-12.22-6.75-3.52-5.8-3.12-12.46,.88-14.89l10.76-4.44m-.92,.45c-1.43,.86-2.4,2.26-2.88,3.97-.9,3.08-.26,7.18,2.01,10.93,1.75,2.91,4.17,5.05,6.65,6.15,2.16,.97,4.36,1.15,6.2,.35"/><path class="cls-10" d="M438.93,650.57l-5.74,1.7c-12.37,5.67-15.32,25.72-6.57,44.78,6.71,14.63,18.35,24.42,28.99,25.61l9.38-2.55"/><path class="cls-10" d="M475.39,674.41c.09,.14,.16,.27,.26,.41,1.07,1.76,1.78,3.6,2.12,5.38,.48,2.37,.34,4.61-.42,6.41-.53,1.32-1.41,2.4-2.58,3.11l-.76,.37c-1.84,.79-4.04,.62-6.2-.35-2.48-1.1-4.89-3.24-6.65-6.15-2.27-3.75-2.91-7.85-2.01-10.93,.48-1.71,1.45-3.11,2.88-3.97,2.3-1.38,5.26-1.07,8.07,.56,1.97,1.11,3.83,2.9,5.29,5.18Z"/><path class="cls-7" d="M465.8,678.79c2.27,3.75,2.91,7.85,2.01,10.93-2.48-1.1-4.89-3.24-6.65-6.15-2.27-3.75-2.91-7.85-2.01-10.93,2.48,1.1,4.89,3.24,6.65,6.15Z"/><line class="cls-7" x1="450.88" y1="714.9" x2="458.74" y2="695.98"/><line class="cls-7" x1="449.34" y1="653.49" x2="459" y2="668.66"/><path class="cls-10" d="M455.61,722.67l-102.99,41.15c-5.99-3.95-11.79-9.62-16.64-16.65-13.25-19.23-14.39-41.44-2.55-49.6l97.29-43.88"/><path class="cls-7" d="M351.12,689.75c-8.33,4.3-7.66,22.19,1.51,39.95,6,11.64,14.16,20.34,21.42,23.74"/><path class="cls-7" d="M364.74,683.96c-7.2,3.72-7.67,17.59-1.74,32.77l-4,2.53s-.17,4.74,4.42,10.85l5.18-1.98c1.79,2.99,3.71,5.73,5.69,8.18"/><path class="cls-7" d="M394.06,670.17c-8.33,4.3-7.66,22.19,1.51,39.95,5.99,11.61,14.12,20.3,21.37,23.72"/><ellipse class="cls-7" cx="349.58" cy="749.45" rx="1.53" ry="2.77" transform="translate(-459.52 578.49) rotate(-53.06)"/><ellipse class="cls-7" cx="335.76" cy="715" rx="3.59" ry="1.84" transform="translate(-427.13 919.83) rotate(-79.87)"/><polygon class="cls-10" points="344.91 758.14 338.83 795.31 316.93 795.83 324.4 758.98 344.91 758.14"/><polygon class="cls-7" points="329.02 776.66 325.94 791.58 320.78 791.68 324 777.11 329.02 776.66"/><polygon class="cls-7" points="338 776.27 335.48 791.3 330.32 791.59 333 776.91 338 776.27"/><polyline class="cls-10" points="330.01 737.73 297.63 753.06 321.28 769.73"/><polyline class="cls-10" points="330.28 699.27 303.05 712.54 297.63 753.06"/><ellipse class="cls-7" cx="311.21" cy="736.2" rx="1.84" ry="3.16" transform="translate(-485.1 804.95) rotate(-72.02)"/><path class="cls-7" d="M309.4,729.76c.31-.97,1.91-1.32,3.57-.78,1.66,.54,2.75,1.76,2.43,2.73"/><polyline class="cls-7" points="288.68 705.03 309.4 729.76 308.21 735.22"/><line class="cls-7" x1="315.4" y1="731.71" x2="314.21" y2="737.17"/><line class="cls-7" x1="285.43" y1="705.73" x2="308.62" y2="733.32"/><ellipse class="cls-7" cx="286.33" cy="703.18" rx="2.58" ry="2.99" transform="translate(-447.79 509.47) rotate(-53.06)"/><line class="cls-7" x1="277.24" y1="703.02" x2="285.43" y2="705.73"/><line class="cls-7" x1="278.35" y1="697.88" x2="286.7" y2="700.24"/><line class="cls-7" x1="289.16" y1="703.74" x2="312.56" y2="707.91"/><line class="cls-7" x1="287.88" y1="701.12" x2="316.37" y2="706.05"/><polygon class="cls-7" points="267.33 724.05 273.08 697.84 278.91 695.38 272.66 723.3 274.85 725.21 270.37 726.34 267.33 724.05"/><line class="cls-10" x1="284.03" y1="777.09" x2="278.28" y2="778.81"/><line class="cls-7" x1="302.04" y1="771.71" x2="287.51" y2="776.05"/><line class="cls-10" x1="317.51" y1="767.08" x2="305.64" y2="770.63"/><line class="cls-10" x1="301.22" y1="726.19" x2="264.61" y2="750.06"/><g><path class="cls-7" d="M271.73,766.71c-.27,.36,.16,1.13,.95,1.73s1.66,.79,1.92,.43"/><ellipse class="cls-7" cx="292.91" cy="760.04" rx=".81" ry="1.8" transform="translate(-490.61 537.42) rotate(-53.06)"/><line class="cls-7" x1="271.73" y1="766.71" x2="291.47" y2="758.96"/><line class="cls-7" x1="294.35" y1="761.13" x2="274.6" y2="768.88"/></g><g><path class="cls-7" d="M285.65,778.32c-.29,.34,.08,1.14,.82,1.79s1.59,.91,1.89,.57"/><ellipse class="cls-7" cx="307.25" cy="773.18" rx=".81" ry="1.8" transform="translate(-477.66 497.28) rotate(-48.96)"/><line class="cls-7" x1="285.65" y1="778.32" x2="305.9" y2="772"/><line class="cls-7" x1="308.61" y1="774.36" x2="288.37" y2="780.68"/></g><line class="cls-7" x1="288.98" y1="777.28" x2="277.51" y2="767.73"/><line class="cls-7" x1="285.65" y1="778.32" x2="274.1" y2="768.89"/><line class="cls-7" x1="293.78" y1="761.3" x2="307.2" y2="772.19"/><line class="cls-7" x1="303.43" y1="772.48" x2="290.8" y2="762.46"/><line class="cls-7" x1="277.51" y1="767.73" x2="303.43" y2="772.48"/><line class="cls-7" x1="288.53" y1="776.82" x2="290.8" y2="762.46"/><path class="cls-10" d="M278.28,778.81c-4.07-1.36-8.41-5.13-11.49-10.47-3.92-6.8-4.63-14.09-2.18-18.28l-10.99,5.36-.99,4.11-1.53,12.46,11.16-5.22"/><path class="cls-7" d="M276.69,778.17l-1.24,5.09-10.67,4.2,3.04-6.83-2.75-2.07-2.28,5.37-2.71-1.72-3.11,1.89h0c-1.39-1.05-1.82-2.95-1-4.5l1.14-2.14-1.76-1.48-3.83,3.07-5.56-4.18,1.96-1.66-3.1-2.33,1.46-7.68,6.35-3.67"/><line class="cls-7" x1="251.75" y1="810.62" x2="256.98" y2="784.06"/><line class="cls-7" x1="255.84" y1="810.97" x2="261.64" y2="783.51"/><polygon class="cls-7" points="247.88 811.68 255.04 809.72 249.96 837.62 242.64 840.45 247.88 811.68"/><polyline class="cls-7" points="253.99 815.45 257.39 813.38 255.04 809.72"/><polyline class="cls-7" points="242.64 840.45 245.96 842.94 252.67 839.66 249.96 837.62"/><polygon class="cls-10" points="240.82 840.48 211.67 852.53 216.97 856.14 215.57 859.69 244.69 848.54 245.29 843.83 240.82 840.48"/><line class="cls-7" x1="245.29" y1="843.83" x2="216.62" y2="855.9"/><polyline class="cls-10" points="139.3 1208.7 215.57 859.69 244.69 848.54 170.89 1199.75"/><line class="cls-7" x1="221.59" y1="857.38" x2="147.02" y2="1206.06"/><line class="cls-7" x1="152.49" y1="1204.71" x2="226.8" y2="855.39"/><line class="cls-7" x1="232.41" y1="853.24" x2="159.53" y2="1203.05"/><line class="cls-7" x1="165.44" y1="1200.82" x2="238.95" y2="850.74"/><line class="cls-7" x1="141.27" y1="1199.67" x2="172.85" y2="1191.5"/><line class="cls-7" x1="143.22" y1="1190.78" x2="174.34" y2="1183.36"/><line class="cls-7" x1="176.17" y1="1174.62" x2="144.89" y2="1183.12"/><line class="cls-7" x1="178.03" y1="1165.77" x2="146.73" y2="1174.71"/><line class="cls-7" x1="179.83" y1="1157.22" x2="148.65" y2="1165.91"/><line class="cls-7" x1="181.68" y1="1148.42" x2="150.6" y2="1157.01"/><line class="cls-7" x1="183.53" y1="1139.62" x2="152.39" y2="1148.79"/><line class="cls-7" x1="185.38" y1="1130.82" x2="154.18" y2="1140.62"/><line class="cls-7" x1="187.01" y1="1123.06" x2="155.93" y2="1132.61"/><line class="cls-7" x1="194.18" y1="1088.92" x2="163.31" y2="1098.84"/><line class="cls-7" x1="195.92" y1="1080.63" x2="165.24" y2="1090"/><line class="cls-7" x1="197.65" y1="1072.41" x2="166.88" y2="1082.47"/><line class="cls-7" x1="199.32" y1="1064.46" x2="168.65" y2="1074.4"/><line class="cls-7" x1="170.56" y1="1065.66" x2="201.15" y2="1055.74"/><line class="cls-7" x1="202.7" y1="1048.38" x2="172.27" y2="1057.82"/><line class="cls-7" x1="204.24" y1="1041.03" x2="173.9" y2="1050.37"/><line class="cls-7" x1="206.22" y1="1031.63" x2="175.87" y2="1041.34"/><line class="cls-7" x1="207.7" y1="1024.59" x2="177.55" y2="1033.66"/><line class="cls-7" x1="209.67" y1="1015.23" x2="179.47" y2="1024.89"/><line class="cls-7" x1="211.21" y1="1007.87" x2="181.19" y2="1017.03"/><line class="cls-7" x1="212.77" y1="1000.46" x2="182.73" y2="1009.97"/><line class="cls-7" x1="184.37" y1="1002.45" x2="214.5" y2="992.23"/><line class="cls-7" x1="216.12" y1="984.52" x2="186.12" y2="994.44"/><line class="cls-7" x1="217.75" y1="976.75" x2="187.94" y2="986.12"/><line class="cls-7" x1="219.39" y1="968.95" x2="189.52" y2="978.89"/><line class="cls-7" x1="221.05" y1="961.06" x2="191.12" y2="971.58"/><line class="cls-7" x1="222.8" y1="952.75" x2="193.09" y2="962.56"/><line class="cls-7" x1="224.39" y1="945.17" x2="194.72" y2="955.08"/><line class="cls-7" x1="225.86" y1="938.19" x2="196.22" y2="948.21"/><line class="cls-7" x1="227.57" y1="930.02" x2="197.95" y2="940.31"/><line class="cls-7" x1="229.21" y1="922.25" x2="199.61" y2="932.7"/><line class="cls-7" x1="230.79" y1="914.72" x2="201.3" y2="925"/><line class="cls-7" x1="232.28" y1="907.61" x2="202.68" y2="918.66"/><line class="cls-7" x1="233.89" y1="899.97" x2="204.34" y2="911.06"/><line class="cls-7" x1="235.43" y1="892.64" x2="206" y2="903.48"/><line class="cls-7" x1="237.09" y1="884.74" x2="207.7" y2="895.7"/><line class="cls-7" x1="238.7" y1="877.08" x2="209.31" y2="888.35"/><line class="cls-7" x1="240.13" y1="870.24" x2="210.8" y2="881.51"/><line class="cls-7" x1="241.6" y1="863.26" x2="213.19" y2="873.48"/><line class="cls-7" x1="243.07" y1="856.27" x2="213.93" y2="867.2"/><polygon class="cls-10" points="131.88 1210.8 173.06 1199.13 177.51 1203.34 138.08 1214.59 131.88 1210.8"/><polyline class="cls-7" points="177.51 1203.34 177.6 1197.92 174.69 1200.36"/><polygon class="cls-10" points="281.07 822.44 251.48 834.77 256.95 838.44 255.58 842.05 285.16 830.63 285.69 825.83 281.07 822.44"/><line class="cls-7" x1="256.58" y1="838.2" x2="285.69" y2="825.83"/><polyline class="cls-10" points="183.27 1197.48 255.58 842.05 285.16 830.63 215.4 1188.28"/><line class="cls-7" x1="261.69" y1="839.69" x2="191.11" y2="1194.77"/><line class="cls-7" x1="196.68" y1="1193.38" x2="266.98" y2="837.65"/><line class="cls-7" x1="272.67" y1="835.45" x2="203.85" y2="1191.67"/><line class="cls-7" x1="209.85" y1="1189.38" x2="279.32" y2="832.88"/><line class="cls-7" x1="185.14" y1="1188.28" x2="217.27" y2="1179.89"/><line class="cls-7" x1="186.98" y1="1179.23" x2="218.66" y2="1171.59"/><line class="cls-7" x1="220.39" y1="1162.69" x2="188.57" y2="1171.43"/><line class="cls-7" x1="222.15" y1="1153.68" x2="190.31" y2="1162.87"/><line class="cls-7" x1="223.85" y1="1144.97" x2="192.13" y2="1153.9"/><line class="cls-7" x1="225.6" y1="1136.01" x2="193.98" y2="1144.84"/><line class="cls-7" x1="227.34" y1="1127.05" x2="195.68" y2="1136.47"/><line class="cls-7" x1="229.09" y1="1118.09" x2="197.37" y2="1128.14"/><line class="cls-7" x1="230.63" y1="1110.18" x2="199.03" y2="1119.98"/><line class="cls-7" x1="237.41" y1="1075.42" x2="206.03" y2="1085.6"/><line class="cls-7" x1="239.06" y1="1066.98" x2="207.86" y2="1076.59"/><line class="cls-7" x1="240.69" y1="1058.61" x2="209.42" y2="1068.93"/><line class="cls-7" x1="242.27" y1="1050.51" x2="211.09" y2="1060.71"/><line class="cls-7" x1="212.9" y1="1051.81" x2="244" y2="1041.63"/><line class="cls-7" x1="245.46" y1="1034.14" x2="214.53" y2="1043.83"/><line class="cls-7" x1="246.93" y1="1026.65" x2="216.07" y2="1036.24"/><line class="cls-7" x1="248.79" y1="1017.08" x2="217.94" y2="1027.05"/><line class="cls-7" x1="250.19" y1="1009.9" x2="219.53" y2="1019.22"/><line class="cls-7" x1="252.05" y1="1000.38" x2="221.35" y2="1010.29"/><line class="cls-7" x1="253.51" y1="992.88" x2="222.98" y2="1002.29"/><line class="cls-7" x1="254.98" y1="985.33" x2="224.44" y2="995.09"/><line class="cls-7" x1="226" y1="987.43" x2="256.62" y2="976.95"/><line class="cls-7" x1="258.15" y1="969.1" x2="227.66" y2="979.27"/><line class="cls-7" x1="259.69" y1="961.19" x2="229.38" y2="970.81"/><line class="cls-7" x1="261.24" y1="953.25" x2="230.88" y2="963.45"/><line class="cls-7" x1="262.81" y1="945.21" x2="232.39" y2="956"/><line class="cls-7" x1="264.46" y1="936.75" x2="234.26" y2="946.81"/><line class="cls-7" x1="265.96" y1="929.03" x2="235.81" y2="939.2"/><line class="cls-7" x1="267.35" y1="921.92" x2="237.24" y2="932.2"/><line class="cls-7" x1="268.97" y1="913.6" x2="238.87" y2="924.16"/><line class="cls-7" x1="270.52" y1="905.69" x2="240.45" y2="916.41"/><line class="cls-7" x1="272.01" y1="898.02" x2="242.04" y2="908.56"/><line class="cls-7" x1="273.42" y1="890.79" x2="243.36" y2="902.1"/><line class="cls-7" x1="274.94" y1="883" x2="244.93" y2="894.37"/><line class="cls-7" x1="276.4" y1="875.54" x2="246.5" y2="886.65"/><line class="cls-7" x1="277.97" y1="867.49" x2="248.11" y2="878.73"/><line class="cls-7" x1="279.49" y1="859.69" x2="249.64" y2="871.24"/><line class="cls-7" x1="280.84" y1="852.73" x2="251.06" y2="864.27"/><line class="cls-7" x1="282.23" y1="845.61" x2="253.37" y2="856.1"/><line class="cls-7" x1="283.62" y1="838.5" x2="254.02" y2="849.7"/><polygon class="cls-10" points="175.72 1199.64 217.61 1187.65 222.22 1191.92 182.12 1203.48 175.72 1199.64"/><polyline class="cls-7" points="222.22 1191.92 222.22 1186.4 219.29 1188.89"/><line class="cls-7" x1="244.88" y1="848.29" x2="254.97" y2="843.56"/><polyline class="cls-10" points="248.59 709.96 305.4 444.85 330.35 430.95 276.42 696.43"/><line class="cls-7" x1="253.38" y1="707.56" x2="310.6" y2="441.95"/><line class="cls-7" x1="259.56" y1="704.6" x2="314.98" y2="439.51"/><line class="cls-7" x1="265.65" y1="701.92" x2="320.5" y2="436.44"/><line class="cls-7" x1="270.34" y1="699.77" x2="325.41" y2="433.7"/><polyline class="cls-10" points="330.35 430.95 331.78 426.57 327.71 423.51 302.65 438.62 306.3 441.36 305.4 444.85"/><line class="cls-7" x1="306.3" y1="441.36" x2="331.78" y2="426.57"/><line class="cls-7" x1="304.63" y1="449.9" x2="329.21" y2="436.56"/><line class="cls-7" x1="327.96" y1="442.75" x2="303.23" y2="455"/><line class="cls-7" x1="326.81" y1="448.41" x2="302.12" y2="460.18"/><line class="cls-7" x1="325.8" y1="453.38" x2="300.76" y2="466.49"/><line class="cls-7" x1="299.62" y1="471.83" x2="324.71" y2="458.74"/><line class="cls-7" x1="323.44" y1="465" x2="298.31" y2="477.96"/><line class="cls-7" x1="297.2" y1="483.13" x2="322.27" y2="470.74"/><line class="cls-7" x1="321.1" y1="476.48" x2="295.93" y2="489.03"/><line class="cls-7" x1="295.02" y1="494.31" x2="319.96" y2="482.09"/><line class="cls-7" x1="315.23" y1="505.38" x2="289.66" y2="518.3"/><line class="cls-7" x1="288.59" y1="523.3" x2="313.97" y2="511.6"/><line class="cls-7" x1="312.87" y1="516.99" x2="287.31" y2="529.28"/><line class="cls-7" x1="285.95" y1="535.61" x2="311.65" y2="522.99"/><line class="cls-7" x1="310.4" y1="529.18" x2="284.58" y2="542.01"/><line class="cls-7" x1="283.34" y1="547.8" x2="309.07" y2="535.73"/><line class="cls-7" x1="307.97" y1="541.11" x2="281.98" y2="554.15"/><line class="cls-7" x1="280.8" y1="559.65" x2="306.91" y2="546.34"/><line class="cls-7" x1="305.57" y1="552.95" x2="279.49" y2="565.78"/><line class="cls-7" x1="278.13" y1="572.1" x2="304.23" y2="559.54"/><line class="cls-7" x1="303.04" y1="565.4" x2="276.82" y2="578.23"/><line class="cls-7" x1="275.62" y1="583.83" x2="301.9" y2="571.01"/><line class="cls-7" x1="300.55" y1="577.63" x2="274.26" y2="590.17"/><line class="cls-7" x1="273.11" y1="595.55" x2="299.39" y2="583.34"/><line class="cls-7" x1="298.1" y1="589.69" x2="271.61" y2="602.54"/><line class="cls-7" x1="270.39" y1="608.21" x2="296.82" y2="595.99"/><line class="cls-7" x1="295.42" y1="602.89" x2="269.16" y2="614.55"/><line class="cls-7" x1="267.73" y1="620.63" x2="294.23" y2="608.73"/><line class="cls-7" x1="292.98" y1="614.9" x2="266.29" y2="627.37"/><line class="cls-7" x1="264.94" y1="633.65" x2="291.58" y2="621.77"/><line class="cls-7" x1="290.4" y1="627.6" x2="263.69" y2="640.05"/><line class="cls-7" x1="262.17" y1="646.59" x2="289.06" y2="634.22"/><line class="cls-7" x1="287.76" y1="640.58" x2="260.73" y2="653.29"/><line class="cls-7" x1="259.47" y1="659.18" x2="286.57" y2="646.45"/><line class="cls-7" x1="285.29" y1="652.77" x2="258.17" y2="665.26"/><line class="cls-7" x1="256.77" y1="671.78" x2="283.98" y2="659.19"/><line class="cls-7" x1="282.64" y1="665.8" x2="255.36" y2="678.33"/><line class="cls-7" x1="254.04" y1="684.49" x2="281.26" y2="672.59"/><line class="cls-7" x1="279.81" y1="679.72" x2="252.71" y2="690.7"/><line class="cls-7" x1="251.41" y1="696.79" x2="278.63" y2="685.52"/><line class="cls-7" x1="277.26" y1="692.28" x2="249.77" y2="704.43"/><polyline class="cls-10" points="271.01 707.26 247.66 718.1 241.13 713.19 272.31 698.86"/><polyline class="cls-10" points="286.33 692 343.49 425.3 368.44 411.4 313.64 681.12"/><line class="cls-7" x1="290.98" y1="690.25" x2="348.69" y2="422.4"/><line class="cls-7" x1="298.01" y1="686.62" x2="353.06" y2="419.97"/><line class="cls-7" x1="303.37" y1="684.18" x2="358.59" y2="416.89"/><line class="cls-7" x1="307.97" y1="682.44" x2="363.5" y2="414.16"/><polyline class="cls-10" points="368.44 411.4 369.87 407.02 365.8 403.96 340.73 419.07 344.38 421.81 343.49 425.3"/><line class="cls-7" x1="344.38" y1="421.81" x2="369.87" y2="407.02"/><line class="cls-7" x1="342.71" y1="430.35" x2="367.3" y2="417.02"/><line class="cls-7" x1="366.04" y1="423.2" x2="341.31" y2="435.45"/><line class="cls-7" x1="364.89" y1="428.86" x2="340.2" y2="440.63"/><line class="cls-7" x1="363.88" y1="433.83" x2="338.85" y2="446.94"/><line class="cls-7" x1="337.7" y1="452.28" x2="362.79" y2="439.2"/><line class="cls-7" x1="361.52" y1="445.45" x2="336.39" y2="458.41"/><line class="cls-7" x1="335.28" y1="463.59" x2="360.36" y2="451.19"/><line class="cls-7" x1="359.19" y1="456.93" x2="334.02" y2="469.48"/><line class="cls-7" x1="333.11" y1="474.76" x2="358.05" y2="462.55"/><line class="cls-7" x1="353.32" y1="485.83" x2="327.75" y2="498.76"/><line class="cls-7" x1="326.67" y1="503.75" x2="352.05" y2="492.06"/><line class="cls-7" x1="350.96" y1="497.44" x2="325.39" y2="509.74"/><line class="cls-7" x1="324.04" y1="516.06" x2="349.74" y2="503.44"/><line class="cls-7" x1="348.48" y1="509.63" x2="322.66" y2="522.46"/><line class="cls-7" x1="321.42" y1="528.25" x2="347.15" y2="516.19"/><line class="cls-7" x1="346.06" y1="521.57" x2="320.06" y2="534.61"/><line class="cls-7" x1="318.88" y1="540.1" x2="345" y2="526.79"/><line class="cls-7" x1="343.65" y1="533.4" x2="317.57" y2="546.23"/><line class="cls-7" x1="316.22" y1="552.55" x2="342.31" y2="539.99"/><line class="cls-7" x1="341.12" y1="545.85" x2="314.9" y2="558.68"/><line class="cls-7" x1="313.7" y1="564.28" x2="339.98" y2="551.46"/><line class="cls-7" x1="338.64" y1="558.08" x2="312.34" y2="570.62"/><line class="cls-7" x1="311.19" y1="576" x2="337.48" y2="563.79"/><line class="cls-7" x1="336.19" y1="570.15" x2="309.69" y2="582.99"/><line class="cls-7" x1="308.48" y1="588.66" x2="334.91" y2="576.44"/><line class="cls-7" x1="333.51" y1="583.34" x2="307.25" y2="595"/><line class="cls-7" x1="305.82" y1="601.08" x2="332.32" y2="589.18"/><line class="cls-7" x1="331.07" y1="595.35" x2="304.37" y2="607.83"/><line class="cls-7" x1="303.03" y1="614.1" x2="329.67" y2="602.22"/><line class="cls-7" x1="328.48" y1="608.06" x2="301.78" y2="620.51"/><line class="cls-7" x1="300.25" y1="627.05" x2="327.14" y2="614.67"/><line class="cls-7" x1="325.85" y1="621.03" x2="298.82" y2="633.74"/><line class="cls-7" x1="297.55" y1="639.63" x2="324.66" y2="626.91"/><line class="cls-7" x1="323.37" y1="633.22" x2="296.25" y2="645.71"/><line class="cls-7" x1="294.86" y1="652.23" x2="322.07" y2="639.64"/><line class="cls-7" x1="320.72" y1="646.26" x2="293.45" y2="658.78"/><line class="cls-7" x1="292.13" y1="664.95" x2="319.34" y2="653.04"/><line class="cls-7" x1="317.9" y1="660.17" x2="290.8" y2="671.16"/><line class="cls-7" x1="289.49" y1="677.24" x2="316.72" y2="665.98"/><line class="cls-7" x1="315.34" y1="672.73" x2="287.86" y2="684.88"/><polygon class="cls-10" points="312.05 680.56 280.87 694.89 287.4 699.8 317.47 684.63 312.05 680.56"/><polyline class="cls-7" points="317.47 684.63 317.22 681.06 315.29 683"/><polyline class="cls-11" points="512.37 597.35 511.78 601.41 510.5 610.11 510.06 613.19 517.18 618.24 519.24 599.3"/><polyline class="cls-11" points="519.97 592.62 521.25 580.88 515.41 576.49 514.5 582.74 513.36 590.5"/><polyline class="cls-8" points="509.73 618.34 509.68 622.87 517.19 618.24"/><polyline class="cls-11" points="528.71 527.06 524.72 524.06 523.93 531.15 523.64 533.76 523.6 534.17"/><polyline class="cls-11" points="522.72 542.23 522.68 542.55 521.7 551.43 520.82 559.36 520.36 563.6 525.19 567.24 525.74 567.65 527.13 568.69 528.64 552.58"/><polyline class="cls-11" points="527.13 568.69 522.56 571.26 522.35 568.55"/><path class="cls-9" d="M492.38,908.04l12.34-65.02c2.6-12.3,13.5-21.33,25.77-21.36h0c14.19-.04,25.01,11.87,23.87,26.28l-3.87,64.33"/><ellipse class="cls-9" cx="522.04" cy="913.32" rx="15.69" ry="30.13" transform="translate(-468.7 1267.05) rotate(-79.9)"/><path class="cls-2" d="M552.69,871.76c-4.29-3.79-10.3-7.17-17.33-9.43-15.09-4.86-29.43-2.75-33.03,4.6"/><path class="cls-5" d="M554.96,857.18c-4.26-3.7-10.37-6.86-17.63-8.74-15.6-4.07-30.89-.82-35.21,7.22"/><path class="cls-9" d="M500.58,905.04c1.5,7.03,9.37,13.2,19.6,14.71,10.65,1.58,20.29-2.41,23.39-9.18"/><path class="cls-9" d="M512.21,817.6h-.01c.01-.17,.04-.35,.08-.52,1.65-9.25,12.69-15.03,24.64-12.89,9.06,1.61,16.05,7.28,18.2,13.94"/><path class="cls-9" d="M517.39,825.33c-2.46-2.22-4.27-4.89-5.18-7.72h-.01s4.5-38.93,4.5-38.93c3.91-6.42,13.07-9.95,22.86-8.21,9.06,1.61,16.05,7.28,18.2,13.94l-2.9,31.11c.09,1.22,.15,1.94,.17,2.37v.02c.03,.54,.02,.64,0,.74-.76,4.26-3.5,7.79-7.45,10.13"/><path class="cls-9" d="M526.51,771.31l.84-6.36c.56-4.63,6.26-7.75,12.72-6.97s11.24,5.18,10.68,9.81l-.09,7.3"/><ellipse class="cls-5" cx="519.47" cy="801.35" rx="3.09" ry="1.44" transform="translate(-433.22 735) rotate(-53.06)"/><ellipse class="cls-9" cx="630.94" cy="697.13" rx="13.91" ry="7.89" transform="translate(-305.43 782.51) rotate(-53.06)"/><path class="cls-9" d="M639.3,686.02l3.92,2.95c3.49,2.62,2.57,9.72-2.05,15.87s-11.17,8.99-14.66,6.36l-3.92-2.94"/><path class="cls-9" d="M640.66,687.67c.17-.09,.34-.16,.53-.24,4.4-2.06,8.69-2.21,11.65,.01,5.52,4.15,4.39,15-2.55,24.23-6.93,9.22-17.05,13.33-22.57,9.18-2.97-2.24-4.01-6.41-3.24-11.2,0-.21,.03-.39,.08-.57"/><ellipse class="cls-9" cx="657.17" cy="687.17" rx="1.29" ry="3.29" transform="translate(-287 799.49) rotate(-53.06)"/><line class="cls-9" x1="652.84" y1="687.45" x2="654.68" y2="685"/><line class="cls-9" x1="656.47" y1="693.58" x2="659.8" y2="689.15"/><path class="cls-9" d="M674.8,705.96c.62,.19,1.17,.47,1.69,.85,4.53,3.41,2.92,13.22-3.63,21.93-6.53,8.69-15.51,12.97-20.05,9.56-.51-.39-.94-.84-1.29-1.38"/><line class="cls-9" x1="630.79" y1="722.25" x2="651.53" y2="736.92"/><line class="cls-9" x1="674.8" y1="705.96" x2="657.14" y2="692.69"/><path class="cls-9" d="M706.7,728.18c2.7,5.1,.79,14.02-5.12,21.89-5.13,6.83-11.87,10.98-17.27,11.19l-.56-.12-3.39-2.55-12.64-9.5c-3.53-2.65-5.76-6.46-6.6-10.62"/><path class="cls-9" d="M706.94,728.36l-.24-.18-2.74-2.06-12.12-9.11c-3.74-2.81-8.32-3.86-12.8-3.29"/><path class="cls-5" d="M694.49,725.94c.09-.24,.25-.44,.45-.62,.87-.76,2.4-.41,3.39,.76s1.08,2.73,.19,3.48c-.4,.33-.9,.45-1.44,.35"/><path class="cls-5" d="M694.49,725.94c-.35,.81-.12,1.93,.64,2.83,.55,.65,1.27,1.06,1.95,1.14"/><path class="cls-5" d="M698.51,729.56l-1.9,.99c-.89,.75-2.39,.4-3.39-.76-.99-1.18-1.08-2.73-.19-3.48l2.52-1.32"/><path class="cls-9" d="M703.96,726.13c1.92-.21,3.59,.14,4.93,1.14,4.79,3.6,2.82,14.33-4.42,23.96-7.23,9.62-17,14.5-21.79,10.9-1.09-.82-1.84-2.01-2.25-3.48"/><path class="cls-9" d="M708.11,781.64c4.2,3.16,13.49-2.09,20.72-11.7,7.23-9.62,9.69-20,5.49-23.16"/><line class="cls-9" x1="734.32" y1="746.78" x2="708.43" y2="726.92"/><path class="cls-9" d="M708.29,781.75c.6,2.04,1.67,3.71,3.25,4.9,6.13,4.61,17.44-.1,25.28-10.52,5.62-7.48,7.91-15.85,6.53-21.7"/><path class="cls-5" d="M739.67,748.75c-1.42-1-3.08-1.51-4.92-1.59"/><path class="cls-2" d="M728.87,742.48c.5,.38,.87,.89,1.12,1.52,1.56,3.91-1.47,12.41-7.67,20.65-6.2,8.24-13.51,13.51-17.71,13.1-.67-.07-1.27-.28-1.77-.66-.42-.31-.75-.74-.99-1.23,.71,.07,1.5-.03,2.37-.26,4.27-1.19,10.21-5.99,15.36-12.84,5.22-6.94,8.19-14.08,8.06-18.51-.02-.95-.2-1.76-.52-2.44,.67,.07,1.26,.29,1.75,.66Z"/><path class="cls-2" d="M704.23,775.61c4.27-1.19,10.21-5.99,15.36-12.84s8.19-14.08,8.06-18.51"/><path class="cls-2" d="M730,744c.67,.07,1.27,.28,1.77,.66,3.57,2.69,.64,12.6-6.55,22.17s-15.9,15.13-19.48,12.45c-.5-.38-.87-.89-1.12-1.52"/><path class="cls-9" d="M551.4,919.76c-2.28-7.15-12.93-14-26.57-16.43-15.61-2.79-29.54,1.23-32.11,9l-92.54,33.83,3.92-34.66,92.6-32.33"/><polygon class="cls-9" points="659.37 819.31 657.57 856.79 557.71 892.22 560.11 857.45 659.37 819.31"/><polyline class="cls-9" points="557.71 892.22 545.43 876.98 560.11 857.45"/><line class="cls-9" x1="558.99" y1="873.7" x2="545.43" y2="876.98"/><polyline class="cls-9" points="675.85 755.21 675.47 779.83 592.6 809.98 595.33 780.13 671.66 751.12"/><line class="cls-5" x1="685.34" y1="764.32" x2="675.47" y2="779.83"/><polyline class="cls-9" points="675.69 765.11 682.22 761.78 708.11 781.63"/><polygon class="cls-9" points="830.25 692.65 828.72 722.32 739.38 755.92 740.6 727.02 830.25 692.65"/><polyline class="cls-5" points="740.6 727.02 725.84 746.66 739.38 755.92"/><line class="cls-5" x1="740.01" y1="741.13" x2="725.84" y2="746.66"/><path class="cls-12" d="M642.32,560.71c-11.77,8.28-10.53,30.3,2.75,49.17,13.29,18.87,33.6,27.45,45.36,19.17l102.42-43.46"/><path class="cls-6" d="M757.12,507.73c-11.77,8.28-9.25,32.12,5.62,53.24,8.83,12.53,20.02,21.29,30.12,24.61"/><polyline class="cls-12" points="642.32 560.71 757.7 507.32 821.67 478.1"/><path class="cls-6" d="M688.07,539.32c-12.08,5.73-13.84,27.29-3.93,48.16,9.9,20.86,27.72,33.13,39.8,27.4"/><path class="cls-6" d="M722.84,524c-12.08,5.73-13.84,27.29-3.93,48.16,2.02,4.25,4.37,8.15,6.93,11.61l-1.45,.58c-3.26,1.3-4.59,5.2-2.8,8.22h0c1.37,2.32,4.17,3.36,6.73,2.51l6.06-2.02c8.25,7.06,17.27,9.86,24.32,6.51"/><ellipse class="cls-6" cx="698.47" cy="569.99" rx="5.19" ry="6.5" transform="translate(-167.46 319.17) rotate(-23.06)"/><path class="cls-6" d="M649.37,563.33l2.71-1.21c.94-.42,1.97,.34,1.85,1.36l-.56,4.73c-.05,.45-.34,.85-.75,1.04l-2.69,1.26c-.93,.44-1.99-.32-1.87-1.34l.54-4.78c.05-.46,.35-.87,.78-1.06Z"/><path class="cls-6" d="M676.38,597.7l5.6-2.44c.49-.22,1.07-.02,1.33,.45l2.14,3.88c.3,.55,.06,1.24-.53,1.48l-5.61,2.23c-.48,.19-1.03,0-1.29-.45l-2.13-3.67c-.31-.54-.09-1.23,.49-1.48Z"/><polyline class="cls-6" points="675.35 598.41 675.93 596.18 683.05 593.07 682.67 595.12"/><path class="cls-6" d="M685.39,600.68l1.53,.55c.24-.15,.58-.38,.44-.63l-4.22-7.96"/><line class="cls-12" x1="792.86" y1="585.58" x2="852.4" y2="561.83"/><path class="cls-6" d="M766.04,535.65l42.47-17.28-2.03,31.75c-.1,1.5-1.07,2.8-2.49,3.32l-33.66,12.24c-2.52,.92-5.16-1-5.08-3.67l.78-26.35Z"/><path class="cls-6" d="M772.4,533.07l1.88-30.78-1.94,1.24c-3.54,2.27-5.86,6.03-6.29,10.21l-1.02,9.94c-.34,3.33,.54,6.66,2.47,9.39l1.09,1.54"/><path class="cls-6" d="M822.95,477.71c-11.42,9.75-13.4,31.77-3.85,52.79,7.63,16.77,20.57,28.44,33.04,31.33"/><line class="cls-12" x1="797.27" y1="489.24" x2="797.26" y2="489.25"/><line class="cls-12" x1="806.65" y1="547.73" x2="806.63" y2="547.72"/><path class="cls-12" d="M861.08,545.44c-1.44,6.82-4.46,12.55-8.94,16.39"/><path class="cls-12" d="M822.95,477.71c5.72,1.34,11.55,4.52,16.9,9.19"/><path class="cls-12" d="M911.58,508.22l-50.53,37.33c-7.88-2.74-16.07-10.59-21.4-21.5-8.16-16.71-6.51-34.29,3.67-39.26l53.76-13.05"/><path class="cls-6" d="M896.08,472.34c-4.99,5.86-4.54,16.49,1.55,25.47,3.72,5.49,8.81,9.25,13.85,10.76l4.52,.86"/><polygon class="cls-6" points="808.47 571.93 816.75 568.22 817.48 571.4 808.78 574.9 808.47 571.93"/><polyline class="cls-6" points="817.48 571.4 819.65 572.99 810.47 576.69 808.52 575.21"/><polyline class="cls-6" points="816.75 568.22 820.31 570.9 820.31 572.9"/><polygon class="cls-6" points="820.96 566.77 829.23 563.07 829.97 566.24 821.26 569.74 820.96 566.77"/><polyline class="cls-6" points="829.97 566.24 832.13 567.84 822.96 571.53 821 570.06"/><polyline class="cls-6" points="829.23 563.07 832.79 565.74 832.8 567.74"/><g><path class="cls-6" d="M846.73,525.58c-.11,.03-.2,.09-.26,.17-.3,.4,.12,1.22,.94,1.84s1.74,.81,2.04,.41"/><ellipse class="cls-6" cx="880.06" cy="505.82" rx=".91" ry="1.87" transform="translate(-53.1 905.28) rotate(-53.06)"/><line class="cls-6" x1="846.47" y1="525.75" x2="878.56" y2="504.7"/><line class="cls-6" x1="881.55" y1="506.94" x2="849.46" y2="528"/></g><g><path class="cls-6" d="M858.84,534.68c-.11,.03-.2,.09-.26,.17-.3,.4,.12,1.22,.94,1.84s1.74,.81,2.04,.41"/><ellipse class="cls-6" cx="892.16" cy="514.92" rx=".91" ry="1.87" transform="translate(-55.55 918.58) rotate(-53.06)"/><line class="cls-6" x1="858.57" y1="534.86" x2="890.66" y2="513.8"/><line class="cls-6" x1="893.65" y1="516.05" x2="861.56" y2="537.1"/></g><g><polyline class="cls-6" points="861.11 533.19 851.8 526.47 886.88 516.51"/><line class="cls-6" x1="858.63" y1="534.89" x2="849.46" y2="528"/></g><g><line class="cls-6" x1="880.54" y1="507.61" x2="889.69" y2="514.24"/><polyline class="cls-6" points="886.88 516.51 877.39 509.37 861.11 533.19"/></g><line class="cls-6" x1="842.75" y1="484.91" x2="835.67" y2="471.86"/><line class="cls-6" x1="844.81" y1="483.67" x2="837.73" y2="470.62"/><ellipse class="cls-6" cx="833.79" cy="466.04" rx="10.79" ry="5.94" transform="translate(-121.27 482.18) rotate(-30.17)"/><path class="cls-6" d="M836.77,471.17l-3.5-7.18s-1.75-.6-7.59,9.19"/><path class="cls-6" d="M843.74,461.68s-5.48-.66-10.47,2.31c0,0-1.59-1.5,.7-4.56"/><path class="cls-6" d="M896.08,472.34c.91-.32,1.86-.53,2.83-.64l-1.21,18.78,18.33-7.3-.34-16.62"/><path class="cls-12" d="M915.68,466.55l-16.77,5.14,16.77-5.14Z"/><polyline class="cls-12" points="915.76 470.17 928.58 463.36 931.57 465.61 931.27 468.77 930.41 477.63 926.61 474.77 915.98 480.98"/><polyline class="cls-12" points="931.57 465.61 943.06 476.97 940.94 488.03 930.41 477.63"/><polyline class="cls-12" points="940.94 488.03 932.02 496.59 932.48 504.23 921.62 508.46"/><path class="cls-12" d="M912.91,496.95l.19,1.33c.3,2.09,2.54,3.28,4.43,2.35l2.81-1.37c1.36-.66,2.05-2.21,1.62-3.67l-.76-2.58-8.29,3.93Z"/><line class="cls-12" x1="915.61" y1="531.41" x2="916.15" y2="500.87"/><line class="cls-12" x1="920.64" y1="529.78" x2="921.17" y2="499.24"/><polygon class="cls-12" points="911.85 534.07 922.96 530.13 921.62 562.62 910.65 566.37 911.85 534.07"/><path class="cls-12" d="M922.32,466.69l-.47-30.32c-.02-1.52-1.48-2.61-2.95-2.2h0c-1.01,.28-1.71,1.21-1.7,2.26l.27,31.47"/><path class="cls-12" d="M917.2,436.42l-2.11-.9c-1.07-.46-1.09-1.97-.03-2.45l6.94-3.17c.88-.4,1.87,.23,1.9,1.19l.16,7.16-2.18-.27"/><polyline class="cls-12" points="923.23 429.96 923.75 400.46 913.74 404.7 914.08 434.09"/><polygon class="cls-12" points="861.77 585.19 910.65 566.37 914.7 569.42 914.11 576.61 866.43 596.83 868.23 589.68 861.77 585.19"/><line class="cls-12" x1="853.8" y1="1006.98" x2="866.43" y2="596.83"/><polyline class="cls-12" points="914.11 576.61 904.63 991.27 900.58 992.56 846.88 1009.58 857.76 1017.75 910.52 1001.37 912.65 990.79 905.29 995.66"/><line class="cls-6" x1="900.58" y1="992.56" x2="910.52" y2="1001.37"/><line class="cls-6" x1="864.65" y1="1003.94" x2="876.02" y2="592.76"/><line class="cls-6" x1="884.38" y1="589.22" x2="876.35" y2="1000.23"/><line class="cls-6" x1="886.47" y1="997.03" x2="893.51" y2="585.34"/><line class="cls-6" x1="905.28" y1="580.35" x2="895.29" y2="994.23"/><polyline class="cls-12" points="868.23 589.68 914.7 569.42 932.93 564.36 979.4 544.1"/><line class="cls-6" x1="866.21" y1="604.01" x2="913.9" y2="585.39"/><line class="cls-6" x1="866.55" y1="612.69" x2="913.7" y2="594.18"/><line class="cls-6" x1="913.51" y1="602.67" x2="865.7" y2="620.62"/><line class="cls-6" x1="865.45" y1="628.8" x2="913.34" y2="610.19"/><line class="cls-6" x1="913.11" y1="620.02" x2="865.15" y2="638.3"/><line class="cls-6" x1="864.91" y1="646.16" x2="912.93" y2="627.88"/><line class="cls-6" x1="912.72" y1="637.04" x2="864.62" y2="655.65"/><line class="cls-6" x1="864.4" y1="662.88" x2="912.54" y2="644.94"/><line class="cls-6" x1="912.32" y1="654.61" x2="864.1" y2="672.47"/><line class="cls-6" x1="912.13" y1="663.12" x2="863.84" y2="680.86"/><line class="cls-6" x1="863.53" y1="691.15" x2="911.94" y2="671.55"/><line class="cls-6" x1="911.72" y1="681.21" x2="863.29" y2="698.83"/><line class="cls-6" x1="863.02" y1="707.72" x2="911.52" y2="689.68"/><line class="cls-6" x1="911.31" y1="699.08" x2="862.73" y2="717.07"/><line class="cls-6" x1="862.46" y1="725.78" x2="911.11" y2="707.81"/><line class="cls-6" x1="910.88" y1="717.72" x2="862.2" y2="734.19"/><line class="cls-6" x1="861.92" y1="743.45" x2="910.68" y2="726.6"/><line class="cls-6" x1="910.47" y1="735.92" x2="861.63" y2="752.71"/><line class="cls-6" x1="861.35" y1="761.88" x2="910.25" y2="745.27"/><line class="cls-6" x1="910.05" y1="754.05" x2="861.06" y2="771.37"/><line class="cls-6" x1="860.77" y1="780.81" x2="909.83" y2="763.68"/><line class="cls-6" x1="909.62" y1="773.07" x2="860.5" y2="789.57"/><line class="cls-6" x1="860.23" y1="798.23" x2="909.41" y2="781.94"/><line class="cls-6" x1="909.2" y1="791.51" x2="859.93" y2="807.91"/><line class="cls-6" x1="859.65" y1="817.06" x2="908.97" y2="801.59"/><line class="cls-6" x1="908.74" y1="811.39" x2="859.33" y2="827.33"/><line class="cls-6" x1="859.03" y1="837.29" x2="908.53" y2="820.77"/><line class="cls-6" x1="908.28" y1="831.75" x2="858.74" y2="846.74"/><line class="cls-6" x1="858.45" y1="856.09" x2="908.07" y2="840.63"/><line class="cls-6" x1="858.19" y1="865.03" x2="907.81" y2="849.57"/><line class="cls-6" x1="859.03" y1="874.94" x2="908.66" y2="859.48"/><line class="cls-6" x1="857.48" y1="914.71" x2="907.1" y2="899.25"/><line class="cls-6" x1="857.1" y1="925.4" x2="906.73" y2="909.94"/><line class="cls-6" x1="857.09" y1="935.33" x2="906.71" y2="919.87"/><line class="cls-6" x1="856.3" y1="945.68" x2="905.93" y2="930.22"/><line class="cls-6" x1="855.66" y1="956.17" x2="905.29" y2="940.71"/><line class="cls-6" x1="854.81" y1="966.49" x2="904.43" y2="951.03"/><line class="cls-6" x1="855.46" y1="975.73" x2="905.09" y2="960.27"/><line class="cls-6" x1="855.38" y1="986.3" x2="905.01" y2="970.84"/><line class="cls-6" x1="855.24" y1="997.64" x2="904.86" y2="982.19"/><polygon class="cls-12" points="926.47 559.87 975.35 541.05 979.4 544.1 978.8 551.29 931.13 571.51 932.93 564.36 926.47 559.87"/><line class="cls-12" x1="918.5" y1="981.65" x2="931.13" y2="571.51"/><polyline class="cls-12" points="978.8 551.29 969.33 965.95 965.27 967.23 911.58 984.25 922.46 992.43 975.21 976.05 977.35 965.47 969.99 970.34"/><line class="cls-6" x1="965.27" y1="967.23" x2="975.21" y2="976.05"/><line class="cls-6" x1="929.35" y1="978.62" x2="940.72" y2="567.44"/><line class="cls-6" x1="949.08" y1="563.89" x2="941.05" y2="974.91"/><line class="cls-6" x1="951.17" y1="971.7" x2="958.21" y2="560.02"/><line class="cls-6" x1="969.97" y1="555.03" x2="959.99" y2="968.91"/><line class="cls-6" x1="930.9" y1="578.69" x2="978.6" y2="560.07"/><line class="cls-6" x1="931.25" y1="587.37" x2="978.4" y2="568.86"/><line class="cls-6" x1="978.21" y1="577.35" x2="930.39" y2="595.29"/><line class="cls-6" x1="930.14" y1="603.48" x2="978.03" y2="584.86"/><line class="cls-6" x1="977.81" y1="594.7" x2="929.85" y2="612.98"/><line class="cls-6" x1="929.61" y1="620.84" x2="977.63" y2="602.56"/><line class="cls-6" x1="977.42" y1="611.71" x2="929.32" y2="630.33"/><line class="cls-6" x1="929.09" y1="637.56" x2="977.24" y2="619.62"/><line class="cls-6" x1="977.02" y1="629.29" x2="928.8" y2="647.15"/><line class="cls-6" x1="976.83" y1="637.8" x2="928.54" y2="655.53"/><line class="cls-6" x1="928.22" y1="665.83" x2="976.63" y2="646.23"/><line class="cls-6" x1="976.41" y1="655.89" x2="927.99" y2="673.51"/><line class="cls-6" x1="927.71" y1="682.39" x2="976.22" y2="664.36"/><line class="cls-6" x1="976" y1="673.75" x2="927.42" y2="691.75"/><line class="cls-6" x1="927.16" y1="700.46" x2="975.8" y2="682.49"/><line class="cls-6" x1="975.58" y1="692.39" x2="926.9" y2="708.87"/><line class="cls-6" x1="926.61" y1="718.13" x2="975.37" y2="701.28"/><line class="cls-6" x1="975.16" y1="710.6" x2="926.33" y2="727.39"/><line class="cls-6" x1="926.04" y1="736.56" x2="974.95" y2="719.94"/><line class="cls-6" x1="974.75" y1="728.73" x2="925.75" y2="746.05"/><line class="cls-6" x1="925.46" y1="755.48" x2="974.53" y2="738.35"/><line class="cls-6" x1="974.31" y1="747.75" x2="925.19" y2="764.25"/><line class="cls-6" x1="924.93" y1="772.91" x2="974.11" y2="756.62"/><line class="cls-6" x1="973.89" y1="766.18" x2="924.63" y2="782.59"/><line class="cls-6" x1="924.35" y1="791.74" x2="973.66" y2="776.27"/><line class="cls-6" x1="973.44" y1="786.06" x2="924.03" y2="802.01"/><line class="cls-6" x1="923.72" y1="811.97" x2="973.22" y2="795.44"/><line class="cls-6" x1="972.97" y1="806.43" x2="923.43" y2="821.41"/><line class="cls-6" x1="923.14" y1="830.76" x2="972.77" y2="815.31"/><line class="cls-6" x1="922.88" y1="839.71" x2="972.51" y2="824.25"/><line class="cls-6" x1="923.73" y1="849.62" x2="973.35" y2="834.16"/><line class="cls-6" x1="922.17" y1="889.39" x2="971.8" y2="873.93"/><line class="cls-6" x1="921.8" y1="900.08" x2="971.42" y2="884.62"/><line class="cls-6" x1="921.78" y1="910" x2="971.41" y2="894.54"/><line class="cls-6" x1="921" y1="920.36" x2="970.62" y2="904.9"/><line class="cls-6" x1="920.36" y1="930.84" x2="969.98" y2="915.38"/><line class="cls-6" x1="919.5" y1="941.17" x2="969.13" y2="925.71"/><line class="cls-6" x1="920.16" y1="950.41" x2="969.78" y2="934.95"/><line class="cls-6" x1="920.08" y1="960.98" x2="969.7" y2="945.52"/><line class="cls-6" x1="919.93" y1="972.32" x2="969.56" y2="956.86"/><line class="cls-6" x1="921.62" y1="562.62" x2="926.47" y2="559.87"/><polyline class="cls-12" points="920.24 112.25 920.72 106.12 916.8 101.43 875.69 124.37 881.56 128.79 882.01 133.62"/><polyline class="cls-12" points="872.78 423.62 882.01 133.62 889.67 129.34 920.24 112.25 913.74 404.7 864.59 428.14 874.1 435.29 913.88 417.01"/><line class="cls-6" x1="880.35" y1="420.63" x2="889.67" y2="129.34"/><line class="cls-6" x1="896.83" y1="125.34" x2="890.03" y2="416.01"/><line class="cls-6" x1="897.08" y1="412.65" x2="904.27" y2="121.18"/><line class="cls-6" x1="911.73" y1="117.01" x2="906.67" y2="408.07"/><line class="cls-6" x1="881.72" y1="142.69" x2="920.02" y2="122.11"/><line class="cls-6" x1="881.5" y1="155.55" x2="919.79" y2="134.96"/><line class="cls-6" x1="881.1" y1="161.76" x2="919.39" y2="141.18"/><line class="cls-6" x1="881.35" y1="167.1" x2="919.65" y2="146.52"/><line class="cls-6" x1="881.26" y1="173.66" x2="919.55" y2="153.08"/><line class="cls-6" x1="880.86" y1="181.04" x2="919.16" y2="160.46"/><line class="cls-6" x1="880.7" y1="186.15" x2="919" y2="165.57"/><line class="cls-6" x1="880.31" y1="193.53" x2="918.6" y2="172.95"/><line class="cls-6" x1="879.62" y1="206.19" x2="917.92" y2="185.61"/><line class="cls-6" x1="879.23" y1="213.57" x2="917.52" y2="192.98"/><line class="cls-6" x1="879.74" y1="217.79" x2="918.03" y2="197.21"/><line class="cls-6" x1="879.34" y1="225.16" x2="917.64" y2="204.58"/><line class="cls-6" x1="879.18" y1="232.46" x2="917.47" y2="211.88"/><line class="cls-6" x1="879.69" y1="236.68" x2="917.98" y2="216.1"/><line class="cls-6" x1="879.29" y1="244.06" x2="917.59" y2="223.47"/><line class="cls-6" x1="878.62" y1="251.68" x2="916.91" y2="231.1"/><line class="cls-6" x1="877.51" y1="259.73" x2="917.43" y2="238.75"/><line class="cls-6" x1="878.4" y1="263.63" x2="916.7" y2="244.84"/><line class="cls-6" x1="877.77" y1="271.04" x2="917.13" y2="251.99"/><line class="cls-6" x1="877.88" y1="277.29" x2="916.19" y2="258.51"/><line class="cls-6" x1="877.25" y1="284.7" x2="916.61" y2="265.65"/><line class="cls-6" x1="877.26" y1="291.17" x2="916.62" y2="272.12"/><line class="cls-6" x1="877.15" y1="297.22" x2="916.52" y2="278.18"/><line class="cls-6" x1="877.1" y1="305.24" x2="916.46" y2="286.19"/><line class="cls-6" x1="876.52" y1="312.26" x2="915.88" y2="293.21"/><line class="cls-6" x1="876.89" y1="319.35" x2="916.25" y2="300.3"/><line class="cls-6" x1="876.33" y1="325.71" x2="915.69" y2="306.67"/><line class="cls-6" x1="875.84" y1="332.28" x2="915.2" y2="313.23"/><line class="cls-6" x1="875.79" y1="339.28" x2="915.15" y2="320.23"/><line class="cls-6" x1="875.47" y1="345.95" x2="914.83" y2="326.9"/><line class="cls-6" x1="875.02" y1="353.83" x2="914.38" y2="334.78"/><line class="cls-6" x1="875.58" y1="360.91" x2="914.94" y2="341.86"/><line class="cls-6" x1="875.13" y1="368.79" x2="914.49" y2="349.74"/><line class="cls-6" x1="875.18" y1="376.18" x2="914.54" y2="357.13"/><line class="cls-6" x1="874.73" y1="384.06" x2="914.09" y2="365.01"/><line class="cls-6" x1="875" y1="389.42" x2="914.36" y2="370.38"/><line class="cls-6" x1="874.55" y1="397.3" x2="913.91" y2="378.26"/><line class="cls-6" x1="874.02" y1="403.74" x2="913.39" y2="384.69"/><line class="cls-6" x1="873.57" y1="411.62" x2="912.93" y2="392.57"/><line class="cls-6" x1="873.87" y1="418.5" x2="913.23" y2="399.45"/><line class="cls-6" x1="881.83" y1="149.4" x2="920.12" y2="128.82"/><polyline class="cls-12" points="972.72 83.23 973.03 77.09 968.99 72.5 928.52 96.57 934.51 100.82 935.09 105.64"/><line class="cls-6" x1="941.32" y1="392.58" x2="942.63" y2="101.15"/><line class="cls-6" x1="949.68" y1="96.95" x2="950.87" y2="387.7"/><line class="cls-6" x1="957.83" y1="384.15" x2="957" y2="92.59"/><line class="cls-6" x1="964.34" y1="88.22" x2="967.29" y2="379.31"/><line class="cls-6" x1="935.05" y1="114.72" x2="972.77" y2="93.09"/><line class="cls-6" x1="935.18" y1="127.57" x2="972.9" y2="105.94"/><line class="cls-6" x1="934.95" y1="133.79" x2="972.67" y2="112.17"/><line class="cls-6" x1="935.36" y1="139.13" x2="973.07" y2="117.5"/><line class="cls-6" x1="935.44" y1="145.69" x2="973.16" y2="124.06"/><line class="cls-6" x1="935.25" y1="153.07" x2="972.96" y2="131.45"/><line class="cls-6" x1="935.23" y1="158.19" x2="972.94" y2="136.56"/><line class="cls-6" x1="935.04" y1="165.57" x2="972.75" y2="143.95"/><line class="cls-6" x1="934.7" y1="178.25" x2="972.42" y2="156.62"/><line class="cls-6" x1="934.51" y1="185.63" x2="972.22" y2="164.01"/><line class="cls-6" x1="935.14" y1="189.84" x2="972.85" y2="168.21"/><line class="cls-6" x1="934.94" y1="197.22" x2="972.66" y2="175.6"/><line class="cls-6" x1="934.98" y1="204.52" x2="972.69" y2="182.89"/><line class="cls-6" x1="935.6" y1="208.72" x2="973.32" y2="187.1"/><line class="cls-6" x1="935.41" y1="216.11" x2="973.13" y2="194.48"/><line class="cls-6" x1="934.95" y1="223.75" x2="972.66" y2="202.12"/><line class="cls-6" x1="934.06" y1="231.82" x2="973.39" y2="209.76"/><line class="cls-6" x1="935.06" y1="235.7" x2="972.83" y2="215.87"/><line class="cls-6" x1="934.63" y1="243.12" x2="973.46" y2="223"/><line class="cls-6" x1="934.91" y1="249.37" x2="972.69" y2="229.54"/><line class="cls-6" x1="934.49" y1="256.79" x2="973.31" y2="236.67"/><line class="cls-6" x1="934.67" y1="263.26" x2="973.5" y2="243.14"/><line class="cls-6" x1="934.74" y1="269.32" x2="973.56" y2="249.19"/><line class="cls-6" x1="934.9" y1="277.33" x2="973.72" y2="257.21"/><line class="cls-6" x1="934.52" y1="284.36" x2="973.34" y2="264.24"/><line class="cls-6" x1="935.07" y1="291.44" x2="973.9" y2="271.32"/><line class="cls-6" x1="934.69" y1="297.82" x2="973.51" y2="277.69"/><line class="cls-6" x1="934.38" y1="304.39" x2="973.21" y2="284.27"/><line class="cls-6" x1="934.53" y1="311.39" x2="973.35" y2="291.27"/><line class="cls-6" x1="934.39" y1="318.07" x2="973.21" y2="297.95"/><line class="cls-6" x1="934.15" y1="325.96" x2="972.98" y2="305.84"/><line class="cls-6" x1="934.91" y1="333.02" x2="973.73" y2="312.9"/><line class="cls-6" x1="934.68" y1="340.91" x2="973.5" y2="320.78"/><line class="cls-6" x1="934.93" y1="348.29" x2="973.75" y2="328.17"/><line class="cls-6" x1="934.69" y1="356.18" x2="973.52" y2="336.06"/><line class="cls-6" x1="935.12" y1="361.54" x2="973.94" y2="341.42"/><line class="cls-6" x1="934.88" y1="369.43" x2="973.71" y2="349.31"/><line class="cls-6" x1="934.53" y1="375.88" x2="973.36" y2="355.75"/><line class="cls-6" x1="934.3" y1="383.76" x2="973.12" y2="363.64"/><line class="cls-6" x1="934.79" y1="390.63" x2="973.61" y2="370.51"/><line class="cls-6" x1="935.34" y1="121.42" x2="973.06" y2="99.8"/><polyline class="cls-12" points="974.26 375.75 982.24 381.74 974.74 388.05 935.47 407.41 925.77 400.53 974.26 375.75 972.72 83.23 942.63 101.15 935.09 105.64 933.83 395.78"/><line class="cls-6" x1="881.56" y1="128.79" x2="920.72" y2="106.12"/><line class="cls-6" x1="934.51" y1="100.82" x2="973.03" y2="77.09"/><text class="cls-18" transform="translate(367.24 339.23)"><tspan x="0" y="0">Thianhe</tspan></text><text class="cls-15" transform="translate(366.3 365.67)"><tspan x="0" y="0">Modulo principal</tspan></text><polyline class="cls-11" points="525.08 401.34 510.88 377.01 368.44 377.01"/></svg>