<?xml version="1.0" encoding="utf-8"?>
<!-- Generator: Adobe Illustrator 22.0.1, SVG Export Plug-In . SVG Version: 6.00 Build 0)  -->
<svg version="1.1" id="Capa_1" xmlns="http://www.w3.org/2000/svg" xmlns:xlink="http://www.w3.org/1999/xlink" x="0px" y="0px"
	 viewBox="0 0 843.1 595.3" style="enable-background:new 0 0 843.1 595.3;" xml:space="preserve">
<style type="text/css">
	.st0{fill:none;stroke:#FFFFFF;stroke-miterlimit:10;}
	.st1{fill:none;stroke:#FFFFFF;stroke-width:0.5;stroke-miterlimit:10;}
	.st2{fill:none;stroke:#BE965F;stroke-miterlimit:10;}
	.st3{fill:none;stroke:#BE965F;stroke-width:0.5;stroke-miterlimit:10;}
	.st4{fill:none;stroke:#D3A69F;stroke-width:0.5;stroke-miterlimit:10;}
	.st5{fill:none;stroke:#CBD5B9;stroke-width:0.5;stroke-miterlimit:10;}
	.st6{fill:none;stroke:#BE965F;stroke-linecap:round;stroke-miterlimit:10;}
	.st7{fill:none;stroke:#CBD5B9;stroke-miterlimit:10;}
	.st8{fill:none;stroke:#FFFFFF;stroke-width:0.25;stroke-miterlimit:10;stroke-dasharray:0,1;}
	.st9{fill:none;stroke:#D3A69F;stroke-miterlimit:10;}
	.st10{fill:none;stroke:#CBD5B9;stroke-linecap:round;stroke-miterlimit:10;}
	.st11{fill:#CBD5B9;}
	.st12{font-family:'Helvetica-Bold';}
	.st13{font-size:14px;}
	.st14{font-family:'Helvetica';}
	.st15{font-size:11px;}
	.st16{fill:#BE965F;}
	.st17{fill:#D3A69F;}
</style>
<path class="st0" d="M570.9,139.1l2.1-1.3l25.4-13.3l0.8-0.4c8.6-0.9,16.4,5.9,17.5,15.3c0.6,5.5-1.2,10.7-4.6,14.2l-20.9,12.7
	l-3.6,1.8"/>
<path class="st0" d="M593.3,155.3c0,5.1-2.2,9.7-5.8,12.9c-1.7,0.6-3.6,0.9-5.5,0.9c-9.4,0-17-7.7-17-17.1c0-5.1,2.2-9.7,5.8-12.9
	c1.7-0.6,3.6-0.9,5.5-0.9C585.7,138.1,593.3,145.8,593.3,155.3z"/>
<path class="st0" d="M593.3,155.3c0,5.1-2.2,9.7-5.8,12.9c-1.7,0.6-3.6,0.9-5.5,0.9c-9.4,0-17-7.7-17-17.1c0-5.1,2.2-9.7,5.8-12.9
	c1.7-0.6,3.6-0.9,5.5-0.9C585.7,138.1,593.3,145.8,593.3,155.3z"/>
<path class="st0" d="M577.3,163.3c-0.3,0.5-0.7,0.8-1.2,1.1c-2.4,1.3-5.8-0.4-7.6-3.7c-1.8-3.3-1.3-7.1,1-8.4
	c0.2-0.1,0.3-0.1,0.5-0.2"/>
<path class="st0" d="M577.8,163.1c-0.2,0.1-0.3,0.1-0.5,0.2c1.3-1.7,1.2-4.6-0.2-7.3c-1.7-3.1-4.8-4.8-7.1-3.9
	c0.3-0.4,0.7-0.8,1.2-1.1c2.4-1.3,5.8,0.4,7.6,3.7C580.6,158,580.2,161.8,577.8,163.1L577.8,163.1z"/>
<path class="st1" d="M576.9,142.4l4.6,1.6l0.6,0.2l-2.9,4.8l-4.9-1.7C574.3,147.2,572.9,144.5,576.9,142.4L576.9,142.4z"/>
<polygon class="st1" points="588.5,158 590.5,158 590.5,161 588.5,162.1 "/>
<path class="st1" d="M615.7,147.7l5.5-4.3c1.3-3.7,1-8.1-1-12.1c-2.9-5.9-8.7-9.3-14.2-8.8l-5.8,1.5"/>
<path class="st1" d="M621.2,143.4l5.7-2.8c1.3-3.7,1-8.1-1-12.1c-2.9-5.9-8.7-9.3-14.2-8.8l-5.7,2.8"/>
<path class="st0" d="M611.7,119.6l15.9-9c5.4-0.6,11.1,2.6,13.8,8.2c1.9,3.9,2.1,8.1,0.8,11.6l-15.3,10.1"/>
<polygon class="st0" points="592.8,127.4 556.2,110.6 575.7,99.7 613.7,116.8 "/>
<polygon class="st0" points="671.5,162.1 630.2,143.1 649.7,132.2 689.5,150.2 "/>
<polyline class="st0" points="638.5,138.1 634.5,135.6 631.8,133.9 "/>
<polyline class="st0" points="630.2,143.1 634.5,135.6 649.7,132.2 "/>
<line class="st0" x1="567.9" y1="116" x2="587.5" y2="105"/>
<line class="st0" x1="580.2" y1="121.7" x2="599.8" y2="110.8"/>
<line class="st0" x1="643.7" y1="149.6" x2="662.5" y2="138.1"/>
<line class="st0" x1="657.4" y1="155.6" x2="676.3" y2="144.2"/>
<path class="st2" d="M536.2,202.1l0.6-0.4c2.2-1,3.9-2.7,5.1-4.9"/>
<polyline class="st2" points="533.1,203.9 530,205.6 527.2,207.2 "/>
<path class="st2" d="M502.7,171.1l15.7-8.3c7.6-3.6,17.8,2.2,22.9,13c3.3,7,3.6,14.3,1.4,19.6"/>
<path class="st2" d="M513.1,218.1l8.1-4.8c8.1-3.9,10.3-16.3,4.8-27.9c-5.5-11.5-16.5-17.8-24.6-13.9l-34.1,19.3l-0.5,0.3h0"/>
<path class="st3" d="M489.5,179.9c7.1,0.1,14.8,5.9,19.1,15.1c2.5,5.3,3.4,10.8,2.9,15.6"/>
<path class="st2" d="M541.4,194l8.7,10l2.5-0.2c0.3,0,0.5,0.2,0.4,0.5l-2.7,2.1l-9.8-11C540.5,195.3,540,194.5,541.4,194L541.4,194z
	"/>
<path class="st2" d="M530,205.6l3.4,0.9l2.4-1.4l0.4-3.6c0-0.4-0.4-0.7-0.8-0.5l-2,1c-0.2,0.1-0.3,0.2-0.3,0.4l-0.2,3"/>
<path class="st3" d="M518.5,180.8l0.4-0.6c-0.1-0.3-0.5-0.4-0.8-0.3l-6.6,3.9c-0.2,0.1-0.2,0.3-0.2,0.5l0.9,0.3"/>
<path class="st3" d="M507.1,184.6l0.4-0.6c-0.1-0.3-0.5-0.4-0.8-0.3l-6.6,3.9c-0.2,0.1-0.2,0.3-0.2,0.5l0.9,0.3"/>
<path class="st3" d="M500.2,191.4l0.4-0.6c-0.1-0.3-0.5-0.4-0.8-0.3l-6.6,3.9c-0.2,0.1-0.2,0.3-0.2,0.5l0.9,0.3"/>
<path class="st3" d="M479.6,211.5l0.4-0.6c-0.1-0.3-0.5-0.4-0.8-0.3l-6.6,3.9c-0.2,0.1-0.2,0.3-0.2,0.5l0.9,0.3"/>
<path class="st3" d="M471.8,216.3l0.4-0.6c-0.1-0.3-0.5-0.4-0.8-0.3l-6.6,3.9c-0.2,0.1-0.2,0.3-0.2,0.5l0.9,0.3"/>
<path class="st4" d="M487.1,275.9l0.7,0c0.2-0.2,0.2-0.6-0.1-0.8l-6.6-3.9c-0.2-0.1-0.4-0.1-0.5,0l0.2,0.9"/>
<path class="st4" d="M497.8,281.6l0.7,0c0.2-0.2,0.2-0.6-0.1-0.8l-6.6-3.9c-0.2-0.1-0.4-0.1-0.5,0l0.2,0.9"/>
<path class="st4" d="M481.9,265.9l0.1-0.7c-0.2-0.2-0.6-0.2-0.8,0.1l-4.2,6.4c-0.1,0.1-0.1,0.4,0,0.5l1-0.1"/>
<path class="st4" d="M490.2,258.1l0.4-0.6c-0.1-0.3-0.5-0.4-0.8-0.2l-6.4,4.2c-0.1,0.1-0.2,0.3-0.2,0.5l0.9,0.3"/>
<path class="st5" d="M328.5,176l0.6,0c0.2-0.2,0.1-0.6-0.2-0.7l-6-3.6c-0.1-0.1-0.3-0.1-0.4,0l0.3,0.9"/>
<path class="st5" d="M344.2,184.6l0.6,0c0.2-0.2,0.1-0.6-0.2-0.7l-6-3.6c-0.1-0.1-0.3-0.1-0.4,0l0.3,0.9"/>
<path class="st5" d="M356.6,191.6l0.6,0c0.2-0.2,0.1-0.6-0.2-0.7l-6-3.6c-0.1-0.1-0.3-0.1-0.4,0l0.3,0.9"/>
<path class="st5" d="M347.6,206.6l0.6,0c0.2-0.2,0.1-0.6-0.2-0.7l-6-3.6c-0.1-0.1-0.3-0.1-0.4,0l0.3,0.9"/>
<path class="st5" d="M336.7,200.6l0.6,0c0.2-0.2,0.1-0.6-0.2-0.7l-6-3.6c-0.1-0.1-0.3-0.1-0.4,0l0.3,0.9"/>
<path class="st5" d="M319.7,190.5l0.6,0c0.2-0.2,0.1-0.6-0.2-0.7l-6-3.6c-0.1-0.1-0.3-0.1-0.4,0l0.3,0.9"/>
<path class="st3" d="M516.6,194.4l0.6,0.5c0.3-0.1,0.5-0.4,0.4-0.7l0,0c-0.1-2.6-1.2-5.1-3-7l-0.1-0.1c-0.1-0.2-0.2-0.3-0.4-0.2
	l-0.4,0.9"/>
<path class="st3" d="M474.2,208.2l0.7,0.3c0.4,0,0.5-0.2,0.4-0.4l0,0c-0.3-1.7-1.6-3.4-3.8-4.8l-0.1,0c-0.1-0.1-0.3-0.2-0.5-0.2
	l-0.4,0.5"/>
<path class="st3" d="M524.2,189.1l0.6,0.5c0.3-0.1,0.5-0.4,0.4-0.7l0,0c-0.1-2.6-1.2-5.1-3-7l-0.1-0.1c-0.1-0.2-0.2-0.3-0.4-0.2
	l-0.4,0.9"/>
<ellipse transform="matrix(0.2862 -0.9582 0.9582 0.2862 175.9935 643.5811)" class="st3" cx="519.9" cy="203.7" rx="1.8" ry="1.1"/>
<path class="st3" d="M519.4,205.4l-1.3-0.6c-0.5-0.1-0.6-1-0.4-2s0.9-1.6,1.4-1.4l1.3,0.6"/>
<path class="st3" d="M521.8,205.7c-0.6,0.9-1.6,1.6-2.6,1.6c-1.8,0-3.3-1.8-3.3-4s1.5-4,3.3-4c0.8,0,1.6,0.4,2.2,1"/>
<ellipse transform="matrix(0.9582 -0.2862 0.2862 0.9582 -44.4903 102.6634)" class="st5" cx="329" cy="203.5" rx="1" ry="1.8"/>
<path class="st5" d="M329.5,205.3l1.3-0.6c0.5-0.1,0.6-1,0.4-2s-0.9-1.6-1.4-1.4l-1.3,0.6"/>
<ellipse transform="matrix(0.9582 -0.2862 0.2862 0.9582 -42.8843 99.0452)" class="st5" cx="317.4" cy="196.2" rx="1" ry="1.8"/>
<path class="st5" d="M317.9,198l1.3-0.6c0.5-0.1,0.6-1,0.4-2s-0.9-1.6-1.4-1.4l-1.3,0.6"/>
<path class="st3" d="M495.1,199.3l1.1,1.4c0.2,0.3,0.6,0.4,1,0.2l1.8-1.2c0.3-0.2,0.4-0.7,0.2-1l-0.9-1.3c-0.2-0.3-0.6-0.4-0.9-0.2
	l-1.9,1C495,198.5,494.9,199,495.1,199.3L495.1,199.3z"/>
<path class="st3" d="M495.3,198.3l-1.1,1.2c-0.2,0.2-0.2,0.5-0.1,0.7l1.3,2.2c0.1,0.3,0.5,0.4,0.7,0.2l0.3-1.4"/>
<path class="st3" d="M499.3,199.3l0.1,1.5c0,0.3-0.2,0.5-0.4,0.6l-2.9,1.5"/>
<path class="st5" d="M351.2,196.8l-1.1,1.2c-0.2,0.2-0.6,0.3-1,0.1l-1.8-0.9c-0.3-0.2-0.4-0.6-0.2-0.8l0.9-1
	c0.2-0.2,0.6-0.3,0.9-0.2l1.9,0.8C351.4,196.1,351.5,196.5,351.2,196.8L351.2,196.8z"/>
<path class="st5" d="M351,195.9l1.1,1c0.2,0.1,0.2,0.4,0.1,0.5l-1.3,1.8c-0.1,0.2-0.5,0.3-0.7,0.1l-0.3-1.1"/>
<path class="st5" d="M347,196.8L347,198c0,0.2,0.2,0.4,0.4,0.4l2.9,1.2"/>
<path class="st5" d="M345.3,193.4l-1.1,1.2c-0.2,0.2-0.6,0.3-1,0.1l-1.8-0.9c-0.3-0.2-0.4-0.6-0.2-0.8l0.9-1
	c0.2-0.2,0.6-0.3,0.9-0.2l1.9,0.8C345.5,192.7,345.6,193.1,345.3,193.4L345.3,193.4z"/>
<path class="st5" d="M345.1,192.6l1.1,1c0.2,0.1,0.2,0.4,0.1,0.5l-1.3,1.8c-0.1,0.2-0.5,0.3-0.7,0.1l-0.3-1.1"/>
<path class="st5" d="M341.1,193.4l-0.1,1.2c0,0.2,0.2,0.4,0.4,0.4l2.9,1.2"/>
<path class="st3" d="M501,195.7l1.1,1.4c0.2,0.3,0.6,0.4,1,0.2l1.8-1.2c0.3-0.2,0.4-0.7,0.2-1l-0.9-1.3c-0.2-0.3-0.6-0.4-0.9-0.2
	l-1.9,1C500.9,194.8,500.8,195.3,501,195.7L501,195.7z"/>
<path class="st3" d="M501.2,194.6l-1.1,1.2c-0.2,0.2-0.2,0.5-0.1,0.7l1.3,2.2c0.1,0.3,0.5,0.4,0.7,0.2l0.3-1.4"/>
<path class="st3" d="M505.2,195.7l0.1,1.5c0,0.3-0.2,0.5-0.4,0.6l-2.9,1.5"/>
<path class="st3" d="M503.3,208.1l-4.2,2.1c-0.3,0.2-0.7,0-0.8-0.4l-0.5-3c0-0.2,0.1-0.5,0.3-0.6l4.2-2.1c0.3-0.2,0.8,0,0.8,0.4
	l0.5,3C503.6,207.7,503.5,207.9,503.3,208.1L503.3,208.1z"/>
<ellipse class="st3" cx="486.5" cy="216.2" rx="4.2" ry="3.9"/>
<path class="st3" d="M483.8,213.3l2.4-2.6c0.7-0.5,1.5-0.8,2.4-0.8c2.3,0,4.2,1.9,4.2,4.2c0,0.4-0.1,0.9-0.2,1.3l-2.5,2.9"/>
<path class="st3" d="M483.2,204c0,2.2-1.2,4.1-2.6,4.1s-2.6-1.8-2.6-4.1c0-1,0.2-1.9,0.6-2.6c0.5-0.9,1.2-1.5,2-1.5c0,0,0.1,0,0.2,0
	C482.2,200.1,483.3,201.8,483.2,204L483.2,204z"/>
<path class="st3" d="M483.2,204c0.4,2.2-0.2,5.1-1.6,5.3s-2.8-0.7-3.1-3"/>
<path class="st3" d="M480.6,199.9l0.2,0h0l0,0l4.4-0.7l1.1-0.1c1.4,0,2.5,1.7,2.5,3.7c0,0.5-0.1,0.9-0.2,1.3l-0.5,0.7l-6,4.3"/>
<path class="st3" d="M477.5,199.1c0,2.1-1.4,3.9-3.1,3.9c-0.5,0-0.9-0.1-1.3-0.4c0,0-0.1,0-0.2-0.1c-0.7-0.4-1.2-1.2-1.5-2.1
	c-0.1-0.3-0.2-0.6-0.2-1c0-0.1,0-0.2,0-0.4s0-0.3,0-0.4c0-0.5,0.2-1,0.4-1.5h0c0.5-1.2,1.5-2,2.7-2c0.1,0,0.2,0,0.3,0
	c0.9,0.1,1.7,0.7,2.2,1.6c0.2,0.3,0.3,0.6,0.4,0.9C477.5,198.1,477.5,198.6,477.5,199.1L477.5,199.1z"/>
<path class="st3" d="M471.3,199.1c0-0.1,0-0.3,0-0.4c0-0.5,0.1-0.9,0.2-1.4l0,0c0.4-1.4,1.2-2.5,2.2-3.1c0.4-0.2,0.9-0.4,1.4-0.4
	c0.9,0,1.7,0.3,2.4,0.8l-0.1,1.4l0,0.3l-0.1,1.2"/>
<path class="st3" d="M468.9,193.5c0.6-0.2,1.2-0.3,1.7-0.4h0l0,0c0.3-0.1,0.6-0.1,0.9-0.1c4.7-0.5,6.1,1.7,6.1,1.7"/>
<path class="st3" d="M473.1,202.6c0,0-0.1,0-0.2-0.1c-0.4-0.2-1.3-0.8-2.3-1.5c-0.7-0.6-1.4-1.2-1.9-1.9c-0.2-0.3-0.3-0.5-0.4-0.8"
	/>
<path class="st3" d="M469.1,194.7L469.1,194.7c0-0.2-0.1-0.4-0.1-0.5c-0.3-1.2-1.1-2.3-2.1-3.1c-0.9-0.6-2-1-3.2-1
	c-0.2,0-0.4,0-0.6,0c-1.8,0.2-3.3,1.2-4.1,2.6c-0.5,0.8-0.8,1.7-0.8,2.7c0,0.3,0,0.6,0.1,0.9c0,0.2,0.1,0.5,0.2,0.7
	c0,0.1,0.1,0.3,0.1,0.4c0.4,0.9,1,1.6,1.7,2.2c0.7,0.6,1.6,0.9,2.6,1.1c0.2,0,0.5,0.1,0.7,0.1c0.3,0,0.6,0,0.9-0.1h0
	c1.8-0.3,3.2-1.4,4-2.8c0.4-0.7,0.6-1.6,0.6-2.5C469.1,195.2,469.1,195,469.1,194.7L469.1,194.7z M462.9,198.1
	c-0.2-1.1-0.3-2.1-0.4-3c0.1,0,0.3-0.1,0.5-0.1h0"/>
<path class="st3" d="M463.6,200.9c-0.3-1-0.6-1.9-0.7-2.8c-0.2-1.1-0.3-2.1-0.4-3c0-0.1,0-0.2,0-0.4c0-0.4,0-0.7,0-1.1
	c0.1-2.2,0.5-3.5,0.5-3.5"/>
<path class="st3" d="M458.4,197.2L458.4,197.2c0.1-0.1,1.3-1.4,4.2-2.1c0.1,0,0.3-0.1,0.5-0.1h0c1.4-0.3,3.1-0.5,5.2-0.3
	c0.3,0,0.5,0,0.8,0.1h0"/>
<path class="st3" d="M464.5,200.8l0,1l0.1,3.2l0.1,3.3c0,0-0.8,0.5-1.4,0.2c-0.1,0-0.2-0.1-0.2-0.2l-0.1-3.8l0-1.7l0-2v0"/>
<path class="st3" d="M458.2,195.5c0,0-0.5,0.5-1,1.3c-0.1,0.2-0.2,0.4-0.3,0.6c-0.5,0.9-0.7,2.2-0.2,3.6c0.1,0.3,0.2,0.6,0.4,0.9
	c0.1,0.2,0.3,0.5,0.5,0.7c0.3,0.4,0.7,0.8,1.2,1.2l1.6-0.8l2.6-1.2"/>
<ellipse transform="matrix(0.3005 -0.9538 0.9538 0.3005 114.4394 603.7975)" class="st3" cx="468.9" cy="223.9" rx="0.9" ry="0.5"/>
<path class="st3" d="M469.2,223l-2.6-1.7l-0.3-0.2c-0.3-0.1-0.6,0.3-0.8,0.8s-0.1,1,0.2,1.1l3,1.9"/>
<ellipse transform="matrix(0.3005 -0.9538 0.9538 0.3005 101.7902 604.6315)" class="st3" cx="463.1" cy="232.9" rx="0.9" ry="0.5"/>
<path class="st3" d="M463.4,232.1l-2.6-1.7l-0.3-0.2c-0.3-0.1-0.6,0.3-0.8,0.8s-0.1,1,0.2,1.1l3,1.9"/>
<ellipse transform="matrix(0.3005 -0.9538 0.9538 0.3005 97.6688 604.6701)" class="st3" cx="461.1" cy="235.7" rx="0.9" ry="0.5"/>
<path class="st3" d="M461.4,234.9l-2.6-1.7l-0.3-0.2c-0.3-0.1-0.6,0.3-0.8,0.8s-0.1,1,0.2,1.1l3,1.9"/>
<ellipse transform="matrix(0.3005 -0.9538 0.9538 0.3005 95.9075 596.5906)" class="st3" cx="454.7" cy="232.9" rx="0.9" ry="0.5"/>
<path class="st3" d="M455,232.1l-2.6-1.7l-0.3-0.2c-0.3-0.1-0.6,0.3-0.8,0.8s-0.1,1,0.2,1.1l3,1.9"/>
<ellipse transform="matrix(0.3005 -0.9538 0.9538 0.3005 110.7219 611.0419)" class="st3" cx="472" cy="230" rx="0.9" ry="0.5"/>
<path class="st3" d="M472.2,229.2l-2.6-1.7l-0.3-0.2c-0.3-0.1-0.6,0.3-0.8,0.8s-0.1,1,0.2,1.1l3,1.9"/>
<ellipse transform="matrix(0.3005 -0.9538 0.9538 0.3005 118.2728 609.0055)" class="st3" cx="474.3" cy="223.9" rx="0.9" ry="0.5"/>
<path class="st3" d="M474.6,223l-2.6-1.7l-0.3-0.2c-0.3-0.1-0.6,0.3-0.8,0.8s-0.1,1,0.2,1.1l3,1.9"/>
<ellipse transform="matrix(0.2802 -0.96 0.96 0.2802 130.6573 618.6115)" class="st3" cx="477.8" cy="222.2" rx="0.8" ry="0.4"/>
<path class="st3" d="M478,221.4l-2.1-1.5l-0.3-0.2c-0.2-0.1-0.5,0.2-0.6,0.7s-0.1,0.9,0.2,0.9l2.5,1.6"/>
<ellipse transform="matrix(0.2802 -0.96 0.96 0.2802 114.3001 612.6082)" class="st3" cx="465.6" cy="230.1" rx="1.7" ry="1.1"/>
<polyline class="st3" points="494.8,221.3 494.8,217.4 494.8,216.2 499.4,214.2 499.4,215.7 "/>
<path class="st3" d="M498.2,215.9l-3.5,1.6L498.2,215.9z"/>
<line class="st3" x1="498.2" y1="219.2" x2="498.2" y2="215.9"/>
<path class="st3" d="M465.7,212.7l4-2.3c0.4-0.2,0.8-0.1,1,0.3l0,0c0.2,0.4,0.1,0.8-0.3,1l-4,2.3c-0.4,0.2-0.8,0.1-1-0.3l0,0
	C465.2,213.4,465.4,212.9,465.7,212.7z"/>
<path class="st3" d="M469.4,209.2c0,0.2-0.1,0.5-0.4,0.6l-4,2.3c-0.4,0.2-0.8,0.1-1-0.3c-0.1-0.1-0.1-0.2-0.1-0.4c0,0,0-0.1,0-0.1
	c0-0.2,0.2-0.4,0.4-0.5l2.7-1.6h0l1.2-0.7c0.4-0.2,0.8-0.1,1,0.3c0.1,0.1,0.1,0.2,0.1,0.3L469.4,209.2L469.4,209.2z"/>
<path class="st3" d="M466.7,213.8v1.4c0,0-0.9,0.4-1.3-0.1v-1.7"/>
<path class="st3" d="M465.3,212v1.4c0,0-0.9,0.4-1.3-0.1v-1.7"/>
<path class="st3" d="M470.8,211.1v1.9c0,0-0.9,0.2-1.4-0.2v-0.4"/>
<line class="st3" x1="469.4" y1="209.1" x2="469.5" y2="210.5"/>
<line class="st3" x1="468.4" y1="210.2" x2="468.4" y2="211.1"/>
<polyline class="st2" points="426.7,224.8 430.4,219.7 457.5,202.6 "/>
<line class="st6" x1="443.2" y1="248.2" x2="481.6" y2="225.6"/>
<polygon class="st2" points="492.7,222.9 510.4,212.9 510,216.7 513.6,218.4 495.2,229.1 492.7,226.7 "/>
<line class="st2" x1="492.7" y1="226.7" x2="510" y2="216.7"/>
<polygon class="st2" points="370.3,155.5 387.9,145.5 387.5,149.2 391.2,150.9 372.8,161.7 370.3,159.3 "/>
<line class="st3" x1="370.3" y1="159.3" x2="387.5" y2="149.2"/>
<polygon class="st2" points="468.1,236.6 485.5,226.7 485.5,230.9 488.9,232.4 472,243.1 468.1,241.6 "/>
<line class="st2" x1="468.1" y1="241.6" x2="485.5" y2="230.9"/>
<path class="st2" d="M479.7,226.7c0,0-0.1,1.8,1.9,2.2"/>
<line class="st2" x1="485.5" y1="228.9" x2="492.7" y2="224.8"/>
<polyline class="st2" points="584.8,277.5 495.2,229.1 513.6,218.4 599.7,263.5 "/>
<polyline class="st2" points="561.5,290.8 472,243.1 488.9,232.4 575.9,278.9 "/>
<line class="st3" x1="500.6" y1="226.1" x2="586.3" y2="272.4"/>
<line class="st3" x1="504.6" y1="223.8" x2="590.4" y2="270.1"/>
<line class="st3" x1="508.8" y1="221.1" x2="594.5" y2="267.4"/>
<line class="st3" x1="476.2" y1="240.7" x2="563.3" y2="287.2"/>
<line class="st3" x1="476.7" y1="235.9" x2="567.3" y2="284.6"/>
<line class="st3" x1="484.3" y1="235.2" x2="571.4" y2="281.9"/>
<line class="st3" x1="474.9" y1="244.6" x2="492.3" y2="233.9"/>
<line class="st3" x1="479.4" y1="246.9" x2="496.8" y2="236.3"/>
<line class="st3" x1="482.9" y1="249.2" x2="500.3" y2="238.5"/>
<line class="st3" x1="487" y1="251.2" x2="504.4" y2="240.5"/>
<line class="st3" x1="490.7" y1="253.5" x2="508.1" y2="242.8"/>
<line class="st3" x1="495" y1="255.3" x2="512.3" y2="244.6"/>
<line class="st3" x1="499.1" y1="257.6" x2="516.5" y2="246.9"/>
<line class="st3" x1="503.1" y1="259.6" x2="520.5" y2="248.9"/>
<line class="st3" x1="507" y1="261.9" x2="524.4" y2="251.2"/>
<line class="st3" x1="510.6" y1="263.8" x2="528" y2="253.1"/>
<line class="st3" x1="514.9" y1="266.3" x2="532.3" y2="255.6"/>
<line class="st3" x1="518.8" y1="268.3" x2="536.2" y2="257.6"/>
<line class="st3" x1="523.2" y1="270.5" x2="540.6" y2="259.8"/>
<line class="st3" x1="527.5" y1="273" x2="544.9" y2="262.3"/>
<line class="st3" x1="531.3" y1="275" x2="548.7" y2="264.3"/>
<line class="st3" x1="536.2" y1="277.4" x2="553.6" y2="266.7"/>
<line class="st3" x1="540" y1="279.3" x2="557.4" y2="268.6"/>
<line class="st3" x1="544.1" y1="281.8" x2="561.5" y2="271.1"/>
<line class="st3" x1="548" y1="283.9" x2="565.4" y2="273.2"/>
<line class="st3" x1="552.3" y1="286.3" x2="569.7" y2="275.6"/>
<line class="st3" x1="556.3" y1="288.6" x2="573.7" y2="277.9"/>
<line class="st3" x1="498.7" y1="230.9" x2="516.5" y2="220.1"/>
<line class="st3" x1="501.7" y1="232.6" x2="519.5" y2="221.8"/>
<line class="st3" x1="506.7" y1="235.5" x2="524.5" y2="224.6"/>
<line class="st3" x1="510.1" y1="237.4" x2="527.9" y2="226.6"/>
<line class="st3" x1="514.7" y1="239.3" x2="532.5" y2="228.5"/>
<line class="st3" x1="518.6" y1="241.6" x2="536.4" y2="230.8"/>
<line class="st3" x1="522.4" y1="243.4" x2="540.2" y2="232.6"/>
<line class="st3" x1="526.3" y1="245.3" x2="544.1" y2="234.5"/>
<line class="st3" x1="530" y1="247.7" x2="548.2" y2="236.6"/>
<line class="st3" x1="534.2" y1="250" x2="552.4" y2="238.9"/>
<line class="st3" x1="538.9" y1="252.3" x2="556.7" y2="241"/>
<line class="st3" x1="542.6" y1="254.3" x2="560.4" y2="242.9"/>
<line class="st3" x1="546.3" y1="256.3" x2="564.1" y2="244.9"/>
<line class="st3" x1="550.5" y1="258.6" x2="568.3" y2="247.2"/>
<line class="st3" x1="555.2" y1="261.2" x2="573" y2="249.8"/>
<line class="st3" x1="558.7" y1="263.3" x2="576.9" y2="251.6"/>
<line class="st3" x1="562.7" y1="265.5" x2="580.9" y2="253.7"/>
<line class="st3" x1="566.3" y1="267.8" x2="584.5" y2="256"/>
<line class="st3" x1="570.5" y1="270.2" x2="588.8" y2="258.4"/>
<line class="st3" x1="574.9" y1="272" x2="593.1" y2="260.3"/>
<line class="st3" x1="579.1" y1="274" x2="597.3" y2="262.3"/>
<polygon class="st2" points="585.4,273.2 603.5,261.2 603.5,266.9 585.6,279 "/>
<polyline class="st2" points="350.6,174.9 366.7,164.9 363.3,163.5 363.3,159.2 345.9,169.4 346,172.1 "/>
<line class="st3" x1="347.7" y1="173.2" x2="363.4" y2="163.6"/>
<polyline class="st2" points="464.5,189.4 454.7,184.2 438.2,175.6 434.5,173.6 391.4,151 386.7,153.8 373.1,161.7 416.4,185.1 "/>
<line class="st3" x1="477.5" y1="196.2" x2="477.5" y2="196.2"/>
<polyline class="st2" points="429.5,192.2 444.4,200.3 448.7,202.6 "/>
<line class="st3" x1="425.5" y1="190.1" x2="418.9" y2="186.5"/>
<polyline class="st2" points="416.7,191.7 418.2,192.5 426.5,197 427.5,197.5 "/>
<polyline class="st2" points="437.6,202.9 434.9,201.5 432,199.9 "/>
<polyline class="st2" points="414.3,190.4 414,190.3 366.7,165 "/>
<polyline class="st2" points="381.5,191.9 397.6,200.7 401.5,202.8 406,205.3 407.9,206.3 "/>
<line class="st2" x1="422.3" y1="214.2" x2="410.1" y2="207.5"/>
<polyline class="st2" points="426.8,184.9 437.8,190.9 441.4,192.8 445.4,194.9 449.4,197.1 450.5,197.7 "/>
<line class="st3" x1="378.4" y1="158.8" x2="417.2" y2="179.8"/>
<polyline class="st2" points="464.5,200.8 464.5,200.8 464.5,200.8 "/>
<polyline class="st2" points="454.4,195.4 453.1,194.7 449.2,192.5 445.2,190.4 441.6,188.4 382.5,156.5 "/>
<line class="st3" x1="472.3" y1="200" x2="472.2" y2="200"/>
<polyline class="st2" points="458.9,192.8 457.4,191.9 453.4,189.8 386.7,153.8 386.6,153.7 "/>
<line class="st2" x1="463.1" y1="195" x2="463.1" y2="195"/>
<polyline class="st3" points="411.6,204.1 413.4,205 418.1,207.5 421.8,209.5 423.6,210.5 "/>
<polyline class="st3" points="409.6,203 409.3,202.9 405.1,200.6 401.1,198.5 354,173.3 "/>
<polyline class="st3" points="357.9,170.4 405.3,195.8 409.3,198 410.9,198.9 "/>
<polyline class="st3" points="428,208.1 426,207 426,207 422.3,205 417.6,202.4 413.8,200.4 413.2,200.1 "/>
<line class="st2" x1="439.3" y1="214.1" x2="438.8" y2="213.8"/>
<polyline class="st3" points="412.5,194.9 409.4,193.2 362.1,167.9 "/>
<polyline class="st3" points="429.2,203.8 426.5,202.4 421.8,199.8 418.1,197.8 414.9,196.1 "/>
<line class="st2" x1="443.5" y1="211.4" x2="443.5" y2="211.4"/>
<line class="st3" x1="353.7" y1="176.6" x2="370.1" y2="166.6"/>
<line class="st3" x1="358.1" y1="179.1" x2="374.7" y2="168.9"/>
<line class="st3" x1="361.9" y1="181.1" x2="378.1" y2="171.1"/>
<line class="st3" x1="365.6" y1="183.2" x2="382.3" y2="173.2"/>
<line class="st3" x1="369.5" y1="185.6" x2="386" y2="175.4"/>
<line class="st3" x1="373.5" y1="187.5" x2="390.2" y2="177.3"/>
<line class="st3" x1="377.8" y1="189.8" x2="394.3" y2="179.6"/>
<line class="st3" x1="380.9" y1="192.2" x2="398.3" y2="181.6"/>
<line class="st3" x1="385.6" y1="194.1" x2="402.2" y2="183.9"/>
<line class="st3" x1="389" y1="196.2" x2="405.9" y2="185.8"/>
<line class="st3" x1="393.7" y1="198.3" x2="410.1" y2="188.2"/>
<line class="st3" x1="397.6" y1="200.7" x2="414" y2="190.3"/>
<polyline class="st3" points="411.9,196.4 409.3,198 405.1,200.6 401.5,202.8 401,203.1 "/>
<line class="st3" x1="418.4" y1="192.4" x2="415.7" y2="194.1"/>
<polyline class="st3" points="422.7,195 418.1,197.8 413.8,200.4 412.8,201 "/>
<polyline class="st3" points="409.6,203 409.1,203.3 406,205.3 405.9,205.3 "/>
<line class="st3" x1="409.7" y1="207.3" x2="426.5" y2="196.9"/>
<polyline class="st3" points="414,210 414.3,209.8 418.1,207.5 422.3,205 426.5,202.4 428.5,201.1 "/>
<polyline class="st3" points="429.5,204.8 426,207 426,207 421.8,209.5 418,211.9 417.9,212 "/>
<polyline class="st2" points="432.9,202.7 434.9,201.5 435.2,201.3 "/>
<polyline class="st3" points="421.9,214.5 422.1,214.4 422.3,214.2 "/>
<line class="st3" x1="376.5" y1="163.6" x2="394.3" y2="152.8"/>
<line class="st3" x1="379.6" y1="165.3" x2="397.4" y2="154.5"/>
<line class="st3" x1="384.5" y1="168.1" x2="402.3" y2="157.3"/>
<line class="st3" x1="388" y1="170" x2="405.8" y2="159.2"/>
<line class="st3" x1="392.5" y1="172" x2="410.3" y2="161.2"/>
<line class="st3" x1="396.4" y1="174.3" x2="414.2" y2="163.5"/>
<line class="st3" x1="400.3" y1="176" x2="418.1" y2="165.2"/>
<line class="st3" x1="404.1" y1="178" x2="421.9" y2="167.2"/>
<line class="st3" x1="407.8" y1="180.4" x2="426.1" y2="169.3"/>
<line class="st3" x1="430.3" y1="171.6" x2="420.8" y2="177.4"/>
<line class="st3" x1="417.5" y1="179.4" x2="412.1" y2="182.7"/>
<line class="st2" x1="434.5" y1="173.6" x2="424" y2="180.3"/>
<line class="st3" x1="421.2" y1="182.1" x2="420.5" y2="182.6"/>
<line class="st2" x1="438.2" y1="175.6" x2="426.9" y2="182.8"/>
<polyline class="st3" points="424,184.7 423.9,184.8 420.4,186.9 "/>
<line class="st2" x1="441.9" y1="177.6" x2="427.8" y2="186.7"/>
<line class="st3" x1="425" y1="188.4" x2="424.1" y2="189"/>
<line class="st2" x1="446.1" y1="179.9" x2="429" y2="190.8"/>
<line class="st2" x1="433" y1="193.9" x2="450.8" y2="182.5"/>
<line class="st2" x1="436.5" y1="196" x2="454.7" y2="184.2"/>
<line class="st2" x1="440.5" y1="198.1" x2="458.7" y2="186.4"/>
<line class="st2" x1="444.1" y1="200.5" x2="462.4" y2="188.7"/>
<polyline class="st2" points="470.6,193.1 470.6,193.1 470.6,193.1 "/>
<line class="st3" x1="469" y1="194.2" x2="468.2" y2="194.7"/>
<polyline class="st3" points="471.5,197.3 471.5,197.3 471.7,197.2 471.7,197.2 "/>
<path class="st3" d="M464.3,210.8l2.7-1.6l-3.1,2.1C464,211.1,464.1,211,464.3,210.8L464.3,210.8z"/>
<path class="st3" d="M477.4,196.5l-0.1,1.2c0.1,0.4,0.2,0.9,0.2,1.4c0,2.1-1.4,3.9-3.1,3.9c-0.5,0-0.9-0.1-1.3-0.4
	c0,0-0.1,0-0.2-0.1c-0.4-0.2-1.3-0.8-2.3-1.5l0.8-0.6l0.7-0.5l4.7-3.1"/>
<path class="st3" d="M480.8,199.9L480.8,199.9l-0.2,0c-0.8,0-1.5,0.6-2,1.5"/>
<polyline class="st2" points="561.6,291.5 561.5,288.5 579.6,276.5 579.6,282.1 563.9,292.8 "/>
<polyline class="st3" points="582.3,276.1 582.3,277.5 585.4,279.3 "/>
<path class="st2" d="M440.7,241.5v-0.1c-0.3-9.2-7.6-16.6-16.6-16.6s-16.6,7.6-16.6,17.1c0,1.3,0.1,2.5,0.4,3.7
	c1.6,7.6,8.3,13.4,16.2,13.4c4.3,0,8.2-1.7,11.1-4.4"/>
<path class="st2" d="M430.4,219.7c8.5-0.7,16,6.3,16.9,15.7c0.3,3.4-2.8,10.1-4.1,12.9"/>
<path class="st3" d="M442,250.2c-1.9,3.5-5.2,5.3-7.5,4.1c-0.5-0.3-0.9-0.7-1.2-1.2c-1.1-1.7-0.9-4.6,0.5-7.3c1-1.8,2.4-3.2,3.8-3.9
	c1.3-0.7,2.6-0.8,3.7-0.2C443.5,242.9,443.8,246.7,442,250.2L442,250.2z"/>
<path class="st3" d="M440,249.6c-1.6,3-4.6,4.6-6.5,3.6c-0.1,0-0.1-0.1-0.2-0.1c-1.1-1.7-0.9-4.6,0.5-7.3c1-1.8,2.4-3.2,3.8-3.9
	c0.6-0.1,1.3,0,1.8,0.3C441.3,243.2,441.6,246.6,440,249.6L440,249.6z"/>
<line class="st3" x1="441.2" y1="241.7" x2="437.8" y2="239.3"/>
<path class="st3" d="M434.2,254.1l-4.9-4.6c-0.4-1.7-0.1-3.9,1-6.1c1.9-3.5,5.2-5.3,7.5-4.1"/>
<ellipse class="st3" cx="424.9" cy="227.8" rx="4.5" ry="1.6"/>
<ellipse class="st3" cx="424.9" cy="228.7" rx="4.5" ry="1.6"/>
<ellipse class="st3" cx="424.9" cy="229.6" rx="4.5" ry="1.6"/>
<path class="st3" d="M420.8,230.6c0,0-4.8,3.2-6.7,8.4"/>
<path class="st2" d="M428.6,230.6c0,0,5.5,3.2,6.2,8.7"/>
<line class="st3" x1="423.6" y1="229.4" x2="423.6" y2="231.1"/>
<line class="st3" x1="426.7" y1="226.4" x2="426.7" y2="228.2"/>
<line class="st3" x1="423.6" y1="226.4" x2="423.6" y2="228.2"/>
<path class="st3" d="M413.6,255.1c1,0.3,1.8,0.3,2.6-0.1c0.6-0.3,1-0.9,1.2-1.6c0.6-1.8,0.2-4.5-1.3-7.1c-1.6-2.8-4-4.6-6-4.7
	c-0.5,0-1.1,0.1-1.5,0.3c-0.5,0.3-0.9,0.8-1.2,1.3l0,0"/>
<path class="st3" d="M417.5,253.4c-2-0.1-4.4-1.9-6-4.7c-1.5-2.6-1.9-5.3-1.3-7.1c2,0.1,4.4,1.9,6,4.7
	C417.7,248.9,418.1,251.6,417.5,253.4z"/>
<path class="st3" d="M417.2,254.2l4.6-5c0-1.6-0.6-3.5-1.7-5.4c-1.8-3.2-4.6-5.1-6.6-4.9l-4.8,3"/>
<ellipse transform="matrix(0.3005 -0.9538 0.9538 0.3005 111.2533 567.7463)" class="st2" cx="442.7" cy="208" rx="1.3" ry="2.5"/>
<ellipse transform="matrix(0.9793 -0.2023 0.2023 0.9793 -34.2503 92.3693)" class="st2" cx="434.8" cy="213.8" rx="1.1" ry="1.9"/>
<polyline class="st2" points="440.3,207.3 440.3,207.6 440.3,207.6 440.3,207.6 440.2,209.6 440.2,209.7 436.9,210.9 434.8,211.7 
	434.4,211.9 "/>
<polyline class="st2" points="435.2,215.6 445.1,210.6 445.1,208.8 "/>
<path class="st2" d="M436.9,210.9l-1.6-1.6c-0.3-0.3-0.6-0.7-0.7-1.2l-0.4-1.2l-0.2-0.5l-1.2-3.6l-0.9-2.9l-2.4-7.6l-0.5-1.5
	l-1.3-4.1l-0.7-2.2"/>
<path class="st2" d="M424.1,184.9c0,0.1,0,0.1,0.1,0.2l0.9,3.3l0.4,1.6l2,7.4l0,0h0l1,3.6l0.7,2.7l0.3,1l1.2,4.3l0.1,0.5l0,0.2
	c0.1,0.3,0.2,0.6,0.5,0.8l2.4,2.4"/>
<ellipse transform="matrix(0.3494 -0.937 0.937 0.3494 104.3685 518.4737)" class="st2" cx="425.5" cy="184.1" rx="2" ry="1.5"/>
<line class="st2" x1="426.2" y1="182.3" x2="419.8" y2="176.6"/>
<line class="st2" x1="420.2" y1="181.2" x2="424.1" y2="184.9"/>
<path class="st2" d="M420.2,180.6c-0.3,0.5-0.6,1.1-1.1,1.1c-0.9,0-1.6-1.2-1.6-2.7s0.7-2.7,1.6-2.7c0.3,0,0.6,0.2,0.9,0.5"/>
<polyline class="st2" points="406.4,216.4 410.1,207.5 410.4,206.9 411.6,204.1 412.8,201 413.2,200.1 414.9,196.1 415.7,194.1 
	420.8,181.8 "/>
<path class="st2" d="M405,213.8c1-2.5,2-5,3-7.5c0.4-1,0.8-2,1.2-3c0.1-0.1,0.1-0.3,0.2-0.4c0.5-1.3,1.1-2.7,1.6-4
	c0.3-0.8,0.6-1.6,1-2.4c0.2-0.5,0.4-1.1,0.6-1.6c1.8-4.6,3.7-9.2,5.5-13.8"/>
<ellipse transform="matrix(0.4457 -0.8952 0.8952 0.4457 29.7594 485.523)" class="st2" cx="406.9" cy="218.7" rx="1.6" ry="1.2"/>
<line class="st3" x1="407.6" y1="217.3" x2="406.1" y2="216.4"/>
<polyline class="st2" points="405.3,212.7 403.9,211.9 398.4,211.9 394.6,211.9 394.6,220 393.5,220 393.5,224.2 400.7,224.2 
	400.7,220 398.7,220 398.7,215.9 401,215.9 406,220 "/>
<path class="st5" d="M368.7,218c-1.9-1.4-2.4-4.7-1.1-7.9c1.5-3.6,4.6-5.7,7.1-4.7 M379.9,208.4c-0.9-0.4-1.9-0.3-2.8,0.1
	c-1.7,0.6-3.4,2.4-4.3,4.7c-0.7,1.8-0.9,3.7-0.5,5.2c0.3,1.3,1,2.4,2,3 M377,221.7c-5.3,6.2-12.2,9-17.1,6.3
	c-5.8-3.1-6.8-12.7-2.5-22c0.3-0.6,0.6-1.2,0.9-1.8c0.6-1.1,1.2-2.1,1.8-3c0.1-0.2,0.3-0.4,0.4-0.6c0.1-0.2,0.2-0.4,0.4-0.5
	c5.4-7.1,12.9-10.4,18.2-7.6c5.4,2.9,6.6,11.3,3.4,19.8"/>
<path class="st7" d="M380.3,191.6c-5.6-3-13.6,0.7-19.4,8.5c-0.1,0.2-0.3,0.4-0.4,0.5c-0.1,0.2-0.3,0.4-0.4,0.6
	c-0.6,0.9-1.2,1.9-1.8,3c-0.3,0.6-0.6,1.2-0.9,1.8c-4.7,9.9-3.7,20.2,2.4,23.5c5.9,3.2,14.5-1.2,20.4-9.9c0.6-0.9,1.1-1.8,1.7-2.8
	c0.1-0.1,0.1-0.2,0.2-0.3C387.4,206.2,386.7,195,380.3,191.6L380.3,191.6z M373.9,221.1l-5.2-3.1c-1.9-1.4-2.4-4.7-1.1-7.9
	c1.5-3.6,4.6-5.7,7.1-4.7l5.8,3.4 M379.9,208.4c-0.9-0.4-1.9-0.3-2.8,0.1c-1.7,0.6-3.4,2.4-4.3,4.7c-0.7,1.8-0.9,3.7-0.5,5.2
	c0.3,1.3,1,2.4,2,3"/>
<path class="st7" d="M380.3,191.6l-2.8-2.1c-6.9-3.7-17.1,1.9-22.9,12.4c-4.4,8.1-4.9,16.9-1.8,22.2l4.4,3.4"/>
<path class="st7" d="M381.9,216.6c0,0.1-0.1,0.2-0.1,0.3c-0.4,1.1-1,2.1-1.7,2.8c-0.9,1-2,1.8-3.1,2c-0.8,0.2-1.6,0.2-2.3-0.1
	l-0.4-0.2c-1-0.6-1.7-1.6-2-3c-0.4-1.5-0.2-3.4,0.5-5.2c0.9-2.3,2.6-4.1,4.3-4.7c1-0.4,1.9-0.4,2.8-0.1c1.4,0.6,2.3,2.1,2.5,3.9
	C382.6,213.6,382.5,215.1,381.9,216.6z"/>
<path class="st5" d="M376.6,213.7c-0.9,2.3-2.6,4.1-4.3,4.7c-0.4-1.5-0.2-3.4,0.5-5.2c0.9-2.3,2.6-4.1,4.3-4.7
	C377.5,210,377.3,211.9,376.6,213.7z"/>
<line class="st5" x1="354.8" y1="219.3" x2="366.2" y2="216.4"/>
<line class="st5" x1="382.5" y1="197.4" x2="378.9" y2="207.1"/>
<path class="st7" d="M352.9,224.2l-54.5-33.1c-0.2-4.1,0.4-8.7,1.9-13.4c4.3-12.7,14.1-20.9,21.9-18.3l53.8,29.6"/>
<path class="st5" d="M331.9,164.8c-4.9-2.3-12.8,4.1-17.8,14.5c-3.3,6.8-4.5,13.5-3.5,18.1"/>
<path class="st5" d="M339.3,169c-4.2-2-10.7,2.6-15.7,10.5l-2.5-1c0,0-2.2,1.6-3.5,5.8l2.7,1.7c-0.8,1.9-1.4,3.7-1.8,5.4"/>
<path class="st5" d="M355.8,177.7c-4.9-2.3-12.8,4.1-17.8,14.5c-3.3,6.8-4.5,13.5-3.5,18"/>
<ellipse class="st5" cx="304" cy="184.7" rx="0.9" ry="1.6"/>
<ellipse transform="matrix(0.8925 -0.451 0.451 0.8925 -41.2097 159.9776)" class="st5" cx="315" cy="166.4" rx="2.1" ry="1.1"/>
<polygon class="st7" points="298.4,185.5 279.2,195.6 271.4,185.7 290.9,176.4 "/>
<polygon class="st5" points="284.4,184.6 276.4,188.4 274.6,186 282.4,182.5 "/>
<polygon class="st5" points="287.6,188.6 279.9,192.7 277.9,190.4 285.6,186.6 "/>
<polyline class="st7" points="302.6,171.6 284.4,162.1 284.9,178.7 "/>
<polyline class="st7" points="320.4,158.5 304.8,150.5 284.4,162.1 "/>
<ellipse transform="matrix(0.9457 -0.3249 0.3249 0.9457 -36.6807 105.2452)" class="st5" cx="296.8" cy="162.5" rx="1.1" ry="1.8"/>
<path class="st5" d="M299.1,159.4c0.5-0.2,1.3,0.4,1.6,1.4s0.1,1.9-0.4,2.1"/>
<polyline class="st5" points="303.3,141.3 299.1,159.4 296.2,160.8 "/>
<line class="st5" x1="300.3" y1="162.8" x2="297.4" y2="164.2"/>
<line class="st5" x1="301.9" y1="140.1" x2="297.2" y2="160.3"/>
<ellipse class="st5" cx="303.4" cy="139.6" rx="1.5" ry="1.7"/>
<line class="st5" x1="300.3" y1="135.4" x2="301.9" y2="140.1"/>
<line class="st5" x1="303" y1="134.1" x2="304.9" y2="138.8"/>
<line class="st5" x1="304.1" y1="141.1" x2="310.3" y2="153.3"/>
<line class="st5" x1="304.9" y1="139.6" x2="312.4" y2="154.4"/>
<polygon class="st5" points="287.2,138.1 301.2,131.7 304.4,133.5 289.4,140.3 289.3,142 287.2,140.3 "/>
<line class="st7" x1="268.6" y1="164.1" x2="265.8" y2="162.1"/>
<line class="st5" x1="277.3" y1="170.5" x2="270.3" y2="165.4"/>
<line class="st7" x1="284.8" y1="176" x2="279" y2="171.8"/>
<line class="st7" x1="297.9" y1="154.4" x2="274.3" y2="145.8"/>
<g>
	<path class="st5" d="M269.1,154.9c-0.3,0-0.5,0.5-0.5,1s0.2,1,0.5,1"/>
	<ellipse class="st5" cx="279.5" cy="162.3" rx="0.5" ry="1"/>
	<line class="st5" x1="269.1" y1="154.9" x2="279.5" y2="161.3"/>
	<line class="st5" x1="279.5" y1="163.3" x2="269.1" y2="156.9"/>
</g>
<g>
	<path class="st5" d="M268.6,165.3c-0.3,0-0.5,0.4-0.5,1s0.1,1.1,0.4,1.1"/>
	
		<ellipse transform="matrix(7.149742e-02 -0.9974 0.9974 7.149742e-02 85.5381 438.7337)" class="st5" cx="278.4" cy="173.4" rx="1" ry="0.5"/>
	<line class="st5" x1="268.6" y1="165.3" x2="278.5" y2="172.4"/>
	<line class="st5" x1="278.4" y1="174.5" x2="268.5" y2="167.3"/>
</g>
<line class="st5" x1="270.2" y1="166.4" x2="270.6" y2="157.9"/>
<line class="st5" x1="268.6" y1="165.3" x2="268.9" y2="156.7"/>
<line class="st5" x1="279.2" y1="163.1" x2="278.9" y2="173.1"/>
<line class="st5" x1="277.4" y1="171.4" x2="277.7" y2="162.2"/>
<line class="st5" x1="270.6" y1="157.9" x2="277.4" y2="171.4"/>
<line class="st5" x1="270.3" y1="166.1" x2="277.7" y2="162.2"/>
<path class="st7" d="M265.8,162.1c-0.8-2.3-0.5-5.6,0.8-8.9c1.8-4.1,4.9-7,7.6-7.3l-6.3-3.2l-2.2,1l-6.3,3.6l6.3,3.3"/>
<path class="st5" d="M265.6,161.1l-2.8,1.2l-5.6-3.4l4.2-1v-2l-3.2,0.8l-0.1-1.8l-1.9-0.8l0,0c0-1,0.7-1.9,1.7-2l1.4-0.2l0.1-1.3
	l-2.7-0.7v-4l1.4,0.3v-2.2l4-2l3.9,1.6"/>
<line class="st5" x1="242" y1="160.9" x2="256" y2="154.1"/>
<line class="st5" x1="243.3" y1="162.9" x2="257.9" y2="156"/>
<polygon class="st5" points="240.2,159.4 243.6,162.1 229,169.4 225.2,167 "/>
<polyline class="st5" points="240.6,163.6 242.7,164.4 243.6,162.1 "/>
<polyline class="st5" points="225.2,167 225.2,169.4 229,171.3 229,169.4 "/>
<polygon class="st7" points="224.5,166.1 208.9,156.9 209.1,160.6 207,161.2 222.2,170.7 224.6,169.4 "/>
<line class="st5" x1="224.6" y1="169.4" x2="209.1" y2="160.4"/>
<polyline class="st7" points="20.2,246.7 207,161.2 222.2,170.7 35.3,258.1 "/>
<line class="st5" x1="210.1" y1="163.2" x2="24.1" y2="249.4"/>
<line class="st5" x1="26.6" y1="251.4" x2="212.8" y2="164.9"/>
<line class="st5" x1="215.8" y1="166.7" x2="29.8" y2="254.1"/>
<line class="st5" x1="32.9" y1="256" x2="219.2" y2="168.8"/>
<line class="st5" x1="25.1" y1="244.5" x2="39.7" y2="256.2"/>
<line class="st5" x1="29.8" y1="242.3" x2="44" y2="254.1"/>
<line class="st5" x1="48.6" y1="251.9" x2="33.9" y2="240.5"/>
<line class="st5" x1="53.3" y1="249.7" x2="38.4" y2="238.4"/>
<line class="st5" x1="57.9" y1="247.6" x2="43.1" y2="236.2"/>
<line class="st5" x1="62.6" y1="245.4" x2="47.9" y2="234.1"/>
<line class="st5" x1="67.3" y1="243.2" x2="52.3" y2="232"/>
<line class="st5" x1="71.9" y1="241" x2="56.7" y2="230"/>
<line class="st5" x1="76.1" y1="239.1" x2="61" y2="228.1"/>
<line class="st5" x1="94.2" y1="230.6" x2="79" y2="219.8"/>
<line class="st5" x1="98.7" y1="228.5" x2="83.8" y2="217.6"/>
<line class="st5" x1="103" y1="226.4" x2="87.8" y2="215.8"/>
<line class="st5" x1="107.3" y1="224.5" x2="92.1" y2="213.8"/>
<line class="st5" x1="96.8" y1="211.7" x2="111.9" y2="222.3"/>
<line class="st5" x1="115.8" y1="220.5" x2="101" y2="209.8"/>
<line class="st5" x1="119.7" y1="218.6" x2="104.9" y2="207.9"/>
<line class="st5" x1="124.7" y1="216.3" x2="109.8" y2="205.7"/>
<line class="st5" x1="128.5" y1="214.6" x2="113.9" y2="203.8"/>
<line class="st5" x1="133.5" y1="212.2" x2="118.6" y2="201.7"/>
<line class="st5" x1="137.4" y1="210.4" x2="122.8" y2="199.8"/>
<line class="st5" x1="141.3" y1="208.5" x2="126.6" y2="198"/>
<line class="st5" x1="130.6" y1="196.2" x2="145.7" y2="206.5"/>
<line class="st5" x1="149.8" y1="204.6" x2="134.9" y2="194.2"/>
<line class="st5" x1="153.9" y1="202.6" x2="139.3" y2="192.2"/>
<line class="st5" x1="158.1" y1="200.7" x2="143.2" y2="190.4"/>
<line class="st5" x1="162.3" y1="198.7" x2="147.1" y2="188.6"/>
<line class="st5" x1="166.7" y1="196.7" x2="151.9" y2="186.4"/>
<line class="st5" x1="170.8" y1="194.8" x2="155.9" y2="184.6"/>
<line class="st5" x1="174.5" y1="193" x2="159.6" y2="182.9"/>
<line class="st5" x1="178.8" y1="191" x2="163.9" y2="180.9"/>
<line class="st5" x1="182.9" y1="189.1" x2="167.9" y2="179.1"/>
<line class="st5" x1="187" y1="187.2" x2="172" y2="177.2"/>
<line class="st5" x1="190.7" y1="185.4" x2="175.4" y2="175.6"/>
<line class="st5" x1="194.8" y1="183.5" x2="179.5" y2="173.8"/>
<line class="st5" x1="198.7" y1="181.7" x2="183.6" y2="171.9"/>
<line class="st5" x1="202.9" y1="179.7" x2="187.7" y2="170"/>
<line class="st5" x1="207" y1="177.8" x2="191.6" y2="168.2"/>
<line class="st5" x1="210.6" y1="176.1" x2="195.3" y2="166.5"/>
<line class="st5" x1="214.3" y1="174.4" x2="199.8" y2="164.9"/>
<line class="st5" x1="218.1" y1="172.6" x2="203" y2="163"/>
<polygon class="st7" points="16.7,244.1 36.3,258.9 35.9,262.4 17.1,248.2 "/>
<polyline class="st5" points="35.9,262.4 38.4,260.6 36.3,260.1 "/>
<polygon class="st7" points="246.7,178.4 230.9,169.1 231.1,172.9 228.9,173.5 244.4,183.1 246.8,181.7 "/>
<line class="st5" x1="231" y1="172.6" x2="246.8" y2="181.7"/>
<polyline class="st7" points="40.6,263.1 228.9,173.5 244.4,183.1 55.9,274.6 "/>
<line class="st5" x1="232.1" y1="175.5" x2="44.5" y2="265.7"/>
<line class="st5" x1="47.1" y1="267.8" x2="234.9" y2="177.2"/>
<line class="st5" x1="237.9" y1="179.1" x2="50.4" y2="270.5"/>
<line class="st5" x1="53.5" y1="272.5" x2="241.3" y2="181.2"/>
<line class="st5" x1="45.5" y1="260.7" x2="60.4" y2="272.6"/>
<line class="st5" x1="50.2" y1="258.5" x2="64.7" y2="270.4"/>
<line class="st5" x1="69.4" y1="268.1" x2="54.4" y2="256.5"/>
<line class="st5" x1="74.2" y1="265.8" x2="58.9" y2="254.3"/>
<line class="st5" x1="78.7" y1="263.6" x2="63.7" y2="252.1"/>
<line class="st5" x1="83.5" y1="261.3" x2="68.5" y2="249.8"/>
<line class="st5" x1="88.2" y1="259" x2="72.9" y2="247.7"/>
<line class="st5" x1="92.9" y1="256.7" x2="77.3" y2="245.6"/>
<line class="st5" x1="97.1" y1="254.7" x2="81.7" y2="243.5"/>
<line class="st5" x1="115.4" y1="245.8" x2="99.9" y2="234.9"/>
<line class="st5" x1="119.8" y1="243.6" x2="104.6" y2="232.6"/>
<line class="st5" x1="124.2" y1="241.5" x2="108.7" y2="230.7"/>
<line class="st5" x1="128.5" y1="239.4" x2="113.1" y2="228.6"/>
<line class="st5" x1="117.8" y1="226.3" x2="133.2" y2="237.1"/>
<line class="st5" x1="137.1" y1="235.2" x2="122" y2="224.3"/>
<line class="st5" x1="141.1" y1="233.3" x2="126" y2="222.4"/>
<line class="st5" x1="146.1" y1="230.8" x2="130.9" y2="220.1"/>
<line class="st5" x1="149.9" y1="229" x2="135" y2="218.1"/>
<line class="st5" x1="154.9" y1="226.6" x2="139.8" y2="215.9"/>
<line class="st5" x1="158.9" y1="224.6" x2="144" y2="213.9"/>
<line class="st5" x1="162.9" y1="222.7" x2="147.8" y2="212.1"/>
<line class="st5" x1="151.9" y1="210.1" x2="167.3" y2="220.6"/>
<line class="st5" x1="171.4" y1="218.6" x2="156.2" y2="208.1"/>
<line class="st5" x1="175.6" y1="216.5" x2="160.7" y2="205.9"/>
<line class="st5" x1="179.8" y1="214.5" x2="164.6" y2="204.1"/>
<line class="st5" x1="184" y1="212.4" x2="168.5" y2="202.2"/>
<line class="st5" x1="188.5" y1="210.3" x2="173.4" y2="199.9"/>
<line class="st5" x1="192.5" y1="208.3" x2="177.4" y2="198"/>
<line class="st5" x1="196.3" y1="206.5" x2="181.1" y2="196.2"/>
<line class="st5" x1="200.7" y1="204.4" x2="185.4" y2="194.2"/>
<line class="st5" x1="204.8" y1="202.3" x2="189.5" y2="192.2"/>
<line class="st5" x1="208.9" y1="200.4" x2="193.7" y2="190.2"/>
<line class="st5" x1="212.7" y1="198.5" x2="197.1" y2="188.6"/>
<line class="st5" x1="216.8" y1="196.5" x2="201.2" y2="186.7"/>
<line class="st5" x1="220.7" y1="194.6" x2="205.3" y2="184.7"/>
<line class="st5" x1="225" y1="192.6" x2="209.5" y2="182.7"/>
<line class="st5" x1="229.1" y1="190.6" x2="213.4" y2="180.8"/>
<line class="st5" x1="232.7" y1="188.8" x2="217.1" y2="179.1"/>
<line class="st5" x1="236.5" y1="187" x2="221.7" y2="177.3"/>
<line class="st5" x1="240.2" y1="185.1" x2="224.9" y2="175.4"/>
<polygon class="st7" points="37,260.3 57,275.4 56.6,279 37.4,264.6 "/>
<polyline class="st5" points="56.6,279 59.1,277.1 57,276.6 "/>
<line class="st5" x1="222.4" y1="170.7" x2="228" y2="173.7"/>
<polyline class="st7" points="287.2,124.6 428.7,59.1 443.7,65.8 303,132.7 "/>
<line class="st5" x1="290" y1="126" x2="431.8" y2="60.5"/>
<line class="st5" x1="293.5" y1="127.8" x2="434.5" y2="61.7"/>
<line class="st5" x1="296.8" y1="129.7" x2="437.8" y2="63.2"/>
<line class="st5" x1="299.4" y1="131.1" x2="440.7" y2="64.5"/>
<polyline class="st7" points="443.7,65.8 446.2,64.9 446.2,62 430.6,55.7 430.6,58.3 428.7,59.1 "/>
<line class="st5" x1="430.6" y1="58.3" x2="446.2" y2="64.9"/>
<line class="st5" x1="426.1" y1="60.5" x2="440.7" y2="67.2"/>
<line class="st5" x1="437.4" y1="68.8" x2="423.3" y2="61.6"/>
<line class="st5" x1="434.5" y1="70.2" x2="420.5" y2="62.9"/>
<line class="st5" x1="431.8" y1="71.4" x2="417.1" y2="64.5"/>
<line class="st5" x1="414.3" y1="65.8" x2="429" y2="72.8"/>
<line class="st5" x1="425.6" y1="74.4" x2="411" y2="67.3"/>
<line class="st5" x1="408.2" y1="68.6" x2="422.6" y2="75.8"/>
<line class="st5" x1="419.6" y1="77.3" x2="405.1" y2="70"/>
<line class="st5" x1="402.4" y1="71.4" x2="416.6" y2="78.7"/>
<line class="st5" x1="404.3" y1="84.6" x2="389.5" y2="77.3"/>
<line class="st5" x1="386.8" y1="78.5" x2="401" y2="86.1"/>
<line class="st5" x1="398.1" y1="87.5" x2="383.6" y2="80"/>
<line class="st5" x1="380.2" y1="81.6" x2="394.9" y2="89"/>
<line class="st5" x1="391.6" y1="90.6" x2="376.8" y2="83.1"/>
<line class="st5" x1="373.8" y1="84.6" x2="388.2" y2="92.2"/>
<line class="st5" x1="385.3" y1="93.6" x2="370.4" y2="86.1"/>
<line class="st5" x1="367.4" y1="87.5" x2="382.6" y2="94.9"/>
<line class="st5" x1="379.1" y1="96.6" x2="364.1" y2="89"/>
<line class="st5" x1="360.8" y1="90.6" x2="375.6" y2="98.2"/>
<line class="st5" x1="372.5" y1="99.7" x2="357.5" y2="92.1"/>
<line class="st5" x1="354.5" y1="93.5" x2="369.5" y2="101.1"/>
<line class="st5" x1="366" y1="102.8" x2="351.1" y2="95"/>
<line class="st5" x1="348.3" y1="96.4" x2="363" y2="104.2"/>
<line class="st5" x1="359.6" y1="105.8" x2="344.5" y2="98.1"/>
<line class="st5" x1="341.5" y1="99.5" x2="356.3" y2="107.4"/>
<line class="st5" x1="352.6" y1="109.2" x2="338.2" y2="101.1"/>
<line class="st5" x1="334.9" y1="102.6" x2="349.5" y2="110.6"/>
<line class="st5" x1="346.2" y1="112.2" x2="331.3" y2="104.2"/>
<line class="st5" x1="327.9" y1="105.8" x2="342.6" y2="113.9"/>
<line class="st5" x1="339.5" y1="115.4" x2="324.6" y2="107.4"/>
<line class="st5" x1="321" y1="109" x2="336" y2="117.1"/>
<line class="st5" x1="332.6" y1="118.7" x2="317.5" y2="110.6"/>
<line class="st5" x1="314.3" y1="112.1" x2="329.5" y2="120.1"/>
<line class="st5" x1="326.2" y1="121.7" x2="311.1" y2="113.6"/>
<line class="st5" x1="307.6" y1="115.2" x2="322.8" y2="123.3"/>
<line class="st5" x1="319.3" y1="125" x2="304.1" y2="116.8"/>
<line class="st5" x1="300.8" y1="118.3" x2="315.7" y2="126.7"/>
<line class="st5" x1="311.9" y1="128.5" x2="297.5" y2="119.9"/>
<line class="st5" x1="294.2" y1="121.4" x2="308.8" y2="130"/>
<line class="st5" x1="305.2" y1="131.7" x2="290.2" y2="123.3"/>
<polyline class="st7" points="296.2,134 283.1,127 283.1,122.3 300.5,131.7 "/>
<polyline class="st7" points="308.5,135.8 450.8,69.9 465.8,76.5 322.9,144.6 "/>
<line class="st5" x1="310.9" y1="137.3" x2="454" y2="71.3"/>
<line class="st5" x1="315" y1="139.3" x2="456.6" y2="72.4"/>
<line class="st5" x1="318" y1="140.9" x2="459.9" y2="73.9"/>
<line class="st5" x1="320.4" y1="142.4" x2="462.9" y2="75.2"/>
<polyline class="st7" points="465.8,76.5 468.4,75.7 468.4,72.8 452.7,66.5 452.7,69.1 450.8,69.9 "/>
<line class="st5" x1="452.7" y1="69.1" x2="468.4" y2="75.7"/>
<line class="st5" x1="448.2" y1="71.3" x2="462.9" y2="78"/>
<line class="st5" x1="459.6" y1="79.5" x2="445.4" y2="72.4"/>
<line class="st5" x1="456.6" y1="80.9" x2="442.6" y2="73.7"/>
<line class="st5" x1="454" y1="82.2" x2="439.3" y2="75.2"/>
<line class="st5" x1="436.4" y1="76.5" x2="451.1" y2="83.6"/>
<line class="st5" x1="447.8" y1="85.1" x2="433.2" y2="78.1"/>
<line class="st5" x1="430.4" y1="79.3" x2="444.8" y2="86.6"/>
<line class="st5" x1="441.7" y1="88" x2="427.2" y2="80.8"/>
<line class="st5" x1="424.5" y1="82.2" x2="438.7" y2="89.4"/>
<line class="st5" x1="426.4" y1="95.3" x2="411.6" y2="88"/>
<line class="st5" x1="409" y1="89.3" x2="423.1" y2="96.9"/>
<line class="st5" x1="420.2" y1="98.2" x2="405.8" y2="90.7"/>
<line class="st5" x1="402.4" y1="92.3" x2="417.1" y2="99.8"/>
<line class="st5" x1="413.8" y1="101.3" x2="399" y2="93.9"/>
<line class="st5" x1="395.9" y1="95.3" x2="410.3" y2="103"/>
<line class="st5" x1="407.5" y1="104.3" x2="392.5" y2="96.9"/>
<line class="st5" x1="389.6" y1="98.2" x2="404.7" y2="105.6"/>
<line class="st5" x1="401.2" y1="107.3" x2="386.3" y2="99.8"/>
<line class="st5" x1="382.9" y1="101.3" x2="397.7" y2="109"/>
<line class="st5" x1="394.6" y1="110.4" x2="379.6" y2="102.8"/>
<line class="st5" x1="376.7" y1="104.2" x2="391.6" y2="111.9"/>
<line class="st5" x1="388.1" y1="113.5" x2="373.3" y2="105.8"/>
<line class="st5" x1="370.4" y1="107.1" x2="385.1" y2="115"/>
<line class="st5" x1="381.7" y1="116.6" x2="366.7" y2="108.8"/>
<line class="st5" x1="363.6" y1="110.2" x2="378.4" y2="118.2"/>
<line class="st5" x1="374.7" y1="119.9" x2="360.3" y2="111.9"/>
<line class="st5" x1="357" y1="113.3" x2="371.6" y2="121.4"/>
<line class="st5" x1="368.4" y1="122.9" x2="353.4" y2="115"/>
<line class="st5" x1="350.1" y1="116.5" x2="364.7" y2="124.7"/>
<line class="st5" x1="361.6" y1="126.1" x2="346.7" y2="118.2"/>
<line class="st5" x1="343.2" y1="119.7" x2="358.1" y2="127.8"/>
<line class="st5" x1="354.8" y1="129.4" x2="339.6" y2="121.4"/>
<line class="st5" x1="336.5" y1="122.8" x2="351.7" y2="130.9"/>
<line class="st5" x1="348.3" y1="132.5" x2="333.2" y2="124.3"/>
<line class="st5" x1="329.7" y1="125.9" x2="344.9" y2="134.1"/>
<line class="st5" x1="341.4" y1="135.8" x2="326.2" y2="127.6"/>
<line class="st5" x1="322.9" y1="129.1" x2="337.8" y2="137.5"/>
<line class="st5" x1="334" y1="139.3" x2="319.6" y2="130.6"/>
<line class="st5" x1="316.4" y1="132.1" x2="331" y2="140.7"/>
<line class="st5" x1="327.4" y1="142.4" x2="312.3" y2="134"/>
<polygon class="st7" points="322.6,143.6 305.3,134.2 305.3,138.9 322.6,147.5 "/>
<polyline class="st5" points="322.6,147.5 324.2,146.2 322.6,146 "/>
<polyline class="st2" points="430.1,206.9 428,208.1 423.6,210.5 422,211.4 422.2,216.4 431.6,210.8 "/>
<polyline class="st2" points="434.9,208.8 440.8,205.3 440.8,201.1 437.6,202.9 433.6,205 "/>
<polyline class="st3" points="419.5,213 417.5,214.5 422.2,216.4 "/>
<polyline class="st2" points="468.1,190.2 468.1,187.3 464.5,189.4 463.2,190.1 463,190.3 "/>
<polyline class="st2" points="459,192.6 458.9,192.7 454.4,195.4 450.5,197.7 448.4,198.9 448.4,202.4 448.4,202.8 448.4,203.8 
	456.3,198.9 "/>
<polyline class="st2" points="448.4,203.8 445.6,202.6 446.8,201.6 "/>
<path class="st0" d="M280.4,305.1l34.1-16.8c6.5-3,14.5-1.2,18.7,4.5l0,0c4.9,6.5,3.2,15.6-3.8,20l-30.9,20.5"/>
<ellipse transform="matrix(0.8923 -0.4513 0.4513 0.8923 -113.6709 164.6026)" class="st0" cx="288.2" cy="320.6" rx="9" ry="17.3"/>
<path class="st8" d="M317.9,320.3c0.3-3.3-0.3-7.2-1.6-11.2c-3-8.6-8.9-14.5-13.5-13.6"/>
<path class="st1" d="M325.4,316.3c0.2-3.2-0.4-7.1-2.1-11.1c-3.5-8.6-10.3-14.5-15.5-13.7"/>
<path class="st0" d="M284.6,307.8c-2.7,3.1-2.8,8.9,0,14.1c3,5.4,8.1,8.5,12.3,7.6"/>
<path class="st0" d="M328.8,283L328.8,283c0.1-0.1,0.2-0.1,0.3-0.1c4.8-2.4,11.3,0.6,14.4,6.9c2.4,4.7,2.2,9.9-0.1,13.2"/>
<path class="st0" d="M327.1,288c0.2-1.9,0.8-3.6,1.8-5l0,0l19.4-11.4c4.3-0.4,9.1,2.6,11.7,7.7c2.4,4.7,2.2,9.9-0.1,13.2l-15.3,9.4
	c-0.5,0.5-0.8,0.7-1,0.9h0c-0.2,0.2-0.3,0.2-0.3,0.3c-2.2,1.1-4.8,1.1-7.2,0.1"/>
<path class="st0" d="M355,273.5l3.2-1.8c2.3-1.3,5.7,0.2,7.6,3.4s1.5,7-0.8,8.3l-3.4,2.5"/>
<ellipse class="st1" cx="338.8" cy="280.7" rx="1.8" ry="0.8"/>
<ellipse class="st0" cx="425.2" cy="295.9" rx="8" ry="4.5"/>
<path class="st0" d="M433.2,295.9v2.8c0,2.5-3.6,4.5-8,4.5s-8-2-8-4.5v-2.8"/>
<path class="st0" d="M432.9,297.1c0.1,0,0.2,0.1,0.3,0.2c2.5,1.3,4,3.2,4,5.4c0,4-5.4,7.2-12,7.2s-12-3.2-12-7.2
	c0-2.1,1.6-4.1,4-5.4c0.1-0.1,0.2-0.1,0.3-0.2"/>
<ellipse class="st0" cx="438.9" cy="304.5" rx="0.7" ry="1.9"/>
<line class="st0" x1="437.2" y1="302.6" x2="439" y2="302.6"/>
<line class="st0" x1="435.7" y1="306.4" x2="438.9" y2="306.4"/>
<path class="st0" d="M436.3,319.1c0.1,0.4,0.2,0.7,0.2,1.1c0,3.3-5.1,5.9-11.3,5.9s-11.3-2.6-11.3-5.9c0-0.4,0.1-0.7,0.2-1.1"/>
<line class="st0" x1="413.6" y1="304.5" x2="414" y2="319.1"/>
<line class="st0" x1="436.3" y1="319.1" x2="436.3" y2="306.4"/>
<path class="st0" d="M437.1,341.5c-1.4,3-6.2,5.2-11.8,5.2c-4.9,0-9.1-1.7-11.1-4.1l-0.1-0.3v-11.5c0-2.5,1-4.9,2.6-6.7"/>
<path class="st0" d="M437.1,341.6v-10.9c0-2.7-1.1-5.2-2.9-7"/>
<path class="st1" d="M433.9,335.1c0.1,0,0.3,0,0.4,0c0.6,0.1,1,1,0.8,1.8s-0.9,1.4-1.5,1.3c-0.3-0.1-0.5-0.3-0.7-0.5"/>
<path class="st1" d="M433.9,335.1c-0.5,0.1-0.9,0.6-1.1,1.3c-0.1,0.5,0,1,0.1,1.3"/>
<path class="st1" d="M433.7,338.2l-1.1-0.5c-0.6-0.1-1-1-0.8-1.8c0.2-0.9,0.9-1.4,1.5-1.3l1.5,0.7"/>
<path class="st0" d="M437.1,339.5c0.8,0.8,1.2,1.7,1.2,2.7c0,3.4-5.6,6.2-12.5,6.2s-12.5-2.8-12.5-6.2c0-0.8,0.3-1.5,0.8-2.2"/>
<path class="st0" d="M413,360.6c0,3,5.6,5.5,12.5,5.5s12.5-2.5,12.5-5.5"/>
<line class="st0" x1="438.1" y1="360.6" x2="438.3" y2="341.8"/>
<path class="st0" d="M413.1,360.7c-0.7,1-1.1,2-1.1,3.2c0,4.4,6.1,8,13.6,8c5.4,0,10-1.8,12.2-4.5"/>
<path class="st1" d="M439.1,363.7c0-1-0.4-1.9-1-2.8"/>
<path class="st8" d="M438.2,356.6c0,0.4-0.1,0.7-0.3,1c-1.3,2.1-6.2,3.6-12.1,3.6s-10.9-1.5-12.1-3.6c-0.2-0.3-0.3-0.7-0.3-1
	c0-0.3,0.1-0.6,0.2-0.9c0.2,0.4,0.5,0.7,0.9,1c2,1.5,6.3,2.6,11.2,2.6s9.3-1.1,11.3-2.7c0.4-0.3,0.7-0.7,0.9-1.1
	C438.1,355.9,438.2,356.2,438.2,356.6L438.2,356.6z"/>
<path class="st8" d="M414.5,356.7c2,1.5,6.3,2.6,11.2,2.6s9.3-1.1,11.3-2.7"/>
<path class="st8" d="M437.9,357.6c0.2,0.3,0.3,0.7,0.3,1c0,2.6-5.6,4.6-12.5,4.6s-12.5-2.1-12.5-4.6c0-0.4,0.1-0.7,0.3-1"/>
<path class="st1" d="M295.4,336.3c2.5-3.5,2-10.8-1.6-17.9c-4.1-8.1-10.8-13.1-15.2-11.6L231,275.9l17.3-10.2l46.9,31.4"/>
<polygon class="st0" points="378.9,351.2 361,363.3 310.3,329.7 327.1,318.8 "/>
<polyline class="st0" points="310.3,329.7 313,318.8 327.1,318.8 "/>
<line class="st0" x1="319.2" y1="323.9" x2="313" y2="318.8"/>
<polyline class="st0" points="414,336.6 402.6,345 360.1,317.3 374.8,308.2 414.5,333.3 "/>
<line class="st1" x1="413.1" y1="344.1" x2="402.6" y2="345"/>
<polyline class="st0" points="409.5,340 413.2,341.8 413,360.6 "/>
<polygon class="st0" points="496.1,386 482,395.5 435.7,366.1 449.4,356.6 "/>
<polyline class="st1" points="449.4,356.6 435.3,356.6 435.7,366.1 "/>
<line class="st1" x1="442.7" y1="361.2" x2="435.3" y2="356.6"/>
<path class="st9" d="M491.9,254c-7.9-2.5-17.6,5.6-21.6,18.3c-4.1,12.6-1,24.9,6.9,27.5l55.4,32"/>
<path class="st4" d="M555.9,288.5c-7.9-2.5-18,6.9-22.5,21c-2.7,8.4-2.9,16.6-0.9,22.4"/>
<polyline class="st9" points="491.9,254 556.3,288.6 591.8,307.9 "/>
<path class="st4" d="M517.5,267.6c-6.8-3.6-17.3,3.1-23.5,14.8c-6.2,11.8-5.6,24.2,1.2,27.8"/>
<path class="st4" d="M536.5,278.3c-6.8-3.6-17.3,3.1-23.5,14.8c-1.3,2.4-2.2,4.8-2.9,7.2l-0.8-0.5c-1.7-1-4-0.3-4.7,1.5l0,0
	c-0.6,1.4-0.1,3.1,1.2,4l3,2.1c-0.4,6.2,1.4,11.3,5.4,13.4"/>
<ellipse transform="matrix(0.5 -0.866 0.866 0.5 8.3879 580.5759)" class="st4" cx="507" cy="283" rx="3.7" ry="3"/>
<path class="st4" d="M493.1,258.1l1.5,0.8c0.5,0.3,0.5,1,0,1.3l-2.4,1.4c-0.2,0.1-0.5,0.1-0.7,0l-1.5-0.8c-0.5-0.3-0.5-1,0-1.3
	l2.4-1.4C492.5,258,492.8,258,493.1,258.1L493.1,258.1z"/>
<path class="st4" d="M486.6,282.4l3.1,1.7c0.3,0.1,0.4,0.5,0.2,0.8l-1,2.3c-0.1,0.3-0.5,0.5-0.9,0.3l-3-1.8
	c-0.2-0.2-0.4-0.5-0.2-0.8l1-2.2C485.9,282.4,486.3,282.2,486.6,282.4L486.6,282.4z"/>
<polyline class="st4" points="485.9,282.2 487.2,281.7 491,283.9 490,284.4 "/>
<path class="st4" d="M488.4,287.6l0.3,0.9c0.1,0.1,0.4,0.1,0.4,0l2.2-4.7"/>
<line class="st9" x1="532.4" y1="331.8" x2="563.9" y2="350.9"/>
<path class="st4" d="M546.1,302.2l22.6,13.5l-15.3,10c-0.7,0.5-1.7,0.5-2.4,0l-17.3-11.2c-1.3-0.8-1.3-2.7-0.1-3.6L546.1,302.2
	L546.1,302.2z"/>
<path class="st4" d="M549.5,304.2l14.8-9.8L563,294c-2.3-0.9-4.8-0.6-6.9,0.6l-4.9,3c-1.7,1-2.9,2.5-3.5,4.4l-0.3,1"/>
<path class="st4" d="M592.4,308.3c-8.4-1.9-19.2,4.8-25.6,16.5c-5.1,9.3-6,19.3-3,26"/>
<line class="st9" x1="578.2" y1="300.5" x2="578.2" y2="300.5"/>
<line class="st9" x1="554.6" y1="325" x2="554.6" y2="325"/>
<path class="st9" d="M574.5,349.3c-3.6,1.7-7.3,2.3-10.6,1.5"/>
<path class="st9" d="M592.4,308.3c1.4,3.1,1.9,6.9,1.6,10.9"/>
<path class="st9" d="M609,359.6l-34.6-10.3c-1.5-4.6-0.7-11,2.5-17.3c4.9-9.5,13.5-14.8,19.3-11.9l24.6,20.2"/>
<path class="st4" d="M620.2,340.1c-4.4-0.3-9.2,3.6-11.2,9.5c-1.2,3.6-1.2,7.2-0.2,10.1l1.2,2.4"/>
<polygon class="st4" points="544.1,334.2 548.7,336.8 547.5,338.2 542.8,335.4 "/>
<polyline class="st4" points="547.5,338.2 547.5,339.8 542.6,336.8 542.6,335.4 "/>
<polyline class="st4" points="548.7,336.8 548.7,339.3 547.8,340 "/>
<polygon class="st4" points="550.8,338.2 555.4,340.7 554.2,342.2 549.5,339.4 "/>
<polyline class="st4" points="554.2,342.2 554.2,343.7 549.3,340.8 549.3,339.4 "/>
<polyline class="st4" points="555.4,340.7 555.4,343.3 554.4,344 "/>
<g>
	<path class="st4" d="M578.6,335.8c0,0-0.1-0.1-0.2-0.1c-0.3,0-0.5,0.5-0.5,1.1s0.2,1.1,0.5,1.1"/>
	<ellipse class="st4" cx="599.2" cy="344.3" rx="0.5" ry="1.1"/>
	<line class="st4" x1="578.5" y1="335.8" x2="599.2" y2="343.2"/>
	<line class="st4" x1="599.2" y1="345.4" x2="578.5" y2="337.9"/>
</g>
<g>
	<path class="st4" d="M578.6,344.5c0,0-0.1-0.1-0.2-0.1c-0.3,0-0.5,0.5-0.5,1.1s0.2,1.1,0.5,1.1"/>
	<ellipse class="st4" cx="599.2" cy="353" rx="0.5" ry="1.1"/>
	<line class="st4" x1="578.5" y1="344.5" x2="599.2" y2="351.9"/>
	<line class="st4" x1="599.2" y1="354.1" x2="578.5" y2="346.6"/>
</g>
<g>
	<polyline class="st4" points="580.1,345 580,338.5 596.7,351.1 	"/>
	<line class="st4" x1="578.5" y1="344.5" x2="578.5" y2="337.9"/>
</g>
<g>
	<line class="st4" x1="598.6" y1="345.1" x2="598.7" y2="351.6"/>
	<polyline class="st4" points="596.7,351.1 596.7,344.3 580.1,345 	"/>
</g>
<line class="st4" x1="595.9" y1="319.9" x2="599.5" y2="312.2"/>
<line class="st4" x1="597.2" y1="320.5" x2="600.8" y2="312.7"/>
<ellipse transform="matrix(0.389 -0.9213 0.9213 0.389 82.6216 743.1279)" class="st4" cx="601.5" cy="309.3" rx="3.4" ry="6.2"/>
<path class="st4" d="M600.2,312.4l2.1-4.1c0,0-0.3-1-6.8-0.3"/>
<path class="st4" d="M607,312.4c0,0-1.6-2.7-4.7-4c0,0,0.1-1.2,2.3-1.2"/>
<path class="st4" d="M620.2,340.1c0.5,0.3,0.9,0.7,1.3,1.1l-9,5.9l9.7,5.9l7.5-5.9"/>
<path class="st9" d="M629.6,347.1l-8.2-5.9L629.6,347.1z"/>
<polyline class="st9" points="628,348.4 635.5,351.9 635.5,354.1 634,355 629.6,357.7 629.6,355 623.1,352.2 "/>
<polyline class="st9" points="635.5,354.1 634.2,363.3 628.4,366.1 629.6,357.7 "/>
<polyline class="st9" points="628.4,366.1 621.4,365 618.1,367.8 612.4,364.3 "/>
<path class="st9" d="M614.7,356.3l-0.5,0.5c-0.9,0.9-0.6,2.3,0.5,2.9l1.6,0.8c0.8,0.4,1.7,0.2,2.2-0.5l0.9-1.2L614.7,356.3
	L614.7,356.3z"/>
<line class="st9" x1="599.8" y1="369.5" x2="614" y2="359.2"/>
<line class="st9" x1="602.2" y1="371.2" x2="616.5" y2="360.9"/>
<polygon class="st9" points="597.2,368.7 602.9,372.4 587.5,383 582,379.3 "/>
<path class="st9" d="M631.8,350.2l13.8-10.7c0.7-0.5,0.7-1.6,0-2.1l0,0c-0.5-0.4-1.2-0.4-1.6,0l-14.4,11"/>
<path class="st9" d="M644,337.4l-0.3-1.3c-0.2-0.6,0.5-1.2,1.1-0.9l3.8,2.1c0.5,0.3,0.5,0.9,0.1,1.3l-3.2,2.5l-0.6-1.1"/>
<polyline class="st9" points="649,337.9 662.8,328 657.3,324.8 644,335.1 "/>
<polygon class="st9" points="556.4,363.3 582,379.3 582,382.2 578.5,384.4 552.7,369.5 556.6,367.8 "/>
<line class="st9" x1="359.8" y1="505.4" x2="552.7" y2="369.5"/>
<polyline class="st9" points="578.5,384.4 384.6,523.3 382.6,521.9 356.2,503.1 356.2,510.9 382,529.5 387.6,526.8 382.8,525.2 "/>
<line class="st4" x1="382.6" y1="521.9" x2="382" y2="529.5"/>
<line class="st4" x1="365" y1="509.3" x2="557.9" y2="372.5"/>
<line class="st4" x1="562.4" y1="375.1" x2="370.7" y2="513.4"/>
<line class="st4" x1="375.7" y1="517" x2="567.3" y2="378"/>
<line class="st4" x1="573.7" y1="381.6" x2="380" y2="520.1"/>
<polyline class="st9" points="556.6,367.8 582,382.2 590.6,388.8 616,403.2 "/>
<line class="st4" x1="549.3" y1="371.9" x2="574.3" y2="387.4"/>
<line class="st4" x1="545.5" y1="375" x2="570.2" y2="390.3"/>
<line class="st4" x1="566.3" y1="393.1" x2="541.5" y2="377.4"/>
<line class="st4" x1="537.7" y1="380.1" x2="562.8" y2="395.7"/>
<line class="st4" x1="558.2" y1="399" x2="533.2" y2="383.2"/>
<line class="st4" x1="529.5" y1="385.8" x2="554.5" y2="401.6"/>
<line class="st4" x1="550.2" y1="404.6" x2="525" y2="389"/>
<line class="st4" x1="521.6" y1="391.4" x2="546.5" y2="407.3"/>
<line class="st4" x1="542" y1="410.5" x2="517.1" y2="394.5"/>
<line class="st4" x1="538" y1="413.4" x2="513.2" y2="397.3"/>
<line class="st4" x1="508.3" y1="400.7" x2="534.1" y2="416.2"/>
<line class="st4" x1="529.6" y1="419.5" x2="504.7" y2="403.3"/>
<line class="st4" x1="500.5" y1="406.2" x2="525.6" y2="422.3"/>
<line class="st4" x1="521.2" y1="425.4" x2="496.1" y2="409.3"/>
<line class="st4" x1="492" y1="412.2" x2="517.1" y2="428.4"/>
<line class="st4" x1="512.5" y1="431.7" x2="488.1" y2="415"/>
<line class="st4" x1="483.8" y1="418.1" x2="508.3" y2="434.7"/>
<line class="st4" x1="504" y1="437.8" x2="479.4" y2="421.1"/>
<line class="st4" x1="475.1" y1="424.2" x2="499.6" y2="440.9"/>
<line class="st4" x1="495.5" y1="443.9" x2="470.6" y2="427.3"/>
<line class="st4" x1="466.2" y1="430.5" x2="491" y2="447.1"/>
<line class="st4" x1="486.6" y1="450.2" x2="462.1" y2="433.4"/>
<line class="st4" x1="458" y1="436.2" x2="482.5" y2="453.2"/>
<line class="st4" x1="478" y1="456.4" x2="453.4" y2="439.4"/>
<line class="st4" x1="449.1" y1="442.5" x2="473.3" y2="459.8"/>
<line class="st4" x1="468.7" y1="463.1" x2="444.3" y2="445.9"/>
<line class="st4" x1="439.6" y1="449.2" x2="464.3" y2="466.2"/>
<line class="st4" x1="459.2" y1="469.9" x2="435.2" y2="452.3"/>
<line class="st4" x1="430.8" y1="455.4" x2="455" y2="472.9"/>
<line class="st4" x1="426.6" y1="458.4" x2="450.8" y2="475.8"/>
<line class="st4" x1="422.3" y1="462.2" x2="446.6" y2="479.6"/>
<line class="st4" x1="403.5" y1="475.2" x2="427.8" y2="492.7"/>
<line class="st4" x1="398.5" y1="478.7" x2="422.7" y2="496.2"/>
<line class="st4" x1="393.9" y1="482.1" x2="418.1" y2="499.6"/>
<line class="st4" x1="388.9" y1="485.4" x2="413.1" y2="502.8"/>
<line class="st4" x1="383.8" y1="488.7" x2="408.1" y2="506.2"/>
<line class="st4" x1="378.8" y1="491.9" x2="403" y2="509.3"/>
<line class="st4" x1="374.8" y1="495.4" x2="399" y2="512.8"/>
<line class="st4" x1="369.9" y1="499" x2="394.1" y2="516.5"/>
<line class="st4" x1="364.6" y1="502.8" x2="388.9" y2="520.3"/>
<polygon class="st9" points="590.4,384.3 616,400.3 616,403.2 612.5,405.4 586.7,390.5 590.6,388.8 "/>
<line class="st9" x1="393.8" y1="526.4" x2="586.7" y2="390.5"/>
<polyline class="st9" points="612.5,405.4 418.6,544.3 416.6,542.9 390.2,524.1 390.2,531.9 416,550.5 421.6,547.8 416.8,546.1 "/>
<line class="st4" x1="416.6" y1="542.9" x2="416" y2="550.5"/>
<line class="st4" x1="399" y1="530.3" x2="591.9" y2="393.5"/>
<line class="st4" x1="596.4" y1="396.1" x2="404.7" y2="534.4"/>
<line class="st4" x1="409.7" y1="538" x2="601.3" y2="399"/>
<line class="st4" x1="607.7" y1="402.6" x2="414" y2="541"/>
<line class="st4" x1="583.3" y1="392.9" x2="608.3" y2="408.3"/>
<line class="st4" x1="579.4" y1="396" x2="604.2" y2="411.3"/>
<line class="st4" x1="600.3" y1="414.1" x2="575.5" y2="398.4"/>
<line class="st4" x1="571.7" y1="401.1" x2="596.8" y2="416.6"/>
<line class="st4" x1="592.2" y1="419.9" x2="567.2" y2="404.2"/>
<line class="st4" x1="563.5" y1="406.8" x2="588.5" y2="422.6"/>
<line class="st4" x1="584.2" y1="425.6" x2="559" y2="410"/>
<line class="st4" x1="555.6" y1="412.4" x2="580.5" y2="428.3"/>
<line class="st4" x1="576" y1="431.5" x2="551.1" y2="415.5"/>
<line class="st4" x1="572" y1="434.4" x2="547.2" y2="418.3"/>
<line class="st4" x1="542.3" y1="421.7" x2="568.1" y2="437.2"/>
<line class="st4" x1="563.5" y1="440.4" x2="538.7" y2="424.3"/>
<line class="st4" x1="534.5" y1="427.2" x2="559.6" y2="443.3"/>
<line class="st4" x1="555.2" y1="446.4" x2="530.1" y2="430.3"/>
<line class="st4" x1="526" y1="433.2" x2="551.1" y2="449.4"/>
<line class="st4" x1="546.5" y1="452.7" x2="522.1" y2="436"/>
<line class="st4" x1="517.7" y1="439.1" x2="542.3" y2="455.6"/>
<line class="st4" x1="538" y1="458.8" x2="513.4" y2="442.1"/>
<line class="st4" x1="509.1" y1="445.2" x2="533.6" y2="461.9"/>
<line class="st4" x1="529.5" y1="464.8" x2="504.6" y2="448.3"/>
<line class="st4" x1="500.2" y1="451.4" x2="525" y2="468.1"/>
<line class="st4" x1="520.6" y1="471.2" x2="496" y2="454.3"/>
<line class="st4" x1="492" y1="457.2" x2="516.5" y2="474.2"/>
<line class="st4" x1="512" y1="477.4" x2="487.4" y2="460.4"/>
<line class="st4" x1="483.1" y1="463.5" x2="507.3" y2="480.8"/>
<line class="st4" x1="502.7" y1="484" x2="478.3" y2="466.9"/>
<line class="st4" x1="473.6" y1="470.1" x2="498.3" y2="487.2"/>
<line class="st4" x1="493.2" y1="490.9" x2="469.2" y2="473.3"/>
<line class="st4" x1="464.8" y1="476.4" x2="489" y2="493.9"/>
<line class="st4" x1="460.6" y1="479.4" x2="484.8" y2="496.8"/>
<line class="st4" x1="456.3" y1="483.2" x2="480.6" y2="500.6"/>
<line class="st4" x1="437.5" y1="496.2" x2="461.8" y2="513.7"/>
<line class="st4" x1="432.5" y1="499.7" x2="456.7" y2="517.2"/>
<line class="st4" x1="427.9" y1="503.1" x2="452.1" y2="520.6"/>
<line class="st4" x1="422.9" y1="506.4" x2="447.1" y2="523.8"/>
<line class="st4" x1="417.8" y1="509.7" x2="442.1" y2="527.2"/>
<line class="st4" x1="412.8" y1="512.9" x2="437" y2="530.3"/>
<line class="st4" x1="408.8" y1="516.3" x2="433" y2="533.8"/>
<line class="st4" x1="403.9" y1="520" x2="428.1" y2="537.4"/>
<line class="st4" x1="398.6" y1="523.8" x2="422.9" y2="541.3"/>
<line class="st4" x1="587.5" y1="383" x2="590.4" y2="384.3"/>
<polyline class="st9" points="794,226.8 797,224.9 797.8,221.5 773,210.5 773,214.7 771,216.6 "/>
<polyline class="st9" points="634.5,312.5 771,216.6 775.6,218.6 794,226.8 657.3,324.8 629.6,310.4 629.6,317.2 651.7,329.2 "/>
<line class="st4" x1="638.5" y1="315" x2="775.6" y2="218.6"/>
<line class="st4" x1="779.9" y1="220.5" x2="644" y2="317.9"/>
<line class="st4" x1="647.9" y1="319.9" x2="784.4" y2="222.5"/>
<line class="st4" x1="788.9" y1="224.5" x2="653.3" y2="322.8"/>
<line class="st4" x1="766.7" y1="219.6" x2="789.4" y2="230.1"/>
<line class="st4" x1="760.7" y1="223.9" x2="783.4" y2="234.4"/>
<line class="st4" x1="757.7" y1="225.9" x2="780.4" y2="236.4"/>
<line class="st4" x1="755.3" y1="227.9" x2="778" y2="238.3"/>
<line class="st4" x1="752.3" y1="230.1" x2="775" y2="240.6"/>
<line class="st4" x1="748.8" y1="232.4" x2="771.5" y2="242.9"/>
<line class="st4" x1="746.4" y1="234.1" x2="769.1" y2="244.6"/>
<line class="st4" x1="742.8" y1="236.5" x2="765.5" y2="247"/>
<line class="st4" x1="736.8" y1="240.6" x2="759.5" y2="251.1"/>
<line class="st4" x1="733.3" y1="242.9" x2="756" y2="253.4"/>
<line class="st4" x1="731.5" y1="244.6" x2="754.2" y2="255.1"/>
<line class="st4" x1="728" y1="247" x2="750.7" y2="257.5"/>
<line class="st4" x1="724.6" y1="249.4" x2="747.2" y2="259.9"/>
<line class="st4" x1="722.8" y1="251.1" x2="745.5" y2="261.6"/>
<line class="st4" x1="719.3" y1="253.5" x2="742" y2="264"/>
<line class="st4" x1="715.5" y1="255.8" x2="738.2" y2="266.3"/>
<line class="st4" x1="711.5" y1="258.1" x2="734.9" y2="269.2"/>
<line class="st4" x1="710" y1="259.9" x2="731.8" y2="271"/>
<line class="st4" x1="706.3" y1="262.1" x2="728.7" y2="273.6"/>
<line class="st4" x1="703.5" y1="264.3" x2="725.4" y2="275.5"/>
<line class="st4" x1="699.9" y1="266.6" x2="722.2" y2="278.1"/>
<line class="st4" x1="696.9" y1="268.8" x2="719.3" y2="280.4"/>
<line class="st4" x1="694.1" y1="270.9" x2="716.5" y2="282.4"/>
<line class="st4" x1="690.4" y1="273.6" x2="712.7" y2="285.1"/>
<line class="st4" x1="687" y1="275.8" x2="709.3" y2="287.3"/>
<line class="st4" x1="683.8" y1="278.4" x2="706.2" y2="289.9"/>
<line class="st4" x1="680.7" y1="280.4" x2="703.1" y2="291.9"/>
<line class="st4" x1="677.5" y1="282.4" x2="699.9" y2="293.9"/>
<line class="st4" x1="674.3" y1="284.8" x2="696.7" y2="296.3"/>
<line class="st4" x1="671.1" y1="287" x2="693.5" y2="298.5"/>
<line class="st4" x1="667.3" y1="289.5" x2="689.7" y2="301"/>
<line class="st4" x1="664.3" y1="292.2" x2="686.6" y2="303.7"/>
<line class="st4" x1="660.5" y1="294.7" x2="682.9" y2="306.2"/>
<line class="st4" x1="657.1" y1="297.3" x2="679.5" y2="308.8"/>
<line class="st4" x1="653.3" y1="299.8" x2="675.7" y2="311.3"/>
<line class="st4" x1="651" y1="301.8" x2="673.3" y2="313.3"/>
<line class="st4" x1="647.2" y1="304.3" x2="669.5" y2="315.8"/>
<line class="st4" x1="644.1" y1="306.2" x2="666.4" y2="317.8"/>
<line class="st4" x1="640.3" y1="308.8" x2="662.6" y2="320.3"/>
<line class="st4" x1="637.2" y1="311.3" x2="659.6" y2="322.8"/>
<line class="st4" x1="763.6" y1="222" x2="786.3" y2="232.4"/>
<polyline class="st9" points="825.5,240.9 828.4,238.9 829.1,235.4 804.1,225.2 804.2,229.4 802.2,231.3 "/>
<line class="st4" x1="672.4" y1="333.3" x2="806.8" y2="233.2"/>
<line class="st4" x1="811.2" y1="235" x2="678" y2="336"/>
<line class="st4" x1="682" y1="338" x2="815.7" y2="236.9"/>
<line class="st4" x1="820.3" y1="238.7" x2="687.5" y2="340.7"/>
<line class="st4" x1="798" y1="234.4" x2="821" y2="244.3"/>
<line class="st4" x1="792.1" y1="238.9" x2="815.1" y2="248.8"/>
<line class="st4" x1="789.2" y1="241" x2="812.1" y2="250.8"/>
<line class="st4" x1="786.9" y1="243" x2="809.8" y2="252.9"/>
<line class="st4" x1="783.9" y1="245.3" x2="806.8" y2="255.2"/>
<line class="st4" x1="780.4" y1="247.8" x2="803.4" y2="257.6"/>
<line class="st4" x1="778.1" y1="249.5" x2="801" y2="259.4"/>
<line class="st4" x1="774.6" y1="252" x2="797.6" y2="261.9"/>
<line class="st4" x1="768.7" y1="256.2" x2="791.6" y2="266.1"/>
<line class="st4" x1="765.2" y1="258.7" x2="788.2" y2="268.5"/>
<line class="st4" x1="763.5" y1="260.4" x2="786.5" y2="270.3"/>
<line class="st4" x1="760" y1="262.9" x2="783" y2="272.8"/>
<line class="st4" x1="756.7" y1="265.4" x2="779.7" y2="275.3"/>
<line class="st4" x1="755" y1="267.2" x2="777.9" y2="277"/>
<line class="st4" x1="751.5" y1="269.6" x2="774.5" y2="279.5"/>
<line class="st4" x1="747.8" y1="272.1" x2="770.8" y2="281.9"/>
<line class="st4" x1="743.8" y1="274.4" x2="767.5" y2="284.9"/>
<line class="st4" x1="742.4" y1="276.2" x2="764.5" y2="286.8"/>
<line class="st4" x1="738.8" y1="278.6" x2="761.5" y2="289.5"/>
<line class="st4" x1="736" y1="280.9" x2="758.2" y2="291.4"/>
<line class="st4" x1="732.5" y1="283.3" x2="755.2" y2="294.2"/>
<line class="st4" x1="729.6" y1="285.6" x2="752.2" y2="296.5"/>
<line class="st4" x1="726.8" y1="287.7" x2="749.5" y2="298.6"/>
<line class="st4" x1="723.2" y1="290.5" x2="745.8" y2="301.4"/>
<line class="st4" x1="719.8" y1="292.8" x2="742.5" y2="303.7"/>
<line class="st4" x1="716.8" y1="295.5" x2="739.4" y2="306.4"/>
<line class="st4" x1="713.7" y1="297.5" x2="736.4" y2="308.4"/>
<line class="st4" x1="710.6" y1="299.7" x2="733.2" y2="310.6"/>
<line class="st4" x1="707.4" y1="302.1" x2="730.1" y2="313"/>
<line class="st4" x1="704.3" y1="304.4" x2="727" y2="315.3"/>
<line class="st4" x1="700.6" y1="307" x2="723.2" y2="317.9"/>
<line class="st4" x1="697.6" y1="309.8" x2="720.3" y2="320.7"/>
<line class="st4" x1="693.9" y1="312.4" x2="716.5" y2="323.3"/>
<line class="st4" x1="690.6" y1="315.1" x2="713.2" y2="326"/>
<line class="st4" x1="686.9" y1="317.7" x2="709.5" y2="328.6"/>
<line class="st4" x1="684.6" y1="319.8" x2="707.2" y2="330.6"/>
<line class="st4" x1="680.8" y1="322.4" x2="703.5" y2="333.3"/>
<line class="st4" x1="677.8" y1="324.4" x2="700.4" y2="335.3"/>
<line class="st4" x1="674.1" y1="327" x2="696.7" y2="337.9"/>
<line class="st4" x1="671.1" y1="329.6" x2="693.7" y2="340.5"/>
<line class="st4" x1="795" y1="236.9" x2="818" y2="246.8"/>
<polyline class="st9" points="691.6,342.6 691.6,348.4 686.1,347.1 663.6,335.8 663.4,328.9 691.6,342.6 825.5,240.9 806.8,233.2 
	802.2,231.3 668.4,331 "/>
<line class="st4" x1="773" y1="214.7" x2="797" y2="224.9"/>
<line class="st4" x1="804.2" y1="229.4" x2="828.4" y2="238.9"/>
<polyline class="st10" points="229.1,128.4 218.1,104.3 129.6,104.3 "/>
<polyline class="st9" points="714.8,218 725.8,193.9 814.3,193.9 "/>
<text transform="matrix(1 0 0 1 129.49 78.85)" class="st11 st12 st13">W</text>
<text transform="matrix(1 0 0 1 142.46 78.85)" class="st11 st12 st13">entian</text>
<text transform="matrix(1 0 0 1 128.95 94.06)" class="st11 st14 st15">Laboratorio</text>
<text transform="matrix(1 0 0 1 440.56 118.37)" class="st16 st12 st13">Thianhe</text>
<text transform="matrix(1 0 0 1 440.02 133.57)" class="st16 st14 st15">Modulo principal</text>
<text transform="matrix(1 0 0 1 753.76 168.9)" class="st17 st12 st13">Mengtian</text>
<text transform="matrix(1 0 0 1 759.22 184.1)" class="st17 st14 st15">Laboratorio</text>
<polyline class="st2" points="531.3,154.1 523.2,140.1 441.2,140.1 "/>
</svg>
