<svg id="Layer_1" data-name="Layer 1" xmlns="http://www.w3.org/2000/svg" viewBox="0 0 430.5 1011"><defs><style>.cls-1,.cls-15,.cls-18,.cls-3,.cls-9{font-size:13.48px;}.cls-1,.cls-11{fill:#d3a79f;}.cls-1,.cls-15,.cls-18,.cls-9{font-family:Helvetica-Bold, Helvetica;font-weight:700;}.cls-10,.cls-12,.cls-13,.cls-16,.cls-19,.cls-2{fill:none;}.cls-12,.cls-2{stroke:#fff;stroke-linecap:round;stroke-linejoin:round;}.cls-2{stroke-width:8px;}.cls-3,.cls-6,.cls-8{fill:#fff;font-family:Helvetica;}.cls-4{fill:#b64026;}.cls-5{fill:#99d09c;}.cls-6,.cls-8{font-size:11.51px;}.cls-6{letter-spacing:-0.04em;}.cls-7{letter-spacing:0em;}.cls-14,.cls-9{fill:#b68f5b;}.cls-10{stroke:#d3a79f;}.cls-10,.cls-13,.cls-16,.cls-19{stroke-miterlimit:10;}.cls-13{stroke:#b68f5b;}.cls-15,.cls-17{fill:#99d19c;}.cls-16{stroke:#99d19c;}.cls-18,.cls-20{fill:#b63f26;}.cls-19{stroke:#b63f26;}.cls-21{letter-spacing:-0.07em;}.cls-22{letter-spacing:-0.05em;}</style></defs><rect width="430.5" height="1011"/><text class="cls-1" transform="translate(263.92 109.42)">Shenzhou 1</text><path class="cls-2" d="M201.12,134.85c.31,284.5.31,569.8,0,853.15" transform="translate(0.5)"/><text class="cls-1" transform="translate(65.39 169.89)">Shenzhou 2</text><text class="cls-1" transform="translate(263.62 206.85)">Shenzhou 3</text><text class="cls-3" transform="translate(309.38 126.47)">1999</text><text class="cls-3" transform="translate(65.92 190.4)">2001</text><circle class="cls-4" cx="241.56" cy="55.63" r="12.37"/><circle class="cls-5" cx="242.14" cy="26.29" r="12.37"/><text class="cls-6" transform="translate(263.16 59.27)">T<tspan class="cls-7" x="6.61" y="0">res taikonautas</tspan></text><text class="cls-8" transform="translate(262.21 30.77)">Dos taikonautas</text><text class="cls-3" transform="translate(66.56 251.35)">2002</text><text class="cls-3" transform="translate(310.63 226.09)">2002</text><text class="cls-9" transform="translate(263.55 254.77)">Shenzhou 5</text><text class="cls-1" transform="translate(65.21 230.13)">Shenzhou 4</text><text class="cls-3" transform="translate(310.44 272.97)">2003</text><polyline class="cls-10" points="204.97 140.28 226.81 112.98 338.04 112.98"/><circle class="cls-11" cx="201.93" cy="140.61" r="6.74"/><polyline class="cls-10" points="199.15 203.28 177.3 175.99 66.08 175.99"/><circle class="cls-11" cx="201.26" cy="203.29" r="6.74"/><polyline class="cls-10" points="204.48 239.89 226.33 212.59 337.56 212.59"/><circle class="cls-11" cx="201.45" cy="240.23" r="6.74"/><polyline class="cls-12" points="199.82 261.59 177.98 234.3 66.75 234.3"/><circle class="cls-11" cx="201.93" cy="261.6" r="6.74"/><polyline class="cls-13" points="204.48 284.39 226.33 257.1 337.56 257.1"/><circle class="cls-14" cx="201.45" cy="284.73" r="6.74"/><text class="cls-3" transform="translate(66.56 334.96)">2005</text><text class="cls-15" transform="translate(65.21 313.74)">Shenzhou 6</text><polyline class="cls-16" points="199.82 345.2 177.98 317.9 66.75 317.9"/><circle class="cls-17" cx="201.93" cy="345.21" r="6.74"/><text class="cls-18" transform="translate(263.53 422.69)">Shenzhou 7</text><text class="cls-3" transform="translate(310.42 440.89)">2008</text><polyline class="cls-19" points="204.46 452.32 226.31 425.02 337.54 425.02"/><circle class="cls-20" cx="201.43" cy="452.66" r="6.74"/><text class="cls-3" transform="translate(66.56 550.04)">20<tspan class="cls-21" x="15" y="0">1</tspan><tspan x="21.5" y="0">1</tspan></text><text class="cls-1" transform="translate(65.21 528.82)">Shenzhou 8</text><polyline class="cls-12" points="199.82 560.28 177.98 532.98 66.75 532.98"/><circle class="cls-11" cx="201.93" cy="560.29" r="6.74"/><text class="cls-18" transform="translate(263.47 573.36)">Shenzhou 9</text><text class="cls-3" transform="translate(310.36 591.56)">2012</text><polyline class="cls-19" points="204.4 602.99 226.25 575.7 337.48 575.7"/><circle class="cls-20" cx="201.37" cy="603.33" r="6.74"/><text class="cls-3" transform="translate(65.88 637.02)">2013</text><text class="cls-18" transform="translate(64.54 615.8)">Shenzhou 10</text><polyline class="cls-19" points="199.15 647.25 177.3 619.96 66.08 619.96"/><circle class="cls-20" cx="201.26" cy="647.27" r="6.74"/><text class="cls-15" transform="translate(264.14 728.01)">Shenzhou <tspan class="cls-22" x="68.17" y="0">1</tspan><tspan x="74.93" y="0">1</tspan></text><text class="cls-3" transform="translate(311.04 746.21)">2016</text><polyline class="cls-16" points="205.08 757.63 226.92 730.34 338.15 730.34"/><circle class="cls-17" cx="202.04" cy="757.97" r="6.74"/><text class="cls-3" transform="translate(66.56 904.01)">2021</text><text class="cls-18" transform="translate(65.21 882.79)">Shenzhou 12</text><polyline class="cls-19" points="199.82 914.25 177.98 886.96 66.75 886.96"/><circle class="cls-20" cx="201.93" cy="914.26" r="6.74"/><text class="cls-18" transform="translate(257.33 909.22)">Shenzhou 13</text><text class="cls-3" transform="translate(310.29 927.42)">2021</text><polyline class="cls-19" points="204.33 938.85 226.18 911.55 337.41 911.55"/><circle class="cls-20" cx="201.3" cy="939.18" r="6.74"/><text class="cls-3" transform="translate(66.56 951.89)">2022</text><text class="cls-18" transform="translate(65.21 930.67)">Shenzhou 14</text><polyline class="cls-19" points="199.82 962.12 177.98 934.83 66.75 934.83"/><circle class="cls-20" cx="201.93" cy="962.14" r="6.74"/><circle class="cls-14" cx="87.39" cy="55.63" r="12.37"/><circle class="cls-11" cx="87.39" cy="27.44" r="12.37"/><text class="cls-8" transform="translate(109.56 60.42)">Un taikonauta</text><text class="cls-8" transform="translate(110.91 31.35)">Sin taikonautas</text></svg>