<?xml version="1.0" encoding="UTF-8"?>
<svg id="Capa_2" data-name="Capa 2" xmlns="http://www.w3.org/2000/svg" viewBox="0 0 880.66 625.69">
  <defs>
    <style>
      .cls-1, .cls-2, .cls-3, .cls-4, .cls-5, .cls-6, .cls-7 {
        fill: none;
        stroke-miterlimit: 10;
      }

      .cls-1, .cls-7 {
        stroke: #be965f;
      }

      .cls-2 {
        stroke-dasharray: 0 0 11.98 11.98;
      }

      .cls-2, .cls-3, .cls-4, .cls-6 {
        stroke: #d3a69f;
      }

      .cls-2, .cls-3, .cls-4, .cls-6, .cls-7 {
        stroke-width: .5px;
      }

      .cls-3 {
        stroke-dasharray: 0 12;
      }

      .cls-8 {
        letter-spacing: .02em;
      }

      .cls-9 {
        fill: #d3a69f;
        font-family: MyriadPro-Regular, 'Myriad Pro';
        font-size: 14px;
      }

      .cls-5 {
        stroke: #b64026;
      }

      .cls-6 {
        stroke-dasharray: 0 0 11.86 11.86;
      }

      .cls-10 {
        fill: #b64026;
      }
    </style>
  </defs>
  <g id="Capa_1-2" data-name="Capa 1">
    <path class="cls-3" d="M854.98,492.4c6.23,42.71,7.36,87.37,2.52,133.27"/>
    <path class="cls-3" d="M803.08,330.05c10.98,21.33,20.58,43.68,28.64,66.91"/>
    <path class="cls-3" d="M681.32,177.16c23.43,19.49,45.27,41.61,65.07,65.99"/>
    <path class="cls-3" d="M536.52,97.94c28.91,8.75,56.99,21.06,83.74,36.53"/>
    <path class="cls-3" d="M188.21,177.93c53.98-45.71,116.75-77.12,182.85-89.51"/>
    <path class="cls-3" d="M136.18,229.59c10.86-12.6,22.29-24.54,34.2-35.75"/>
    <path class="cls-3" d="M33.47,420.71c4.02-13.96,8.58-27.64,13.67-41.01"/>
    <g>
      <line class="cls-4" x1="529.85" y1="86.6" x2="535.85" y2="86.59"/>
      <line class="cls-6" x1="547.71" y1="86.58" x2="826.35" y2="86.27"/>
      <line class="cls-4" x1="832.28" y1="86.27" x2="838.28" y2="86.26"/>
    </g>
    <g>
      <line class="cls-4" x1="40.29" y1="87.5" x2="46.29" y2="87.5"/>
      <line class="cls-2" x1="58.27" y1="87.48" x2="339.88" y2="87.14"/>
      <line class="cls-4" x1="345.87" y1="87.13" x2="351.87" y2="87.13"/>
    </g>
    <g>
      <polygon class="cls-7" points="541.41 36.6 523.74 26.63 524.16 30.35 520.51 32.05 538.86 42.76 541.41 40.37 541.41 36.6"/>
      <line class="cls-7" x1="541.41" y1="40.37" x2="524.16" y2="30.35"/>
      <polyline class="cls-7" points="561.11 56.02 545 45.98 548.34 44.6 548.39 40.35 565.74 50.53 565.71 53.21"/>
      <line class="cls-7" x1="563.98" y1="54.27" x2="548.29" y2="44.69"/>
      <line class="cls-7" x1="557.95" y1="57.74" x2="541.57" y2="47.67"/>
      <line class="cls-7" x1="553.53" y1="60.17" x2="537.02" y2="50.02"/>
      <line class="cls-7" x1="549.78" y1="62.23" x2="533.55" y2="52.25"/>
      <line class="cls-7" x1="546.09" y1="64.25" x2="529.4" y2="54.27"/>
      <line class="cls-7" x1="542.2" y1="66.68" x2="525.71" y2="56.54"/>
      <line class="cls-7" x1="538.16" y1="68.61" x2="521.48" y2="58.36"/>
      <line class="cls-7" x1="533.86" y1="70.85" x2="517.36" y2="60.71"/>
      <line class="cls-7" x1="535.15" y1="44.69" x2="517.36" y2="33.88"/>
      <g>
        <path class="cls-1" d="M375.51,83.21l-.61-.35c-2.17-1.03-3.89-2.72-5.1-4.86"/>
        <polyline class="cls-1" points="378.61 84.99 381.67 86.74 384.44 88.33"/>
        <path class="cls-1" d="M409.01,52.2l-15.71-8.26c-7.56-3.57-17.81,2.24-22.9,12.98-3.29,6.96-3.61,14.29-1.36,19.56"/>
        <path class="cls-1" d="M398.54,99.24l-8.09-4.79c-8.13-3.85-10.29-16.31-4.84-27.85,5.46-11.53,16.47-17.76,24.6-13.92l34.09,19.29,.5,.28h.01"/>
        <path class="cls-7" d="M422.18,60.98c-7.08,.15-14.84,5.95-19.14,15.05-2.52,5.32-3.41,10.83-2.85,15.61"/>
        <path class="cls-1" d="M370.27,75.07l-8.72,10.02-2.47-.2c-.27-.02-.47,.25-.37,.5l2.7,2.05,9.8-11.01s.49-.8-.93-1.36Z"/>
        <path class="cls-1" d="M381.67,86.74l-3.42,.88-2.43-1.42-.37-3.61c-.04-.42,.39-.72,.77-.52l2.02,1.04c.17,.09,.28,.25,.29,.44l.17,3.01"/>
        <path class="cls-7" d="M393.18,61.92l-.39-.63c.11-.31,.47-.45,.75-.28l6.58,3.95c.16,.09,.23,.28,.19,.46l-.91,.3"/>
        <path class="cls-7" d="M404.55,65.66l-.39-.63c.11-.31,.47-.45,.75-.28l6.58,3.95c.16,.09,.23,.28,.19,.46l-.91,.3"/>
        <path class="cls-7" d="M411.49,72.51l-.39-.63c.11-.31,.47-.45,.75-.28l6.58,3.95c.16,.09,.23,.28,.19,.46l-.91,.3"/>
        <path class="cls-7" d="M432.1,92.63l-.39-.63c.11-.31,.47-.45,.75-.28l6.58,3.95c.16,.09,.23,.28,.19,.46l-.91,.3"/>
        <path class="cls-7" d="M439.91,97.42l-.39-.63c.11-.31,.47-.45,.75-.28l6.58,3.95c.16,.09,.23,.28,.19,.46l-.91,.3"/>
        <path class="cls-7" d="M395.09,75.47l-.58,.46c-.32-.07-.5-.41-.37-.71h0c.13-2.61,1.21-5.08,3.02-6.97l.06-.06c.07-.17,.25-.27,.43-.25l.42,.86"/>
        <path class="cls-7" d="M437.48,89.31l-.67,.34c-.35-.02-.53-.24-.37-.45h0c.3-1.72,1.64-3.41,3.77-4.75l.07-.04c.09-.11,.29-.19,.49-.19l.41,.54"/>
        <path class="cls-7" d="M387.52,70.19l-.58,.46c-.32-.07-.5-.41-.37-.71h0c.13-2.61,1.21-5.08,3.02-6.97l.06-.06c.07-.17,.25-.27,.43-.25l.42,.86"/>
        <ellipse class="cls-7" cx="391.76" cy="84.75" rx="1.05" ry="1.78" transform="translate(-7.87 115.64) rotate(-16.63)"/>
        <path class="cls-7" d="M392.27,86.45l1.26-.64c.48-.14,.64-1.02,.36-1.97s-.9-1.59-1.38-1.45l-1.26,.64"/>
        <path class="cls-7" d="M389.83,86.84c.61,.95,1.57,1.56,2.64,1.56,1.84,0,3.33-1.78,3.33-3.98s-1.49-3.98-3.33-3.98c-.83,0-1.6,.37-2.18,.98"/>
        <path class="cls-7" d="M416.58,80.41l-1.07,1.44c-.22,.3-.64,.37-.95,.17l-1.81-1.18c-.34-.22-.42-.68-.19-1.01l.94-1.29c.21-.29,.59-.37,.9-.21l1.94,1.03c.38,.2,.49,.7,.24,1.04Z"/>
        <path class="cls-7" d="M416.34,79.37l1.12,1.23c.17,.18,.2,.46,.07,.67l-1.3,2.17c-.11,.28-.45,.37-.68,.17l-.31-1.39"/>
        <path class="cls-7" d="M412.37,80.42l-.06,1.54c0,.26,.16,.49,.4,.56l2.87,1.54"/>
        <path class="cls-7" d="M410.67,76.79l-1.07,1.44c-.22,.3-.64,.37-.95,.17l-1.81-1.18c-.34-.22-.42-.68-.19-1.01l.94-1.29c.21-.29,.59-.37,.9-.21l1.94,1.03c.38,.2,.49,.7,.24,1.04Z"/>
        <path class="cls-7" d="M410.43,75.74l1.12,1.23c.17,.18,.2,.46,.07,.67l-1.3,2.17c-.11,.28-.45,.37-.68,.17l-.31-1.39"/>
        <path class="cls-7" d="M406.46,76.8l-.06,1.54c0,.26,.16,.49,.4,.56l2.87,1.54"/>
        <path class="cls-7" d="M408.4,89.16l4.16,2.09c.34,.17,.74-.03,.81-.41l.51-3c.04-.24-.08-.49-.3-.6l-4.22-2.1c-.34-.17-.75,.04-.8,.42l-.45,3c-.04,.24,.09,.48,.3,.58Z"/>
        <ellipse class="cls-7" cx="425.15" cy="97.33" rx="4.17" ry="3.89"/>
        <path class="cls-7" d="M427.9,94.41l-2.37-2.57c-.68-.48-1.5-.75-2.39-.75-2.3,0-4.17,1.87-4.17,4.17,0,.44,.07,.87,.2,1.27l2.5,2.94"/>
        <path class="cls-7" d="M428.42,85.11c0,2.25,1.17,4.08,2.61,4.08s2.61-1.83,2.61-4.08c0-.99-.22-1.89-.59-2.59-.49-.91-1.21-1.49-2.02-1.49-.05,0-.11,0-.16,.01-1.37,.13-2.45,1.9-2.45,4.07Z"/>
        <path class="cls-7" d="M428.42,85.11c-.39,2.22,.2,5.08,1.62,5.33s2.76-.74,3.15-2.96"/>
        <path class="cls-7" d="M431.03,81.03l-.21-.03h-.01s-.01-.01-.01-.01l-4.39-.7-1.06-.1c-1.4,0-2.54,1.66-2.54,3.7,0,.47,.06,.93,.17,1.34l.5,.67,5.98,4.26"/>
        <path class="cls-7" d="M434.12,80.19c0,2.13,1.4,3.87,3.13,3.87,.46,0,.89-.12,1.28-.35,0,0,.06-.03,.17-.09,.68-.45,1.21-1.19,1.47-2.09,.1-.3,.16-.63,.18-.96,.02-.13,.02-.25,.02-.38s0-.27-.02-.4c-.04-.53-.17-1.04-.38-1.49h-.01c-.53-1.19-1.54-1.99-2.71-1.99-.11,0-.22,.01-.32,.02-.91,.12-1.71,.72-2.21,1.59-.16,.26-.29,.55-.38,.85-.14,.44-.22,.92-.22,1.42Z"/>
        <path class="cls-7" d="M440.37,80.19c0-.13,0-.27-.02-.4-.02-.48-.1-.95-.22-1.4h-.01c-.37-1.37-1.17-2.51-2.24-3.05-.44-.24-.92-.36-1.44-.36-.87,0-1.68,.31-2.35,.84l.12,1.44,.03,.34,.1,1.17"/>
        <path class="cls-7" d="M442.76,74.62c-.6-.16-1.16-.28-1.69-.37h0s-.01-.01-.01-.01c-.29-.05-.58-.09-.85-.12-4.74-.53-6.11,1.7-6.11,1.7"/>
        <path class="cls-7" d="M438.53,83.71s.06-.03,.17-.09c.38-.21,1.34-.78,2.31-1.54,.7-.56,1.4-1.22,1.87-1.92,.17-.26,.31-.52,.41-.79"/>
        <path class="cls-7" d="M442.52,76.61c0,.89,.22,1.72,.62,2.46,.77,1.49,2.24,2.57,3.99,2.84h.01c.28,.06,.58,.08,.88,.08,.24,0,.48-.02,.71-.05,.98-.12,1.88-.49,2.62-1.06,.76-.56,1.35-1.31,1.73-2.18,.06-.13,.11-.27,.15-.42,.09-.23,.15-.47,.19-.72,.06-.31,.09-.63,.09-.95,0-1-.28-1.94-.77-2.73-.85-1.43-2.37-2.43-4.13-2.62-.19-.02-.39-.03-.59-.03-1.2,0-2.32,.38-3.22,1.02-1.03,.73-1.8,1.8-2.11,3.05-.05,.17-.08,.34-.1,.52h-.01c-.04,.26-.06,.52-.06,.79Zm6.08-.5h.01c.17,.04,.33,.08,.48,.11-.04,.9-.14,1.9-.35,2.98"/>
        <path class="cls-7" d="M448.02,81.99c.32-.98,.56-1.91,.72-2.79,.21-1.08,.31-2.08,.35-2.98,.01-.13,.01-.25,.01-.37,.02-.38,.02-.74,0-1.07-.06-2.21-.49-3.52-.49-3.52"/>
        <path class="cls-7" d="M453.24,78.29h-.01c-.1-.11-1.29-1.35-4.14-2.07-.15-.03-.31-.07-.48-.11h-.01c-1.37-.29-3.08-.46-5.18-.34-.27,0-.55,.03-.83,.05h-.01"/>
        <path class="cls-7" d="M447.12,81.92l-.02,.96-.07,3.19-.07,3.33s.78,.5,1.37,.19c.09-.04,.17-.11,.24-.19l.08-3.83,.04-1.67,.04-1.96v-.02"/>
        <path class="cls-7" d="M453.51,76.61s.55,.48,1.05,1.29c.11,.18,.22,.38,.32,.6,.45,.95,.71,2.2,.19,3.6-.11,.29-.25,.59-.44,.89-.14,.24-.31,.48-.5,.72-.33,.4-.72,.8-1.19,1.21l-1.64-.78-2.57-1.23"/>
        <ellipse class="cls-7" cx="442.77" cy="104.99" rx=".51" ry=".92" transform="translate(-11.08 137.95) rotate(-17.49)"/>
        <path class="cls-7" d="M442.5,104.11l2.61-1.7,.34-.25c.27-.09,.62,.26,.78,.77s.07,.99-.2,1.08l-2.98,1.86"/>
        <ellipse class="cls-7" cx="448.52" cy="114.03" rx=".51" ry=".92" transform="translate(-13.53 140.09) rotate(-17.49)"/>
        <path class="cls-7" d="M448.24,113.15l2.61-1.7,.34-.25c.27-.09,.62,.26,.78,.77s.07,.99-.2,1.08l-2.98,1.86"/>
        <ellipse class="cls-7" cx="450.57" cy="116.87" rx=".51" ry=".92" transform="translate(-14.29 140.84) rotate(-17.49)"/>
        <path class="cls-7" d="M450.29,115.99l2.61-1.7,.34-.25c.27-.09,.62,.26,.78,.77s.07,.99-.2,1.08l-2.98,1.86"/>
        <ellipse class="cls-7" cx="456.96" cy="114.02" rx=".51" ry=".92" transform="translate(-13.14 142.63) rotate(-17.49)"/>
        <path class="cls-7" d="M456.68,113.15l2.61-1.7,.34-.25c.27-.09,.62,.26,.78,.77s.07,.99-.2,1.08l-2.98,1.86"/>
        <ellipse class="cls-7" cx="439.7" cy="111.15" rx=".51" ry=".92" transform="translate(-13.08 137.31) rotate(-17.49)"/>
        <path class="cls-7" d="M439.42,110.28l2.61-1.7,.34-.25c.27-.09,.62,.26,.78,.77s.07,.99-.2,1.08l-2.98,1.86"/>
        <ellipse class="cls-7" cx="437.3" cy="104.98" rx=".51" ry=".92" transform="translate(-11.33 136.3) rotate(-17.49)"/>
        <path class="cls-7" d="M437.02,104.11l2.61-1.7,.34-.25c.27-.09,.62,.26,.78,.77s.07,.99-.2,1.08l-2.98,1.86"/>
        <ellipse class="cls-7" cx="433.9" cy="103.25" rx=".42" ry=".78" transform="translate(-11.55 125.66) rotate(-16.27)"/>
        <path class="cls-7" d="M433.67,102.5l2.14-1.46,.28-.21c.22-.07,.51,.22,.64,.66s.06,.85-.17,.92l-2.45,1.59"/>
        <ellipse class="cls-7" cx="446.08" cy="111.15" rx="1.14" ry="1.71" transform="translate(-13.28 129.39) rotate(-16.27)"/>
        <polyline class="cls-7" points="416.91 102.41 416.91 98.54 416.91 97.33 412.31 95.27 412.31 96.78"/>
        <path class="cls-7" d="M413.45,96.99l3.46,1.55-3.46-1.55Z"/>
        <line class="cls-7" x1="413.45" y1="100.33" x2="413.45" y2="96.99"/>
        <rect class="cls-7" x="440.59" y="92.58" width="6.05" height="1.48" rx=".74" ry=".74" transform="translate(781.13 395.94) rotate(-150)"/>
        <path class="cls-7" d="M442.27,90.31c.01,.25,.14,.49,.37,.62l3.96,2.29c.36,.2,.81,.08,1.01-.27,.07-.12,.1-.25,.1-.37,0-.04,0-.09-.01-.13-.04-.21-.16-.4-.36-.51l-2.7-1.56h-.01s-1.25-.73-1.25-.73c-.35-.2-.8-.08-1.01,.27-.06,.09-.09,.2-.09,.29v.1Z"/>
        <path class="cls-7" d="M445,94.88v1.41s.93,.41,1.34-.15v-1.73"/>
        <path class="cls-7" d="M446.39,93.06v1.41s.93,.41,1.34-.15v-1.73"/>
        <path class="cls-7" d="M440.9,92.14v1.9s.91,.16,1.42-.18v-.44"/>
        <line class="cls-7" x1="442.28" y1="90.21" x2="442.16" y2="91.62"/>
        <line class="cls-7" x1="443.24" y1="91.27" x2="443.24" y2="92.14"/>
        <polyline class="cls-1" points="485 105.86 481.28 100.82 454.13 83.71"/>
        <line class="cls-1" x1="466.4" y1="128.03" x2="430.03" y2="106.64"/>
        <polygon class="cls-1" points="418.98 104.01 401.31 94.04 401.72 97.76 398.07 99.46 416.42 110.17 418.98 107.78 418.98 104.01"/>
        <line class="cls-1" x1="418.98" y1="107.78" x2="401.72" y2="97.76"/>
        <polygon class="cls-1" points="443.61 117.74 426.13 107.78 426.13 112.03 422.81 113.45 439.7 124.15 443.61 122.7 443.61 117.74"/>
        <line class="cls-1" x1="443.61" y1="122.7" x2="426.13" y2="112.03"/>
        <path class="cls-1" d="M431.96,107.78s.09,1.79-1.93,2.22"/>
        <line class="cls-1" x1="426.13" y1="110" x2="418.98" y2="105.86"/>
        <polyline class="cls-1" points="326.9 158.57 416.42 110.17 398.07 99.46 311.98 144.64"/>
        <polyline class="cls-1" points="350.19 171.92 439.7 124.15 422.81 113.45 335.73 159.98"/>
        <line class="cls-7" x1="411.1" y1="107.21" x2="325.36" y2="153.51"/>
        <line class="cls-7" x1="407.02" y1="104.94" x2="321.28" y2="151.25"/>
        <line class="cls-7" x1="402.92" y1="102.15" x2="317.19" y2="148.46"/>
        <line class="cls-7" x1="435.48" y1="121.77" x2="348.38" y2="168.29"/>
        <line class="cls-7" x1="434.97" y1="117" x2="344.38" y2="165.69"/>
        <line class="cls-7" x1="427.36" y1="116.34" x2="340.27" y2="162.96"/>
        <line class="cls-7" x1="436.8" y1="125.7" x2="419.41" y2="115.01"/>
        <line class="cls-7" x1="432.25" y1="128.05" x2="414.86" y2="117.36"/>
        <line class="cls-7" x1="428.78" y1="130.28" x2="411.39" y2="119.59"/>
        <line class="cls-7" x1="424.63" y1="132.29" x2="407.24" y2="121.61"/>
        <line class="cls-7" x1="420.94" y1="134.57" x2="403.55" y2="123.88"/>
        <line class="cls-7" x1="416.71" y1="136.38" x2="399.32" y2="125.7"/>
        <line class="cls-7" x1="412.59" y1="138.74" x2="395.2" y2="128.05"/>
        <line class="cls-7" x1="408.58" y1="140.67" x2="391.18" y2="129.99"/>
        <line class="cls-7" x1="404.68" y1="142.98" x2="387.29" y2="132.29"/>
        <line class="cls-7" x1="401.05" y1="144.93" x2="383.66" y2="134.24"/>
        <line class="cls-7" x1="396.8" y1="147.36" x2="379.4" y2="136.67"/>
        <line class="cls-7" x1="392.88" y1="149.42" x2="375.49" y2="138.74"/>
        <line class="cls-7" x1="388.49" y1="151.55" x2="371.1" y2="140.87"/>
        <line class="cls-7" x1="384.18" y1="154.08" x2="366.79" y2="143.4"/>
        <line class="cls-7" x1="380.35" y1="156.07" x2="362.96" y2="145.38"/>
        <line class="cls-7" x1="375.49" y1="158.46" x2="358.09" y2="147.77"/>
        <line class="cls-7" x1="371.66" y1="160.4" x2="354.27" y2="149.72"/>
        <line class="cls-7" x1="367.58" y1="162.9" x2="350.19" y2="152.21"/>
        <line class="cls-7" x1="363.66" y1="165.01" x2="346.27" y2="154.33"/>
        <line class="cls-7" x1="359.42" y1="167.38" x2="342.03" y2="156.69"/>
        <line class="cls-7" x1="355.41" y1="169.68" x2="338.02" y2="158.99"/>
        <line class="cls-7" x1="412.99" y1="112.03" x2="395.2" y2="101.22"/>
        <line class="cls-7" x1="409.95" y1="113.72" x2="392.15" y2="102.91"/>
        <line class="cls-7" x1="404.98" y1="116.56" x2="387.19" y2="105.75"/>
        <line class="cls-7" x1="401.53" y1="118.45" x2="383.74" y2="107.64"/>
        <line class="cls-7" x1="397" y1="120.41" x2="379.2" y2="109.6"/>
        <line class="cls-7" x1="393.08" y1="122.74" x2="375.28" y2="111.93"/>
        <line class="cls-7" x1="389.25" y1="124.45" x2="371.46" y2="113.64"/>
        <line class="cls-7" x1="385.4" y1="126.44" x2="367.6" y2="116.4"/>
        <line class="cls-7" x1="381.67" y1="128.82" x2="363.44" y2="117.75"/>
        <line class="cls-7" x1="377.44" y1="131.1" x2="359.23" y2="120.04"/>
        <line class="cls-7" x1="372.77" y1="133.44" x2="354.98" y2="122.07"/>
        <line class="cls-7" x1="369.09" y1="135.39" x2="351.3" y2="124.01"/>
        <line class="cls-7" x1="365.37" y1="137.43" x2="347.57" y2="126.05"/>
        <line class="cls-7" x1="361.18" y1="139.67" x2="343.38" y2="128.29"/>
        <line class="cls-7" x1="356.47" y1="142.33" x2="338.67" y2="130.94"/>
        <line class="cls-7" x1="353.01" y1="144.43" x2="334.77" y2="132.68"/>
        <line class="cls-7" x1="349.01" y1="146.55" x2="330.77" y2="134.8"/>
        <line class="cls-7" x1="345.37" y1="148.89" x2="327.13" y2="137.14"/>
        <line class="cls-7" x1="341.13" y1="151.26" x2="322.89" y2="139.5"/>
        <line class="cls-7" x1="336.81" y1="153.12" x2="318.57" y2="141.37"/>
        <line class="cls-7" x1="332.59" y1="155.15" x2="314.35" y2="143.4"/>
        <polygon class="cls-7" points="326.27 154.33 308.15 142.33 308.15 147.99 326.06 160.14 326.27 154.33"/>
        <polyline class="cls-1" points="447.14 70.48 456.93 65.34 473.46 56.67 477.13 54.74 520.23 32.12 524.95 34.88 538.58 42.83 495.3 66.23"/>
        <line class="cls-7" x1="434.14" y1="77.3" x2="434.21" y2="77.26"/>
        <polyline class="cls-1" points="482.15 73.34 467.27 81.38 462.96 83.71"/>
        <line class="cls-7" x1="486.21" y1="71.15" x2="492.78" y2="67.59"/>
        <polyline class="cls-7" points="494.96 72.83 493.44 73.64 485.16 78.07 484.15 78.6"/>
        <polyline class="cls-1" points="474.11 83.97 476.73 82.57 479.71 80.98"/>
        <polyline class="cls-1" points="497.4 71.53 497.64 71.4 544.97 46.12"/>
        <polyline class="cls-1" points="565.71 53.21 514.09 81.78 510.17 83.92 505.71 86.36 503.73 87.44"/>
        <line class="cls-7" x1="489.33" y1="95.31" x2="501.54" y2="88.64"/>
        <polyline class="cls-7" points="484.9 65.99 473.87 71.95 470.23 73.91 466.27 76.05 462.31 78.19 461.18 78.8"/>
        <line class="cls-7" x1="533.26" y1="39.87" x2="494.43" y2="60.84"/>
        <polyline class="cls-1" points="447.12 81.92 447.13 81.91 447.14 81.91"/>
        <polyline class="cls-7" points="457.23 76.46 458.54 75.76 462.49 73.62 466.46 71.48 470.08 69.52 529.18 37.6"/>
        <line class="cls-7" x1="439.34" y1="81.12" x2="439.46" y2="81.06"/>
        <polyline class="cls-7" points="452.74 73.88 454.31 73.03 458.27 70.9 524.95 34.88 525.08 34.81"/>
        <line class="cls-1" x1="448.6" y1="76.11" x2="448.61" y2="76.11"/>
        <polyline class="cls-7" points="500.09 85.17 498.29 86.13 493.6 88.64 489.86 90.63 488.07 91.59"/>
        <polyline class="cls-7" points="502.06 84.12 502.35 83.96 506.57 81.71 510.58 79.56 557.64 54.43"/>
        <polyline class="cls-7" points="553.79 51.46 506.4 76.93 502.34 79.11 500.76 79.96"/>
        <polyline class="cls-7" points="483.63 89.17 485.67 88.07 485.68 88.07 489.4 86.06 494.08 83.55 497.84 81.53 498.44 81.2"/>
        <line class="cls-1" x1="472.38" y1="95.21" x2="472.9" y2="94.93"/>
        <polyline class="cls-7" points="499.16 75.95 502.24 74.3 549.52 49"/>
        <polyline class="cls-7" points="482.42 84.91 485.15 83.45 489.84 80.94 493.61 78.93 496.79 77.22"/>
        <line class="cls-1" x1="468.16" y1="92.55" x2="468.17" y2="92.54"/>
        <line class="cls-7" x1="530.74" y1="73.34" x2="513.34" y2="62.65"/>
        <line class="cls-7" x1="526.07" y1="75.17" x2="509.45" y2="64.96"/>
        <line class="cls-7" x1="522.71" y1="77.28" x2="505.82" y2="66.9"/>
        <line class="cls-7" x1="517.98" y1="79.42" x2="501.56" y2="69.33"/>
        <line class="cls-7" x1="514.09" y1="81.78" x2="497.65" y2="71.4"/>
        <polyline class="cls-7" points="499.8 77.55 502.34 79.11 506.57 81.71 510.17 83.92 510.64 84.21"/>
        <line class="cls-7" x1="493.25" y1="73.53" x2="495.94" y2="75.18"/>
        <polyline class="cls-7" points="488.95 76.06 493.61 78.93 497.84 81.53 498.83 82.13"/>
        <polyline class="cls-7" points="502.06 84.12 502.52 84.4 505.71 86.36 505.82 86.43"/>
        <line class="cls-7" x1="501.95" y1="88.38" x2="485.12" y2="78.04"/>
        <polyline class="cls-7" points="497.64 91.12 497.34 90.93 493.6 88.64 489.4 86.06 485.15 83.45 483.16 82.23"/>
        <polyline class="cls-7" points="482.15 85.9 485.67 88.07 485.68 88.07 489.86 90.63 493.64 92.95 493.81 93.06"/>
        <polyline class="cls-1" points="478.8 83.84 476.73 82.57 476.42 82.38"/>
        <polyline class="cls-7" points="489.74 95.56 489.56 95.45 489.33 95.31"/>
        <line class="cls-7" x1="532.11" y1="46.38" x2="514.31" y2="35.57"/>
        <line class="cls-7" x1="527.14" y1="49.22" x2="509.35" y2="38.41"/>
        <line class="cls-7" x1="523.69" y1="51.11" x2="505.9" y2="40.3"/>
        <line class="cls-7" x1="519.16" y1="53.07" x2="501.36" y2="42.26"/>
        <line class="cls-7" x1="515.24" y1="55.4" x2="497.44" y2="44.59"/>
        <line class="cls-7" x1="511.41" y1="57.11" x2="493.62" y2="46.3"/>
        <line class="cls-7" x1="507.56" y1="59.1" x2="489.76" y2="48.29"/>
        <line class="cls-7" x1="503.83" y1="61.48" x2="485.6" y2="50.41"/>
        <line class="cls-7" x1="481.39" y1="52.7" x2="490.91" y2="58.49"/>
        <line class="cls-7" x1="494.15" y1="60.45" x2="499.59" y2="63.76"/>
        <line class="cls-7" x1="477.13" y1="54.74" x2="487.62" y2="61.43"/>
        <line class="cls-7" x1="490.44" y1="63.23" x2="491.15" y2="63.69"/>
        <line class="cls-7" x1="473.46" y1="56.67" x2="484.82" y2="63.94"/>
        <polyline class="cls-7" points="487.67 65.76 487.81 65.85 491.25 68.05"/>
        <line class="cls-7" x1="469.73" y1="58.71" x2="483.92" y2="67.79"/>
        <line class="cls-7" x1="486.65" y1="69.53" x2="487.52" y2="70.09"/>
        <line class="cls-7" x1="465.54" y1="60.95" x2="482.62" y2="71.88"/>
        <line class="cls-7" x1="478.63" y1="74.99" x2="460.83" y2="63.6"/>
        <line class="cls-7" x1="475.17" y1="77.09" x2="456.93" y2="65.34"/>
        <line class="cls-7" x1="471.17" y1="79.21" x2="452.93" y2="67.46"/>
        <line class="cls-1" x1="467.53" y1="81.55" x2="449.29" y2="69.8"/>
        <polyline class="cls-1" points="441.07 74.25 441.06 74.24 441.05 74.24"/>
        <line class="cls-7" x1="442.69" y1="75.3" x2="443.42" y2="75.77"/>
        <polyline class="cls-7" points="440.13 78.39 440.12 78.39 439.97 78.3 439.96 78.29"/>
        <path class="cls-7" d="M447.34,91.94l-2.7-1.56,3.06,2.07c-.04-.21-.16-.4-.36-.51Z"/>
        <path class="cls-7" d="M434.24,77.6l.1,1.17c-.14,.44-.22,.92-.22,1.42,0,2.13,1.4,3.87,3.13,3.87,.46,0,.89-.12,1.28-.35,0,0,.06-.03,.17-.09,.38-.21,1.34-.78,2.31-1.54l-.84-.55-.71-.47-4.74-3.14"/>
        <path class="cls-7" d="M430.87,81.04l-.05-.04,.21,.03c.81,0,1.53,.58,2.02,1.49"/>
        <polyline class="cls-7" points="350.08 172.58 350.19 169.56 332.07 157.56 332.07 163.23 347.74 173.85"/>
        <polyline class="cls-7" points="329.36 157.24 329.36 158.57 326.27 160.4"/>
        <path class="cls-1" d="M470.92,122.94c0,9.43,7.45,17.08,16.65,17.08,7.95,0,14.6-5.72,16.25-13.37,.26-1.19,.39-2.44,.39-3.71,0-9.43-7.45-17.08-16.65-17.08s-16.65,7.65-16.65,17.08Z"/>
        <path class="cls-1" d="M481.24,100.76c-8.51-.73-16.05,6.3-16.85,15.7-.29,3.36,.33,6.56,1.62,9.32"/>
        <path class="cls-1" d="M469.69,131.26c1.87,3.47,5.22,5.29,7.48,4.08,.52-.28,.93-.69,1.24-1.2,1.07-1.73,.94-4.61-.51-7.29-.98-1.82-2.36-3.19-3.78-3.89-1.3-.66-2.62-.77-3.7-.19-2.27,1.21-2.59,5.02-.73,8.49Z"/>
        <path class="cls-1" d="M471.68,130.69c1.63,3.04,4.57,4.64,6.55,3.57,.06-.03,.12-.07,.18-.12,1.07-1.73,.94-4.61-.51-7.29-.98-1.82-2.36-3.19-3.78-3.89-.64-.09-1.26,0-1.8,.29-1.99,1.07-2.27,4.4-.64,7.44Z"/>
        <line class="cls-1" x1="470.42" y1="122.77" x2="473.85" y2="120.43"/>
        <path class="cls-1" d="M477.46,135.16l4.89-4.57c.44-1.7,.12-3.95-1.02-6.08-1.87-3.47-5.21-5.3-7.48-4.08"/>
        <ellipse class="cls-7" cx="486.77" cy="108.92" rx="4.5" ry="1.55"/>
        <ellipse class="cls-7" cx="486.77" cy="109.83" rx="4.5" ry="1.55"/>
        <ellipse class="cls-7" cx="486.77" cy="110.68" rx="4.5" ry="1.55"/>
        <path class="cls-7" d="M490.88,111.72s4.83,3.22,6.68,8.37"/>
        <path class="cls-1" d="M483.1,111.72s-5.52,3.17-6.16,8.71"/>
        <line class="cls-7" x1="488.1" y1="110.48" x2="488.1" y2="112.24"/>
        <line class="cls-7" x1="485" y1="107.49" x2="485" y2="109.25"/>
        <line class="cls-7" x1="488.1" y1="107.49" x2="488.1" y2="109.25"/>
        <path class="cls-7" d="M498.02,136.23c-.95,.3-1.84,.28-2.57-.15-.59-.34-1.01-.9-1.25-1.61-.64-1.78-.21-4.49,1.28-7.07,1.63-2.81,4.03-4.62,5.98-4.7,.55-.03,1.07,.08,1.52,.34,.52,.29,.9,.76,1.16,1.34h0"/>
        <path class="cls-7" d="M494.2,134.47c1.96-.09,4.35-1.9,5.97-4.7,1.48-2.58,1.92-5.3,1.29-7.07-1.95,.08-4.35,1.89-5.98,4.7-1.49,2.58-1.92,5.29-1.28,7.07Z"/>
        <path class="cls-7" d="M494.5,135.34l-4.6-4.96c.04-1.6,.6-3.51,1.67-5.36,1.83-3.18,4.58-5.15,6.63-4.94l4.79,2.96"/>
        <ellipse class="cls-1" cx="468.94" cy="89.13" rx="2.54" ry="1.34" transform="translate(-5.11 145.08) rotate(-17.49)"/>
        <ellipse class="cls-1" cx="476.87" cy="94.85" rx="1.92" ry="1.08" transform="translate(287.51 542.66) rotate(-78.33)"/>
        <polyline class="cls-1" points="471.37 88.37 471.39 88.65 471.39 88.66 471.39 88.67 471.51 90.75 471.51 90.77 474.79 92.02 476.84 92.81 477.25 92.97"/>
        <polyline class="cls-1" points="476.48 96.73 466.52 91.71 466.52 89.9"/>
        <path class="cls-1" d="M474.79,92.02l1.57-1.61c.33-.33,.58-.74,.72-1.19l.39-1.21,.17-.54,1.16-3.63,.91-2.86,2.44-7.64,.47-1.46,1.3-4.09,.7-2.18"/>
        <path class="cls-1" d="M487.61,66.05c-.01,.07-.03,.14-.06,.2l-.9,3.28-.44,1.62-2.05,7.44h0s-.01,0-.01,0l-.99,3.63-.74,2.68-.27,.99-1.18,4.27-.14,.5-.04,.16c-.08,.29-.24,.56-.45,.77l-2.38,2.44"/>
        <ellipse class="cls-1" cx="486.15" cy="65.18" rx="1.47" ry="1.95" transform="translate(7.86 173.96) rotate(-20.45)"/>
        <line class="cls-1" x1="485.47" y1="63.36" x2="491.84" y2="57.67"/>
        <line class="cls-1" x1="491.43" y1="62.25" x2="487.62" y2="66.05"/>
        <path class="cls-1" d="M491.43,61.69c.3,.5,.65,1.08,1.11,1.08,.9,0,1.63-1.2,1.63-2.68s-.73-2.68-1.63-2.68c-.34,0-.65,.17-.91,.46"/>
        <polyline class="cls-1" points="505.23 97.5 501.54 88.64 501.25 87.95 500.09 85.17 498.83 82.13 498.44 81.2 496.79 77.22 495.94 75.18 490.84 62.94"/>
        <path class="cls-1" d="M506.7,94.92c-.99-2.49-1.98-4.99-2.97-7.48-.4-1.01-.81-2.03-1.21-3.04-.06-.15-.12-.29-.17-.44-.53-1.33-1.06-2.67-1.59-4-.32-.8-.64-1.61-.96-2.41-.21-.53-.43-1.07-.64-1.6-1.83-4.61-3.66-9.21-5.49-13.82"/>
        <ellipse class="cls-1" cx="504.73" cy="99.83" rx="1.22" ry="1.58" transform="translate(8.42 235.44) rotate(-26.47)"/>
        <line class="cls-7" x1="504.02" y1="98.42" x2="505.52" y2="97.47"/>
        <polyline class="cls-1" points="506.34 93.83 507.73 92.97 513.26 92.97 517.04 92.97 517.04 101.13 518.22 101.13 518.22 105.25 510.94 105.25 510.94 101.13 512.95 101.13 512.95 97.03 510.73 97.03 505.66 101.13"/>
        <polyline class="cls-1" points="481.56 88.04 483.63 89.17 488.07 91.59 489.64 92.45 489.5 97.47 480.08 91.87"/>
        <polyline class="cls-1" points="476.76 89.9 470.92 86.43 470.92 82.23 474.11 83.97 478.07 86.13"/>
        <polyline class="cls-7" points="492.12 94.08 494.22 95.62 489.5 97.47"/>
        <polyline class="cls-1" points="443.61 71.26 443.61 68.39 447.14 70.48 448.44 71.25 448.64 71.37"/>
        <polyline class="cls-1" points="452.65 73.75 452.81 73.84 457.23 76.46 461.18 78.8 463.29 80.05 463.29 83.53 463.29 83.92 463.29 84.92 455.36 80.05"/>
        <polyline class="cls-1" points="463.29 84.92 466.05 83.71 464.88 82.67"/>
      </g>
    </g>
    <text class="cls-9" transform="translate(0 91.34)"><tspan x="0" y="0">343 </tspan><tspan class="cls-8" x="24.51" y="0">k</tspan><tspan x="31.32" y="0">m</tspan></text>
    <path class="cls-5" d="M27.37,425.75s-6.46,7.92-7.16,12.54c-.15,.54-.08,1.15,.08,1.69h13.16c0,.08,1.08-4.54-6.08-14.23Z"/>
    <polygon class="cls-5" points="17.98 615.4 36.06 615.4 36.06 527.84 33.52 518.15 33.45 439.98 20.29 439.98 20.14 518.53 17.98 527.69 17.98 615.4"/>
    <path class="cls-5" d="M36.14,614.78s6.85,1.62,8.16-1v-60.78s-4.62-10.23-8.16-10.39v72.17Z"/>
    <path class="cls-5" d="M18.14,614.94s-6.85,1.62-8.16-1v-60.78s4.62-10.23,8.16-10.39v72.17Z"/>
    <polygon class="cls-5" points="23.52 615.32 21.6 619.02 32.29 619.02 30.98 615.32 23.52 615.32"/>
    <polygon class="cls-5" points="11.29 614.55 7.6 619.02 18.14 619.02 17.14 615.09 11.29 614.55"/>
    <polygon class="cls-5" points="37.6 615.32 36.06 619.02 44.22 619.02 42.3 614.55 37.6 615.32"/>
    <rect class="cls-5" x="25.14" y="524.3" width="3.92" height="3.92"/>
    <rect class="cls-5" x="25.14" y="529.46" width="3.92" height="3.92"/>
    <rect class="cls-5" x="25.14" y="534.69" width="3.92" height="3.92"/>
    <rect class="cls-5" x="20.29" y="475.68" width="13" height="29.16"/>
    <rect class="cls-5" x="20.29" y="463.37" width="13" height="3.92"/>
    <rect class="cls-5" x="18.29" y="543.77" width="17.54" height="15.54"/>
    <rect class="cls-5" x="18.29" y="584.62" width="17.54" height="7.16"/>
    <rect class="cls-5" x="18.29" y="606.71" width="17.54" height="8.46"/>
    <rect class="cls-5" x="23.52" y="553.46" width="7.46" height="61.78"/>
    <polygon class="cls-5" points="27.06 541.92 23.52 553.46 30.98 553.46 27.06 541.92"/>
    <path class="cls-5" d="M129.75,192.69s-8.82,5.17-11.08,9.26c-.33,.45-.47,1.05-.52,1.61l12.33,4.59c-.03,.07,2.59-3.88-.73-15.46Z"/>
    <polygon class="cls-5" points="54.81 367.16 71.75 373.47 102.29 291.41 103.29 281.44 130.48 208.15 118.15 203.56 90.61 277.13 85.4 284.96 54.81 367.16"/>
    <path class="cls-5" d="M82.23,399.88s5.85,3.9,7.99,1.91l21.2-56.97s-.76-11.2-4.02-12.58l-25.17,67.64Z"/>
    <path class="cls-5" d="M25.17,384.55s-6.98-.87-7.29-3.78l21.2-56.97s7.9-7.98,11.27-6.89l-25.17,67.64Z"/>
    <polygon class="cls-5" points="60.03 369.02 56.94 371.81 66.96 375.54 67.02 371.63 60.03 369.02"/>
    <polygon class="cls-5" points="48.83 364.04 43.81 366.93 53.69 370.61 54.12 366.58 48.83 364.04"/>
    <polygon class="cls-5" points="73.22 373.93 70.49 376.86 78.14 379.7 77.89 374.85 73.22 373.93"/>
    <rect class="cls-5" x="92.48" y="284.84" width="3.92" height="3.92" transform="translate(-207.3 275.29) rotate(-69.59)"/>
    <rect class="cls-5" x="90.68" y="289.68" width="3.92" height="3.92" transform="translate(-212.99 276.75) rotate(-69.59)"/>
    <rect class="cls-5" x="88.85" y="294.58" width="3.92" height="3.92" transform="translate(-218.78 278.24) rotate(-69.59)"/>
    <rect class="cls-5" x="92.13" y="246.45" width="29.16" height="13" transform="translate(-167.58 264.74) rotate(-69.59)"/>
    <rect class="cls-5" x="113.44" y="223.09" width="3.92" height="13" transform="translate(-140.02 257.68) rotate(-69.59)"/>
    <rect class="cls-5" x="77.82" y="301.71" width="15.54" height="17.54" transform="translate(-235.25 282.42) rotate(-69.59)"/>
    <rect class="cls-5" x="69.23" y="336.07" width="7.16" height="17.54" transform="translate(-275.78 292.81) rotate(-69.59)"/>
    <rect class="cls-5" x="60.64" y="357.38" width="8.46" height="17.54" transform="translate(-300.91 299.25) rotate(-69.59)"/>
    <rect class="cls-5" x="43.43" y="337.57" width="61.78" height="7.46" transform="translate(-271.47 291.93) rotate(-69.59)"/>
    <polygon class="cls-5" points="88.94 301.47 81.6 311.05 88.6 313.65 88.94 301.47"/>
    <path class="cls-10" d="M117.85,244.65c1.93,0,1.93-3,0-3s-1.93,3,0,3h0Z"/>
    <g>
      <ellipse class="cls-5" cx="189.05" cy="112.85" rx="3.59" ry="6.32" transform="translate(-12.16 202.24) rotate(-54.79)"/>
      <path class="cls-5" d="M194.21,116.5l-1.28,1.82c-1.14,1.62-4.38,1.3-7.23-.71s-4.23-4.95-3.09-6.57l1.28-1.82"/>
      <path class="cls-5" d="M193.48,117.14c.04,.08,.08,.15,.11,.24,1,1.97,1.12,3.92,.15,5.29-1.81,2.56-6.75,2.2-11.04-.83s-6.29-7.56-4.48-10.12c.97-1.38,2.86-1.91,5.04-1.62,.1,0,.18,0,.26,.03"/>
      <ellipse class="cls-5" cx="193.93" cy="124.63" rx="1.5" ry=".59" transform="translate(-19.71 211.21) rotate(-54.79)"/>
      <line class="cls-5" x1="193.75" y1="122.66" x2="194.89" y2="123.47"/>
      <line class="cls-5" x1="191.01" y1="124.4" x2="193.07" y2="125.85"/>
      <path class="cls-5" d="M185.64,132.89c-.08,.29-.2,.54-.36,.78-1.49,2.1-5.97,1.51-10.01-1.35s-6.1-6.87-4.61-8.97c.17-.24,.37-.44,.61-.6"/>
      <line class="cls-5" x1="177.64" y1="113.13" x2="171.26" y2="122.74"/>
      <line class="cls-5" x1="185.64" y1="132.89" x2="191.43" y2="124.69"/>
      <path class="cls-5" d="M175.99,147.68c-2.28,1.29-6.36,.55-10.01-2.03-3.17-2.24-5.15-5.24-5.32-7.69l.05-.26,1.11-1.58,4.14-5.87c1.16-1.64,2.86-2.7,4.73-3.14"/>
      <path class="cls-5" d="M175.91,147.79l.08-.11,.9-1.27,3.97-5.63c1.23-1.74,1.64-3.83,1.32-5.86"/>
      <path class="cls-5" d="M176.84,142.1c.11,.04,.21,.11,.29,.19,.36,.39,.22,1.08-.3,1.55s-1.22,.53-1.58,.14c-.16-.18-.22-.4-.18-.65"/>
      <path class="cls-5" d="M176.84,142.1c-.37-.15-.88-.03-1.28,.33-.29,.26-.47,.59-.49,.9"/>
      <path class="cls-5" d="M175.25,143.98l-.48-.85c-.35-.39-.21-1.08,.3-1.55,.52-.46,1.22-.53,1.58-.14l.63,1.13"/>
      <path class="cls-5" d="M176.88,146.41c.12,.87-.01,1.63-.45,2.25-1.57,2.22-6.47,1.48-10.94-1.68s-6.82-7.52-5.25-9.75c.36-.51,.89-.86,1.55-1.07"/>
      <path class="cls-5" d="M151.73,149.05c-1.38,1.95,1.13,6.1,5.6,9.25s9.22,4.13,10.59,2.18"/>
      <line class="cls-5" x1="167.92" y1="160.48" x2="176.58" y2="148.45"/>
      <path class="cls-5" d="M151.68,149.13c-.92,.3-1.66,.81-2.18,1.54-2.01,2.85,.28,7.92,5.12,11.33,3.47,2.45,7.31,3.38,9.95,2.67"/>
      <path class="cls-5" d="M167.1,162.93c.44-.66,.65-1.42,.65-2.26"/>
      <path class="cls-5" d="M169.8,157.94c-.16,.23-.39,.41-.67,.53-1.76,.76-5.65-.5-9.48-3.2s-6.32-5.95-6.19-7.86c.02-.3,.11-.58,.27-.81,.14-.19,.32-.35,.54-.47-.02,.32,.03,.68,.15,1.07,.6,1.92,2.86,4.55,6.04,6.8s6.5,3.53,8.51,3.41c.43-.02,.8-.11,1.1-.27-.02,.3-.12,.58-.28,.8Z"/>
      <path class="cls-5" d="M154.42,147.21c.6,1.92,2.86,4.55,6.04,6.8,3.22,2.27,6.5,3.53,8.51,3.41"/>
      <path class="cls-5" d="M169.12,158.47c-.02,.3-.11,.58-.27,.81-1.17,1.66-5.71,.46-10.16-2.67s-7.09-7.01-5.92-8.67c.16-.23,.39-.41,.67-.53"/>
      <polyline class="cls-5" points="163.29 134.04 152.11 134.2 137.28 96.98 150.87 97.81 165.09 132.08"/>
      <line class="cls-5" x1="159.29" y1="138.47" x2="152.11" y2="134.2"/>
      <polyline class="cls-5" points="158.79 134.11 160.4 137.02 151.73 149.05"/>
      <polygon class="cls-5" points="193.81 203.3 180.32 203.01 163.84 162.9 176.98 163.06 193.81 203.3"/>
      <polyline class="cls-5" points="176.98 163.06 167.86 156.63 163.84 162.9"/>
      <line class="cls-5" x1="170.56" y1="162.98" x2="167.86" y2="156.63"/>
    </g>
    <g>
      <ellipse class="cls-5" cx="360.19" cy="53.61" rx="6.3" ry="3.57" transform="translate(133.67 338.74) rotate(-60)"/>
      <path class="cls-5" d="M357.04,59.06l-1.92-1.11c-1.71-.99-1.69-4.23,.05-7.24s4.53-4.65,6.24-3.66l1.92,1.11"/>
      <path class="cls-5" d="M356.34,58.39c-.07,.05-.14,.09-.22,.13-1.87,1.17-3.78,1.47-5.24,.63-2.71-1.56-2.79-6.5-.18-11.03s6.93-6.92,9.64-5.36c1.46,.84,2.15,2.66,2.07,4.86,0,.1,0,.18,0,.26"/>
      <ellipse class="cls-5" cx="348.95" cy="59.52" rx=".58" ry="1.49" transform="translate(122.93 331.96) rotate(-60)"/>
      <line class="cls-5" x1="350.88" y1="59.16" x2="350.18" y2="60.36"/>
      <line class="cls-5" x1="348.91" y1="56.6" x2="347.66" y2="58.77"/>
      <path class="cls-5" d="M340,52.04c-.29-.05-.55-.15-.8-.29-2.22-1.28-2.03-5.78,.43-10.05s6.26-6.67,8.49-5.39c.25,.15,.47,.32,.65,.55"/>
      <line class="cls-5" x1="358.88" y1="42.31" x2="348.76" y2="36.85"/>
      <line class="cls-5" x1="340" y1="52.04" x2="348.66" y2="57.04"/>
      <path class="cls-5" d="M324.45,43.8c-1.49-2.14-1.12-6.26,1.1-10.12,1.93-3.35,4.73-5.59,7.15-5.97l.26,.02,1.66,.96,6.2,3.58c1.73,1,2.94,2.59,3.54,4.41"/>
      <path class="cls-5" d="M324.33,43.73l.12,.07,1.34,.78,5.95,3.43c1.83,1.06,3.95,1.28,5.93,.78"/>
      <path class="cls-5" d="M330.06,44.14c-.03,.11-.09,.21-.17,.3-.35,.39-1.06,.32-1.56-.16s-.64-1.17-.28-1.55c.16-.17,.38-.25,.63-.24"/>
      <path class="cls-5" d="M330.06,44.14c.11-.38-.05-.87-.44-1.24-.28-.26-.63-.41-.94-.41"/>
      <path class="cls-5" d="M328.05,42.73l.8-.55c.36-.38,1.05-.31,1.56,.16,.51,.47,.64,1.17,.28,1.55l-1.06,.73"/>
      <path class="cls-5" d="M325.79,44.57c-.85,.2-1.62,.14-2.28-.24-2.35-1.36-2.05-6.28,.68-11.01,2.72-4.72,6.85-7.45,9.2-6.09,.54,.31,.94,.8,1.2,1.44"/>
      <path class="cls-5" d="M320.89,19.85c-2.06-1.19-5.95,1.67-8.67,6.39s-3.26,9.52-1.2,10.71"/>
      <line class="cls-5" x1="311.02" y1="36.95" x2="323.74" y2="44.46"/>
      <path class="cls-5" d="M320.81,19.81c-.38-.88-.95-1.58-1.73-2.03-3.01-1.74-7.83,1-10.78,6.11-2.12,3.67-2.69,7.56-1.75,10.11"/>
      <path class="cls-5" d="M308.51,36.36c.69,.37,1.47,.51,2.3,.44"/>
      <path class="cls-5" d="M313.7,38.58c-.25-.14-.44-.35-.59-.62-.92-1.67-.02-5.66,2.32-9.7s5.33-6.81,7.24-6.86c.3,0,.59,.06,.83,.2,.2,.12,.38,.29,.51,.5-.32,0-.67,.09-1.05,.25-1.85,.77-4.26,3.25-6.2,6.61s-2.91,6.77-2.61,8.76c.06,.43,.19,.78,.37,1.07-.3,0-.58-.06-.82-.2Z"/>
      <path class="cls-5" d="M322.97,22.35c-1.85,.77-4.26,3.25-6.2,6.61s-2.91,6.77-2.61,8.76"/>
      <path class="cls-5" d="M313.12,37.96c-.3,0-.59-.06-.83-.2-1.75-1.01-.98-5.63,1.73-10.32s6.32-7.67,8.07-6.66c.25,.14,.44,.35,.59,.62"/>
      <polyline class="cls-5" points="336.84 29.97 335.66 18.88 371.25 .8 371.66 14.36 338.94 31.57"/>
      <line class="cls-5" x1="332.07" y1="26.39" x2="335.66" y2="18.88"/>
      <polyline class="cls-5" points="336.36 25.51 333.61 27.36 320.89 19.86"/>
      <polygon class="cls-5" points="270.87 66.52 269.94 53.1 308.25 33.12 309.28 46.17 270.87 66.52"/>
      <polyline class="cls-5" points="309.28 46.17 314.84 36.54 308.25 33.12"/>
      <line class="cls-5" x1="308.77" y1="39.8" x2="314.84" y2="36.54"/>
    </g>
    <g>
      <ellipse class="cls-5" cx="708.93" cy="177.16" rx="6.3" ry="3.57" transform="translate(201.04 702.53) rotate(-60)"/>
      <path class="cls-5" d="M705.78,182.61l-1.92-1.11c-1.71-.99-1.69-4.23,.05-7.24s4.53-4.65,6.24-3.66l1.92,1.11"/>
      <path class="cls-5" d="M705.08,181.95c-.07,.05-.14,.09-.22,.13-1.87,1.17-3.78,1.47-5.24,.63-2.71-1.56-2.79-6.5-.18-11.03s6.93-6.92,9.64-5.36c1.46,.84,2.15,2.66,2.07,4.86,0,.1,0,.18,0,.26"/>
      <path class="cls-5" d="M660.81,165.79c-.29-.05-.55-.15-.8-.29-2.22-1.28-2.03-5.78,.43-10.05s6.26-6.67,8.49-5.39c.25,.15,.47,.32,.65,.55"/>
      <line class="cls-5" x1="679.69" y1="155.42" x2="669.57" y2="150.6"/>
      <line class="cls-5" x1="660.81" y1="165.79" x2="671.66" y2="172.28"/>
      <path class="cls-5" d="M645.26,157.55c-1.49-2.14-1.12-6.26,1.1-10.12,1.93-3.35,4.73-5.59,7.15-5.97l.26,.02,1.66,.96,6.2,3.58c1.73,1,2.94,2.59,3.54,4.41"/>
      <path class="cls-5" d="M645.14,157.48l.12,.07,1.34,.78,5.95,3.43c1.83,1.06,3.95,1.28,5.93,.78"/>
      <path class="cls-5" d="M650.87,157.89c-.03,.11-.09,.21-.17,.3-.35,.39-1.06,.32-1.56-.16s-.64-1.17-.28-1.55c.16-.17,.38-.25,.63-.24"/>
      <path class="cls-5" d="M650.87,157.89c.11-.38-.05-.87-.44-1.24-.28-.26-.63-.41-.94-.41"/>
      <path class="cls-5" d="M648.86,156.48l.8-.55c.36-.38,1.05-.31,1.56,.16,.51,.47,.64,1.17,.28,1.55l-1.06,.73"/>
      <path class="cls-5" d="M646.6,158.32c-.85,.2-1.62,.14-2.28-.24-2.35-1.36-2.05-6.28,.68-11.01,2.72-4.72,6.85-7.45,9.2-6.09,.54,.31,.94,.8,1.2,1.44"/>
      <path class="cls-5" d="M641.7,133.6c-2.06-1.19-5.95,1.67-8.67,6.39s-3.26,9.52-1.2,10.71"/>
      <line class="cls-5" x1="631.83" y1="150.7" x2="644.55" y2="158.21"/>
      <path class="cls-5" d="M641.61,133.56c-.38-.88-.95-1.58-1.73-2.03-3.01-1.74-7.83,1-10.78,6.11-2.12,3.67-2.69,7.56-1.75,10.11"/>
      <path class="cls-5" d="M629.32,150.11c.69,.37,1.47,.51,2.3,.44"/>
      <path class="cls-5" d="M634.51,152.34c-.25-.14-.44-.35-.59-.62-.92-1.67-.02-5.66,2.32-9.7s5.33-6.81,7.24-6.86c.3,0,.59,.06,.83,.2,.2,.12,.38,.29,.51,.5-.32,0-.67,.09-1.05,.25-1.85,.77-4.26,3.25-6.2,6.61s-2.91,6.77-2.61,8.76c.06,.43,.19,.78,.37,1.07-.3,0-.58-.06-.82-.2Z"/>
      <path class="cls-5" d="M643.78,136.1c-1.85,.77-4.26,3.25-6.2,6.61s-2.91,6.77-2.61,8.76"/>
      <path class="cls-5" d="M633.93,151.71c-.3,0-.59-.06-.83-.2-1.75-1.01-.98-5.63,1.73-10.32s6.32-7.67,8.07-6.66c.25,.14,.44,.35,.59,.62"/>
      <polyline class="cls-5" points="657.65 143.72 656.47 132.63 692.06 114.55 692.47 128.11 659.75 145.33"/>
      <line class="cls-5" x1="652.88" y1="140.14" x2="656.47" y2="132.63"/>
      <polyline class="cls-5" points="657.17 139.26 654.42 141.11 641.7 133.61"/>
      <polygon class="cls-5" points="591.68 180.27 590.75 166.85 629.06 146.87 630.09 159.92 591.68 180.27"/>
      <polyline class="cls-5" points="630.09 159.92 635.65 150.29 629.06 146.87"/>
      <line class="cls-5" x1="629.58" y1="153.55" x2="635.65" y2="150.29"/>
      <path class="cls-5" d="M709.08,166.32l-8.95-4.53s-12.72-3.34-11.77,14.18l11.26,6.73"/>
      <path class="cls-5" d="M683.19,161.01c.01-.08,.01-.16,0-.26,.09-2.2-.61-4.02-2.07-4.86-2.71-1.56-7.03,.84-9.64,5.36s-2.53,9.47,.18,11.03c1.45,.84,3.37,.54,5.24-.63,.08-.04,.15-.09,.22-.13,0,0,3.43-2.17,6.07-10.51Z"/>
    </g>
    <g>
      <path class="cls-5" d="M791.17,307.33c-.11-.27-.17-.55-.18-.84-.09-2.56,3.82-4.8,8.74-4.98s8.98,1.76,9.08,4.32c.01,.29-.03,.57-.12,.85"/>
      <line class="cls-5" x1="809.99" y1="317.81" x2="808.69" y2="306.69"/>
      <line class="cls-5" x1="791.17" y1="307.33" x2="791.43" y2="319.97"/>
      <path class="cls-5" d="M789.88,289.78c1.02-2.4,4.7-4.28,9.16-4.44,3.86-.14,7.25,1.04,8.86,2.88l.12,.23,.07,1.92,.26,7.15c.07,2-.63,3.87-1.85,5.35"/>
      <path class="cls-5" d="M789.88,289.64v.13s.06,1.55,.06,1.55l.25,6.86c.08,2.12,1.01,4.03,2.49,5.44"/>
      <path class="cls-5" d="M792.58,294.71c-.11,.04-.23,.04-.35,.02-.52-.09-.83-.73-.7-1.41s.65-1.16,1.17-1.06c.23,.05,.42,.19,.53,.41"/>
      <path class="cls-5" d="M792.58,294.71c.38-.11,.71-.51,.81-1.03,.07-.38,.01-.75-.16-1.01"/>
      <path class="cls-5" d="M792.7,292.27l.89,.38c.52,.1,.82,.73,.7,1.41-.13,.68-.65,1.16-1.17,1.06l-1.18-.51"/>
      <path class="cls-5" d="M789.94,291.33c-.62-.61-.98-1.3-1.01-2.06-.1-2.71,4.23-5.08,9.68-5.28,5.44-.2,9.95,1.84,10.05,4.55,.02,.62-.18,1.22-.58,1.78"/>
      <path class="cls-5" d="M808.27,274.04c-.09-2.38-4.58-4.15-10.02-3.95s-9.79,2.3-9.71,4.67"/>
      <line class="cls-5" x1="788.54" y1="274.77" x2="788.95" y2="289.53"/>
      <path class="cls-5" d="M808.26,273.94c.55-.79,.83-1.65,.8-2.54-.13-3.47-5.01-6.1-10.91-5.89-4.23,.16-7.83,1.74-9.49,3.89"/>
      <path class="cls-5" d="M787.71,272.32c.05,.79,.35,1.52,.84,2.18"/>
      <path class="cls-5" d="M788.59,277.91c-.01-.28,.07-.56,.21-.83,.93-1.66,4.78-3.02,9.45-3.19s8.6,.9,9.66,2.49c.17,.25,.26,.53,.27,.81,0,.24-.05,.47-.15,.7-.18-.27-.44-.52-.77-.76-1.63-1.16-5.02-1.88-8.9-1.74s-7.28,1.13-8.8,2.44c-.33,.28-.56,.57-.71,.88-.17-.25-.26-.53-.27-.8Z"/>
      <path class="cls-5" d="M807.26,277.12c-1.63-1.16-5.02-1.88-8.9-1.74s-7.28,1.13-8.8,2.44"/>
      <path class="cls-5" d="M788.8,277.08c-.17-.25-.26-.53-.27-.81-.07-2.02,4.25-3.82,9.66-4.02s9.86,1.28,9.93,3.3c.01,.28-.07,.56-.21,.83"/>
      <polyline class="cls-5" points="808.18 292.92 816.95 286.03 851.18 306.57 839.91 314.12 807.94 295.56"/>
      <line class="cls-5" x1="808.68" y1="286.98" x2="816.95" y2="286.03"/>
      <polyline class="cls-5" points="811.71 290.15 808.67 288.81 808.27 274.04"/>
      <polygon class="cls-5" points="742.16 256.48 753.03 248.55 790.32 270.38 779.81 278.19 742.16 256.48"/>
      <polyline class="cls-5" points="779.81 278.19 790.92 277.78 790.32 270.38"/>
      <line class="cls-5" x1="784.94" y1="274.38" x2="790.92" y2="277.78"/>
      <path class="cls-5" d="M807.11,323.75c.08-.03,.15-.08,.22-.13,1.91-1.09,3.08-2.65,3.02-4.33-.11-3.12-4.45-5.51-9.67-5.32-5.22,.19-9.36,2.89-9.25,6.01,.06,1.68,1.34,3.14,3.32,4.1,.08,.04,.15,.08,.23,.12,0,0,3.66,1.75,12.12-.45Z"/>
    </g>
    <g>
      <path class="cls-5" d="M839.83,598.14c-.11-.27-.17-.55-.18-.84-.09-2.56,3.82-4.8,8.74-4.98s8.98,1.76,9.08,4.32c.01,.29-.03,.57-.12,.85"/>
      <line class="cls-5" x1="858.65" y1="608.63" x2="857.35" y2="597.5"/>
      <line class="cls-5" x1="839.83" y1="598.14" x2="840.09" y2="610.79"/>
      <path class="cls-5" d="M855.77,614.56c.08-.03,.15-.08,.22-.13,1.91-1.09,3.08-2.65,3.02-4.33-.11-3.12-4.45-5.51-9.67-5.32-5.22,.19-9.36,2.89-9.25,6.01,.06,1.68,1.34,3.14,3.32,4.1,.08,.04,.15,.08,.23,.12,0,0,3.66,1.75,12.12-.45Z"/>
    </g>
    <g>
      <path class="cls-5" d="M813.59,429.95s-.72-30.56,33.45-32.23,33.12,31.96,33.12,31.96c0,0-3.85-1.9-7.09,.02,0,0-9.28-2.83-14.63,.24,0,0-12.96-3.16-23.04,0,0,0-6.6-3.39-14.16-.24,0,0-3.36-2.04-7.65,.24Z"/>
      <path class="cls-5" d="M847.04,397.72c-23.57,1.49-25.8,31.98-25.8,31.98l23.8,34.85"/>
      <path class="cls-5" d="M845.04,464.55l-9.64-34.6s.96-30.74,12.35-32.23"/>
      <path class="cls-5" d="M848.89,464.55l9.55-34.6s.44-25.34-10.07-32.29"/>
      <line class="cls-5" x1="848.89" y1="464.55" x2="880.16" y2="429.68"/>
      <path class="cls-5" d="M848.89,464.55l24.18-34.85s-2.1-28.6-24.18-32.04"/>
      <line class="cls-5" x1="813.59" y1="429.95" x2="845.39" y2="465.08"/>
    </g>
    <g>
      <path class="cls-5" d="M838.15,470.9c-.11-.27-.17-.55-.18-.84-.09-2.56,3.82-4.8,8.74-4.98s8.98,1.76,9.08,4.32c.01,.29-.03,.57-.12,.85"/>
      <line class="cls-5" x1="856.97" y1="481.39" x2="855.67" y2="470.26"/>
      <line class="cls-5" x1="838.15" y1="470.9" x2="838.41" y2="483.55"/>
      <path class="cls-5" d="M854.09,487.32c.08-.03,.15-.08,.22-.13,1.91-1.09,3.08-2.65,3.02-4.33-.11-3.12-4.45-5.51-9.67-5.32-5.22,.19-9.36,2.89-9.25,6.01,.06,1.68,1.34,3.14,3.32,4.1,.08,.04,.15,.08,.23,.12,0,0,3.66,1.75,12.12-.45Z"/>
    </g>
  </g>
</svg>