<?xml version="1.0" encoding="UTF-8"?><svg id="Capa_1" xmlns="http://www.w3.org/2000/svg" viewBox="0 0 1351.22 955.41"><defs><style>.cls-1{letter-spacing:-.04em;}.cls-2{letter-spacing:-.02em;}.cls-3{fill:#fff;font-family:Helvetica, Helvetica;font-size:22.47px;}.cls-4{stroke:#ca4317;}.cls-4,.cls-5{fill:none;stroke-miterlimit:10;stroke-width:1.6px;}.cls-5{stroke:#706f6f;}</style></defs><rect width="1351.22" height="955.41"/><g><path class="cls-5" d="M469.75,166.05l1.58-31.01-3.49-12.31,1.15-21.79-11.41-3.26v-.87c0-4-3.24-7.24-7.24-7.24h-3.62c-4,0-7.24,3.24-7.24,7.24h0s-10.66,2.03-10.66,2.03v23.89l-3.68,11.88v31.1"/><ellipse class="cls-5" cx="447.44" cy="165.7" rx="22.31" ry="2.98"/><polyline class="cls-5" points="468.76 108.26 540.37 105.82 540.6 112.66 468.23 115.13"/><polyline class="cls-5" points="468.09 116.17 511.69 122.27 510.79 129.06 467.97 123.37"/><polyline class="cls-5" points="428.29 106.34 356.68 103.9 356.45 110.74 428.82 113.21"/><polyline class="cls-5" points="428.96 114.25 385.36 120.35 386.26 127.14 429.08 121.44"/></g><g><path class="cls-5" d="M435.75,285.28l.41-34.93-8.02-19.24v-52.71l10.58-3.42v-3.7c0-3.07,2.49-5.56,5.56-5.56h8.11c3.07,0,5.56,2.49,5.56,5.56v3.7l11.82,3.51v52.97l-8.29,18.9v35.07"/><ellipse class="cls-5" cx="448.61" cy="285.42" rx="12.87" ry="3.9"/></g><polygon class="cls-5" points="530.74 279.29 467.65 279.29 467.65 243.3 530.74 243.3 530.74 238.77 584.61 238.77 584.61 283.82 530.74 283.82 530.74 279.29"/><rect class="cls-5" x="461.05" y="260.22" width="6.6" height="3.8"/><line class="cls-5" x1="478.91" y1="243.3" x2="478.91" y2="279.24"/><line class="cls-5" x1="491.5" y1="243.3" x2="491.5" y2="279.24"/><line class="cls-5" x1="505.33" y1="243.3" x2="505.33" y2="279.24"/><line class="cls-5" x1="517.92" y1="243.3" x2="517.92" y2="279.24"/><line class="cls-5" x1="530.74" y1="243.3" x2="530.74" y2="279.24"/><line class="cls-5" x1="543.33" y1="238.77" x2="543.33" y2="283.82"/><line class="cls-5" x1="556.91" y1="239.24" x2="556.91" y2="284.29"/><line class="cls-5" x1="570.67" y1="239.24" x2="570.67" y2="284.29"/><line class="cls-5" x1="467.65" y1="250.82" x2="584.61" y2="250.82"/><line class="cls-5" x1="467.65" y1="261.27" x2="584.61" y2="261.27"/><line class="cls-5" x1="467.65" y1="271.72" x2="584.61" y2="271.72"/><g><polygon class="cls-5" points="365.63 279.51 428.72 279.51 428.72 243.53 365.63 243.53 365.63 238.99 311.76 238.99 311.76 284.04 365.63 284.04 365.63 279.51"/><rect class="cls-5" x="428.72" y="260.45" width="6.6" height="3.8"/><line class="cls-5" x1="417.46" y1="243.53" x2="417.46" y2="279.46"/><line class="cls-5" x1="404.87" y1="243.53" x2="404.87" y2="279.46"/><line class="cls-5" x1="391.04" y1="243.53" x2="391.04" y2="279.46"/><line class="cls-5" x1="378.45" y1="243.53" x2="378.45" y2="279.46"/><line class="cls-5" x1="365.63" y1="243.53" x2="365.63" y2="279.46"/><line class="cls-5" x1="353.04" y1="238.99" x2="353.04" y2="284.04"/><line class="cls-5" x1="339.46" y1="239.46" x2="339.46" y2="284.52"/><line class="cls-5" x1="325.7" y1="239.46" x2="325.7" y2="284.52"/><line class="cls-5" x1="428.72" y1="251.05" x2="311.76" y2="251.05"/><line class="cls-5" x1="428.72" y1="261.5" x2="311.76" y2="261.5"/><line class="cls-5" x1="428.72" y1="271.94" x2="311.76" y2="271.94"/></g><path class="cls-4" d="M469.1,322.47v129.09h-38.91v-129.09c0-7.85,4.64-14.6,11.34-17.67v-11.93c0-4.48,3.64-8.11,8.13-8.11,2.23,0,4.27,.91,5.73,2.38,1.47,1.46,2.38,3.5,2.38,5.73v11.93c2.11,.96,4.02,2.3,5.63,3.91,3.53,3.53,5.7,8.39,5.7,13.76Z"/><path class="cls-5" d="M475.59,388.4h-7.18s7.18,0,7.18,0Z"/><polyline class="cls-5" points="475.59 389.05 475.59 371.53 504.8 371.53 502.7 392.17 504.8 412.66 475.59 412.66 475.59 392.09 468.41 392.09"/><g><polyline class="cls-5" points="401.28 395.67 402.87 416.09 396.18 416.61 392.89 374.37 399.57 373.85 401.04 392.66"/><rect class="cls-5" x="405.72" y="373.18" width="6.71" height="42.36" transform="translate(-29.44 33.02) rotate(-4.46)"/><rect class="cls-5" x="416.75" y="372.48" width="6.71" height="42.36" transform="translate(-29.35 33.88) rotate(-4.46)"/><polyline class="cls-5" points="405.79 395.31 401.27 395.66 401.04 392.66 405.56 392.3"/><polyline class="cls-5" points="423.26 390.92 428.86 390.49 429.1 393.49 423.49 393.93"/><line class="cls-5" x1="416.81" y1="394.45" x2="412.48" y2="394.79"/><line class="cls-5" x1="416.57" y1="391.45" x2="412.24" y2="391.78"/></g><g><line class="cls-4" x1="438.9" y1="457.39" x2="438.9" y2="451.56"/><line class="cls-4" x1="460.4" y1="457.39" x2="460.4" y2="451.56"/></g><path class="cls-4" d="M423.57,490.44v-13.55s12.3,3.31,12.82-8.6h2.3"/><path class="cls-4" d="M460.2,468.3h2.29c.52,11.9,12.84,8.6,12.84,8.6v16.09"/><path class="cls-4" d="M475.32,536.75v88.98s-9.05-2.92-13.8,5.22l9.5,4.15v18.49"/><polyline class="cls-4" points="471.02 692.4 471.02 701.1 457.73 707.07 457.73 716.41 441.16 716.41 441.16 707.07 427.87 701.1 427.87 692.4"/><rect class="cls-5" x="433.5" y="457.38" width="31.88" height="10.91"/><g><path class="cls-5" d="M377.83,672.99c0,12.88-1.87,23.32-4.17,23.32s-4.17-10.44-4.17-23.32,1.86-23.31,4.17-23.31,4.17,10.44,4.17,23.31Z"/><polyline class="cls-5" points="373.65 649.69 400.1 649.69 413.01 653.59 518.96 653.59 525.87 657.13 526.87 657.13"/><polyline class="cls-5" points="373.65 696.32 402.08 696.3 414.99 692.4 520.94 692.4 527.11 689.24"/><path class="cls-5" d="M560.79,657.13h12.48c4.38,0,8.35,1.78,11.21,4.64s4.66,6.85,4.66,11.23c0,8.76-7.11,15.85-15.87,15.85h-12.48"/></g><ellipse class="cls-5" cx="543.82" cy="673" rx="21.3" ry="26.22"/><rect class="cls-5" x="567.68" y="636.82" width="2.87" height="20.3"/><rect class="cls-5" x="561.27" y="636.63" width="2.87" height="20.3"/><rect class="cls-5" x="574.37" y="636.82" width="2.87" height="20.3"/><rect class="cls-5" x="567.68" y="689.16" width="2.87" height="20.3"/><rect class="cls-5" x="561.27" y="688.97" width="2.87" height="20.3"/><rect class="cls-5" x="574.37" y="689.16" width="2.87" height="20.3"/><polyline class="cls-5" points="657.5 552.47 522.4 552.47 506.68 536.75"/><polyline class="cls-5" points="423.57 536.7 423.12 537.03 423.1 537.03 399.99 553.49 273.9 553.49 273.9 569.36 423.57 569.36"/><line class="cls-5" x1="657.61" y1="569.36" x2="475.32" y2="569.36"/><path class="cls-5" d="M448.72,492.99h68.29c6.37,0,11.55,5.17,11.55,11.55v20.67c0,6.37-5.17,11.55-11.55,11.55h-79.84v-32.22c0-6.37,5.17-11.55,11.55-11.55Z"/><path class="cls-5" d="M380.4,504.86h23.01l3.83-14.97h13.69c5.98,0,10.83,5.27,10.83,11.78v23.82c0,6.5-4.85,11.78-10.83,11.78h-13.83l-3.66-11.55h-23.05v-20.85Z"/><path class="cls-4" d="M423.57,536.7v89.04s9.04-2.92,13.8,5.22l-9.5,4.15v18.49"/><rect class="cls-5" x="657.62" y="542.76" width="49.12" height="29.53"/><rect class="cls-5" x="712.2" y="542.76" width="98.49" height="29.53"/><rect class="cls-5" x="662.59" y="523.44" width="86.61" height="11.29"/><g><rect class="cls-5" x="672.49" y="284.76" width="30.11" height="238.68"/><rect class="cls-5" x="709.18" y="284.76" width="30.11" height="238.68"/></g><rect class="cls-5" x="660.46" y="273.6" width="90.85" height="11.16"/><rect class="cls-5" x="760.22" y="523.38" width="86.61" height="11.29"/><g><rect class="cls-5" x="770.13" y="284.7" width="30.11" height="238.68"/><rect class="cls-5" x="806.82" y="284.7" width="30.11" height="238.68"/></g><rect class="cls-5" x="758.1" y="273.54" width="90.85" height="11.16"/><rect class="cls-5" x="682.12" y="534.73" width="4.43" height="7.43"/><rect class="cls-5" x="733.87" y="534.73" width="4.43" height="7.43"/><rect class="cls-5" x="798.64" y="534.73" width="4.43" height="7.43"/><rect class="cls-5" x="662.06" y="580.57" width="86.61" height="11.29"/><g><rect class="cls-5" x="671.96" y="591.86" width="30.11" height="238.68"/><rect class="cls-5" x="708.65" y="591.86" width="30.11" height="238.68"/></g><rect class="cls-5" x="659.93" y="830.54" width="90.85" height="11.16"/><rect class="cls-5" x="759.69" y="580.64" width="86.61" height="11.29"/><g><rect class="cls-5" x="769.6" y="591.92" width="30.11" height="238.68"/><rect class="cls-5" x="806.29" y="591.92" width="30.11" height="238.68"/></g><rect class="cls-5" x="757.57" y="830.6" width="90.85" height="11.16"/><rect class="cls-5" x="681.59" y="573.14" width="4.43" height="7.43"/><rect class="cls-5" x="733.34" y="573.14" width="4.43" height="7.43"/><rect class="cls-5" x="798.11" y="573.14" width="4.43" height="7.43"/><rect class="cls-5" x="214.37" y="543.73" width="49.12" height="29.53" transform="translate(477.86 1116.99) rotate(-180)"/><rect class="cls-5" x="110.41" y="543.73" width="98.49" height="29.53" transform="translate(319.32 1116.99) rotate(-180)"/><rect class="cls-5" x="171.91" y="524.41" width="86.61" height="11.29" transform="translate(430.43 1060.11) rotate(-180)"/><g><rect class="cls-5" x="218.51" y="285.74" width="30.11" height="238.68" transform="translate(467.13 810.15) rotate(-180)"/><rect class="cls-5" x="181.81" y="285.74" width="30.11" height="238.68" transform="translate(393.74 810.15) rotate(-180)"/></g><rect class="cls-5" x="169.79" y="274.57" width="90.85" height="11.16" transform="translate(430.43 560.31) rotate(-180)"/><rect class="cls-5" x="74.27" y="524.35" width="86.61" height="11.29" transform="translate(235.15 1059.99) rotate(-180)"/><g><rect class="cls-5" x="120.87" y="285.67" width="30.11" height="238.68" transform="translate(271.85 810.02) rotate(-180)"/><rect class="cls-5" x="84.17" y="285.67" width="30.11" height="238.68" transform="translate(198.46 810.02) rotate(-180)"/></g><rect class="cls-5" x="72.15" y="274.51" width="90.85" height="11.16" transform="translate(235.15 560.18) rotate(-180)"/><rect class="cls-5" x="234.55" y="535.7" width="4.43" height="7.43" transform="translate(473.54 1078.83) rotate(-180)"/><polyline class="cls-5" points="263.49 559.36 273.9 559.36 273.9 563.78 263.49 563.78"/><polyline class="cls-5" points="214.37 563.78 209.81 563.78 209.81 559.36 214.37 559.36"/><rect class="cls-5" x="182.8" y="535.7" width="4.43" height="7.43" transform="translate(370.04 1078.83) rotate(-180)"/><rect class="cls-5" x="118.04" y="535.7" width="4.43" height="7.43" transform="translate(240.51 1078.83) rotate(-180)"/><rect class="cls-5" x="172.44" y="581.54" width="86.61" height="11.29" transform="translate(431.49 1174.37) rotate(-180)"/><g><rect class="cls-5" x="219.04" y="592.83" width="30.11" height="238.68" transform="translate(468.19 1424.34) rotate(-180)"/><rect class="cls-5" x="182.34" y="592.83" width="30.11" height="238.68" transform="translate(394.8 1424.34) rotate(-180)"/></g><rect class="cls-5" x="170.32" y="831.51" width="90.85" height="11.16" transform="translate(431.49 1674.18) rotate(-180)"/><rect class="cls-5" x="74.8" y="581.61" width="86.61" height="11.29" transform="translate(236.21 1174.5) rotate(-180)"/><g><rect class="cls-5" x="121.4" y="592.89" width="30.11" height="238.68" transform="translate(272.91 1424.46) rotate(-180)"/><rect class="cls-5" x="84.7" y="592.89" width="30.11" height="238.68" transform="translate(199.52 1424.46) rotate(-180)"/></g><rect class="cls-5" x="72.68" y="831.57" width="90.85" height="11.16" transform="translate(236.21 1674.3) rotate(-180)"/><rect class="cls-5" x="235.08" y="574.11" width="4.43" height="7.43" transform="translate(474.6 1155.66) rotate(-180)"/><rect class="cls-5" x="183.33" y="574.11" width="4.43" height="7.43" transform="translate(371.1 1155.66) rotate(-180)"/><rect class="cls-5" x="118.57" y="574.11" width="4.43" height="7.43" transform="translate(241.57 1155.66) rotate(-180)"/><polygon class="cls-5" points="572 318.33 544.94 318.33 547.98 293.21 575.34 293.21 572 318.33"/><polygon class="cls-5" points="609.44 318.33 582.38 318.33 585.42 293.21 612.78 293.21 609.44 318.33"/><polygon class="cls-5" points="645.19 318.33 618.13 318.33 621.17 293.21 648.53 293.21 645.19 318.33"/><g><polygon class="cls-5" points="572.69 321.92 545.62 321.92 548.67 347.04 576.03 347.04 572.69 321.92"/><polygon class="cls-5" points="610.13 321.92 583.06 321.92 586.11 347.04 613.47 347.04 610.13 321.92"/><polygon class="cls-5" points="645.88 321.92 618.81 321.92 621.86 347.04 649.22 347.04 645.88 321.92"/></g><polygon class="cls-5" points="573.19 375.24 546.13 375.24 549.17 350.11 576.53 350.11 573.19 375.24"/><polygon class="cls-5" points="610.63 375.24 583.56 375.24 586.61 350.11 613.97 350.11 610.63 375.24"/><polygon class="cls-5" points="646.38 375.24 619.31 375.24 622.36 350.11 649.72 350.11 646.38 375.24"/><g><polygon class="cls-5" points="573.88 378.82 546.81 378.82 549.86 403.94 577.22 403.94 573.88 378.82"/><polygon class="cls-5" points="611.32 378.82 584.25 378.82 587.3 403.94 614.65 403.94 611.32 378.82"/><polygon class="cls-5" points="647.07 378.82 620 378.82 623.05 403.94 650.4 403.94 647.07 378.82"/></g><polygon class="cls-5" points="573.56 490.06 546.49 490.06 549.54 464.94 576.9 464.94 573.56 490.06"/><polygon class="cls-5" points="611 490.06 583.93 490.06 586.98 464.94 614.34 464.94 611 490.06"/><polygon class="cls-5" points="646.75 490.06 619.68 490.06 622.73 464.94 650.09 464.94 646.75 490.06"/><g><polygon class="cls-5" points="574.25 493.65 547.18 493.65 550.23 518.77 577.58 518.77 574.25 493.65"/><polygon class="cls-5" points="611.68 493.65 584.62 493.65 587.67 518.77 615.02 518.77 611.68 493.65"/><polygon class="cls-5" points="647.43 493.65 620.37 493.65 623.42 518.77 650.77 518.77 647.43 493.65"/></g><polygon class="cls-5" points="574.06 432.65 546.99 432.65 550.04 407.52 577.4 407.52 574.06 432.65"/><polygon class="cls-5" points="611.5 432.65 584.43 432.65 587.48 407.52 614.84 407.52 611.5 432.65"/><polygon class="cls-5" points="647.25 432.65 620.18 432.65 623.23 407.52 650.59 407.52 647.25 432.65"/><g><polygon class="cls-5" points="574.03 436.23 546.97 436.23 550.02 461.36 577.37 461.36 574.03 436.23"/><polygon class="cls-5" points="611.47 436.23 584.41 436.23 587.45 461.36 614.81 461.36 611.47 436.23"/><polygon class="cls-5" points="647.22 436.23 620.16 436.23 623.21 461.36 650.56 461.36 647.22 436.23"/></g><polygon class="cls-5" points="655.43 534.73 549.49 534.73 545.06 524.92 650.59 524.92 655.43 534.73"/><polygon class="cls-5" points="292.97 317.21 265.91 317.21 268.95 292.09 296.31 292.09 292.97 317.21"/><polygon class="cls-5" points="330.41 317.21 303.35 317.21 306.39 292.09 333.75 292.09 330.41 317.21"/><polygon class="cls-5" points="366.16 317.21 339.1 317.21 342.14 292.09 369.5 292.09 366.16 317.21"/><g><polygon class="cls-5" points="293.66 320.79 266.59 320.79 269.64 345.92 297 345.92 293.66 320.79"/><polygon class="cls-5" points="331.1 320.79 304.03 320.79 307.08 345.92 334.44 345.92 331.1 320.79"/><polygon class="cls-5" points="366.85 320.79 339.78 320.79 342.83 345.92 370.19 345.92 366.85 320.79"/></g><polygon class="cls-5" points="294.16 374.11 267.09 374.11 270.14 348.99 297.5 348.99 294.16 374.11"/><polygon class="cls-5" points="331.6 374.11 304.53 374.11 307.58 348.99 334.94 348.99 331.6 374.11"/><polygon class="cls-5" points="367.35 374.11 340.28 374.11 343.33 348.99 370.69 348.99 367.35 374.11"/><g><polygon class="cls-5" points="294.85 377.69 267.78 377.69 270.83 402.82 298.18 402.82 294.85 377.69"/><polygon class="cls-5" points="332.28 377.69 305.22 377.69 308.27 402.82 335.62 402.82 332.28 377.69"/><polygon class="cls-5" points="368.03 377.69 340.97 377.69 344.02 402.82 371.37 402.82 368.03 377.69"/></g><polygon class="cls-5" points="294.53 488.94 267.46 488.94 270.51 463.82 297.87 463.82 294.53 488.94"/><polygon class="cls-5" points="331.97 488.94 304.9 488.94 307.95 463.82 335.3 463.82 331.97 488.94"/><polygon class="cls-5" points="367.72 488.94 340.65 488.94 343.7 463.82 371.05 463.82 367.72 488.94"/><g><polygon class="cls-5" points="295.21 492.52 268.15 492.52 271.2 517.65 298.55 517.65 295.21 492.52"/><polygon class="cls-5" points="332.65 492.52 305.59 492.52 308.64 517.65 335.99 517.65 332.65 492.52"/><polygon class="cls-5" points="368.4 492.52 341.34 492.52 344.39 517.65 371.74 517.65 368.4 492.52"/></g><polygon class="cls-5" points="295.03 431.53 267.96 431.53 271.01 406.4 298.37 406.4 295.03 431.53"/><polygon class="cls-5" points="332.47 431.53 305.4 431.53 308.45 406.4 335.8 406.4 332.47 431.53"/><polygon class="cls-5" points="368.22 431.53 341.15 431.53 344.2 406.4 371.56 406.4 368.22 431.53"/><g><polygon class="cls-5" points="295 435.11 267.94 435.11 270.99 460.23 298.34 460.23 295 435.11"/><polygon class="cls-5" points="332.44 435.11 305.38 435.11 308.42 460.23 335.78 460.23 332.44 435.11"/><polygon class="cls-5" points="368.19 435.11 341.13 435.11 344.17 460.23 371.53 460.23 368.19 435.11"/></g><polygon class="cls-5" points="376.4 533.61 270.46 533.61 266.03 523.8 371.56 523.8 376.4 533.61"/><g><polygon class="cls-5" points="1152.32 90.21 1171.29 90.21 1171.29 116.56 1166.97 121.4 1156.64 121.4 1152.32 116.98 1152.32 90.21"/><rect class="cls-5" x="1119.75" y="94.74" width="29.24" height="13.21"/><polyline class="cls-5" points="1148.99 103.49 1152.42 103.49 1152.42 100.12 1148.99 100.12"/><rect class="cls-5" x="1096.34" y="172.51" width="50.27" height="20.81"/><polyline class="cls-5" points="1146.62 184.8 1150.05 184.8 1150.05 181.43 1146.62 181.43"/><rect class="cls-5" x="1177.3" y="172.77" width="50.27" height="20.81" transform="translate(2404.87 366.35) rotate(-180)"/><polyline class="cls-5" points="1177.29 181.69 1173.86 181.69 1173.86 185.06 1177.29 185.06"/><rect class="cls-5" x="1175.07" y="94.74" width="29.24" height="13.21" transform="translate(2379.39 202.68) rotate(-180)"/><polyline class="cls-5" points="1175.07 100.12 1171.64 100.12 1171.64 103.49 1175.07 103.49"/><rect class="cls-5" x="1119.75" y="275.53" width="29.24" height="13.21"/><polyline class="cls-5" points="1148.99 284.29 1152.42 284.29 1152.42 280.92 1148.99 280.92"/><rect class="cls-5" x="1175.07" y="275.53" width="29.24" height="13.21" transform="translate(2379.39 564.28) rotate(-180)"/><polyline class="cls-5" points="1175.07 280.92 1171.64 280.92 1171.64 284.29 1175.07 284.29"/><rect class="cls-5" x="1151.42" y="121.6" width="20.78" height="13.25"/><rect class="cls-5" x="1155.93" y="134.85" width="11.52" height="25.52"/><polyline class="cls-5" points="1167.44 142.12 1175.76 142.12 1182.17 134.85 1210.14 134.85 1216.16 138.45 1265.41 138.45 1265.41 156.7 1216.43 156.7 1210.05 160.36 1182 160.36 1175.76 153.15 1167.44 153.15"/><polyline class="cls-5" points="1156.2 142.04 1147.88 142.04 1141.47 134.77 1113.5 134.77 1107.48 138.37 1058.23 138.37 1058.23 156.63 1107.21 156.63 1113.59 160.28 1141.64 160.28 1147.88 153.08 1156.2 153.08"/><circle class="cls-5" cx="1161.82" cy="147.53" r="5.31"/><polyline class="cls-4" points="1155.93 160.37 1150.89 166.66 1150.89 193.66 1148.12 198.58 1148.12 234.17 1155.38 238.73 1155.38 240.57 1149.57 246.39 1149.57 269.59 1153.5 273.52 1153.5 291.73 1170.41 291.73 1170.41 273.93 1173.99 269.94 1174.71 245.97 1168.53 240.57 1168.53 238.73 1175.79 234.17 1175.79 198.58 1173.02 193.66 1173.02 166.66 1167.44 160.37"/></g><text class="cls-3" transform="translate(304.07 840)"><tspan x="0" y="0">Estación Espacial Internacional</tspan></text><text class="cls-3" transform="translate(1023.65 363.38)"><tspan x="0" y="0">Estación Espacial</tspan><tspan class="cls-2" x="177.36" y="0"> </tspan><tspan class="cls-1" x="183.21" y="0">T</tspan><tspan x="196.11" y="0">iangong</tspan></text></svg>