<?xml version="1.0" encoding="UTF-8"?><svg id="Capa_1" xmlns="http://www.w3.org/2000/svg" viewBox="0 0 860.8 953.41"><defs><style>.cls-1{letter-spacing:-.04em;}.cls-2{letter-spacing:-.02em;}.cls-3{stroke:#cd4317;}.cls-3,.cls-4,.cls-5{stroke-width:1.02px;}.cls-3,.cls-4,.cls-5,.cls-6{fill:none;stroke-miterlimit:10;}.cls-4{stroke:#ca4317;}.cls-5,.cls-6{stroke:#706f6f;}.cls-6{stroke-width:.51px;}.cls-7{fill:#fff;font-family:Helvetica, Helvetica;font-size:14.31px;}</style></defs><rect width="860.8" height="953.41"/><g><path class="cls-5" d="M434.36,71.34l1.17-23.02-2.59-9.14,.85-16.17-8.47-2.42v-.65c0-2.97-2.41-5.38-5.38-5.38h-2.69c-2.97,0-5.38,2.41-5.38,5.38h0s-7.91,1.51-7.91,1.51v17.74l-2.73,8.82v23.09"/><ellipse class="cls-5" cx="417.8" cy="71.09" rx="16.56" ry="2.22"/><polyline class="cls-5" points="433.63 28.45 486.78 26.64 486.95 31.72 433.23 33.55"/><polyline class="cls-5" points="433.13 34.33 465.49 38.85 464.82 43.89 433.04 39.66"/><polyline class="cls-5" points="403.58 27.02 350.43 25.21 350.25 30.29 403.97 32.13"/><polyline class="cls-5" points="404.08 32.9 371.72 37.43 372.39 42.47 404.17 38.24"/></g><g><path class="cls-5" d="M409.12,159.85l.3-25.93-5.95-14.28v-39.13l7.86-2.54v-2.75c0-2.28,1.85-4.13,4.13-4.13h6.02c2.28,0,4.13,1.85,4.13,4.13v2.75l8.77,2.61v39.32l-6.15,14.03v26.03"/><ellipse class="cls-5" cx="418.67" cy="159.95" rx="9.55" ry="2.9"/></g><polygon class="cls-5" points="479.63 155.4 432.8 155.4 432.8 128.69 479.63 128.69 479.63 125.33 519.62 125.33 519.62 158.77 479.63 158.77 479.63 155.4"/><rect class="cls-5" x="427.9" y="141.25" width="4.9" height="2.82"/><line class="cls-5" x1="441.15" y1="128.69" x2="441.15" y2="155.37"/><line class="cls-5" x1="450.5" y1="128.69" x2="450.5" y2="155.37"/><line class="cls-5" x1="460.77" y1="128.69" x2="460.77" y2="155.37"/><line class="cls-5" x1="470.11" y1="128.69" x2="470.11" y2="155.37"/><line class="cls-5" x1="479.63" y1="128.69" x2="479.63" y2="155.37"/><line class="cls-5" x1="488.97" y1="125.33" x2="488.97" y2="158.77"/><line class="cls-5" x1="499.06" y1="125.68" x2="499.06" y2="159.12"/><line class="cls-5" x1="509.27" y1="125.68" x2="509.27" y2="159.12"/><line class="cls-6" x1="432.8" y1="134.27" x2="519.62" y2="134.27"/><line class="cls-6" x1="432.8" y1="142.03" x2="519.62" y2="142.03"/><line class="cls-6" x1="432.8" y1="149.79" x2="519.62" y2="149.79"/><g><polygon class="cls-5" points="357.07 155.57 403.9 155.57 403.9 128.86 357.07 128.86 357.07 125.49 317.09 125.49 317.09 158.93 357.07 158.93 357.07 155.57"/><rect class="cls-5" x="403.9" y="141.42" width="4.9" height="2.82"/><line class="cls-5" x1="395.55" y1="128.86" x2="395.55" y2="155.54"/><line class="cls-5" x1="386.2" y1="128.86" x2="386.2" y2="155.54"/><line class="cls-5" x1="375.94" y1="128.86" x2="375.94" y2="155.54"/><line class="cls-5" x1="366.59" y1="128.86" x2="366.59" y2="155.54"/><line class="cls-5" x1="357.07" y1="128.86" x2="357.07" y2="155.54"/><line class="cls-5" x1="347.73" y1="125.49" x2="347.73" y2="158.93"/><line class="cls-5" x1="337.64" y1="125.84" x2="337.64" y2="159.28"/><line class="cls-5" x1="327.43" y1="125.84" x2="327.43" y2="159.28"/><line class="cls-6" x1="403.9" y1="134.44" x2="317.09" y2="134.44"/><line class="cls-6" x1="403.9" y1="142.2" x2="317.09" y2="142.2"/><line class="cls-6" x1="403.9" y1="149.95" x2="317.09" y2="149.95"/></g><path class="cls-3" d="M433.88,187.46v95.82h-28.88v-95.82c0-5.83,3.45-10.84,8.41-13.12v-8.85c0-3.32,2.7-6.02,6.03-6.02,1.66,0,3.17,.67,4.25,1.77,1.09,1.08,1.77,2.6,1.77,4.25v8.85c1.56,.72,2.99,1.71,4.18,2.9,2.62,2.62,4.23,6.23,4.23,10.21Z"/><path class="cls-5" d="M438.69,236.4h-5.33s5.33,0,5.33,0Z"/><polyline class="cls-5" points="438.69 236.88 438.69 223.87 460.37 223.87 458.82 239.2 460.37 254.4 438.69 254.4 438.69 239.14 433.36 239.14"/><g><polyline class="cls-5" points="383.53 241.79 384.71 256.95 379.75 257.34 377.3 225.98 382.27 225.59 383.36 239.56"/><rect class="cls-5" x="386.83" y="225.1" width="4.98" height="31.45" transform="translate(-17.55 31.02) rotate(-4.46)"/><rect class="cls-5" x="395.02" y="224.58" width="4.98" height="31.45" transform="translate(-17.49 31.65) rotate(-4.46)"/><polyline class="cls-5" points="386.88 241.53 383.53 241.79 383.36 239.56 386.71 239.3"/><polyline class="cls-5" points="399.85 238.27 404.01 237.95 404.18 240.18 400.02 240.5"/><line class="cls-5" x1="395.06" y1="240.89" x2="391.85" y2="241.14"/><line class="cls-5" x1="394.88" y1="238.66" x2="391.67" y2="238.91"/></g><g><line class="cls-3" x1="411.46" y1="287.61" x2="411.46" y2="283.28"/><line class="cls-3" x1="427.42" y1="287.61" x2="427.42" y2="283.28"/></g><path class="cls-3" d="M400.08,312.14v-10.06s9.13,2.45,9.52-6.38h1.71"/><path class="cls-3" d="M427.27,295.7h1.7c.39,8.83,9.53,6.38,9.53,6.38v11.94"/><path class="cls-3" d="M438.49,346.52v66.05s-6.72-2.17-10.25,3.88l7.05,3.08v13.72"/><polyline class="cls-3" points="435.3 462.06 435.3 468.51 425.44 472.95 425.44 479.88 413.14 479.88 413.14 472.95 403.27 468.51 403.27 462.06"/><rect class="cls-5" x="407.45" y="287.6" width="23.66" height="8.1"/><g><path class="cls-5" d="M366.13,447.65c0,9.56-1.39,17.31-3.1,17.31s-3.1-7.75-3.1-17.31,1.38-17.3,3.1-17.3,3.1,7.75,3.1,17.3Z"/><polyline class="cls-5" points="363.03 430.35 382.66 430.35 392.24 433.24 470.89 433.24 476.02 435.87 476.76 435.87"/><polyline class="cls-5" points="363.03 464.96 384.13 464.95 393.71 462.06 472.36 462.06 476.94 459.71"/><path class="cls-5" d="M501.94,435.87h9.26c3.25,0,6.2,1.32,8.32,3.45s3.46,5.08,3.46,8.33c0,6.5-5.28,11.77-11.78,11.77h-9.26"/></g><ellipse class="cls-5" cx="489.34" cy="447.65" rx="15.81" ry="19.46"/><rect class="cls-5" x="507.05" y="420.8" width="2.13" height="15.07"/><rect class="cls-5" x="502.3" y="420.65" width="2.13" height="15.07"/><rect class="cls-5" x="512.02" y="420.8" width="2.13" height="15.07"/><rect class="cls-5" x="507.05" y="459.65" width="2.13" height="15.07"/><rect class="cls-5" x="502.3" y="459.51" width="2.13" height="15.07"/><rect class="cls-5" x="512.02" y="459.65" width="2.13" height="15.07"/><polyline class="cls-5" points="573.73 358.19 473.44 358.19 461.77 346.52"/><polyline class="cls-5" points="400.08 346.48 399.74 346.72 399.73 346.72 382.58 358.94 288.98 358.94 288.98 370.72 400.08 370.72"/><line class="cls-5" x1="573.81" y1="370.72" x2="438.49" y2="370.72"/><path class="cls-5" d="M426.07,314.03h36.06c8.77,0,15.89,7.12,15.89,15.89v.71c0,8.77-7.12,15.89-15.89,15.89h-51.95v-16.6c0-8.77,7.12-15.89,15.89-15.89Z"/><path class="cls-5" d="M368.03,322.85h17.08l2.84-11.11h10.16c4.44,0,8.04,3.91,8.04,8.74v17.68c0,4.83-3.6,8.74-8.04,8.74h-10.26l-2.72-8.57h-17.11v-15.48Z"/><path class="cls-3" d="M400.08,346.48v66.09s6.71-2.17,10.25,3.88l-7.05,3.08v13.72"/><rect class="cls-5" x="573.81" y="350.98" width="36.46" height="21.92"/><rect class="cls-5" x="614.33" y="350.98" width="73.11" height="21.92"/><rect class="cls-5" x="577.5" y="336.64" width="64.29" height="8.38"/><g><rect class="cls-5" x="584.85" y="159.47" width="22.35" height="177.17"/><rect class="cls-5" x="612.09" y="159.47" width="22.35" height="177.17"/></g><rect class="cls-5" x="575.93" y="151.18" width="67.44" height="8.28"/><rect class="cls-5" x="649.98" y="336.59" width="64.29" height="8.38"/><g><rect class="cls-5" x="657.33" y="159.42" width="22.35" height="177.17"/><rect class="cls-5" x="684.56" y="159.42" width="22.35" height="177.17"/></g><rect class="cls-5" x="648.4" y="151.14" width="67.44" height="8.28"/><rect class="cls-5" x="592" y="345.02" width="3.29" height="5.52"/><rect class="cls-5" x="630.42" y="345.02" width="3.29" height="5.52"/><rect class="cls-5" x="678.49" y="345.02" width="3.29" height="5.52"/><rect class="cls-5" x="577.11" y="379.05" width="64.29" height="8.38"/><g><rect class="cls-5" x="584.46" y="387.42" width="22.35" height="177.17"/><rect class="cls-5" x="611.69" y="387.42" width="22.35" height="177.17"/></g><rect class="cls-5" x="575.53" y="564.59" width="67.44" height="8.28"/><rect class="cls-5" x="649.58" y="379.09" width="64.29" height="8.38"/><g><rect class="cls-5" x="656.93" y="387.47" width="22.35" height="177.17"/><rect class="cls-5" x="684.17" y="387.47" width="22.35" height="177.17"/></g><rect class="cls-5" x="648.01" y="564.64" width="67.44" height="8.28"/><rect class="cls-5" x="591.61" y="373.53" width="3.29" height="5.52"/><rect class="cls-5" x="630.02" y="373.53" width="3.29" height="5.52"/><rect class="cls-5" x="678.1" y="373.53" width="3.29" height="5.52"/><rect class="cls-5" x="244.79" y="351.7" width="36.46" height="21.92" transform="translate(526.04 725.32) rotate(-180)"/><rect class="cls-5" x="167.62" y="351.7" width="73.11" height="21.92" transform="translate(408.36 725.32) rotate(-180)"/><rect class="cls-5" x="213.27" y="337.36" width="64.29" height="8.38" transform="translate(490.84 683.1) rotate(-180)"/><g><rect class="cls-5" x="247.86" y="160.19" width="22.35" height="177.17" transform="translate(518.08 497.55) rotate(-180)"/><rect class="cls-5" x="220.62" y="160.19" width="22.35" height="177.17" transform="translate(463.6 497.55) rotate(-180)"/></g><rect class="cls-5" x="211.7" y="151.91" width="67.44" height="8.28" transform="translate(490.84 312.1) rotate(-180)"/><rect class="cls-5" x="140.8" y="337.31" width="64.29" height="8.38" transform="translate(345.89 683) rotate(-180)"/><g><rect class="cls-5" x="175.39" y="160.14" width="22.35" height="177.17" transform="translate(373.12 497.46) rotate(-180)"/><rect class="cls-5" x="148.15" y="160.14" width="22.35" height="177.17" transform="translate(318.65 497.46) rotate(-180)"/></g><rect class="cls-5" x="139.22" y="151.86" width="67.44" height="8.28" transform="translate(345.89 312) rotate(-180)"/><rect class="cls-5" x="259.77" y="345.74" width="3.29" height="5.52" transform="translate(522.84 696.99) rotate(-180)"/><polyline class="cls-5" points="281.25 363.3 288.98 363.3 288.98 366.58 281.25 366.58"/><polyline class="cls-5" points="244.79 366.58 241.41 366.58 241.41 363.3 244.79 363.3"/><rect class="cls-5" x="221.36" y="345.74" width="3.29" height="5.52" transform="translate(446.01 696.99) rotate(-180)"/><rect class="cls-5" x="173.28" y="345.74" width="3.29" height="5.52" transform="translate(349.86 696.99) rotate(-180)"/><rect class="cls-5" x="213.67" y="379.77" width="64.29" height="8.38" transform="translate(491.63 767.91) rotate(-180)"/><g><rect class="cls-5" x="248.26" y="388.14" width="22.35" height="177.17" transform="translate(518.86 953.46) rotate(-180)"/><rect class="cls-5" x="221.02" y="388.14" width="22.35" height="177.17" transform="translate(464.39 953.46) rotate(-180)"/></g><rect class="cls-5" x="212.09" y="565.31" width="67.44" height="8.28" transform="translate(491.63 1138.91) rotate(-180)"/><rect class="cls-5" x="141.19" y="379.81" width="64.29" height="8.38" transform="translate(346.67 768) rotate(-180)"/><g><rect class="cls-5" x="175.78" y="388.19" width="22.35" height="177.17" transform="translate(373.91 953.55) rotate(-180)"/><rect class="cls-5" x="148.54" y="388.19" width="22.35" height="177.17" transform="translate(319.44 953.55) rotate(-180)"/></g><rect class="cls-5" x="139.62" y="565.36" width="67.44" height="8.28" transform="translate(346.67 1139.01) rotate(-180)"/><rect class="cls-5" x="260.17" y="374.25" width="3.29" height="5.52" transform="translate(523.62 754.02) rotate(-180)"/><rect class="cls-5" x="221.75" y="374.25" width="3.29" height="5.52" transform="translate(446.8 754.02) rotate(-180)"/><rect class="cls-5" x="173.68" y="374.25" width="3.29" height="5.52" transform="translate(350.64 754.02) rotate(-180)"/><polygon class="cls-5" points="510.26 184.39 490.17 184.39 492.43 165.74 512.74 165.74 510.26 184.39"/><polygon class="cls-5" points="538.05 184.39 517.96 184.39 520.22 165.74 540.53 165.74 538.05 184.39"/><polygon class="cls-5" points="564.59 184.39 544.5 184.39 546.76 165.74 567.07 165.74 564.59 184.39"/><g><polygon class="cls-5" points="510.77 187.05 490.68 187.05 492.94 205.7 513.25 205.7 510.77 187.05"/><polygon class="cls-5" points="538.56 187.05 518.47 187.05 520.73 205.7 541.04 205.7 538.56 187.05"/><polygon class="cls-5" points="565.1 187.05 545.01 187.05 547.27 205.7 567.58 205.7 565.1 187.05"/></g><polygon class="cls-5" points="511.14 226.63 491.05 226.63 493.31 207.97 513.62 207.97 511.14 226.63"/><polygon class="cls-5" points="538.93 226.63 518.84 226.63 521.1 207.97 541.41 207.97 538.93 226.63"/><polygon class="cls-5" points="565.47 226.63 545.38 226.63 547.64 207.97 567.95 207.97 565.47 226.63"/><g><polygon class="cls-5" points="511.65 229.28 491.56 229.28 493.82 247.93 514.13 247.93 511.65 229.28"/><polygon class="cls-5" points="539.44 229.28 519.35 229.28 521.61 247.93 541.92 247.93 539.44 229.28"/><polygon class="cls-5" points="565.98 229.28 545.89 229.28 548.15 247.93 568.46 247.93 565.98 229.28"/></g><polygon class="cls-5" points="511.41 311.86 491.33 311.86 493.59 293.21 513.89 293.21 511.41 311.86"/><polygon class="cls-5" points="539.21 311.86 519.12 311.86 521.38 293.21 541.68 293.21 539.21 311.86"/><polygon class="cls-5" points="565.74 311.86 545.65 311.86 547.92 293.21 568.22 293.21 565.74 311.86"/><g><polygon class="cls-5" points="511.93 314.52 491.84 314.52 494.1 333.17 514.4 333.17 511.93 314.52"/><polygon class="cls-5" points="539.72 314.52 519.63 314.52 521.89 333.17 542.19 333.17 539.72 314.52"/><polygon class="cls-5" points="566.25 314.52 546.16 314.52 548.43 333.17 568.73 333.17 566.25 314.52"/></g><polygon class="cls-5" points="511.79 269.24 491.7 269.24 493.96 250.59 514.26 250.59 511.79 269.24"/><polygon class="cls-5" points="539.58 269.24 519.49 269.24 521.75 250.59 542.06 250.59 539.58 269.24"/><polygon class="cls-5" points="566.11 269.24 546.03 269.24 548.29 250.59 568.59 250.59 566.11 269.24"/><g><polygon class="cls-5" points="511.77 271.9 491.68 271.9 493.94 290.55 514.25 290.55 511.77 271.9"/><polygon class="cls-5" points="539.56 271.9 519.47 271.9 521.73 290.55 542.04 290.55 539.56 271.9"/><polygon class="cls-5" points="566.1 271.9 546.01 271.9 548.27 290.55 568.57 290.55 566.1 271.9"/></g><polygon class="cls-5" points="572.19 345.02 493.55 345.02 490.26 337.74 568.59 337.74 572.19 345.02"/><polygon class="cls-5" points="303.14 183.56 283.05 183.56 285.31 164.9 305.61 164.9 303.14 183.56"/><polygon class="cls-5" points="330.93 183.56 310.84 183.56 313.1 164.9 333.4 164.9 330.93 183.56"/><polygon class="cls-5" points="357.46 183.56 337.37 183.56 339.64 164.9 359.94 164.9 357.46 183.56"/><g><polygon class="cls-5" points="303.65 186.21 283.56 186.21 285.82 204.86 306.12 204.86 303.65 186.21"/><polygon class="cls-5" points="331.44 186.21 311.35 186.21 313.61 204.86 333.92 204.86 331.44 186.21"/><polygon class="cls-5" points="357.97 186.21 337.89 186.21 340.15 204.86 360.45 204.86 357.97 186.21"/></g><polygon class="cls-5" points="304.02 225.79 283.93 225.79 286.19 207.14 306.5 207.14 304.02 225.79"/><polygon class="cls-5" points="331.81 225.79 311.72 225.79 313.98 207.14 334.29 207.14 331.81 225.79"/><polygon class="cls-5" points="358.35 225.79 338.26 225.79 340.52 207.14 360.82 207.14 358.35 225.79"/><g><polygon class="cls-5" points="304.53 228.45 284.44 228.45 286.7 247.1 307.01 247.1 304.53 228.45"/><polygon class="cls-5" points="332.32 228.45 312.23 228.45 314.49 247.1 334.8 247.1 332.32 228.45"/><polygon class="cls-5" points="358.86 228.45 338.77 228.45 341.03 247.1 361.33 247.1 358.86 228.45"/></g><polygon class="cls-5" points="304.29 311.03 284.2 311.03 286.46 292.38 306.77 292.38 304.29 311.03"/><polygon class="cls-5" points="332.08 311.03 311.99 311.03 314.25 292.38 334.56 292.38 332.08 311.03"/><polygon class="cls-5" points="358.62 311.03 338.53 311.03 340.79 292.38 361.1 292.38 358.62 311.03"/><g><polygon class="cls-5" points="304.8 313.69 284.71 313.69 286.97 332.34 307.28 332.34 304.8 313.69"/><polygon class="cls-5" points="332.59 313.69 312.5 313.69 314.77 332.34 335.07 332.34 332.59 313.69"/><polygon class="cls-5" points="359.13 313.69 339.04 313.69 341.3 332.34 361.61 332.34 359.13 313.69"/></g><polygon class="cls-5" points="304.66 268.41 284.57 268.41 286.84 249.76 307.14 249.76 304.66 268.41"/><polygon class="cls-5" points="332.45 268.41 312.36 268.41 314.63 249.76 334.93 249.76 332.45 268.41"/><polygon class="cls-5" points="358.99 268.41 338.9 268.41 341.16 249.76 361.47 249.76 358.99 268.41"/><g><polygon class="cls-5" points="304.64 271.07 284.56 271.07 286.82 289.72 307.12 289.72 304.64 271.07"/><polygon class="cls-5" points="332.44 271.07 312.35 271.07 314.61 289.72 334.91 289.72 332.44 271.07"/><polygon class="cls-5" points="358.97 271.07 338.88 271.07 341.14 289.72 361.45 289.72 358.97 271.07"/></g><polygon class="cls-5" points="365.06 344.18 286.42 344.18 283.14 336.9 361.47 336.9 365.06 344.18"/><g><polygon class="cls-5" points="399.49 719.18 411.57 719.18 411.57 735.97 408.82 739.05 402.24 739.05 399.49 736.24 399.49 719.18"/><rect class="cls-5" x="378.74" y="722.07" width="18.63" height="8.42"/><polyline class="cls-5" points="397.37 727.65 399.55 727.65 399.55 725.5 397.37 725.5"/><rect class="cls-5" x="363.83" y="771.61" width="32.03" height="13.26"/><polyline class="cls-5" points="395.86 779.45 398.04 779.45 398.04 777.3 395.86 777.3"/><rect class="cls-5" x="415.4" y="771.78" width="32.03" height="13.26" transform="translate(862.83 1556.82) rotate(-180)"/><polyline class="cls-5" points="415.4 777.46 413.21 777.46 413.21 779.61 415.4 779.61"/><rect class="cls-5" x="413.98" y="722.07" width="18.63" height="8.42" transform="translate(846.59 1452.55) rotate(-180)"/><polyline class="cls-5" points="413.98 725.5 411.8 725.5 411.8 727.65 413.98 727.65"/><rect class="cls-5" x="378.74" y="837.25" width="18.63" height="8.42"/><polyline class="cls-5" points="397.37 842.83 399.55 842.83 399.55 840.68 397.37 840.68"/><rect class="cls-5" x="413.98" y="837.25" width="18.63" height="8.42" transform="translate(846.59 1682.91) rotate(-180)"/><polyline class="cls-5" points="413.98 840.68 411.8 840.68 411.8 842.83 413.98 842.83"/><rect class="cls-5" x="398.91" y="739.18" width="13.24" height="8.44"/><rect class="cls-5" x="401.79" y="747.62" width="7.34" height="16.26"/><polyline class="cls-5" points="409.12 752.25 414.42 752.25 418.51 747.62 436.32 747.62 440.16 749.92 471.53 749.92 471.53 761.54 440.33 761.54 436.27 763.87 418.39 763.87 414.42 759.28 409.12 759.28"/><polyline class="cls-5" points="401.96 752.21 396.66 752.21 392.58 747.57 374.76 747.57 370.92 749.87 339.55 749.87 339.55 761.5 370.75 761.5 374.81 763.82 392.69 763.82 396.66 759.23 401.96 759.23"/><circle class="cls-5" cx="405.54" cy="755.7" r="3.38"/><polyline class="cls-4" points="401.79 763.88 398.58 767.89 398.58 785.09 396.81 788.22 396.81 810.9 401.44 813.8 401.44 814.97 397.73 818.68 397.73 833.46 400.24 835.96 400.24 847.56 411.01 847.56 411.01 836.22 413.3 833.68 413.75 818.41 409.81 814.97 409.81 813.8 414.44 810.9 414.44 788.22 412.67 785.09 412.67 767.89 409.12 763.88"/></g><text class="cls-7" transform="translate(328.07 573.94)"><tspan x="0" y="0">Estación Espacial Internacional</tspan></text><text class="cls-7" transform="translate(317.52 893.21)"><tspan x="0" y="0">Estación Espacial</tspan><tspan class="cls-2" x="112.98" y="0"> </tspan><tspan class="cls-1" x="116.71" y="0">T</tspan><tspan x="124.93" y="0">iangong</tspan></text></svg>